<?xml version="1.0" encoding="utf-8" standalone="no"?>
<!DOCTYPE svg PUBLIC "-//W3C//DTD SVG 1.1//EN"
  "http://www.w3.org/Graphics/SVG/1.1/DTD/svg11.dtd">
<svg xmlns:xlink="http://www.w3.org/1999/xlink" width="1080pt" height="288pt" viewBox="0 0 1080 288" xmlns="http://www.w3.org/2000/svg" version="1.1">
 <metadata>
  <rdf:RDF xmlns:dc="http://purl.org/dc/elements/1.1/" xmlns:cc="http://creativecommons.org/ns#" xmlns:rdf="http://www.w3.org/1999/02/22-rdf-syntax-ns#">
   <cc:Work>
    <dc:type rdf:resource="http://purl.org/dc/dcmitype/StillImage"/>
    <dc:date>2022-11-07T19:58:15.704370</dc:date>
    <dc:format>image/svg+xml</dc:format>
    <dc:creator>
     <cc:Agent>
      <dc:title>Matplotlib v3.5.1, https://matplotlib.org/</dc:title>
     </cc:Agent>
    </dc:creator>
   </cc:Work>
  </rdf:RDF>
 </metadata>
 <defs>
  <style type="text/css">*{stroke-linejoin: round; stroke-linecap: butt}</style>
 </defs>
 <g id="figure_1">
  <g id="patch_1">
   <path d="M 0 288 
L 1080 288 
L 1080 0 
L 0 0 
z
" style="fill: #f0f0f0"/>
  </g>
  <g id="axes_1">
   <g id="patch_2">
    <path d="M 40.745 255.833125 
L 1037.0425 255.833125 
L 1037.0425 44.24 
L 40.745 44.24 
z
" style="fill: #f0f0f0"/>
   </g>
   <g id="matplotlib.axis_1">
    <g id="xtick_1">
     <g id="text_1">
      <!--  Tax rate (A) -->
      <g style="fill: #262626" transform="translate(73.162344 270.840781)scale(0.11 -0.11)">
       <defs>
        <path id="ArialMT-20" transform="scale(0.015625)"/>
        <path id="ArialMT-54" d="M 1659 0 
L 1659 4041 
L 150 4041 
L 150 4581 
L 3781 4581 
L 3781 4041 
L 2266 4041 
L 2266 0 
L 1659 0 
z
" transform="scale(0.015625)"/>
        <path id="ArialMT-61" d="M 2588 409 
Q 2275 144 1986 34 
Q 1697 -75 1366 -75 
Q 819 -75 525 192 
Q 231 459 231 875 
Q 231 1119 342 1320 
Q 453 1522 633 1644 
Q 813 1766 1038 1828 
Q 1203 1872 1538 1913 
Q 2219 1994 2541 2106 
Q 2544 2222 2544 2253 
Q 2544 2597 2384 2738 
Q 2169 2928 1744 2928 
Q 1347 2928 1158 2789 
Q 969 2650 878 2297 
L 328 2372 
Q 403 2725 575 2942 
Q 747 3159 1072 3276 
Q 1397 3394 1825 3394 
Q 2250 3394 2515 3294 
Q 2781 3194 2906 3042 
Q 3031 2891 3081 2659 
Q 3109 2516 3109 2141 
L 3109 1391 
Q 3109 606 3145 398 
Q 3181 191 3288 0 
L 2700 0 
Q 2613 175 2588 409 
z
M 2541 1666 
Q 2234 1541 1622 1453 
Q 1275 1403 1131 1340 
Q 988 1278 909 1158 
Q 831 1038 831 891 
Q 831 666 1001 516 
Q 1172 366 1500 366 
Q 1825 366 2078 508 
Q 2331 650 2450 897 
Q 2541 1088 2541 1459 
L 2541 1666 
z
" transform="scale(0.015625)"/>
        <path id="ArialMT-78" d="M 47 0 
L 1259 1725 
L 138 3319 
L 841 3319 
L 1350 2541 
Q 1494 2319 1581 2169 
Q 1719 2375 1834 2534 
L 2394 3319 
L 3066 3319 
L 1919 1756 
L 3153 0 
L 2463 0 
L 1781 1031 
L 1600 1309 
L 728 0 
L 47 0 
z
" transform="scale(0.015625)"/>
        <path id="ArialMT-72" d="M 416 0 
L 416 3319 
L 922 3319 
L 922 2816 
Q 1116 3169 1280 3281 
Q 1444 3394 1641 3394 
Q 1925 3394 2219 3213 
L 2025 2691 
Q 1819 2813 1613 2813 
Q 1428 2813 1281 2702 
Q 1134 2591 1072 2394 
Q 978 2094 978 1738 
L 978 0 
L 416 0 
z
" transform="scale(0.015625)"/>
        <path id="ArialMT-74" d="M 1650 503 
L 1731 6 
Q 1494 -44 1306 -44 
Q 1000 -44 831 53 
Q 663 150 594 308 
Q 525 466 525 972 
L 525 2881 
L 113 2881 
L 113 3319 
L 525 3319 
L 525 4141 
L 1084 4478 
L 1084 3319 
L 1650 3319 
L 1650 2881 
L 1084 2881 
L 1084 941 
Q 1084 700 1114 631 
Q 1144 563 1211 522 
Q 1278 481 1403 481 
Q 1497 481 1650 503 
z
" transform="scale(0.015625)"/>
        <path id="ArialMT-65" d="M 2694 1069 
L 3275 997 
Q 3138 488 2766 206 
Q 2394 -75 1816 -75 
Q 1088 -75 661 373 
Q 234 822 234 1631 
Q 234 2469 665 2931 
Q 1097 3394 1784 3394 
Q 2450 3394 2872 2941 
Q 3294 2488 3294 1666 
Q 3294 1616 3291 1516 
L 816 1516 
Q 847 969 1125 678 
Q 1403 388 1819 388 
Q 2128 388 2347 550 
Q 2566 713 2694 1069 
z
M 847 1978 
L 2700 1978 
Q 2663 2397 2488 2606 
Q 2219 2931 1791 2931 
Q 1403 2931 1139 2672 
Q 875 2413 847 1978 
z
" transform="scale(0.015625)"/>
        <path id="ArialMT-28" d="M 1497 -1347 
Q 1031 -759 709 28 
Q 388 816 388 1659 
Q 388 2403 628 3084 
Q 909 3875 1497 4659 
L 1900 4659 
Q 1522 4009 1400 3731 
Q 1209 3300 1100 2831 
Q 966 2247 966 1656 
Q 966 153 1900 -1347 
L 1497 -1347 
z
" transform="scale(0.015625)"/>
        <path id="ArialMT-41" d="M -9 0 
L 1750 4581 
L 2403 4581 
L 4278 0 
L 3588 0 
L 3053 1388 
L 1138 1388 
L 634 0 
L -9 0 
z
M 1313 1881 
L 2866 1881 
L 2388 3150 
Q 2169 3728 2063 4100 
Q 1975 3659 1816 3225 
L 1313 1881 
z
" transform="scale(0.015625)"/>
        <path id="ArialMT-29" d="M 791 -1347 
L 388 -1347 
Q 1322 153 1322 1656 
Q 1322 2244 1188 2822 
Q 1081 3291 891 3722 
Q 769 4003 388 4659 
L 791 4659 
Q 1378 3875 1659 3084 
Q 1900 2403 1900 1659 
Q 1900 816 1576 28 
Q 1253 -759 791 -1347 
z
" transform="scale(0.015625)"/>
       </defs>
       <use xlink:href="#ArialMT-20"/>
       <use xlink:href="#ArialMT-54" x="26.033203"/>
       <use xlink:href="#ArialMT-61" x="75.992188"/>
       <use xlink:href="#ArialMT-78" x="131.607422"/>
       <use xlink:href="#ArialMT-20" x="181.607422"/>
       <use xlink:href="#ArialMT-72" x="209.390625"/>
       <use xlink:href="#ArialMT-61" x="242.691406"/>
       <use xlink:href="#ArialMT-74" x="298.306641"/>
       <use xlink:href="#ArialMT-65" x="326.089844"/>
       <use xlink:href="#ArialMT-20" x="381.705078"/>
       <use xlink:href="#ArialMT-28" x="409.488281"/>
       <use xlink:href="#ArialMT-41" x="442.789062"/>
       <use xlink:href="#ArialMT-29" x="509.488281"/>
      </g>
     </g>
    </g>
    <g id="xtick_2">
     <g id="text_2">
      <!--  Net Value Per Share (B) -->
      <g style="fill: #262626" transform="translate(167.126406 270.840781)scale(0.11 -0.11)">
       <defs>
        <path id="ArialMT-4e" d="M 488 0 
L 488 4581 
L 1109 4581 
L 3516 984 
L 3516 4581 
L 4097 4581 
L 4097 0 
L 3475 0 
L 1069 3600 
L 1069 0 
L 488 0 
z
" transform="scale(0.015625)"/>
        <path id="ArialMT-56" d="M 1803 0 
L 28 4581 
L 684 4581 
L 1875 1253 
Q 2019 853 2116 503 
Q 2222 878 2363 1253 
L 3600 4581 
L 4219 4581 
L 2425 0 
L 1803 0 
z
" transform="scale(0.015625)"/>
        <path id="ArialMT-6c" d="M 409 0 
L 409 4581 
L 972 4581 
L 972 0 
L 409 0 
z
" transform="scale(0.015625)"/>
        <path id="ArialMT-75" d="M 2597 0 
L 2597 488 
Q 2209 -75 1544 -75 
Q 1250 -75 995 37 
Q 741 150 617 320 
Q 494 491 444 738 
Q 409 903 409 1263 
L 409 3319 
L 972 3319 
L 972 1478 
Q 972 1038 1006 884 
Q 1059 663 1231 536 
Q 1403 409 1656 409 
Q 1909 409 2131 539 
Q 2353 669 2445 892 
Q 2538 1116 2538 1541 
L 2538 3319 
L 3100 3319 
L 3100 0 
L 2597 0 
z
" transform="scale(0.015625)"/>
        <path id="ArialMT-50" d="M 494 0 
L 494 4581 
L 2222 4581 
Q 2678 4581 2919 4538 
Q 3256 4481 3484 4323 
Q 3713 4166 3852 3881 
Q 3991 3597 3991 3256 
Q 3991 2672 3619 2267 
Q 3247 1863 2275 1863 
L 1100 1863 
L 1100 0 
L 494 0 
z
M 1100 2403 
L 2284 2403 
Q 2872 2403 3119 2622 
Q 3366 2841 3366 3238 
Q 3366 3525 3220 3729 
Q 3075 3934 2838 4000 
Q 2684 4041 2272 4041 
L 1100 4041 
L 1100 2403 
z
" transform="scale(0.015625)"/>
        <path id="ArialMT-53" d="M 288 1472 
L 859 1522 
Q 900 1178 1048 958 
Q 1197 738 1509 602 
Q 1822 466 2213 466 
Q 2559 466 2825 569 
Q 3091 672 3220 851 
Q 3350 1031 3350 1244 
Q 3350 1459 3225 1620 
Q 3100 1781 2813 1891 
Q 2628 1963 1997 2114 
Q 1366 2266 1113 2400 
Q 784 2572 623 2826 
Q 463 3081 463 3397 
Q 463 3744 659 4045 
Q 856 4347 1234 4503 
Q 1613 4659 2075 4659 
Q 2584 4659 2973 4495 
Q 3363 4331 3572 4012 
Q 3781 3694 3797 3291 
L 3216 3247 
Q 3169 3681 2898 3903 
Q 2628 4125 2100 4125 
Q 1550 4125 1298 3923 
Q 1047 3722 1047 3438 
Q 1047 3191 1225 3031 
Q 1400 2872 2139 2705 
Q 2878 2538 3153 2413 
Q 3553 2228 3743 1945 
Q 3934 1663 3934 1294 
Q 3934 928 3725 604 
Q 3516 281 3123 101 
Q 2731 -78 2241 -78 
Q 1619 -78 1198 103 
Q 778 284 539 648 
Q 300 1013 288 1472 
z
" transform="scale(0.015625)"/>
        <path id="ArialMT-68" d="M 422 0 
L 422 4581 
L 984 4581 
L 984 2938 
Q 1378 3394 1978 3394 
Q 2347 3394 2619 3248 
Q 2891 3103 3008 2847 
Q 3125 2591 3125 2103 
L 3125 0 
L 2563 0 
L 2563 2103 
Q 2563 2525 2380 2717 
Q 2197 2909 1863 2909 
Q 1613 2909 1392 2779 
Q 1172 2650 1078 2428 
Q 984 2206 984 1816 
L 984 0 
L 422 0 
z
" transform="scale(0.015625)"/>
        <path id="ArialMT-42" d="M 469 0 
L 469 4581 
L 2188 4581 
Q 2713 4581 3030 4442 
Q 3347 4303 3526 4014 
Q 3706 3725 3706 3409 
Q 3706 3116 3547 2856 
Q 3388 2597 3066 2438 
Q 3481 2316 3704 2022 
Q 3928 1728 3928 1328 
Q 3928 1006 3792 729 
Q 3656 453 3456 303 
Q 3256 153 2954 76 
Q 2653 0 2216 0 
L 469 0 
z
M 1075 2656 
L 2066 2656 
Q 2469 2656 2644 2709 
Q 2875 2778 2992 2937 
Q 3109 3097 3109 3338 
Q 3109 3566 3000 3739 
Q 2891 3913 2687 3977 
Q 2484 4041 1991 4041 
L 1075 4041 
L 1075 2656 
z
M 1075 541 
L 2216 541 
Q 2509 541 2628 563 
Q 2838 600 2978 687 
Q 3119 775 3209 942 
Q 3300 1109 3300 1328 
Q 3300 1584 3169 1773 
Q 3038 1963 2805 2039 
Q 2572 2116 2134 2116 
L 1075 2116 
L 1075 541 
z
" transform="scale(0.015625)"/>
       </defs>
       <use xlink:href="#ArialMT-20"/>
       <use xlink:href="#ArialMT-4e" x="27.783203"/>
       <use xlink:href="#ArialMT-65" x="100"/>
       <use xlink:href="#ArialMT-74" x="155.615234"/>
       <use xlink:href="#ArialMT-20" x="183.398438"/>
       <use xlink:href="#ArialMT-56" x="211.181641"/>
       <use xlink:href="#ArialMT-61" x="270.505859"/>
       <use xlink:href="#ArialMT-6c" x="326.121094"/>
       <use xlink:href="#ArialMT-75" x="348.337891"/>
       <use xlink:href="#ArialMT-65" x="403.953125"/>
       <use xlink:href="#ArialMT-20" x="459.568359"/>
       <use xlink:href="#ArialMT-50" x="487.351562"/>
       <use xlink:href="#ArialMT-65" x="554.050781"/>
       <use xlink:href="#ArialMT-72" x="609.666016"/>
       <use xlink:href="#ArialMT-20" x="642.966797"/>
       <use xlink:href="#ArialMT-53" x="670.75"/>
       <use xlink:href="#ArialMT-68" x="737.449219"/>
       <use xlink:href="#ArialMT-61" x="793.064453"/>
       <use xlink:href="#ArialMT-72" x="848.679688"/>
       <use xlink:href="#ArialMT-65" x="881.980469"/>
       <use xlink:href="#ArialMT-20" x="937.595703"/>
       <use xlink:href="#ArialMT-28" x="965.378906"/>
       <use xlink:href="#ArialMT-42" x="998.679688"/>
       <use xlink:href="#ArialMT-29" x="1065.378906"/>
      </g>
     </g>
    </g>
    <g id="xtick_3">
     <g id="text_3">
      <!--  Cash Flow Per Share -->
      <g style="fill: #262626" transform="translate(298.291094 270.706719)scale(0.11 -0.11)">
       <defs>
        <path id="ArialMT-43" d="M 3763 1606 
L 4369 1453 
Q 4178 706 3683 314 
Q 3188 -78 2472 -78 
Q 1731 -78 1267 223 
Q 803 525 561 1097 
Q 319 1669 319 2325 
Q 319 3041 592 3573 
Q 866 4106 1370 4382 
Q 1875 4659 2481 4659 
Q 3169 4659 3637 4309 
Q 4106 3959 4291 3325 
L 3694 3184 
Q 3534 3684 3231 3912 
Q 2928 4141 2469 4141 
Q 1941 4141 1586 3887 
Q 1231 3634 1087 3207 
Q 944 2781 944 2328 
Q 944 1744 1114 1308 
Q 1284 872 1643 656 
Q 2003 441 2422 441 
Q 2931 441 3284 734 
Q 3638 1028 3763 1606 
z
" transform="scale(0.015625)"/>
        <path id="ArialMT-73" d="M 197 991 
L 753 1078 
Q 800 744 1014 566 
Q 1228 388 1613 388 
Q 2000 388 2187 545 
Q 2375 703 2375 916 
Q 2375 1106 2209 1216 
Q 2094 1291 1634 1406 
Q 1016 1563 777 1677 
Q 538 1791 414 1992 
Q 291 2194 291 2438 
Q 291 2659 392 2848 
Q 494 3038 669 3163 
Q 800 3259 1026 3326 
Q 1253 3394 1513 3394 
Q 1903 3394 2198 3281 
Q 2494 3169 2634 2976 
Q 2775 2784 2828 2463 
L 2278 2388 
Q 2241 2644 2061 2787 
Q 1881 2931 1553 2931 
Q 1166 2931 1000 2803 
Q 834 2675 834 2503 
Q 834 2394 903 2306 
Q 972 2216 1119 2156 
Q 1203 2125 1616 2013 
Q 2213 1853 2448 1751 
Q 2684 1650 2818 1456 
Q 2953 1263 2953 975 
Q 2953 694 2789 445 
Q 2625 197 2315 61 
Q 2006 -75 1616 -75 
Q 969 -75 630 194 
Q 291 463 197 991 
z
" transform="scale(0.015625)"/>
        <path id="ArialMT-46" d="M 525 0 
L 525 4581 
L 3616 4581 
L 3616 4041 
L 1131 4041 
L 1131 2622 
L 3281 2622 
L 3281 2081 
L 1131 2081 
L 1131 0 
L 525 0 
z
" transform="scale(0.015625)"/>
        <path id="ArialMT-6f" d="M 213 1659 
Q 213 2581 725 3025 
Q 1153 3394 1769 3394 
Q 2453 3394 2887 2945 
Q 3322 2497 3322 1706 
Q 3322 1066 3130 698 
Q 2938 331 2570 128 
Q 2203 -75 1769 -75 
Q 1072 -75 642 372 
Q 213 819 213 1659 
z
M 791 1659 
Q 791 1022 1069 705 
Q 1347 388 1769 388 
Q 2188 388 2466 706 
Q 2744 1025 2744 1678 
Q 2744 2294 2464 2611 
Q 2184 2928 1769 2928 
Q 1347 2928 1069 2612 
Q 791 2297 791 1659 
z
" transform="scale(0.015625)"/>
        <path id="ArialMT-77" d="M 1034 0 
L 19 3319 
L 600 3319 
L 1128 1403 
L 1325 691 
Q 1338 744 1497 1375 
L 2025 3319 
L 2603 3319 
L 3100 1394 
L 3266 759 
L 3456 1400 
L 4025 3319 
L 4572 3319 
L 3534 0 
L 2950 0 
L 2422 1988 
L 2294 2553 
L 1622 0 
L 1034 0 
z
" transform="scale(0.015625)"/>
       </defs>
       <use xlink:href="#ArialMT-20"/>
       <use xlink:href="#ArialMT-43" x="27.783203"/>
       <use xlink:href="#ArialMT-61" x="100"/>
       <use xlink:href="#ArialMT-73" x="155.615234"/>
       <use xlink:href="#ArialMT-68" x="205.615234"/>
       <use xlink:href="#ArialMT-20" x="261.230469"/>
       <use xlink:href="#ArialMT-46" x="289.013672"/>
       <use xlink:href="#ArialMT-6c" x="350.097656"/>
       <use xlink:href="#ArialMT-6f" x="372.314453"/>
       <use xlink:href="#ArialMT-77" x="427.929688"/>
       <use xlink:href="#ArialMT-20" x="500.146484"/>
       <use xlink:href="#ArialMT-50" x="527.929688"/>
       <use xlink:href="#ArialMT-65" x="594.628906"/>
       <use xlink:href="#ArialMT-72" x="650.244141"/>
       <use xlink:href="#ArialMT-20" x="683.544922"/>
       <use xlink:href="#ArialMT-53" x="711.328125"/>
       <use xlink:href="#ArialMT-68" x="778.027344"/>
       <use xlink:href="#ArialMT-61" x="833.642578"/>
       <use xlink:href="#ArialMT-72" x="889.257812"/>
       <use xlink:href="#ArialMT-65" x="922.558594"/>
      </g>
     </g>
    </g>
    <g id="xtick_4">
     <g id="text_4">
      <!--  Revenue Per Share (Yuan ¥) -->
      <g style="fill: #262626" transform="translate(404.47375 270.840781)scale(0.11 -0.11)">
       <defs>
        <path id="ArialMT-52" d="M 503 0 
L 503 4581 
L 2534 4581 
Q 3147 4581 3465 4457 
Q 3784 4334 3975 4021 
Q 4166 3709 4166 3331 
Q 4166 2844 3850 2509 
Q 3534 2175 2875 2084 
Q 3116 1969 3241 1856 
Q 3506 1613 3744 1247 
L 4541 0 
L 3778 0 
L 3172 953 
Q 2906 1366 2734 1584 
Q 2563 1803 2427 1890 
Q 2291 1978 2150 2013 
Q 2047 2034 1813 2034 
L 1109 2034 
L 1109 0 
L 503 0 
z
M 1109 2559 
L 2413 2559 
Q 2828 2559 3062 2645 
Q 3297 2731 3419 2920 
Q 3541 3109 3541 3331 
Q 3541 3656 3305 3865 
Q 3069 4075 2559 4075 
L 1109 4075 
L 1109 2559 
z
" transform="scale(0.015625)"/>
        <path id="ArialMT-76" d="M 1344 0 
L 81 3319 
L 675 3319 
L 1388 1331 
Q 1503 1009 1600 663 
Q 1675 925 1809 1294 
L 2547 3319 
L 3125 3319 
L 1869 0 
L 1344 0 
z
" transform="scale(0.015625)"/>
        <path id="ArialMT-6e" d="M 422 0 
L 422 3319 
L 928 3319 
L 928 2847 
Q 1294 3394 1984 3394 
Q 2284 3394 2536 3286 
Q 2788 3178 2913 3003 
Q 3038 2828 3088 2588 
Q 3119 2431 3119 2041 
L 3119 0 
L 2556 0 
L 2556 2019 
Q 2556 2363 2490 2533 
Q 2425 2703 2258 2804 
Q 2091 2906 1866 2906 
Q 1506 2906 1245 2678 
Q 984 2450 984 1813 
L 984 0 
L 422 0 
z
" transform="scale(0.015625)"/>
        <path id="ArialMT-59" d="M 1784 0 
L 1784 1941 
L 19 4581 
L 756 4581 
L 1659 3200 
Q 1909 2813 2125 2425 
Q 2331 2784 2625 3234 
L 3513 4581 
L 4219 4581 
L 2391 1941 
L 2391 0 
L 1784 0 
z
" transform="scale(0.015625)"/>
        <path id="ArialMT-a5" d="M 1491 0 
L 1491 1016 
L 194 1016 
L 194 1450 
L 1491 1450 
L 1491 1897 
L 194 1897 
L 194 2359 
L 1259 2359 
L -9 4581 
L 616 4581 
L 1522 2969 
Q 1675 2694 1759 2488 
Q 1831 2653 2016 2997 
L 2872 4581 
L 3541 4581 
L 2275 2359 
L 3341 2359 
L 3341 1897 
L 2053 1897 
L 2053 1450 
L 3341 1450 
L 3341 1016 
L 2053 1016 
L 2053 0 
L 1491 0 
z
" transform="scale(0.015625)"/>
       </defs>
       <use xlink:href="#ArialMT-20"/>
       <use xlink:href="#ArialMT-52" x="27.783203"/>
       <use xlink:href="#ArialMT-65" x="100"/>
       <use xlink:href="#ArialMT-76" x="155.615234"/>
       <use xlink:href="#ArialMT-65" x="205.615234"/>
       <use xlink:href="#ArialMT-6e" x="261.230469"/>
       <use xlink:href="#ArialMT-75" x="316.845703"/>
       <use xlink:href="#ArialMT-65" x="372.460938"/>
       <use xlink:href="#ArialMT-20" x="428.076172"/>
       <use xlink:href="#ArialMT-50" x="455.859375"/>
       <use xlink:href="#ArialMT-65" x="522.558594"/>
       <use xlink:href="#ArialMT-72" x="578.173828"/>
       <use xlink:href="#ArialMT-20" x="611.474609"/>
       <use xlink:href="#ArialMT-53" x="639.257812"/>
       <use xlink:href="#ArialMT-68" x="705.957031"/>
       <use xlink:href="#ArialMT-61" x="761.572266"/>
       <use xlink:href="#ArialMT-72" x="817.1875"/>
       <use xlink:href="#ArialMT-65" x="850.488281"/>
       <use xlink:href="#ArialMT-20" x="906.103516"/>
       <use xlink:href="#ArialMT-28" x="933.886719"/>
       <use xlink:href="#ArialMT-59" x="967.1875"/>
       <use xlink:href="#ArialMT-75" x="1028.386719"/>
       <use xlink:href="#ArialMT-61" x="1084.001953"/>
       <use xlink:href="#ArialMT-6e" x="1139.617188"/>
       <use xlink:href="#ArialMT-20" x="1195.232422"/>
       <use xlink:href="#ArialMT-a5" x="1223.015625"/>
       <use xlink:href="#ArialMT-29" x="1278.630859"/>
      </g>
     </g>
    </g>
    <g id="xtick_5">
     <g id="text_5">
      <!--  Realized Sales Gross Profit Growth Rate -->
      <g style="fill: #262626" transform="translate(499.988984 270.706719)scale(0.11 -0.11)">
       <defs>
        <path id="ArialMT-69" d="M 425 3934 
L 425 4581 
L 988 4581 
L 988 3934 
L 425 3934 
z
M 425 0 
L 425 3319 
L 988 3319 
L 988 0 
L 425 0 
z
" transform="scale(0.015625)"/>
        <path id="ArialMT-7a" d="M 125 0 
L 125 456 
L 2238 2881 
Q 1878 2863 1603 2863 
L 250 2863 
L 250 3319 
L 2963 3319 
L 2963 2947 
L 1166 841 
L 819 456 
Q 1197 484 1528 484 
L 3063 484 
L 3063 0 
L 125 0 
z
" transform="scale(0.015625)"/>
        <path id="ArialMT-64" d="M 2575 0 
L 2575 419 
Q 2259 -75 1647 -75 
Q 1250 -75 917 144 
Q 584 363 401 755 
Q 219 1147 219 1656 
Q 219 2153 384 2558 
Q 550 2963 881 3178 
Q 1213 3394 1622 3394 
Q 1922 3394 2156 3267 
Q 2391 3141 2538 2938 
L 2538 4581 
L 3097 4581 
L 3097 0 
L 2575 0 
z
M 797 1656 
Q 797 1019 1065 703 
Q 1334 388 1700 388 
Q 2069 388 2326 689 
Q 2584 991 2584 1609 
Q 2584 2291 2321 2609 
Q 2059 2928 1675 2928 
Q 1300 2928 1048 2622 
Q 797 2316 797 1656 
z
" transform="scale(0.015625)"/>
        <path id="ArialMT-47" d="M 2638 1797 
L 2638 2334 
L 4578 2338 
L 4578 638 
Q 4131 281 3656 101 
Q 3181 -78 2681 -78 
Q 2006 -78 1454 211 
Q 903 500 622 1047 
Q 341 1594 341 2269 
Q 341 2938 620 3517 
Q 900 4097 1425 4378 
Q 1950 4659 2634 4659 
Q 3131 4659 3532 4498 
Q 3934 4338 4162 4050 
Q 4391 3763 4509 3300 
L 3963 3150 
Q 3859 3500 3706 3700 
Q 3553 3900 3268 4020 
Q 2984 4141 2638 4141 
Q 2222 4141 1919 4014 
Q 1616 3888 1430 3681 
Q 1244 3475 1141 3228 
Q 966 2803 966 2306 
Q 966 1694 1177 1281 
Q 1388 869 1791 669 
Q 2194 469 2647 469 
Q 3041 469 3416 620 
Q 3791 772 3984 944 
L 3984 1797 
L 2638 1797 
z
" transform="scale(0.015625)"/>
        <path id="ArialMT-66" d="M 556 0 
L 556 2881 
L 59 2881 
L 59 3319 
L 556 3319 
L 556 3672 
Q 556 4006 616 4169 
Q 697 4388 901 4523 
Q 1106 4659 1475 4659 
Q 1713 4659 2000 4603 
L 1916 4113 
Q 1741 4144 1584 4144 
Q 1328 4144 1222 4034 
Q 1116 3925 1116 3625 
L 1116 3319 
L 1763 3319 
L 1763 2881 
L 1116 2881 
L 1116 0 
L 556 0 
z
" transform="scale(0.015625)"/>
       </defs>
       <use xlink:href="#ArialMT-20"/>
       <use xlink:href="#ArialMT-52" x="27.783203"/>
       <use xlink:href="#ArialMT-65" x="100"/>
       <use xlink:href="#ArialMT-61" x="155.615234"/>
       <use xlink:href="#ArialMT-6c" x="211.230469"/>
       <use xlink:href="#ArialMT-69" x="233.447266"/>
       <use xlink:href="#ArialMT-7a" x="255.664062"/>
       <use xlink:href="#ArialMT-65" x="305.664062"/>
       <use xlink:href="#ArialMT-64" x="361.279297"/>
       <use xlink:href="#ArialMT-20" x="416.894531"/>
       <use xlink:href="#ArialMT-53" x="444.677734"/>
       <use xlink:href="#ArialMT-61" x="511.376953"/>
       <use xlink:href="#ArialMT-6c" x="566.992188"/>
       <use xlink:href="#ArialMT-65" x="589.208984"/>
       <use xlink:href="#ArialMT-73" x="644.824219"/>
       <use xlink:href="#ArialMT-20" x="694.824219"/>
       <use xlink:href="#ArialMT-47" x="722.607422"/>
       <use xlink:href="#ArialMT-72" x="800.390625"/>
       <use xlink:href="#ArialMT-6f" x="833.691406"/>
       <use xlink:href="#ArialMT-73" x="889.306641"/>
       <use xlink:href="#ArialMT-73" x="939.306641"/>
       <use xlink:href="#ArialMT-20" x="989.306641"/>
       <use xlink:href="#ArialMT-50" x="1017.089844"/>
       <use xlink:href="#ArialMT-72" x="1083.789062"/>
       <use xlink:href="#ArialMT-6f" x="1117.089844"/>
       <use xlink:href="#ArialMT-66" x="1172.705078"/>
       <use xlink:href="#ArialMT-69" x="1200.488281"/>
       <use xlink:href="#ArialMT-74" x="1222.705078"/>
       <use xlink:href="#ArialMT-20" x="1250.488281"/>
       <use xlink:href="#ArialMT-47" x="1278.271484"/>
       <use xlink:href="#ArialMT-72" x="1356.054688"/>
       <use xlink:href="#ArialMT-6f" x="1389.355469"/>
       <use xlink:href="#ArialMT-77" x="1444.970703"/>
       <use xlink:href="#ArialMT-74" x="1517.1875"/>
       <use xlink:href="#ArialMT-68" x="1544.970703"/>
       <use xlink:href="#ArialMT-20" x="1600.585938"/>
       <use xlink:href="#ArialMT-52" x="1628.369141"/>
       <use xlink:href="#ArialMT-61" x="1700.585938"/>
       <use xlink:href="#ArialMT-74" x="1756.201172"/>
       <use xlink:href="#ArialMT-65" x="1783.984375"/>
      </g>
     </g>
    </g>
    <g id="xtick_6">
     <g id="text_6">
      <!--  Operating Profit Growth Rate -->
      <g style="fill: #262626" transform="translate(653.255937 270.847656)scale(0.11 -0.11)">
       <defs>
        <path id="ArialMT-4f" d="M 309 2231 
Q 309 3372 921 4017 
Q 1534 4663 2503 4663 
Q 3138 4663 3647 4359 
Q 4156 4056 4423 3514 
Q 4691 2972 4691 2284 
Q 4691 1588 4409 1038 
Q 4128 488 3612 205 
Q 3097 -78 2500 -78 
Q 1853 -78 1343 234 
Q 834 547 571 1087 
Q 309 1628 309 2231 
z
M 934 2222 
Q 934 1394 1379 917 
Q 1825 441 2497 441 
Q 3181 441 3623 922 
Q 4066 1403 4066 2288 
Q 4066 2847 3877 3264 
Q 3688 3681 3323 3911 
Q 2959 4141 2506 4141 
Q 1863 4141 1398 3698 
Q 934 3256 934 2222 
z
" transform="scale(0.015625)"/>
        <path id="ArialMT-70" d="M 422 -1272 
L 422 3319 
L 934 3319 
L 934 2888 
Q 1116 3141 1344 3267 
Q 1572 3394 1897 3394 
Q 2322 3394 2647 3175 
Q 2972 2956 3137 2557 
Q 3303 2159 3303 1684 
Q 3303 1175 3120 767 
Q 2938 359 2589 142 
Q 2241 -75 1856 -75 
Q 1575 -75 1351 44 
Q 1128 163 984 344 
L 984 -1272 
L 422 -1272 
z
M 931 1641 
Q 931 1000 1190 694 
Q 1450 388 1819 388 
Q 2194 388 2461 705 
Q 2728 1022 2728 1688 
Q 2728 2322 2467 2637 
Q 2206 2953 1844 2953 
Q 1484 2953 1207 2617 
Q 931 2281 931 1641 
z
" transform="scale(0.015625)"/>
        <path id="ArialMT-67" d="M 319 -275 
L 866 -356 
Q 900 -609 1056 -725 
Q 1266 -881 1628 -881 
Q 2019 -881 2231 -725 
Q 2444 -569 2519 -288 
Q 2563 -116 2559 434 
Q 2191 0 1641 0 
Q 956 0 581 494 
Q 206 988 206 1678 
Q 206 2153 378 2554 
Q 550 2956 876 3175 
Q 1203 3394 1644 3394 
Q 2231 3394 2613 2919 
L 2613 3319 
L 3131 3319 
L 3131 450 
Q 3131 -325 2973 -648 
Q 2816 -972 2473 -1159 
Q 2131 -1347 1631 -1347 
Q 1038 -1347 672 -1080 
Q 306 -813 319 -275 
z
M 784 1719 
Q 784 1066 1043 766 
Q 1303 466 1694 466 
Q 2081 466 2343 764 
Q 2606 1063 2606 1700 
Q 2606 2309 2336 2618 
Q 2066 2928 1684 2928 
Q 1309 2928 1046 2623 
Q 784 2319 784 1719 
z
" transform="scale(0.015625)"/>
       </defs>
       <use xlink:href="#ArialMT-20"/>
       <use xlink:href="#ArialMT-4f" x="27.783203"/>
       <use xlink:href="#ArialMT-70" x="105.566406"/>
       <use xlink:href="#ArialMT-65" x="161.181641"/>
       <use xlink:href="#ArialMT-72" x="216.796875"/>
       <use xlink:href="#ArialMT-61" x="250.097656"/>
       <use xlink:href="#ArialMT-74" x="305.712891"/>
       <use xlink:href="#ArialMT-69" x="333.496094"/>
       <use xlink:href="#ArialMT-6e" x="355.712891"/>
       <use xlink:href="#ArialMT-67" x="411.328125"/>
       <use xlink:href="#ArialMT-20" x="466.943359"/>
       <use xlink:href="#ArialMT-50" x="494.726562"/>
       <use xlink:href="#ArialMT-72" x="561.425781"/>
       <use xlink:href="#ArialMT-6f" x="594.726562"/>
       <use xlink:href="#ArialMT-66" x="650.341797"/>
       <use xlink:href="#ArialMT-69" x="678.125"/>
       <use xlink:href="#ArialMT-74" x="700.341797"/>
       <use xlink:href="#ArialMT-20" x="728.125"/>
       <use xlink:href="#ArialMT-47" x="755.908203"/>
       <use xlink:href="#ArialMT-72" x="833.691406"/>
       <use xlink:href="#ArialMT-6f" x="866.992188"/>
       <use xlink:href="#ArialMT-77" x="922.607422"/>
       <use xlink:href="#ArialMT-74" x="994.824219"/>
       <use xlink:href="#ArialMT-68" x="1022.607422"/>
       <use xlink:href="#ArialMT-20" x="1078.222656"/>
       <use xlink:href="#ArialMT-52" x="1106.005859"/>
       <use xlink:href="#ArialMT-61" x="1178.222656"/>
       <use xlink:href="#ArialMT-74" x="1233.837891"/>
       <use xlink:href="#ArialMT-65" x="1261.621094"/>
      </g>
     </g>
    </g>
    <g id="xtick_7">
     <g id="text_7">
      <!--  After-tax Net Profit Growth Rate -->
      <g style="fill: #262626" transform="translate(771.37875 270.706719)scale(0.11 -0.11)">
       <defs>
        <path id="ArialMT-2d" d="M 203 1375 
L 203 1941 
L 1931 1941 
L 1931 1375 
L 203 1375 
z
" transform="scale(0.015625)"/>
       </defs>
       <use xlink:href="#ArialMT-20"/>
       <use xlink:href="#ArialMT-41" x="22.283203"/>
       <use xlink:href="#ArialMT-66" x="88.982422"/>
       <use xlink:href="#ArialMT-74" x="116.765625"/>
       <use xlink:href="#ArialMT-65" x="144.548828"/>
       <use xlink:href="#ArialMT-72" x="200.164062"/>
       <use xlink:href="#ArialMT-2d" x="233.464844"/>
       <use xlink:href="#ArialMT-74" x="266.765625"/>
       <use xlink:href="#ArialMT-61" x="294.548828"/>
       <use xlink:href="#ArialMT-78" x="350.164062"/>
       <use xlink:href="#ArialMT-20" x="400.164062"/>
       <use xlink:href="#ArialMT-4e" x="427.947266"/>
       <use xlink:href="#ArialMT-65" x="500.164062"/>
       <use xlink:href="#ArialMT-74" x="555.779297"/>
       <use xlink:href="#ArialMT-20" x="583.5625"/>
       <use xlink:href="#ArialMT-50" x="611.345703"/>
       <use xlink:href="#ArialMT-72" x="678.044922"/>
       <use xlink:href="#ArialMT-6f" x="711.345703"/>
       <use xlink:href="#ArialMT-66" x="766.960938"/>
       <use xlink:href="#ArialMT-69" x="794.744141"/>
       <use xlink:href="#ArialMT-74" x="816.960938"/>
       <use xlink:href="#ArialMT-20" x="844.744141"/>
       <use xlink:href="#ArialMT-47" x="872.527344"/>
       <use xlink:href="#ArialMT-72" x="950.310547"/>
       <use xlink:href="#ArialMT-6f" x="983.611328"/>
       <use xlink:href="#ArialMT-77" x="1039.226562"/>
       <use xlink:href="#ArialMT-74" x="1111.443359"/>
       <use xlink:href="#ArialMT-68" x="1139.226562"/>
       <use xlink:href="#ArialMT-20" x="1194.841797"/>
       <use xlink:href="#ArialMT-52" x="1222.625"/>
       <use xlink:href="#ArialMT-61" x="1294.841797"/>
       <use xlink:href="#ArialMT-74" x="1350.457031"/>
       <use xlink:href="#ArialMT-65" x="1378.240234"/>
      </g>
     </g>
    </g>
    <g id="xtick_8">
     <g id="text_8">
      <!--  Continuous Net Profit Growth Rate -->
      <g style="fill: #262626" transform="translate(888.572578 270.706719)scale(0.11 -0.11)">
       <use xlink:href="#ArialMT-20"/>
       <use xlink:href="#ArialMT-43" x="27.783203"/>
       <use xlink:href="#ArialMT-6f" x="100"/>
       <use xlink:href="#ArialMT-6e" x="155.615234"/>
       <use xlink:href="#ArialMT-74" x="211.230469"/>
       <use xlink:href="#ArialMT-69" x="239.013672"/>
       <use xlink:href="#ArialMT-6e" x="261.230469"/>
       <use xlink:href="#ArialMT-75" x="316.845703"/>
       <use xlink:href="#ArialMT-6f" x="372.460938"/>
       <use xlink:href="#ArialMT-75" x="428.076172"/>
       <use xlink:href="#ArialMT-73" x="483.691406"/>
       <use xlink:href="#ArialMT-20" x="533.691406"/>
       <use xlink:href="#ArialMT-4e" x="561.474609"/>
       <use xlink:href="#ArialMT-65" x="633.691406"/>
       <use xlink:href="#ArialMT-74" x="689.306641"/>
       <use xlink:href="#ArialMT-20" x="717.089844"/>
       <use xlink:href="#ArialMT-50" x="744.873047"/>
       <use xlink:href="#ArialMT-72" x="811.572266"/>
       <use xlink:href="#ArialMT-6f" x="844.873047"/>
       <use xlink:href="#ArialMT-66" x="900.488281"/>
       <use xlink:href="#ArialMT-69" x="928.271484"/>
       <use xlink:href="#ArialMT-74" x="950.488281"/>
       <use xlink:href="#ArialMT-20" x="978.271484"/>
       <use xlink:href="#ArialMT-47" x="1006.054688"/>
       <use xlink:href="#ArialMT-72" x="1083.837891"/>
       <use xlink:href="#ArialMT-6f" x="1117.138672"/>
       <use xlink:href="#ArialMT-77" x="1172.753906"/>
       <use xlink:href="#ArialMT-74" x="1244.970703"/>
       <use xlink:href="#ArialMT-68" x="1272.753906"/>
       <use xlink:href="#ArialMT-20" x="1328.369141"/>
       <use xlink:href="#ArialMT-52" x="1356.152344"/>
       <use xlink:href="#ArialMT-61" x="1428.369141"/>
       <use xlink:href="#ArialMT-74" x="1483.984375"/>
       <use xlink:href="#ArialMT-65" x="1511.767578"/>
      </g>
     </g>
    </g>
   </g>
   <g id="matplotlib.axis_2">
    <g id="ytick_1">
     <g id="line2d_1">
      <path d="M 40.745 235.885049 
L 1037.0425 235.885049 
" clip-path="url(#pfc7aba139b)" style="fill: none; stroke: #cbcbcb"/>
     </g>
     <g id="text_9">
      <!-- −10 -->
      <g style="fill: #262626" transform="translate(15.08625 239.821846)scale(0.11 -0.11)">
       <defs>
        <path id="ArialMT-2212" d="M 3381 1997 
L 356 1997 
L 356 2522 
L 3381 2522 
L 3381 1997 
z
" transform="scale(0.015625)"/>
        <path id="ArialMT-31" d="M 2384 0 
L 1822 0 
L 1822 3584 
Q 1619 3391 1289 3197 
Q 959 3003 697 2906 
L 697 3450 
Q 1169 3672 1522 3987 
Q 1875 4303 2022 4600 
L 2384 4600 
L 2384 0 
z
" transform="scale(0.015625)"/>
        <path id="ArialMT-30" d="M 266 2259 
Q 266 3072 433 3567 
Q 600 4063 929 4331 
Q 1259 4600 1759 4600 
Q 2128 4600 2406 4451 
Q 2684 4303 2865 4023 
Q 3047 3744 3150 3342 
Q 3253 2941 3253 2259 
Q 3253 1453 3087 958 
Q 2922 463 2592 192 
Q 2263 -78 1759 -78 
Q 1097 -78 719 397 
Q 266 969 266 2259 
z
M 844 2259 
Q 844 1131 1108 757 
Q 1372 384 1759 384 
Q 2147 384 2411 759 
Q 2675 1134 2675 2259 
Q 2675 3391 2411 3762 
Q 2147 4134 1753 4134 
Q 1366 4134 1134 3806 
Q 844 3388 844 2259 
z
" transform="scale(0.015625)"/>
       </defs>
       <use xlink:href="#ArialMT-2212"/>
       <use xlink:href="#ArialMT-31" x="58.398438"/>
       <use xlink:href="#ArialMT-30" x="114.013672"/>
      </g>
     </g>
    </g>
    <g id="ytick_2">
     <g id="line2d_2">
      <path d="M 40.745 193.697934 
L 1037.0425 193.697934 
" clip-path="url(#pfc7aba139b)" style="fill: none; stroke: #cbcbcb"/>
     </g>
     <g id="text_10">
      <!-- −5 -->
      <g style="fill: #262626" transform="translate(21.203281 197.634731)scale(0.11 -0.11)">
       <defs>
        <path id="ArialMT-35" d="M 266 1200 
L 856 1250 
Q 922 819 1161 601 
Q 1400 384 1738 384 
Q 2144 384 2425 690 
Q 2706 997 2706 1503 
Q 2706 1984 2436 2262 
Q 2166 2541 1728 2541 
Q 1456 2541 1237 2417 
Q 1019 2294 894 2097 
L 366 2166 
L 809 4519 
L 3088 4519 
L 3088 3981 
L 1259 3981 
L 1013 2750 
Q 1425 3038 1878 3038 
Q 2478 3038 2890 2622 
Q 3303 2206 3303 1553 
Q 3303 931 2941 478 
Q 2500 -78 1738 -78 
Q 1113 -78 717 272 
Q 322 622 266 1200 
z
" transform="scale(0.015625)"/>
       </defs>
       <use xlink:href="#ArialMT-2212"/>
       <use xlink:href="#ArialMT-35" x="58.398438"/>
      </g>
     </g>
    </g>
    <g id="ytick_3">
     <g id="line2d_3">
      <path d="M 40.745 151.51082 
L 1037.0425 151.51082 
" clip-path="url(#pfc7aba139b)" style="fill: none; stroke: #cbcbcb"/>
     </g>
     <g id="text_11">
      <!-- 0 -->
      <g style="fill: #262626" transform="translate(27.627969 155.447617)scale(0.11 -0.11)">
       <use xlink:href="#ArialMT-30"/>
      </g>
     </g>
    </g>
    <g id="ytick_4">
     <g id="line2d_4">
      <path d="M 40.745 109.323705 
L 1037.0425 109.323705 
" clip-path="url(#pfc7aba139b)" style="fill: none; stroke: #cbcbcb"/>
     </g>
     <g id="text_12">
      <!-- 5 -->
      <g style="fill: #262626" transform="translate(27.627969 113.260502)scale(0.11 -0.11)">
       <use xlink:href="#ArialMT-35"/>
      </g>
     </g>
    </g>
    <g id="ytick_5">
     <g id="line2d_5">
      <path d="M 40.745 67.136591 
L 1037.0425 67.136591 
" clip-path="url(#pfc7aba139b)" style="fill: none; stroke: #cbcbcb"/>
     </g>
     <g id="text_13">
      <!-- 10 -->
      <g style="fill: #262626" transform="translate(21.510937 71.073388)scale(0.11 -0.11)">
       <use xlink:href="#ArialMT-31"/>
       <use xlink:href="#ArialMT-30" x="55.615234"/>
      </g>
     </g>
    </g>
   </g>
   <g id="PolyCollection_1">
    <defs>
     <path id="m705753027d" d="M 109.269141 -125.759357 
L 96.758047 -125.759357 
L 90.993427 -126.276683 
L 82.620682 -126.794009 
L 72.443842 -127.311335 
L 62.475406 -127.828661 
L 55.364214 -128.345986 
L 53.198719 -128.863312 
L 56.409225 -129.380638 
L 63.558423 -129.897964 
L 72.168446 -130.41529 
L 79.957686 -130.932616 
L 85.669446 -131.449942 
L 89.146359 -131.967268 
L 90.891521 -132.484594 
L 91.564926 -133.00192 
L 91.689518 -133.519246 
L 91.584008 -134.036572 
L 91.413296 -134.553898 
L 91.256258 -135.071224 
L 91.147246 -135.58855 
L 91.091439 -136.105876 
L 91.071027 -136.623202 
L 91.055402 -137.140528 
L 91.01558 -137.657854 
L 90.934342 -138.17518 
L 90.806464 -138.692506 
L 90.632788 -139.209832 
L 90.416259 -139.727158 
L 90.163241 -140.244484 
L 89.886106 -140.76181 
L 89.601557 -141.279136 
L 89.324145 -141.796462 
L 89.060023 -142.313788 
L 88.806806 -142.831114 
L 88.561203 -143.34844 
L 88.33079 -143.865766 
L 88.143936 -144.383092 
L 88.052976 -144.900418 
L 88.12779 -145.417744 
L 88.439233 -145.93507 
L 89.03606 -146.452396 
L 89.924715 -146.969722 
L 91.062916 -147.487048 
L 92.37081 -148.004374 
L 93.752438 -148.5217 
L 95.11564 -149.039026 
L 96.383787 -149.556352 
L 97.501051 -150.073678 
L 98.435599 -150.591004 
L 99.181676 -151.10833 
L 99.75782 -151.625656 
L 100.199015 -152.142982 
L 100.544498 -152.660308 
L 100.826302 -153.177633 
L 101.063526 -153.694959 
L 101.263981 -154.212285 
L 101.430594 -154.729611 
L 101.567607 -155.246937 
L 101.682781 -155.764263 
L 101.785402 -156.281589 
L 101.88272 -156.798915 
L 101.977653 -157.316241 
L 102.068847 -157.833567 
L 102.152649 -158.350893 
L 102.225901 -158.868219 
L 102.288193 -159.385545 
L 102.342324 -159.902871 
L 102.392618 -160.420197 
L 102.44219 -160.937523 
L 102.490987 -161.454849 
L 102.535911 -161.972175 
L 102.572837 -162.489501 
L 102.59908 -163.006827 
L 102.614684 -163.524153 
L 102.621877 -164.041479 
L 102.623373 -164.558805 
L 102.620957 -165.076131 
L 102.615404 -165.593457 
L 102.607655 -166.110783 
L 102.600016 -166.628109 
L 102.596026 -167.145435 
L 102.598743 -167.662761 
L 102.608707 -168.180087 
L 102.623274 -168.697413 
L 102.638102 -169.214739 
L 102.649886 -169.732065 
L 102.658454 -170.249391 
L 102.666748 -170.766717 
L 102.678852 -171.284043 
L 102.697712 -171.801369 
L 102.724173 -172.318695 
L 102.75753 -172.836021 
L 102.796383 -173.353347 
L 102.838764 -173.870673 
L 102.881762 -174.387999 
L 102.921656 -174.905325 
L 102.954959 -175.422651 
L 102.979696 -175.939977 
L 102.995944 -176.457303 
L 103.005355 -176.974629 
L 103.021832 -176.974629 
L 103.021832 -176.974629 
L 103.031243 -176.457303 
L 103.047491 -175.939977 
L 103.072228 -175.422651 
L 103.105531 -174.905325 
L 103.145425 -174.387999 
L 103.188424 -173.870673 
L 103.230805 -173.353347 
L 103.269658 -172.836021 
L 103.303014 -172.318695 
L 103.329475 -171.801369 
L 103.348335 -171.284043 
L 103.36044 -170.766717 
L 103.368733 -170.249391 
L 103.377301 -169.732065 
L 103.389086 -169.214739 
L 103.403914 -168.697413 
L 103.418481 -168.180087 
L 103.428444 -167.662761 
L 103.431162 -167.145435 
L 103.427171 -166.628109 
L 103.419533 -166.110783 
L 103.411784 -165.593457 
L 103.406231 -165.076131 
L 103.403814 -164.558805 
L 103.405311 -164.041479 
L 103.412503 -163.524153 
L 103.428108 -163.006827 
L 103.454351 -162.489501 
L 103.491277 -161.972175 
L 103.536201 -161.454849 
L 103.584997 -160.937523 
L 103.634569 -160.420197 
L 103.684864 -159.902871 
L 103.738994 -159.385545 
L 103.801286 -158.868219 
L 103.874538 -158.350893 
L 103.958341 -157.833567 
L 104.049535 -157.316241 
L 104.144467 -156.798915 
L 104.241785 -156.281589 
L 104.344406 -155.764263 
L 104.459581 -155.246937 
L 104.596593 -154.729611 
L 104.763207 -154.212285 
L 104.963661 -153.694959 
L 105.200885 -153.177633 
L 105.48269 -152.660308 
L 105.828173 -152.142982 
L 106.269367 -151.625656 
L 106.845512 -151.10833 
L 107.591589 -150.591004 
L 108.526137 -150.073678 
L 109.6434 -149.556352 
L 110.911547 -149.039026 
L 112.27475 -148.5217 
L 113.656378 -148.004374 
L 114.964271 -147.487048 
L 116.102473 -146.969722 
L 116.991127 -146.452396 
L 117.587954 -145.93507 
L 117.899398 -145.417744 
L 117.974211 -144.900418 
L 117.883251 -144.383092 
L 117.696398 -143.865766 
L 117.465984 -143.34844 
L 117.220381 -142.831114 
L 116.967165 -142.313788 
L 116.703043 -141.796462 
L 116.42563 -141.279136 
L 116.141081 -140.76181 
L 115.863947 -140.244484 
L 115.610929 -139.727158 
L 115.394399 -139.209832 
L 115.220723 -138.692506 
L 115.092845 -138.17518 
L 115.011607 -137.657854 
L 114.971786 -137.140528 
L 114.956161 -136.623202 
L 114.935748 -136.105876 
L 114.879941 -135.58855 
L 114.77093 -135.071224 
L 114.613892 -134.553898 
L 114.44318 -134.036572 
L 114.33767 -133.519246 
L 114.462262 -133.00192 
L 115.135666 -132.484594 
L 116.880828 -131.967268 
L 120.357741 -131.449942 
L 126.069502 -130.932616 
L 133.858742 -130.41529 
L 142.468764 -129.897964 
L 149.617962 -129.380638 
L 152.828469 -128.863312 
L 150.662973 -128.345986 
L 143.551781 -127.828661 
L 133.583346 -127.311335 
L 123.406506 -126.794009 
L 115.03376 -126.276683 
L 109.269141 -125.759357 
z
" style="stroke: #3e3e3e; stroke-width: 3"/>
    </defs>
    <g clip-path="url(#pfc7aba139b)">
     <use xlink:href="#m705753027d" x="0" y="288" style="fill: #cb3335; stroke: #3e3e3e; stroke-width: 3"/>
    </g>
   </g>
   <g id="PolyCollection_2">
    <defs>
     <path id="m1c05d20ff3" d="M 227.593259 -117.057848 
L 227.508303 -117.057848 
L 227.434371 -117.691208 
L 227.274203 -118.324569 
L 226.973936 -118.95793 
L 226.47994 -119.59129 
L 225.75706 -120.224651 
L 224.806646 -120.858012 
L 223.676745 -121.491372 
L 222.45331 -122.124733 
L 221.226418 -122.758094 
L 220.045897 -123.391455 
L 218.89546 -124.024815 
L 217.701569 -124.658176 
L 216.364258 -125.291537 
L 214.778517 -125.924897 
L 212.82478 -126.558258 
L 210.34897 -127.191619 
L 207.18771 -127.82498 
L 203.25977 -128.45834 
L 198.661067 -129.091701 
L 193.681803 -129.725062 
L 188.744386 -130.358422 
L 184.320021 -130.991783 
L 180.845821 -131.625144 
L 178.625272 -132.258504 
L 177.735906 -132.891865 
L 178.019595 -133.525226 
L 179.192476 -134.158587 
L 181.001935 -134.791947 
L 183.298569 -135.425308 
L 185.973411 -136.058669 
L 188.861498 -136.692029 
L 191.744399 -137.32539 
L 194.452525 -137.958751 
L 196.949827 -138.592112 
L 199.316421 -139.225472 
L 201.656279 -139.858833 
L 204.014739 -140.492194 
L 206.361272 -141.125554 
L 208.626535 -141.758915 
L 210.744954 -142.392276 
L 212.671147 -143.025636 
L 214.373939 -143.658997 
L 215.826935 -144.292358 
L 217.011709 -144.925719 
L 217.93533 -145.559079 
L 218.642156 -146.19244 
L 219.199053 -146.825801 
L 219.66588 -147.459161 
L 220.084373 -148.092522 
L 220.490642 -148.725883 
L 220.919476 -149.359243 
L 221.382668 -149.992604 
L 221.849918 -150.625965 
L 222.26785 -151.259326 
L 222.606928 -151.892686 
L 222.889552 -152.526047 
L 223.170623 -153.159408 
L 223.490178 -153.792768 
L 223.84339 -154.426129 
L 224.193382 -155.05949 
L 224.509559 -155.692851 
L 224.79164 -156.326211 
L 225.058721 -156.959572 
L 225.320214 -157.592933 
L 225.560226 -158.226293 
L 225.748388 -158.859654 
L 225.863868 -159.493015 
L 225.911574 -160.126375 
L 225.920995 -160.759736 
L 225.932394 -161.393097 
L 225.979569 -162.026458 
L 226.075562 -162.659818 
L 226.206782 -163.293179 
L 226.341123 -163.92654 
L 226.447876 -164.5599 
L 226.515473 -165.193261 
L 226.553253 -165.826622 
L 226.578271 -166.459982 
L 226.601181 -167.093343 
L 226.622839 -167.726704 
L 226.640535 -168.360065 
L 226.654945 -168.993425 
L 226.671269 -169.626786 
L 226.693713 -170.260147 
L 226.71777 -170.893507 
L 226.729461 -171.526868 
L 226.717552 -172.160229 
L 226.689929 -172.79359 
L 226.675804 -173.42695 
L 226.707964 -174.060311 
L 226.800386 -174.693672 
L 226.940354 -175.327032 
L 227.098538 -175.960393 
L 227.245659 -176.593754 
L 227.363502 -177.227114 
L 227.446701 -177.860475 
L 227.498886 -178.493836 
L 227.527856 -179.127197 
L 227.541929 -179.760557 
L 227.559633 -179.760557 
L 227.559633 -179.760557 
L 227.573707 -179.127197 
L 227.602676 -178.493836 
L 227.654862 -177.860475 
L 227.73806 -177.227114 
L 227.855904 -176.593754 
L 228.003024 -175.960393 
L 228.161209 -175.327032 
L 228.301176 -174.693672 
L 228.393599 -174.060311 
L 228.425759 -173.42695 
L 228.411634 -172.79359 
L 228.38401 -172.160229 
L 228.372102 -171.526868 
L 228.383793 -170.893507 
L 228.40785 -170.260147 
L 228.430294 -169.626786 
L 228.446617 -168.993425 
L 228.461028 -168.360065 
L 228.478723 -167.726704 
L 228.500382 -167.093343 
L 228.523292 -166.459982 
L 228.548309 -165.826622 
L 228.58609 -165.193261 
L 228.653687 -164.5599 
L 228.76044 -163.92654 
L 228.89478 -163.293179 
L 229.026001 -162.659818 
L 229.121994 -162.026458 
L 229.169168 -161.393097 
L 229.180568 -160.759736 
L 229.189989 -160.126375 
L 229.237694 -159.493015 
L 229.353174 -158.859654 
L 229.541336 -158.226293 
L 229.781348 -157.592933 
L 230.042841 -156.959572 
L 230.309923 -156.326211 
L 230.592003 -155.692851 
L 230.908181 -155.05949 
L 231.258172 -154.426129 
L 231.611385 -153.792768 
L 231.93094 -153.159408 
L 232.21201 -152.526047 
L 232.494635 -151.892686 
L 232.833713 -151.259326 
L 233.251644 -150.625965 
L 233.718894 -149.992604 
L 234.182086 -149.359243 
L 234.610921 -148.725883 
L 235.017189 -148.092522 
L 235.435682 -147.459161 
L 235.90251 -146.825801 
L 236.459406 -146.19244 
L 237.166233 -145.559079 
L 238.089854 -144.925719 
L 239.274628 -144.292358 
L 240.727624 -143.658997 
L 242.430416 -143.025636 
L 244.356608 -142.392276 
L 246.475028 -141.758915 
L 248.74029 -141.125554 
L 251.086824 -140.492194 
L 253.445283 -139.858833 
L 255.785142 -139.225472 
L 258.151736 -138.592112 
L 260.649037 -137.958751 
L 263.357164 -137.32539 
L 266.240065 -136.692029 
L 269.128152 -136.058669 
L 271.802993 -135.425308 
L 274.099627 -134.791947 
L 275.909087 -134.158587 
L 277.081967 -133.525226 
L 277.365656 -132.891865 
L 276.47629 -132.258504 
L 274.255741 -131.625144 
L 270.781542 -130.991783 
L 266.357177 -130.358422 
L 261.41976 -129.725062 
L 256.440496 -129.091701 
L 251.841792 -128.45834 
L 247.913852 -127.82498 
L 244.752592 -127.191619 
L 242.276783 -126.558258 
L 240.323045 -125.924897 
L 238.737305 -125.291537 
L 237.399994 -124.658176 
L 236.206102 -124.024815 
L 235.055665 -123.391455 
L 233.875145 -122.758094 
L 232.648253 -122.124733 
L 231.424818 -121.491372 
L 230.294916 -120.858012 
L 229.344502 -120.224651 
L 228.621623 -119.59129 
L 228.127627 -118.95793 
L 227.827359 -118.324569 
L 227.667192 -117.691208 
L 227.593259 -117.057848 
z
" style="stroke: #3e3e3e; stroke-width: 3"/>
    </defs>
    <g clip-path="url(#pfc7aba139b)">
     <use xlink:href="#m1c05d20ff3" x="0" y="288" style="fill: #477ca8; stroke: #3e3e3e; stroke-width: 3"/>
    </g>
   </g>
   <g id="PolyCollection_3">
    <defs>
     <path id="m78e1920cd2" d="M 352.103163 -100.184789 
L 352.072774 -100.184789 
L 352.04488 -100.940875 
L 351.992307 -101.696961 
L 351.919612 -102.453047 
L 351.846696 -103.209132 
L 351.790923 -103.965218 
L 351.746668 -104.721304 
L 351.694302 -105.47739 
L 351.628799 -106.233476 
L 351.565943 -106.989562 
L 351.519697 -107.745647 
L 351.484162 -108.501733 
L 351.438489 -109.257819 
L 351.362132 -110.013905 
L 351.243302 -110.769991 
L 351.080005 -111.526077 
L 350.88453 -112.282162 
L 350.687421 -113.038248 
L 350.522017 -113.794334 
L 350.395867 -114.55042 
L 350.284516 -115.306506 
L 350.157405 -116.062592 
L 349.998212 -116.818677 
L 349.794537 -117.574763 
L 349.524261 -118.330849 
L 349.163771 -119.086935 
L 348.703626 -119.843021 
L 348.154773 -120.599107 
L 347.545542 -121.355192 
L 346.911706 -122.111278 
L 346.269261 -122.867364 
L 345.565319 -123.62345 
L 344.660669 -124.379536 
L 343.405132 -125.135622 
L 341.743879 -125.891707 
L 339.725313 -126.647793 
L 337.403092 -127.403879 
L 334.743486 -128.159965 
L 331.60194 -128.916051 
L 327.754415 -129.672137 
L 323.0117 -130.428222 
L 317.47191 -131.184308 
L 311.756054 -131.940394 
L 306.867217 -132.69648 
L 303.634633 -133.452566 
L 302.273094 -134.208652 
L 302.491852 -134.964737 
L 303.891842 -135.720823 
L 306.146889 -136.476909 
L 308.928432 -137.232995 
L 311.888416 -137.989081 
L 314.810318 -138.745167 
L 317.709365 -139.501252 
L 320.708291 -140.257338 
L 323.824176 -141.013424 
L 326.908927 -141.76951 
L 329.771956 -142.525596 
L 332.316936 -143.281682 
L 334.566766 -144.037768 
L 336.59076 -144.793853 
L 338.417055 -145.549939 
L 340.011359 -146.306025 
L 341.342063 -147.062111 
L 342.448049 -147.818197 
L 343.414384 -148.574283 
L 344.289598 -149.330368 
L 345.058245 -150.086454 
L 345.697168 -150.84254 
L 346.23405 -151.598626 
L 346.738303 -152.354712 
L 347.267395 -153.110798 
L 347.834324 -153.866883 
L 348.410927 -154.622969 
L 348.944401 -155.379055 
L 349.390499 -156.135141 
L 349.7512 -156.891227 
L 350.062649 -157.647313 
L 350.338823 -158.403398 
L 350.554091 -159.159484 
L 350.690082 -159.91557 
L 350.773494 -160.671656 
L 350.853097 -161.427742 
L 350.956378 -162.183828 
L 351.082039 -162.939913 
L 351.217872 -163.695999 
L 351.344422 -164.452085 
L 351.431141 -165.208171 
L 351.454942 -165.964257 
L 351.425756 -166.720343 
L 351.379975 -167.476428 
L 351.35005 -168.232514 
L 351.35176 -168.9886 
L 351.394063 -169.744686 
L 351.482319 -170.500772 
L 351.608949 -171.256858 
L 351.751292 -172.012943 
L 351.881996 -172.769029 
L 351.980951 -173.525115 
L 352.041965 -174.281201 
L 352.071983 -175.037287 
L 352.103954 -175.037287 
L 352.103954 -175.037287 
L 352.133973 -174.281201 
L 352.194986 -173.525115 
L 352.293941 -172.769029 
L 352.424645 -172.012943 
L 352.566988 -171.256858 
L 352.693619 -170.500772 
L 352.781874 -169.744686 
L 352.824177 -168.9886 
L 352.825887 -168.232514 
L 352.795962 -167.476428 
L 352.750181 -166.720343 
L 352.720996 -165.964257 
L 352.744797 -165.208171 
L 352.831516 -164.452085 
L 352.958066 -163.695999 
L 353.093898 -162.939913 
L 353.219559 -162.183828 
L 353.32284 -161.427742 
L 353.402444 -160.671656 
L 353.485855 -159.91557 
L 353.621847 -159.159484 
L 353.837114 -158.403398 
L 354.113288 -157.647313 
L 354.424738 -156.891227 
L 354.785438 -156.135141 
L 355.231536 -155.379055 
L 355.765011 -154.622969 
L 356.341614 -153.866883 
L 356.908543 -153.110798 
L 357.437635 -152.354712 
L 357.941887 -151.598626 
L 358.478769 -150.84254 
L 359.117693 -150.086454 
L 359.886339 -149.330368 
L 360.761554 -148.574283 
L 361.727888 -147.818197 
L 362.833875 -147.062111 
L 364.164579 -146.306025 
L 365.758883 -145.549939 
L 367.585178 -144.793853 
L 369.609172 -144.037768 
L 371.859001 -143.281682 
L 374.403981 -142.525596 
L 377.26701 -141.76951 
L 380.351761 -141.013424 
L 383.467646 -140.257338 
L 386.466572 -139.501252 
L 389.36562 -138.745167 
L 392.287521 -137.989081 
L 395.247506 -137.232995 
L 398.029049 -136.476909 
L 400.284095 -135.720823 
L 401.684086 -134.964737 
L 401.902844 -134.208652 
L 400.541305 -133.452566 
L 397.308721 -132.69648 
L 392.419884 -131.940394 
L 386.704027 -131.184308 
L 381.164237 -130.428222 
L 376.421522 -129.672137 
L 372.573997 -128.916051 
L 369.432451 -128.159965 
L 366.772845 -127.403879 
L 364.450624 -126.647793 
L 362.432059 -125.891707 
L 360.770805 -125.135622 
L 359.515268 -124.379536 
L 358.610619 -123.62345 
L 357.906677 -122.867364 
L 357.264231 -122.111278 
L 356.630395 -121.355192 
L 356.021164 -120.599107 
L 355.472311 -119.843021 
L 355.012167 -119.086935 
L 354.651677 -118.330849 
L 354.3814 -117.574763 
L 354.177726 -116.818677 
L 354.018533 -116.062592 
L 353.891422 -115.306506 
L 353.78007 -114.55042 
L 353.65392 -113.794334 
L 353.488517 -113.038248 
L 353.291408 -112.282162 
L 353.095933 -111.526077 
L 352.932635 -110.769991 
L 352.813806 -110.013905 
L 352.737449 -109.257819 
L 352.691776 -108.501733 
L 352.656241 -107.745647 
L 352.609995 -106.989562 
L 352.547138 -106.233476 
L 352.481635 -105.47739 
L 352.429269 -104.721304 
L 352.385014 -103.965218 
L 352.329242 -103.209132 
L 352.256325 -102.453047 
L 352.183631 -101.696961 
L 352.131058 -100.940875 
L 352.103163 -100.184789 
z
" style="stroke: #3e3e3e; stroke-width: 3"/>
    </defs>
    <g clip-path="url(#pfc7aba139b)">
     <use xlink:href="#m78e1920cd2" x="0" y="288" style="fill: #59a257; stroke: #3e3e3e; stroke-width: 3"/>
    </g>
   </g>
   <g id="PolyCollection_4">
    <defs>
     <path id="mfe445ca87f" d="M 476.999587 -124.220785 
L 476.250725 -124.220785 
L 475.591196 -124.847158 
L 474.15898 -125.473531 
L 471.498103 -126.099904 
L 467.234101 -126.726276 
L 461.287022 -127.352649 
L 454.011521 -127.979022 
L 446.180715 -128.605395 
L 438.809294 -129.231768 
L 432.859006 -129.85814 
L 428.920508 -130.484513 
L 427.037847 -131.110886 
L 426.810281 -131.737259 
L 427.708886 -132.363632 
L 429.368558 -132.990004 
L 431.659364 -133.616377 
L 434.546119 -134.24275 
L 437.905345 -134.869123 
L 441.467623 -135.495496 
L 444.917239 -136.121868 
L 448.035525 -136.748241 
L 450.758159 -137.374614 
L 453.130556 -138.000987 
L 455.239141 -138.62736 
L 457.173684 -139.253732 
L 459.007009 -139.880105 
L 460.765498 -140.506478 
L 462.406121 -141.132851 
L 463.840383 -141.759224 
L 465.008214 -142.385596 
L 465.94159 -143.011969 
L 466.750288 -143.638342 
L 467.537222 -144.264715 
L 468.327939 -144.891088 
L 469.081265 -145.51746 
L 469.755075 -146.143833 
L 470.349065 -146.770206 
L 470.890818 -147.396579 
L 471.400212 -148.022952 
L 471.875778 -148.649324 
L 472.306393 -149.275697 
L 472.685546 -149.90207 
L 473.014124 -150.528443 
L 473.295291 -151.154816 
L 473.530927 -151.781188 
L 473.724326 -152.407561 
L 473.885543 -153.033934 
L 474.031555 -153.660307 
L 474.178409 -154.28668 
L 474.331727 -154.913052 
L 474.484384 -155.539425 
L 474.623582 -156.165798 
L 474.741099 -156.792171 
L 474.838335 -157.418544 
L 474.923934 -158.044916 
L 475.008646 -158.671289 
L 475.100895 -159.297662 
L 475.201953 -159.924035 
L 475.302351 -160.550408 
L 475.386259 -161.17678 
L 475.444534 -161.803153 
L 475.484221 -162.429526 
L 475.522205 -163.055899 
L 475.568167 -163.682272 
L 475.615653 -164.308644 
L 475.650769 -164.935017 
L 475.667362 -165.56139 
L 475.672157 -166.187763 
L 475.677058 -166.814135 
L 475.689041 -167.440508 
L 475.707456 -168.066881 
L 475.72919 -168.693254 
L 475.754592 -169.319627 
L 475.787571 -169.945999 
L 475.83068 -170.572372 
L 475.88145 -171.198745 
L 475.933458 -171.825118 
L 475.979543 -172.451491 
L 476.013775 -173.077863 
L 476.032565 -173.704236 
L 476.036927 -174.330609 
L 476.034488 -174.956982 
L 476.03685 -175.583355 
L 476.051762 -176.209727 
L 476.077076 -176.8361 
L 476.103567 -177.462473 
L 476.124202 -178.088846 
L 476.140451 -178.715219 
L 476.160403 -179.341591 
L 476.192011 -179.967964 
L 476.23786 -180.594337 
L 476.294746 -181.22071 
L 476.356824 -181.847083 
L 476.418721 -182.473455 
L 476.476352 -183.099828 
L 476.526304 -183.726201 
L 476.565759 -184.352574 
L 476.593444 -184.978947 
L 476.610338 -185.605319 
L 476.619169 -186.231692 
L 476.631143 -186.231692 
L 476.631143 -186.231692 
L 476.639974 -185.605319 
L 476.656868 -184.978947 
L 476.684553 -184.352574 
L 476.724009 -183.726201 
L 476.77396 -183.099828 
L 476.831592 -182.473455 
L 476.893488 -181.847083 
L 476.955567 -181.22071 
L 477.012453 -180.594337 
L 477.058301 -179.967964 
L 477.08991 -179.341591 
L 477.109861 -178.715219 
L 477.12611 -178.088846 
L 477.146746 -177.462473 
L 477.173237 -176.8361 
L 477.198551 -176.209727 
L 477.213463 -175.583355 
L 477.215825 -174.956982 
L 477.213386 -174.330609 
L 477.217748 -173.704236 
L 477.236538 -173.077863 
L 477.27077 -172.451491 
L 477.316855 -171.825118 
L 477.368862 -171.198745 
L 477.419633 -170.572372 
L 477.462742 -169.945999 
L 477.495721 -169.319627 
L 477.521122 -168.693254 
L 477.542857 -168.066881 
L 477.561272 -167.440508 
L 477.573254 -166.814135 
L 477.578156 -166.187763 
L 477.582951 -165.56139 
L 477.599544 -164.935017 
L 477.63466 -164.308644 
L 477.682146 -163.682272 
L 477.728107 -163.055899 
L 477.766091 -162.429526 
L 477.805778 -161.803153 
L 477.864054 -161.17678 
L 477.947962 -160.550408 
L 478.048359 -159.924035 
L 478.149417 -159.297662 
L 478.241666 -158.671289 
L 478.326378 -158.044916 
L 478.411977 -157.418544 
L 478.509214 -156.792171 
L 478.626731 -156.165798 
L 478.765928 -155.539425 
L 478.918585 -154.913052 
L 479.071904 -154.28668 
L 479.218758 -153.660307 
L 479.364769 -153.033934 
L 479.525987 -152.407561 
L 479.719386 -151.781188 
L 479.955022 -151.154816 
L 480.236188 -150.528443 
L 480.564766 -149.90207 
L 480.943919 -149.275697 
L 481.374535 -148.649324 
L 481.850101 -148.022952 
L 482.359494 -147.396579 
L 482.901247 -146.770206 
L 483.495237 -146.143833 
L 484.169047 -145.51746 
L 484.922374 -144.891088 
L 485.71309 -144.264715 
L 486.500024 -143.638342 
L 487.308722 -143.011969 
L 488.242098 -142.385596 
L 489.409929 -141.759224 
L 490.844192 -141.132851 
L 492.484815 -140.506478 
L 494.243304 -139.880105 
L 496.076628 -139.253732 
L 498.011171 -138.62736 
L 500.119756 -138.000987 
L 502.492153 -137.374614 
L 505.214787 -136.748241 
L 508.333073 -136.121868 
L 511.78269 -135.495496 
L 515.344967 -134.869123 
L 518.704194 -134.24275 
L 521.590949 -133.616377 
L 523.881754 -132.990004 
L 525.541427 -132.363632 
L 526.440031 -131.737259 
L 526.212465 -131.110886 
L 524.329804 -130.484513 
L 520.391306 -129.85814 
L 514.441019 -129.231768 
L 507.069597 -128.605395 
L 499.238791 -127.979022 
L 491.96329 -127.352649 
L 486.016212 -126.726276 
L 481.75221 -126.099904 
L 479.091333 -125.473531 
L 477.659117 -124.847158 
L 476.999587 -124.220785 
z
" style="stroke: #3e3e3e; stroke-width: 3"/>
    </defs>
    <g clip-path="url(#pfc7aba139b)">
     <use xlink:href="#mfe445ca87f" x="0" y="288" style="fill: #905998; stroke: #3e3e3e; stroke-width: 3"/>
    </g>
   </g>
   <g id="PolyCollection_5">
    <defs>
     <path id="mbe59d3bf30" d="M 601.167423 -114.707313 
L 601.157265 -114.707313 
L 601.139036 -115.913725 
L 601.09842 -117.120138 
L 601.037044 -118.32655 
L 600.952774 -119.532962 
L 600.863722 -120.739375 
L 600.804586 -121.945787 
L 600.726358 -123.152199 
L 600.52206 -124.358612 
L 600.097242 -125.565024 
L 599.274485 -126.771436 
L 597.657741 -127.977848 
L 594.472644 -129.184261 
L 588.319436 -130.390673 
L 577.623059 -131.597085 
L 563.209466 -132.803498 
L 551.641872 -134.00991 
L 551.347469 -135.216322 
L 562.088637 -136.422735 
L 575.562373 -137.629147 
L 585.700529 -138.835559 
L 591.660221 -140.041971 
L 594.89554 -141.248384 
L 596.804477 -142.454796 
L 597.973125 -143.661208 
L 598.647941 -144.867621 
L 599.069709 -146.074033 
L 599.404683 -147.280445 
L 599.711365 -148.486858 
L 599.958589 -149.69327 
L 600.145388 -150.899682 
L 600.296472 -152.106094 
L 600.383553 -153.312507 
L 600.45249 -154.518919 
L 600.595158 -155.725331 
L 600.751208 -156.931744 
L 600.819098 -158.138156 
L 600.823768 -159.344568 
L 600.824418 -160.550981 
L 600.85147 -161.757393 
L 600.90009 -162.963805 
L 600.938217 -164.170217 
L 600.939883 -165.37663 
L 600.918447 -166.583042 
L 600.91201 -167.789454 
L 600.93774 -168.995867 
L 600.967318 -170.202279 
L 600.968246 -171.408691 
L 600.955786 -172.615103 
L 600.974354 -173.821516 
L 601.024152 -175.027928 
L 601.04966 -176.23434 
L 601.025509 -177.440753 
L 600.99929 -178.647165 
L 601.013891 -179.853577 
L 601.051176 -181.05999 
L 601.075005 -182.266402 
L 601.072047 -183.472814 
L 601.060569 -184.679226 
L 601.063721 -185.885639 
L 601.076516 -187.092051 
L 601.084437 -188.298463 
L 601.084752 -189.504876 
L 601.079873 -190.711288 
L 601.082541 -191.9177 
L 601.092942 -193.124113 
L 601.082952 -194.330525 
L 601.044533 -195.536937 
L 601.01341 -196.743349 
L 601.024583 -197.949762 
L 601.061974 -199.156174 
L 601.0772 -200.362586 
L 601.058596 -201.568999 
L 601.037233 -202.775411 
L 601.051888 -203.981823 
L 601.087692 -205.188236 
L 601.110589 -206.394648 
L 601.124022 -207.60106 
L 601.133282 -208.807472 
L 601.136719 -210.013885 
L 601.130616 -211.220297 
L 601.108746 -212.426709 
L 601.086183 -213.633122 
L 601.080806 -214.839534 
L 601.087853 -216.045946 
L 601.100453 -217.252359 
L 601.111794 -218.458771 
L 601.123571 -219.665183 
L 601.136628 -220.871595 
L 601.136387 -222.078008 
L 601.125711 -223.28442 
L 601.122734 -224.490832 
L 601.128546 -225.697245 
L 601.135504 -226.903657 
L 601.143046 -228.110069 
L 601.147995 -229.316481 
L 601.14642 -230.522894 
L 601.147174 -231.729306 
L 601.154351 -232.935718 
L 601.160198 -234.142131 
L 601.164489 -234.142131 
L 601.164489 -234.142131 
L 601.170337 -232.935718 
L 601.177514 -231.729306 
L 601.178268 -230.522894 
L 601.176692 -229.316481 
L 601.181642 -228.110069 
L 601.189184 -226.903657 
L 601.196141 -225.697245 
L 601.201954 -224.490832 
L 601.198976 -223.28442 
L 601.188301 -222.078008 
L 601.188059 -220.871595 
L 601.201116 -219.665183 
L 601.212894 -218.458771 
L 601.224235 -217.252359 
L 601.236834 -216.045946 
L 601.243881 -214.839534 
L 601.238505 -213.633122 
L 601.215942 -212.426709 
L 601.194072 -211.220297 
L 601.187968 -210.013885 
L 601.191406 -208.807472 
L 601.200666 -207.60106 
L 601.214098 -206.394648 
L 601.236995 -205.188236 
L 601.2728 -203.981823 
L 601.287455 -202.775411 
L 601.266091 -201.568999 
L 601.247487 -200.362586 
L 601.262714 -199.156174 
L 601.300104 -197.949762 
L 601.311277 -196.743349 
L 601.280154 -195.536937 
L 601.241736 -194.330525 
L 601.231746 -193.124113 
L 601.242146 -191.9177 
L 601.244815 -190.711288 
L 601.239935 -189.504876 
L 601.24025 -188.298463 
L 601.248172 -187.092051 
L 601.260967 -185.885639 
L 601.264118 -184.679226 
L 601.252641 -183.472814 
L 601.249683 -182.266402 
L 601.273512 -181.05999 
L 601.310796 -179.853577 
L 601.325397 -178.647165 
L 601.299179 -177.440753 
L 601.275028 -176.23434 
L 601.300536 -175.027928 
L 601.350333 -173.821516 
L 601.368902 -172.615103 
L 601.356442 -171.408691 
L 601.357369 -170.202279 
L 601.386947 -168.995867 
L 601.412678 -167.789454 
L 601.40624 -166.583042 
L 601.384804 -165.37663 
L 601.386471 -164.170217 
L 601.424598 -162.963805 
L 601.473217 -161.757393 
L 601.500269 -160.550981 
L 601.500919 -159.344568 
L 601.50559 -158.138156 
L 601.573479 -156.931744 
L 601.72953 -155.725331 
L 601.872198 -154.518919 
L 601.941135 -153.312507 
L 602.028215 -152.106094 
L 602.179299 -150.899682 
L 602.366098 -149.69327 
L 602.613323 -148.486858 
L 602.920005 -147.280445 
L 603.254978 -146.074033 
L 603.676746 -144.867621 
L 604.351563 -143.661208 
L 605.52021 -142.454796 
L 607.429148 -141.248384 
L 610.664467 -140.041971 
L 616.624158 -138.835559 
L 626.762315 -137.629147 
L 640.236051 -136.422735 
L 650.977219 -135.216322 
L 650.682815 -134.00991 
L 639.115222 -132.803498 
L 624.701628 -131.597085 
L 614.005251 -130.390673 
L 607.852044 -129.184261 
L 604.666947 -127.977848 
L 603.050202 -126.771436 
L 602.227446 -125.565024 
L 601.802628 -124.358612 
L 601.598329 -123.152199 
L 601.520101 -121.945787 
L 601.460966 -120.739375 
L 601.371913 -119.532962 
L 601.287643 -118.32655 
L 601.226267 -117.120138 
L 601.185652 -115.913725 
L 601.167423 -114.707313 
z
" style="stroke: #3e3e3e; stroke-width: 3"/>
    </defs>
    <g clip-path="url(#pfc7aba139b)">
     <use xlink:href="#mbe59d3bf30" x="0" y="288" style="fill: #df7f20; stroke: #3e3e3e; stroke-width: 3"/>
    </g>
   </g>
   <g id="PolyCollection_6">
    <defs>
     <path id="m83d939c39c" d="M 725.704316 -89.684571 
L 725.694746 -89.684571 
L 725.67727 -90.917414 
L 725.642763 -92.150258 
L 725.609979 -93.383101 
L 725.594088 -94.615944 
L 725.593408 -95.848788 
L 725.605232 -97.081631 
L 725.614153 -98.314475 
L 725.602502 -99.547318 
L 725.582507 -100.780162 
L 725.561556 -102.013005 
L 725.530419 -103.245849 
L 725.504986 -104.478692 
L 725.509486 -105.711535 
L 725.528265 -106.944379 
L 725.525748 -108.177222 
L 725.494944 -109.410066 
L 725.446455 -110.642909 
L 725.412961 -111.875753 
L 725.415947 -113.108596 
L 725.413655 -114.341439 
L 725.371143 -115.574283 
L 725.303123 -116.807126 
L 725.244613 -118.03997 
L 725.211651 -119.272813 
L 725.178719 -120.505657 
L 725.094507 -121.7385 
L 724.912075 -122.971344 
L 724.60916 -124.204187 
L 724.171161 -125.43703 
L 723.547075 -126.669874 
L 722.589004 -127.902717 
L 720.991998 -129.135561 
L 717.755577 -130.368404 
L 710.547093 -131.601248 
L 697.601868 -132.834091 
L 682.677368 -134.066934 
L 675.884656 -135.299778 
L 682.510483 -136.532621 
L 695.661092 -137.765465 
L 707.0038 -138.998308 
L 714.309257 -140.231152 
L 718.509347 -141.463995 
L 720.867462 -142.696839 
L 722.201515 -143.929682 
L 723.033677 -145.162525 
L 723.601893 -146.395369 
L 724.021663 -147.628212 
L 724.392688 -148.861056 
L 724.645605 -150.093899 
L 724.752284 -151.326743 
L 724.826322 -152.559586 
L 724.925233 -153.792429 
L 725.037249 -155.025273 
L 725.152017 -156.258116 
L 725.271316 -157.49096 
L 725.357744 -158.723803 
L 725.36745 -159.956647 
L 725.342609 -161.18949 
L 725.350031 -162.422334 
L 725.391764 -163.655177 
L 725.433852 -164.88802 
L 725.470815 -166.120864 
L 725.492865 -167.353707 
L 725.494772 -168.586551 
L 725.507923 -169.819394 
L 725.550973 -171.052238 
L 725.580187 -172.285081 
L 725.555287 -173.517924 
L 725.52304 -174.750768 
L 725.531571 -175.983611 
L 725.536845 -177.216455 
L 725.523669 -178.449298 
L 725.522441 -179.682142 
L 725.529683 -180.914985 
L 725.544491 -182.147829 
L 725.574813 -183.380672 
L 725.611974 -184.613515 
L 725.630639 -185.846359 
L 725.613654 -187.079202 
L 725.580238 -188.312046 
L 725.554408 -189.544889 
L 725.54745 -190.777733 
L 725.570261 -192.010576 
L 725.613704 -193.243419 
L 725.645176 -194.476263 
L 725.637324 -195.709106 
L 725.600736 -196.94195 
L 725.583048 -198.174793 
L 725.596713 -199.407637 
L 725.604667 -200.64048 
L 725.608164 -201.873324 
L 725.622644 -203.106167 
L 725.624415 -204.33901 
L 725.606966 -205.571854 
L 725.592025 -206.804697 
L 725.598515 -208.037541 
L 725.635736 -209.270384 
L 725.676186 -210.503228 
L 725.694911 -211.736071 
L 725.704152 -211.736071 
L 725.704152 -211.736071 
L 725.722876 -210.503228 
L 725.763327 -209.270384 
L 725.800548 -208.037541 
L 725.807037 -206.804697 
L 725.792096 -205.571854 
L 725.774647 -204.33901 
L 725.776418 -203.106167 
L 725.790898 -201.873324 
L 725.794396 -200.64048 
L 725.80235 -199.407637 
L 725.816015 -198.174793 
L 725.798327 -196.94195 
L 725.761739 -195.709106 
L 725.753886 -194.476263 
L 725.785358 -193.243419 
L 725.828801 -192.010576 
L 725.851612 -190.777733 
L 725.844654 -189.544889 
L 725.818824 -188.312046 
L 725.785409 -187.079202 
L 725.768423 -185.846359 
L 725.787089 -184.613515 
L 725.82425 -183.380672 
L 725.854572 -182.147829 
L 725.86938 -180.914985 
L 725.876622 -179.682142 
L 725.875394 -178.449298 
L 725.862217 -177.216455 
L 725.867492 -175.983611 
L 725.876022 -174.750768 
L 725.843776 -173.517924 
L 725.818875 -172.285081 
L 725.848089 -171.052238 
L 725.89114 -169.819394 
L 725.90429 -168.586551 
L 725.906198 -167.353707 
L 725.928247 -166.120864 
L 725.96521 -164.88802 
L 726.007299 -163.655177 
L 726.049032 -162.422334 
L 726.056454 -161.18949 
L 726.031612 -159.956647 
L 726.041318 -158.723803 
L 726.127747 -157.49096 
L 726.247046 -156.258116 
L 726.361814 -155.025273 
L 726.47383 -153.792429 
L 726.57274 -152.559586 
L 726.646779 -151.326743 
L 726.753457 -150.093899 
L 727.006375 -148.861056 
L 727.377399 -147.628212 
L 727.79717 -146.395369 
L 728.365385 -145.162525 
L 729.197547 -143.929682 
L 730.531601 -142.696839 
L 732.889716 -141.463995 
L 737.089806 -140.231152 
L 744.395263 -138.998308 
L 755.737971 -137.765465 
L 768.888579 -136.532621 
L 775.514406 -135.299778 
L 768.721695 -134.066934 
L 753.797195 -132.834091 
L 740.85197 -131.601248 
L 733.643486 -130.368404 
L 730.407065 -129.135561 
L 728.810058 -127.902717 
L 727.851987 -126.669874 
L 727.227901 -125.43703 
L 726.789903 -124.204187 
L 726.486988 -122.971344 
L 726.304555 -121.7385 
L 726.220343 -120.505657 
L 726.187411 -119.272813 
L 726.15445 -118.03997 
L 726.09594 -116.807126 
L 726.027919 -115.574283 
L 725.985407 -114.341439 
L 725.983116 -113.108596 
L 725.986102 -111.875753 
L 725.952608 -110.642909 
L 725.904118 -109.410066 
L 725.873315 -108.177222 
L 725.870797 -106.944379 
L 725.889577 -105.711535 
L 725.894077 -104.478692 
L 725.868644 -103.245849 
L 725.837507 -102.013005 
L 725.816555 -100.780162 
L 725.79656 -99.547318 
L 725.784909 -98.314475 
L 725.793831 -97.081631 
L 725.805655 -95.848788 
L 725.804974 -94.615944 
L 725.789084 -93.383101 
L 725.756299 -92.150258 
L 725.721792 -90.917414 
L 725.704316 -89.684571 
z
" style="stroke: #3e3e3e; stroke-width: 3"/>
    </defs>
    <g clip-path="url(#pfc7aba139b)">
     <use xlink:href="#m83d939c39c" x="0" y="288" style="fill: #e6e64c; stroke: #3e3e3e; stroke-width: 3"/>
    </g>
   </g>
   <g id="PolyCollection_7">
    <defs>
     <path id="m212aa0a95f" d="M 850.238985 -41.784744 
L 850.234453 -41.784744 
L 850.223352 -43.410298 
L 850.209998 -45.035851 
L 850.217724 -46.661405 
L 850.231534 -48.286958 
L 850.229728 -49.912512 
L 850.211743 -51.538065 
L 850.204697 -53.163619 
L 850.204864 -54.789172 
L 850.199241 -56.414726 
L 850.203286 -58.040279 
L 850.213503 -59.665833 
L 850.22821 -61.291386 
L 850.232091 -62.91694 
L 850.21608 -64.542493 
L 850.194369 -66.168046 
L 850.19388 -67.7936 
L 850.201572 -69.419153 
L 850.20287 -71.044707 
L 850.214904 -72.67026 
L 850.214382 -74.295814 
L 850.199599 -75.921367 
L 850.181327 -77.546921 
L 850.141268 -79.172474 
L 850.140986 -80.798028 
L 850.165201 -82.423581 
L 850.161086 -84.049135 
L 850.172406 -85.674688 
L 850.177502 -87.300242 
L 850.168381 -88.925795 
L 850.188589 -90.551349 
L 850.189365 -92.176902 
L 850.161388 -93.802456 
L 850.169265 -95.428009 
L 850.159023 -97.053563 
L 850.127055 -98.679116 
L 850.115945 -100.30467 
L 850.095644 -101.930223 
L 850.069689 -103.555776 
L 850.008255 -105.18133 
L 849.913018 -106.806883 
L 849.869072 -108.432437 
L 849.864765 -110.05799 
L 849.867176 -111.683544 
L 849.84058 -113.309097 
L 849.84424 -114.934651 
L 849.846164 -116.560204 
L 849.782562 -118.185758 
L 849.739463 -119.811311 
L 849.630694 -121.436865 
L 849.388343 -123.062418 
L 849.106017 -124.687972 
L 848.855772 -126.313525 
L 848.268954 -127.939079 
L 847.169888 -129.564632 
L 844.708444 -131.190186 
L 836.714268 -132.815739 
L 817.67203 -134.441293 
L 800.421844 -136.066846 
L 806.815677 -137.692399 
L 825.075519 -139.317953 
L 837.823139 -140.943506 
L 844.157151 -142.56906 
L 847.043229 -144.194613 
L 848.237929 -145.820167 
L 848.774519 -147.44572 
L 849.034454 -149.071274 
L 849.269409 -150.696827 
L 849.525643 -152.322381 
L 849.701664 -153.947934 
L 849.798689 -155.573488 
L 849.868343 -157.199041 
L 849.903034 -158.824595 
L 849.954523 -160.450148 
L 850.045156 -162.075702 
L 850.106149 -163.701255 
L 850.086805 -165.326809 
L 850.082304 -166.952362 
L 850.111609 -168.577916 
L 850.091427 -170.203469 
L 850.069842 -171.829023 
L 850.094199 -173.454576 
L 850.1105 -175.080129 
L 850.14151 -176.705683 
L 850.182443 -178.331236 
L 850.187881 -179.95679 
L 850.173964 -181.582343 
L 850.159411 -183.207897 
L 850.174597 -184.83345 
L 850.191411 -186.459004 
L 850.196122 -188.084557 
L 850.214495 -189.710111 
L 850.204408 -191.335664 
L 850.162942 -192.961218 
L 850.152555 -194.586771 
L 850.162446 -196.212325 
L 850.168726 -197.837878 
L 850.190614 -199.463432 
L 850.220475 -201.088985 
L 850.234325 -202.714539 
L 850.239112 -202.714539 
L 850.239112 -202.714539 
L 850.252962 -201.088985 
L 850.282823 -199.463432 
L 850.304712 -197.837878 
L 850.310992 -196.212325 
L 850.320882 -194.586771 
L 850.310495 -192.961218 
L 850.269029 -191.335664 
L 850.258942 -189.710111 
L 850.277315 -188.084557 
L 850.282026 -186.459004 
L 850.29884 -184.83345 
L 850.314026 -183.207897 
L 850.299474 -181.582343 
L 850.285557 -179.95679 
L 850.290994 -178.331236 
L 850.331928 -176.705683 
L 850.362937 -175.080129 
L 850.379239 -173.454576 
L 850.403596 -171.829023 
L 850.38201 -170.203469 
L 850.361829 -168.577916 
L 850.391134 -166.952362 
L 850.386633 -165.326809 
L 850.367289 -163.701255 
L 850.428282 -162.075702 
L 850.518915 -160.450148 
L 850.570403 -158.824595 
L 850.605094 -157.199041 
L 850.674748 -155.573488 
L 850.771774 -153.947934 
L 850.947794 -152.322381 
L 851.204028 -150.696827 
L 851.438983 -149.071274 
L 851.698918 -147.44572 
L 852.235508 -145.820167 
L 853.430208 -144.194613 
L 856.316286 -142.56906 
L 862.650299 -140.943506 
L 875.397919 -139.317953 
L 893.65776 -137.692399 
L 900.051594 -136.066846 
L 882.801408 -134.441293 
L 863.75917 -132.815739 
L 855.764993 -131.190186 
L 853.303549 -129.564632 
L 852.204484 -127.939079 
L 851.617665 -126.313525 
L 851.367421 -124.687972 
L 851.085095 -123.062418 
L 850.842743 -121.436865 
L 850.733974 -119.811311 
L 850.690875 -118.185758 
L 850.627274 -116.560204 
L 850.629197 -114.934651 
L 850.632857 -113.309097 
L 850.606262 -111.683544 
L 850.608672 -110.05799 
L 850.604366 -108.432437 
L 850.56042 -106.806883 
L 850.465183 -105.18133 
L 850.403749 -103.555776 
L 850.377794 -101.930223 
L 850.357492 -100.30467 
L 850.346382 -98.679116 
L 850.314415 -97.053563 
L 850.304172 -95.428009 
L 850.312049 -93.802456 
L 850.284072 -92.176902 
L 850.284848 -90.551349 
L 850.305056 -88.925795 
L 850.295936 -87.300242 
L 850.301031 -85.674688 
L 850.312352 -84.049135 
L 850.308236 -82.423581 
L 850.332452 -80.798028 
L 850.33217 -79.172474 
L 850.292111 -77.546921 
L 850.273839 -75.921367 
L 850.259056 -74.295814 
L 850.258534 -72.67026 
L 850.270568 -71.044707 
L 850.271865 -69.419153 
L 850.279557 -67.7936 
L 850.279068 -66.168046 
L 850.257358 -64.542493 
L 850.241347 -62.91694 
L 850.245228 -61.291386 
L 850.259934 -59.665833 
L 850.270151 -58.040279 
L 850.274197 -56.414726 
L 850.268573 -54.789172 
L 850.268741 -53.163619 
L 850.261694 -51.538065 
L 850.24371 -49.912512 
L 850.241904 -48.286958 
L 850.255713 -46.661405 
L 850.263439 -45.035851 
L 850.250086 -43.410298 
L 850.238985 -41.784744 
z
" style="stroke: #3e3e3e; stroke-width: 3"/>
    </defs>
    <g clip-path="url(#pfc7aba139b)">
     <use xlink:href="#m212aa0a95f" x="0" y="288" style="fill: #965a38; stroke: #3e3e3e; stroke-width: 3"/>
    </g>
   </g>
   <g id="PolyCollection_8">
    <defs>
     <path id="mf057d71c9d" d="M 974.776023 -57.026685 
L 974.771789 -57.026685 
L 974.761551 -58.608014 
L 974.737344 -60.189342 
L 974.701151 -61.770671 
L 974.697683 -63.352 
L 974.734089 -64.933329 
L 974.753181 -66.514658 
L 974.761968 -68.095986 
L 974.769344 -69.677315 
L 974.762109 -71.258644 
L 974.744009 -72.839973 
L 974.73113 -74.421302 
L 974.722367 -76.00263 
L 974.720614 -77.583959 
L 974.720401 -79.165288 
L 974.709414 -80.746617 
L 974.690636 -82.327946 
L 974.699898 -83.909274 
L 974.715525 -85.490603 
L 974.706055 -87.071932 
L 974.69956 -88.653261 
L 974.711233 -90.23459 
L 974.693152 -91.815918 
L 974.661281 -93.397247 
L 974.658201 -94.978576 
L 974.67768 -96.559905 
L 974.674744 -98.141234 
L 974.65618 -99.722562 
L 974.637533 -101.303891 
L 974.601113 -102.88522 
L 974.55025 -104.466549 
L 974.480318 -106.047878 
L 974.448938 -107.629206 
L 974.488568 -109.210535 
L 974.503511 -110.791864 
L 974.432657 -112.373193 
L 974.360749 -113.954522 
L 974.377611 -115.53585 
L 974.400574 -117.117179 
L 974.303733 -118.698508 
L 974.112188 -120.279837 
L 973.938465 -121.861166 
L 973.75868 -123.442494 
L 973.517793 -125.023823 
L 973.142176 -126.605152 
L 972.559457 -128.186481 
L 971.323915 -129.76781 
L 968.108686 -131.349138 
L 958.451678 -132.930467 
L 939.04368 -134.511796 
L 924.959031 -136.093125 
L 933.207128 -137.674454 
L 950.43389 -139.255782 
L 962.349391 -140.837111 
L 968.540584 -142.41844 
L 971.448844 -143.999769 
L 972.653273 -145.581098 
L 973.127664 -147.162426 
L 973.435641 -148.743755 
L 973.727845 -150.325084 
L 974.00763 -151.906413 
L 974.176548 -153.487742 
L 974.263482 -155.06907 
L 974.361902 -156.650399 
L 974.415188 -158.231728 
L 974.419482 -159.813057 
L 974.476616 -161.394386 
L 974.537727 -162.975714 
L 974.58108 -164.557043 
L 974.610187 -166.138372 
L 974.619346 -167.719701 
L 974.642505 -169.30103 
L 974.653515 -170.882358 
L 974.644007 -172.463687 
L 974.62823 -174.045016 
L 974.660607 -175.626345 
L 974.68012 -177.207674 
L 974.658335 -178.789002 
L 974.672153 -180.370331 
L 974.702982 -181.95166 
L 974.705349 -183.532989 
L 974.707886 -185.114318 
L 974.732588 -186.695646 
L 974.750114 -188.276975 
L 974.740472 -189.858304 
L 974.722938 -191.439633 
L 974.732835 -193.020962 
L 974.741484 -194.60229 
L 974.723884 -196.183619 
L 974.716429 -197.764948 
L 974.743582 -199.346277 
L 974.761848 -200.927606 
L 974.741743 -202.508934 
L 974.713702 -204.090263 
L 974.713777 -205.671592 
L 974.736379 -207.252921 
L 974.757053 -208.83425 
L 974.758208 -210.415578 
L 974.76405 -211.996907 
L 974.771887 -213.578236 
L 974.775926 -213.578236 
L 974.775926 -213.578236 
L 974.783763 -211.996907 
L 974.789605 -210.415578 
L 974.790759 -208.83425 
L 974.811434 -207.252921 
L 974.834035 -205.671592 
L 974.83411 -204.090263 
L 974.80607 -202.508934 
L 974.785964 -200.927606 
L 974.804231 -199.346277 
L 974.831384 -197.764948 
L 974.823928 -196.183619 
L 974.806329 -194.60229 
L 974.814978 -193.020962 
L 974.824875 -191.439633 
L 974.80734 -189.858304 
L 974.797699 -188.276975 
L 974.815225 -186.695646 
L 974.839926 -185.114318 
L 974.842463 -183.532989 
L 974.844831 -181.95166 
L 974.875659 -180.370331 
L 974.889477 -178.789002 
L 974.867693 -177.207674 
L 974.887205 -175.626345 
L 974.919582 -174.045016 
L 974.903805 -172.463687 
L 974.894298 -170.882358 
L 974.905307 -169.30103 
L 974.928466 -167.719701 
L 974.937626 -166.138372 
L 974.966733 -164.557043 
L 975.010086 -162.975714 
L 975.071196 -161.394386 
L 975.12833 -159.813057 
L 975.132624 -158.231728 
L 975.18591 -156.650399 
L 975.284331 -155.06907 
L 975.371264 -153.487742 
L 975.540182 -151.906413 
L 975.819968 -150.325084 
L 976.112172 -148.743755 
L 976.420149 -147.162426 
L 976.894539 -145.581098 
L 978.098968 -143.999769 
L 981.007229 -142.41844 
L 987.198421 -140.837111 
L 999.113922 -139.255782 
L 1016.340685 -137.674454 
L 1024.588781 -136.093125 
L 1010.504133 -134.511796 
L 991.096135 -132.930467 
L 981.439126 -131.349138 
L 978.223898 -129.76781 
L 976.988355 -128.186481 
L 976.405637 -126.605152 
L 976.030019 -125.023823 
L 975.789133 -123.442494 
L 975.609348 -121.861166 
L 975.435624 -120.279837 
L 975.24408 -118.698508 
L 975.147239 -117.117179 
L 975.170202 -115.53585 
L 975.187064 -113.954522 
L 975.115155 -112.373193 
L 975.044301 -110.791864 
L 975.059245 -109.210535 
L 975.098875 -107.629206 
L 975.067494 -106.047878 
L 974.997563 -104.466549 
L 974.946699 -102.88522 
L 974.910279 -101.303891 
L 974.891633 -99.722562 
L 974.873068 -98.141234 
L 974.870132 -96.559905 
L 974.889612 -94.978576 
L 974.886532 -93.397247 
L 974.85466 -91.815918 
L 974.836579 -90.23459 
L 974.848253 -88.653261 
L 974.841758 -87.071932 
L 974.832288 -85.490603 
L 974.847915 -83.909274 
L 974.857177 -82.327946 
L 974.838398 -80.746617 
L 974.827411 -79.165288 
L 974.827198 -77.583959 
L 974.825446 -76.00263 
L 974.816682 -74.421302 
L 974.803803 -72.839973 
L 974.785703 -71.258644 
L 974.778468 -69.677315 
L 974.785844 -68.095986 
L 974.794631 -66.514658 
L 974.813723 -64.933329 
L 974.85013 -63.352 
L 974.846662 -61.770671 
L 974.810468 -60.189342 
L 974.786261 -58.608014 
L 974.776023 -57.026685 
z
" style="stroke: #3e3e3e; stroke-width: 3"/>
    </defs>
    <g clip-path="url(#pfc7aba139b)">
     <use xlink:href="#mf057d71c9d" x="0" y="288" style="fill: #e890be; stroke: #3e3e3e; stroke-width: 3"/>
    </g>
   </g>
   <g id="line2d_6">
    <path d="M 103.013594 159.327756 
L 103.013594 123.320565 
" clip-path="url(#pfc7aba139b)" style="fill: none; stroke: #3e3e3e; stroke-width: 3"/>
   </g>
   <g id="line2d_7">
    <path d="M 103.013594 159.327756 
L 103.013594 144.872001 
" clip-path="url(#pfc7aba139b)" style="fill: none; stroke: #3e3e3e; stroke-width: 9"/>
   </g>
   <g id="line2d_8">
    <path d="M 227.550781 168.029265 
L 227.550781 135.603299 
" clip-path="url(#pfc7aba139b)" style="fill: none; stroke: #3e3e3e; stroke-width: 3"/>
   </g>
   <g id="line2d_9">
    <path d="M 227.550781 156.670937 
L 227.550781 148.241039 
" clip-path="url(#pfc7aba139b)" style="fill: none; stroke: #3e3e3e; stroke-width: 9"/>
   </g>
   <g id="line2d_10">
    <path d="M 352.087969 168.45789 
L 352.087969 134.799525 
" clip-path="url(#pfc7aba139b)" style="fill: none; stroke: #3e3e3e; stroke-width: 3"/>
   </g>
   <g id="line2d_11">
    <path d="M 352.087969 155.86094 
L 352.087969 147.424974 
" clip-path="url(#pfc7aba139b)" style="fill: none; stroke: #3e3e3e; stroke-width: 9"/>
   </g>
   <g id="line2d_12">
    <path d="M 476.625156 160.866327 
L 476.625156 137.369568 
" clip-path="url(#pfc7aba139b)" style="fill: none; stroke: #3e3e3e; stroke-width: 3"/>
   </g>
   <g id="line2d_13">
    <path d="M 476.625156 156.991353 
L 476.625156 149.082105 
" clip-path="url(#pfc7aba139b)" style="fill: none; stroke: #3e3e3e; stroke-width: 9"/>
   </g>
   <g id="line2d_14">
    <path d="M 601.162344 159.678626 
L 601.162344 146.001845 
" clip-path="url(#pfc7aba139b)" style="fill: none; stroke: #3e3e3e; stroke-width: 3"/>
   </g>
   <g id="line2d_15">
    <path d="M 601.162344 154.551514 
L 601.162344 151.123834 
" clip-path="url(#pfc7aba139b)" style="fill: none; stroke: #3e3e3e; stroke-width: 9"/>
   </g>
   <g id="line2d_16">
    <path d="M 725.699531 159.207711 
L 725.699531 145.263261 
" clip-path="url(#pfc7aba139b)" style="fill: none; stroke: #3e3e3e; stroke-width: 3"/>
   </g>
   <g id="line2d_17">
    <path d="M 725.699531 153.980082 
L 725.699531 150.484113 
" clip-path="url(#pfc7aba139b)" style="fill: none; stroke: #3e3e3e; stroke-width: 9"/>
   </g>
   <g id="line2d_18">
    <path d="M 850.236719 157.372383 
L 850.236719 145.14579 
" clip-path="url(#pfc7aba139b)" style="fill: none; stroke: #3e3e3e; stroke-width: 3"/>
   </g>
   <g id="line2d_19">
    <path d="M 850.236719 152.783735 
L 850.236719 149.721802 
" clip-path="url(#pfc7aba139b)" style="fill: none; stroke: #3e3e3e; stroke-width: 9"/>
   </g>
   <g id="line2d_20">
    <path d="M 974.773906 157.689235 
L 974.773906 145.086578 
" clip-path="url(#pfc7aba139b)" style="fill: none; stroke: #3e3e3e; stroke-width: 3"/>
   </g>
   <g id="line2d_21">
    <path d="M 974.773906 152.963044 
L 974.773906 149.811213 
" clip-path="url(#pfc7aba139b)" style="fill: none; stroke: #3e3e3e; stroke-width: 9"/>
   </g>
   <g id="patch_3">
    <path d="M 40.745 255.833125 
L 40.745 44.24 
" style="fill: none; stroke: #f0f0f0; stroke-width: 3; stroke-linejoin: miter; stroke-linecap: square"/>
   </g>
   <g id="patch_4">
    <path d="M 1037.0425 255.833125 
L 1037.0425 44.24 
" style="fill: none; stroke: #f0f0f0; stroke-width: 3; stroke-linejoin: miter; stroke-linecap: square"/>
   </g>
   <g id="patch_5">
    <path d="M 40.745 255.833125 
L 1037.0425 255.833125 
" style="fill: none; stroke: #f0f0f0; stroke-width: 3; stroke-linejoin: miter; stroke-linecap: square"/>
   </g>
   <g id="patch_6">
    <path d="M 40.745 44.24 
L 1037.0425 44.24 
" style="fill: none; stroke: #f0f0f0; stroke-width: 3; stroke-linejoin: miter; stroke-linecap: square"/>
   </g>
   <g id="PathCollection_1">
    <defs>
     <path id="m2ea07b70a4" d="M 0 3 
C 0.795609 3 1.55874 2.683901 2.12132 2.12132 
C 2.683901 1.55874 3 0.795609 3 0 
C 3 -0.795609 2.683901 -1.55874 2.12132 -2.12132 
C 1.55874 -2.683901 0.795609 -3 0 -3 
C -0.795609 -3 -1.55874 -2.683901 -2.12132 -2.12132 
C -2.683901 -1.55874 -3 -0.795609 -3 0 
C -3 0.795609 -2.683901 1.55874 -2.12132 2.12132 
C -1.55874 2.683901 -0.795609 3 0 3 
z
" style="stroke: #3e3e3e; stroke-width: 0.5"/>
    </defs>
    <g clip-path="url(#pfc7aba139b)">
     <use xlink:href="#m2ea07b70a4" x="103.013594" y="153.725526" style="fill: #ffffff; stroke: #3e3e3e; stroke-width: 0.5"/>
    </g>
   </g>
   <g id="PathCollection_2">
    <g clip-path="url(#pfc7aba139b)">
     <use xlink:href="#m2ea07b70a4" x="227.550781" y="153.159664" style="fill: #ffffff; stroke: #3e3e3e; stroke-width: 0.5"/>
    </g>
   </g>
   <g id="PathCollection_3">
    <g clip-path="url(#pfc7aba139b)">
     <use xlink:href="#m2ea07b70a4" x="352.087969" y="152.184455" style="fill: #ffffff; stroke: #3e3e3e; stroke-width: 0.5"/>
    </g>
   </g>
   <g id="PathCollection_4">
    <g clip-path="url(#pfc7aba139b)">
     <use xlink:href="#m2ea07b70a4" x="476.625156" y="153.972617" style="fill: #ffffff; stroke: #3e3e3e; stroke-width: 0.5"/>
    </g>
   </g>
   <g id="PathCollection_5">
    <g clip-path="url(#pfc7aba139b)">
     <use xlink:href="#m2ea07b70a4" x="601.162344" y="153.087722" style="fill: #ffffff; stroke: #3e3e3e; stroke-width: 0.5"/>
    </g>
   </g>
   <g id="PathCollection_6">
    <g clip-path="url(#pfc7aba139b)">
     <use xlink:href="#m2ea07b70a4" x="725.699531" y="152.496375" style="fill: #ffffff; stroke: #3e3e3e; stroke-width: 0.5"/>
    </g>
   </g>
   <g id="PathCollection_7">
    <g clip-path="url(#pfc7aba139b)">
     <use xlink:href="#m2ea07b70a4" x="850.236719" y="151.431732" style="fill: #ffffff; stroke: #3e3e3e; stroke-width: 0.5"/>
    </g>
   </g>
   <g id="PathCollection_8">
    <g clip-path="url(#pfc7aba139b)">
     <use xlink:href="#m2ea07b70a4" x="974.773906" y="151.584442" style="fill: #ffffff; stroke: #3e3e3e; stroke-width: 0.5"/>
    </g>
   </g>
  </g>
  <g id="text_14">
   <!-- Violin Plot of all Continuous Variables -->
   <g style="fill: #262626" transform="translate(416.035547 16.496719)scale(0.15 -0.15)">
    <defs>
     <path id="ArialMT-62" d="M 941 0 
L 419 0 
L 419 4581 
L 981 4581 
L 981 2947 
Q 1338 3394 1891 3394 
Q 2197 3394 2470 3270 
Q 2744 3147 2920 2923 
Q 3097 2700 3197 2384 
Q 3297 2069 3297 1709 
Q 3297 856 2875 390 
Q 2453 -75 1863 -75 
Q 1275 -75 941 416 
L 941 0 
z
M 934 1684 
Q 934 1088 1097 822 
Q 1363 388 1816 388 
Q 2184 388 2453 708 
Q 2722 1028 2722 1663 
Q 2722 2313 2464 2622 
Q 2206 2931 1841 2931 
Q 1472 2931 1203 2611 
Q 934 2291 934 1684 
z
" transform="scale(0.015625)"/>
    </defs>
    <use xlink:href="#ArialMT-56"/>
    <use xlink:href="#ArialMT-69" x="64.949219"/>
    <use xlink:href="#ArialMT-6f" x="87.166016"/>
    <use xlink:href="#ArialMT-6c" x="142.78125"/>
    <use xlink:href="#ArialMT-69" x="164.998047"/>
    <use xlink:href="#ArialMT-6e" x="187.214844"/>
    <use xlink:href="#ArialMT-20" x="242.830078"/>
    <use xlink:href="#ArialMT-50" x="270.613281"/>
    <use xlink:href="#ArialMT-6c" x="337.3125"/>
    <use xlink:href="#ArialMT-6f" x="359.529297"/>
    <use xlink:href="#ArialMT-74" x="415.144531"/>
    <use xlink:href="#ArialMT-20" x="442.927734"/>
    <use xlink:href="#ArialMT-6f" x="470.710938"/>
    <use xlink:href="#ArialMT-66" x="526.326172"/>
    <use xlink:href="#ArialMT-20" x="554.109375"/>
    <use xlink:href="#ArialMT-61" x="581.892578"/>
    <use xlink:href="#ArialMT-6c" x="637.507812"/>
    <use xlink:href="#ArialMT-6c" x="659.724609"/>
    <use xlink:href="#ArialMT-20" x="681.941406"/>
    <use xlink:href="#ArialMT-43" x="709.724609"/>
    <use xlink:href="#ArialMT-6f" x="781.941406"/>
    <use xlink:href="#ArialMT-6e" x="837.556641"/>
    <use xlink:href="#ArialMT-74" x="893.171875"/>
    <use xlink:href="#ArialMT-69" x="920.955078"/>
    <use xlink:href="#ArialMT-6e" x="943.171875"/>
    <use xlink:href="#ArialMT-75" x="998.787109"/>
    <use xlink:href="#ArialMT-6f" x="1054.402344"/>
    <use xlink:href="#ArialMT-75" x="1110.017578"/>
    <use xlink:href="#ArialMT-73" x="1165.632812"/>
    <use xlink:href="#ArialMT-20" x="1215.632812"/>
    <use xlink:href="#ArialMT-56" x="1243.416016"/>
    <use xlink:href="#ArialMT-61" x="1302.740234"/>
    <use xlink:href="#ArialMT-72" x="1358.355469"/>
    <use xlink:href="#ArialMT-69" x="1391.65625"/>
    <use xlink:href="#ArialMT-61" x="1413.873047"/>
    <use xlink:href="#ArialMT-62" x="1469.488281"/>
    <use xlink:href="#ArialMT-6c" x="1525.103516"/>
    <use xlink:href="#ArialMT-65" x="1547.320312"/>
    <use xlink:href="#ArialMT-73" x="1602.935547"/>
   </g>
  </g>
 </g>
 <defs>
  <clipPath id="pfc7aba139b">
   <rect x="40.745" y="44.24" width="996.2975" height="211.593125"/>
  </clipPath>
 </defs>
</svg>
