<?xml version="1.0" encoding="utf-8" standalone="no"?>
<!DOCTYPE svg PUBLIC "-//W3C//DTD SVG 1.1//EN"
  "http://www.w3.org/Graphics/SVG/1.1/DTD/svg11.dtd">
<svg xmlns:xlink="http://www.w3.org/1999/xlink" width="1080pt" height="288pt" viewBox="0 0 1080 288" xmlns="http://www.w3.org/2000/svg" version="1.1">
 <metadata>
  <rdf:RDF xmlns:dc="http://purl.org/dc/elements/1.1/" xmlns:cc="http://creativecommons.org/ns#" xmlns:rdf="http://www.w3.org/1999/02/22-rdf-syntax-ns#">
   <cc:Work>
    <dc:type rdf:resource="http://purl.org/dc/dcmitype/StillImage"/>
    <dc:date>2022-11-07T19:58:18.548741</dc:date>
    <dc:format>image/svg+xml</dc:format>
    <dc:creator>
     <cc:Agent>
      <dc:title>Matplotlib v3.5.1, https://matplotlib.org/</dc:title>
     </cc:Agent>
    </dc:creator>
   </cc:Work>
  </rdf:RDF>
 </metadata>
 <defs>
  <style type="text/css">*{stroke-linejoin: round; stroke-linecap: butt}</style>
 </defs>
 <g id="figure_1">
  <g id="patch_1">
   <path d="M 0 288 
L 1080 288 
L 1080 0 
L 0 0 
z
" style="fill: #f0f0f0"/>
  </g>
  <g id="axes_1">
   <g id="patch_2">
    <path d="M 34.37 255.833125 
L 1052.23 255.833125 
L 1052.23 44.331069 
L 34.37 44.331069 
z
" style="fill: #f0f0f0"/>
   </g>
   <g id="matplotlib.axis_1">
    <g id="xtick_1">
     <g id="text_1">
      <!--  Inventory/Working Capital -->
      <g style="fill: #262626" transform="translate(33.587266 270.840781)scale(0.11 -0.11)">
       <defs>
        <path id="ArialMT-20" transform="scale(0.015625)"/>
        <path id="ArialMT-49" d="M 597 0 
L 597 4581 
L 1203 4581 
L 1203 0 
L 597 0 
z
" transform="scale(0.015625)"/>
        <path id="ArialMT-6e" d="M 422 0 
L 422 3319 
L 928 3319 
L 928 2847 
Q 1294 3394 1984 3394 
Q 2284 3394 2536 3286 
Q 2788 3178 2913 3003 
Q 3038 2828 3088 2588 
Q 3119 2431 3119 2041 
L 3119 0 
L 2556 0 
L 2556 2019 
Q 2556 2363 2490 2533 
Q 2425 2703 2258 2804 
Q 2091 2906 1866 2906 
Q 1506 2906 1245 2678 
Q 984 2450 984 1813 
L 984 0 
L 422 0 
z
" transform="scale(0.015625)"/>
        <path id="ArialMT-76" d="M 1344 0 
L 81 3319 
L 675 3319 
L 1388 1331 
Q 1503 1009 1600 663 
Q 1675 925 1809 1294 
L 2547 3319 
L 3125 3319 
L 1869 0 
L 1344 0 
z
" transform="scale(0.015625)"/>
        <path id="ArialMT-65" d="M 2694 1069 
L 3275 997 
Q 3138 488 2766 206 
Q 2394 -75 1816 -75 
Q 1088 -75 661 373 
Q 234 822 234 1631 
Q 234 2469 665 2931 
Q 1097 3394 1784 3394 
Q 2450 3394 2872 2941 
Q 3294 2488 3294 1666 
Q 3294 1616 3291 1516 
L 816 1516 
Q 847 969 1125 678 
Q 1403 388 1819 388 
Q 2128 388 2347 550 
Q 2566 713 2694 1069 
z
M 847 1978 
L 2700 1978 
Q 2663 2397 2488 2606 
Q 2219 2931 1791 2931 
Q 1403 2931 1139 2672 
Q 875 2413 847 1978 
z
" transform="scale(0.015625)"/>
        <path id="ArialMT-74" d="M 1650 503 
L 1731 6 
Q 1494 -44 1306 -44 
Q 1000 -44 831 53 
Q 663 150 594 308 
Q 525 466 525 972 
L 525 2881 
L 113 2881 
L 113 3319 
L 525 3319 
L 525 4141 
L 1084 4478 
L 1084 3319 
L 1650 3319 
L 1650 2881 
L 1084 2881 
L 1084 941 
Q 1084 700 1114 631 
Q 1144 563 1211 522 
Q 1278 481 1403 481 
Q 1497 481 1650 503 
z
" transform="scale(0.015625)"/>
        <path id="ArialMT-6f" d="M 213 1659 
Q 213 2581 725 3025 
Q 1153 3394 1769 3394 
Q 2453 3394 2887 2945 
Q 3322 2497 3322 1706 
Q 3322 1066 3130 698 
Q 2938 331 2570 128 
Q 2203 -75 1769 -75 
Q 1072 -75 642 372 
Q 213 819 213 1659 
z
M 791 1659 
Q 791 1022 1069 705 
Q 1347 388 1769 388 
Q 2188 388 2466 706 
Q 2744 1025 2744 1678 
Q 2744 2294 2464 2611 
Q 2184 2928 1769 2928 
Q 1347 2928 1069 2612 
Q 791 2297 791 1659 
z
" transform="scale(0.015625)"/>
        <path id="ArialMT-72" d="M 416 0 
L 416 3319 
L 922 3319 
L 922 2816 
Q 1116 3169 1280 3281 
Q 1444 3394 1641 3394 
Q 1925 3394 2219 3213 
L 2025 2691 
Q 1819 2813 1613 2813 
Q 1428 2813 1281 2702 
Q 1134 2591 1072 2394 
Q 978 2094 978 1738 
L 978 0 
L 416 0 
z
" transform="scale(0.015625)"/>
        <path id="ArialMT-79" d="M 397 -1278 
L 334 -750 
Q 519 -800 656 -800 
Q 844 -800 956 -737 
Q 1069 -675 1141 -563 
Q 1194 -478 1313 -144 
Q 1328 -97 1363 -6 
L 103 3319 
L 709 3319 
L 1400 1397 
Q 1534 1031 1641 628 
Q 1738 1016 1872 1384 
L 2581 3319 
L 3144 3319 
L 1881 -56 
Q 1678 -603 1566 -809 
Q 1416 -1088 1222 -1217 
Q 1028 -1347 759 -1347 
Q 597 -1347 397 -1278 
z
" transform="scale(0.015625)"/>
        <path id="ArialMT-2f" d="M 0 -78 
L 1328 4659 
L 1778 4659 
L 453 -78 
L 0 -78 
z
" transform="scale(0.015625)"/>
        <path id="ArialMT-57" d="M 1294 0 
L 78 4581 
L 700 4581 
L 1397 1578 
Q 1509 1106 1591 641 
Q 1766 1375 1797 1488 
L 2669 4581 
L 3400 4581 
L 4056 2263 
Q 4303 1400 4413 641 
Q 4500 1075 4641 1638 
L 5359 4581 
L 5969 4581 
L 4713 0 
L 4128 0 
L 3163 3491 
Q 3041 3928 3019 4028 
Q 2947 3713 2884 3491 
L 1913 0 
L 1294 0 
z
" transform="scale(0.015625)"/>
        <path id="ArialMT-6b" d="M 425 0 
L 425 4581 
L 988 4581 
L 988 1969 
L 2319 3319 
L 3047 3319 
L 1778 2088 
L 3175 0 
L 2481 0 
L 1384 1697 
L 988 1316 
L 988 0 
L 425 0 
z
" transform="scale(0.015625)"/>
        <path id="ArialMT-69" d="M 425 3934 
L 425 4581 
L 988 4581 
L 988 3934 
L 425 3934 
z
M 425 0 
L 425 3319 
L 988 3319 
L 988 0 
L 425 0 
z
" transform="scale(0.015625)"/>
        <path id="ArialMT-67" d="M 319 -275 
L 866 -356 
Q 900 -609 1056 -725 
Q 1266 -881 1628 -881 
Q 2019 -881 2231 -725 
Q 2444 -569 2519 -288 
Q 2563 -116 2559 434 
Q 2191 0 1641 0 
Q 956 0 581 494 
Q 206 988 206 1678 
Q 206 2153 378 2554 
Q 550 2956 876 3175 
Q 1203 3394 1644 3394 
Q 2231 3394 2613 2919 
L 2613 3319 
L 3131 3319 
L 3131 450 
Q 3131 -325 2973 -648 
Q 2816 -972 2473 -1159 
Q 2131 -1347 1631 -1347 
Q 1038 -1347 672 -1080 
Q 306 -813 319 -275 
z
M 784 1719 
Q 784 1066 1043 766 
Q 1303 466 1694 466 
Q 2081 466 2343 764 
Q 2606 1063 2606 1700 
Q 2606 2309 2336 2618 
Q 2066 2928 1684 2928 
Q 1309 2928 1046 2623 
Q 784 2319 784 1719 
z
" transform="scale(0.015625)"/>
        <path id="ArialMT-43" d="M 3763 1606 
L 4369 1453 
Q 4178 706 3683 314 
Q 3188 -78 2472 -78 
Q 1731 -78 1267 223 
Q 803 525 561 1097 
Q 319 1669 319 2325 
Q 319 3041 592 3573 
Q 866 4106 1370 4382 
Q 1875 4659 2481 4659 
Q 3169 4659 3637 4309 
Q 4106 3959 4291 3325 
L 3694 3184 
Q 3534 3684 3231 3912 
Q 2928 4141 2469 4141 
Q 1941 4141 1586 3887 
Q 1231 3634 1087 3207 
Q 944 2781 944 2328 
Q 944 1744 1114 1308 
Q 1284 872 1643 656 
Q 2003 441 2422 441 
Q 2931 441 3284 734 
Q 3638 1028 3763 1606 
z
" transform="scale(0.015625)"/>
        <path id="ArialMT-61" d="M 2588 409 
Q 2275 144 1986 34 
Q 1697 -75 1366 -75 
Q 819 -75 525 192 
Q 231 459 231 875 
Q 231 1119 342 1320 
Q 453 1522 633 1644 
Q 813 1766 1038 1828 
Q 1203 1872 1538 1913 
Q 2219 1994 2541 2106 
Q 2544 2222 2544 2253 
Q 2544 2597 2384 2738 
Q 2169 2928 1744 2928 
Q 1347 2928 1158 2789 
Q 969 2650 878 2297 
L 328 2372 
Q 403 2725 575 2942 
Q 747 3159 1072 3276 
Q 1397 3394 1825 3394 
Q 2250 3394 2515 3294 
Q 2781 3194 2906 3042 
Q 3031 2891 3081 2659 
Q 3109 2516 3109 2141 
L 3109 1391 
Q 3109 606 3145 398 
Q 3181 191 3288 0 
L 2700 0 
Q 2613 175 2588 409 
z
M 2541 1666 
Q 2234 1541 1622 1453 
Q 1275 1403 1131 1340 
Q 988 1278 909 1158 
Q 831 1038 831 891 
Q 831 666 1001 516 
Q 1172 366 1500 366 
Q 1825 366 2078 508 
Q 2331 650 2450 897 
Q 2541 1088 2541 1459 
L 2541 1666 
z
" transform="scale(0.015625)"/>
        <path id="ArialMT-70" d="M 422 -1272 
L 422 3319 
L 934 3319 
L 934 2888 
Q 1116 3141 1344 3267 
Q 1572 3394 1897 3394 
Q 2322 3394 2647 3175 
Q 2972 2956 3137 2557 
Q 3303 2159 3303 1684 
Q 3303 1175 3120 767 
Q 2938 359 2589 142 
Q 2241 -75 1856 -75 
Q 1575 -75 1351 44 
Q 1128 163 984 344 
L 984 -1272 
L 422 -1272 
z
M 931 1641 
Q 931 1000 1190 694 
Q 1450 388 1819 388 
Q 2194 388 2461 705 
Q 2728 1022 2728 1688 
Q 2728 2322 2467 2637 
Q 2206 2953 1844 2953 
Q 1484 2953 1207 2617 
Q 931 2281 931 1641 
z
" transform="scale(0.015625)"/>
        <path id="ArialMT-6c" d="M 409 0 
L 409 4581 
L 972 4581 
L 972 0 
L 409 0 
z
" transform="scale(0.015625)"/>
       </defs>
       <use xlink:href="#ArialMT-20"/>
       <use xlink:href="#ArialMT-49" x="27.783203"/>
       <use xlink:href="#ArialMT-6e" x="55.566406"/>
       <use xlink:href="#ArialMT-76" x="111.181641"/>
       <use xlink:href="#ArialMT-65" x="161.181641"/>
       <use xlink:href="#ArialMT-6e" x="216.796875"/>
       <use xlink:href="#ArialMT-74" x="272.412109"/>
       <use xlink:href="#ArialMT-6f" x="300.195312"/>
       <use xlink:href="#ArialMT-72" x="355.810547"/>
       <use xlink:href="#ArialMT-79" x="389.111328"/>
       <use xlink:href="#ArialMT-2f" x="439.111328"/>
       <use xlink:href="#ArialMT-57" x="466.894531"/>
       <use xlink:href="#ArialMT-6f" x="559.529297"/>
       <use xlink:href="#ArialMT-72" x="615.144531"/>
       <use xlink:href="#ArialMT-6b" x="648.445312"/>
       <use xlink:href="#ArialMT-69" x="698.445312"/>
       <use xlink:href="#ArialMT-6e" x="720.662109"/>
       <use xlink:href="#ArialMT-67" x="776.277344"/>
       <use xlink:href="#ArialMT-20" x="831.892578"/>
       <use xlink:href="#ArialMT-43" x="859.675781"/>
       <use xlink:href="#ArialMT-61" x="931.892578"/>
       <use xlink:href="#ArialMT-70" x="987.507812"/>
       <use xlink:href="#ArialMT-69" x="1043.123047"/>
       <use xlink:href="#ArialMT-74" x="1065.339844"/>
       <use xlink:href="#ArialMT-61" x="1093.123047"/>
       <use xlink:href="#ArialMT-6c" x="1148.738281"/>
      </g>
     </g>
    </g>
    <g id="xtick_2">
     <g id="text_2">
      <!--  Inventory/Current Liability -->
      <g style="fill: #262626" transform="translate(161.333672 270.840781)scale(0.11 -0.11)">
       <defs>
        <path id="ArialMT-75" d="M 2597 0 
L 2597 488 
Q 2209 -75 1544 -75 
Q 1250 -75 995 37 
Q 741 150 617 320 
Q 494 491 444 738 
Q 409 903 409 1263 
L 409 3319 
L 972 3319 
L 972 1478 
Q 972 1038 1006 884 
Q 1059 663 1231 536 
Q 1403 409 1656 409 
Q 1909 409 2131 539 
Q 2353 669 2445 892 
Q 2538 1116 2538 1541 
L 2538 3319 
L 3100 3319 
L 3100 0 
L 2597 0 
z
" transform="scale(0.015625)"/>
        <path id="ArialMT-4c" d="M 469 0 
L 469 4581 
L 1075 4581 
L 1075 541 
L 3331 541 
L 3331 0 
L 469 0 
z
" transform="scale(0.015625)"/>
        <path id="ArialMT-62" d="M 941 0 
L 419 0 
L 419 4581 
L 981 4581 
L 981 2947 
Q 1338 3394 1891 3394 
Q 2197 3394 2470 3270 
Q 2744 3147 2920 2923 
Q 3097 2700 3197 2384 
Q 3297 2069 3297 1709 
Q 3297 856 2875 390 
Q 2453 -75 1863 -75 
Q 1275 -75 941 416 
L 941 0 
z
M 934 1684 
Q 934 1088 1097 822 
Q 1363 388 1816 388 
Q 2184 388 2453 708 
Q 2722 1028 2722 1663 
Q 2722 2313 2464 2622 
Q 2206 2931 1841 2931 
Q 1472 2931 1203 2611 
Q 934 2291 934 1684 
z
" transform="scale(0.015625)"/>
       </defs>
       <use xlink:href="#ArialMT-20"/>
       <use xlink:href="#ArialMT-49" x="27.783203"/>
       <use xlink:href="#ArialMT-6e" x="55.566406"/>
       <use xlink:href="#ArialMT-76" x="111.181641"/>
       <use xlink:href="#ArialMT-65" x="161.181641"/>
       <use xlink:href="#ArialMT-6e" x="216.796875"/>
       <use xlink:href="#ArialMT-74" x="272.412109"/>
       <use xlink:href="#ArialMT-6f" x="300.195312"/>
       <use xlink:href="#ArialMT-72" x="355.810547"/>
       <use xlink:href="#ArialMT-79" x="389.111328"/>
       <use xlink:href="#ArialMT-2f" x="439.111328"/>
       <use xlink:href="#ArialMT-43" x="466.894531"/>
       <use xlink:href="#ArialMT-75" x="539.111328"/>
       <use xlink:href="#ArialMT-72" x="594.726562"/>
       <use xlink:href="#ArialMT-72" x="628.027344"/>
       <use xlink:href="#ArialMT-65" x="661.328125"/>
       <use xlink:href="#ArialMT-6e" x="716.943359"/>
       <use xlink:href="#ArialMT-74" x="772.558594"/>
       <use xlink:href="#ArialMT-20" x="800.341797"/>
       <use xlink:href="#ArialMT-4c" x="828.125"/>
       <use xlink:href="#ArialMT-69" x="883.740234"/>
       <use xlink:href="#ArialMT-61" x="905.957031"/>
       <use xlink:href="#ArialMT-62" x="961.572266"/>
       <use xlink:href="#ArialMT-69" x="1017.1875"/>
       <use xlink:href="#ArialMT-6c" x="1039.404297"/>
       <use xlink:href="#ArialMT-69" x="1061.621094"/>
       <use xlink:href="#ArialMT-74" x="1083.837891"/>
       <use xlink:href="#ArialMT-79" x="1111.621094"/>
      </g>
     </g>
    </g>
    <g id="xtick_3">
     <g id="text_3">
      <!--  Current Liabilities/Liability -->
      <g style="fill: #262626" transform="translate(288.565312 270.840781)scale(0.11 -0.11)">
       <defs>
        <path id="ArialMT-73" d="M 197 991 
L 753 1078 
Q 800 744 1014 566 
Q 1228 388 1613 388 
Q 2000 388 2187 545 
Q 2375 703 2375 916 
Q 2375 1106 2209 1216 
Q 2094 1291 1634 1406 
Q 1016 1563 777 1677 
Q 538 1791 414 1992 
Q 291 2194 291 2438 
Q 291 2659 392 2848 
Q 494 3038 669 3163 
Q 800 3259 1026 3326 
Q 1253 3394 1513 3394 
Q 1903 3394 2198 3281 
Q 2494 3169 2634 2976 
Q 2775 2784 2828 2463 
L 2278 2388 
Q 2241 2644 2061 2787 
Q 1881 2931 1553 2931 
Q 1166 2931 1000 2803 
Q 834 2675 834 2503 
Q 834 2394 903 2306 
Q 972 2216 1119 2156 
Q 1203 2125 1616 2013 
Q 2213 1853 2448 1751 
Q 2684 1650 2818 1456 
Q 2953 1263 2953 975 
Q 2953 694 2789 445 
Q 2625 197 2315 61 
Q 2006 -75 1616 -75 
Q 969 -75 630 194 
Q 291 463 197 991 
z
" transform="scale(0.015625)"/>
       </defs>
       <use xlink:href="#ArialMT-20"/>
       <use xlink:href="#ArialMT-43" x="27.783203"/>
       <use xlink:href="#ArialMT-75" x="100"/>
       <use xlink:href="#ArialMT-72" x="155.615234"/>
       <use xlink:href="#ArialMT-72" x="188.916016"/>
       <use xlink:href="#ArialMT-65" x="222.216797"/>
       <use xlink:href="#ArialMT-6e" x="277.832031"/>
       <use xlink:href="#ArialMT-74" x="333.447266"/>
       <use xlink:href="#ArialMT-20" x="361.230469"/>
       <use xlink:href="#ArialMT-4c" x="389.013672"/>
       <use xlink:href="#ArialMT-69" x="444.628906"/>
       <use xlink:href="#ArialMT-61" x="466.845703"/>
       <use xlink:href="#ArialMT-62" x="522.460938"/>
       <use xlink:href="#ArialMT-69" x="578.076172"/>
       <use xlink:href="#ArialMT-6c" x="600.292969"/>
       <use xlink:href="#ArialMT-69" x="622.509766"/>
       <use xlink:href="#ArialMT-74" x="644.726562"/>
       <use xlink:href="#ArialMT-69" x="672.509766"/>
       <use xlink:href="#ArialMT-65" x="694.726562"/>
       <use xlink:href="#ArialMT-73" x="750.341797"/>
       <use xlink:href="#ArialMT-2f" x="800.341797"/>
       <use xlink:href="#ArialMT-4c" x="828.125"/>
       <use xlink:href="#ArialMT-69" x="883.740234"/>
       <use xlink:href="#ArialMT-61" x="905.957031"/>
       <use xlink:href="#ArialMT-62" x="961.572266"/>
       <use xlink:href="#ArialMT-69" x="1017.1875"/>
       <use xlink:href="#ArialMT-6c" x="1039.404297"/>
       <use xlink:href="#ArialMT-69" x="1061.621094"/>
       <use xlink:href="#ArialMT-74" x="1083.837891"/>
       <use xlink:href="#ArialMT-79" x="1111.621094"/>
      </g>
     </g>
    </g>
    <g id="xtick_4">
     <g id="text_4">
      <!--  Long-term Liability to Current Assets -->
      <g style="fill: #262626" transform="translate(389.510391 270.840781)scale(0.11 -0.11)">
       <defs>
        <path id="ArialMT-2d" d="M 203 1375 
L 203 1941 
L 1931 1941 
L 1931 1375 
L 203 1375 
z
" transform="scale(0.015625)"/>
        <path id="ArialMT-6d" d="M 422 0 
L 422 3319 
L 925 3319 
L 925 2853 
Q 1081 3097 1340 3245 
Q 1600 3394 1931 3394 
Q 2300 3394 2536 3241 
Q 2772 3088 2869 2813 
Q 3263 3394 3894 3394 
Q 4388 3394 4653 3120 
Q 4919 2847 4919 2278 
L 4919 0 
L 4359 0 
L 4359 2091 
Q 4359 2428 4304 2576 
Q 4250 2725 4106 2815 
Q 3963 2906 3769 2906 
Q 3419 2906 3187 2673 
Q 2956 2441 2956 1928 
L 2956 0 
L 2394 0 
L 2394 2156 
Q 2394 2531 2256 2718 
Q 2119 2906 1806 2906 
Q 1569 2906 1367 2781 
Q 1166 2656 1075 2415 
Q 984 2175 984 1722 
L 984 0 
L 422 0 
z
" transform="scale(0.015625)"/>
        <path id="ArialMT-41" d="M -9 0 
L 1750 4581 
L 2403 4581 
L 4278 0 
L 3588 0 
L 3053 1388 
L 1138 1388 
L 634 0 
L -9 0 
z
M 1313 1881 
L 2866 1881 
L 2388 3150 
Q 2169 3728 2063 4100 
Q 1975 3659 1816 3225 
L 1313 1881 
z
" transform="scale(0.015625)"/>
       </defs>
       <use xlink:href="#ArialMT-20"/>
       <use xlink:href="#ArialMT-4c" x="27.783203"/>
       <use xlink:href="#ArialMT-6f" x="83.398438"/>
       <use xlink:href="#ArialMT-6e" x="139.013672"/>
       <use xlink:href="#ArialMT-67" x="194.628906"/>
       <use xlink:href="#ArialMT-2d" x="250.244141"/>
       <use xlink:href="#ArialMT-74" x="283.544922"/>
       <use xlink:href="#ArialMT-65" x="311.328125"/>
       <use xlink:href="#ArialMT-72" x="366.943359"/>
       <use xlink:href="#ArialMT-6d" x="400.244141"/>
       <use xlink:href="#ArialMT-20" x="483.544922"/>
       <use xlink:href="#ArialMT-4c" x="511.328125"/>
       <use xlink:href="#ArialMT-69" x="566.943359"/>
       <use xlink:href="#ArialMT-61" x="589.160156"/>
       <use xlink:href="#ArialMT-62" x="644.775391"/>
       <use xlink:href="#ArialMT-69" x="700.390625"/>
       <use xlink:href="#ArialMT-6c" x="722.607422"/>
       <use xlink:href="#ArialMT-69" x="744.824219"/>
       <use xlink:href="#ArialMT-74" x="767.041016"/>
       <use xlink:href="#ArialMT-79" x="794.824219"/>
       <use xlink:href="#ArialMT-20" x="844.824219"/>
       <use xlink:href="#ArialMT-74" x="872.607422"/>
       <use xlink:href="#ArialMT-6f" x="900.390625"/>
       <use xlink:href="#ArialMT-20" x="956.005859"/>
       <use xlink:href="#ArialMT-43" x="983.789062"/>
       <use xlink:href="#ArialMT-75" x="1056.005859"/>
       <use xlink:href="#ArialMT-72" x="1111.621094"/>
       <use xlink:href="#ArialMT-72" x="1144.921875"/>
       <use xlink:href="#ArialMT-65" x="1178.222656"/>
       <use xlink:href="#ArialMT-6e" x="1233.837891"/>
       <use xlink:href="#ArialMT-74" x="1289.453125"/>
       <use xlink:href="#ArialMT-20" x="1317.236328"/>
       <use xlink:href="#ArialMT-41" x="1339.519531"/>
       <use xlink:href="#ArialMT-73" x="1406.21875"/>
       <use xlink:href="#ArialMT-73" x="1456.21875"/>
       <use xlink:href="#ArialMT-65" x="1506.21875"/>
       <use xlink:href="#ArialMT-74" x="1561.833984"/>
       <use xlink:href="#ArialMT-73" x="1589.617188"/>
      </g>
     </g>
    </g>
    <g id="xtick_5">
     <g id="text_5">
      <!--  Retained Earnings to Total Assets -->
      <g style="fill: #262626" transform="translate(523.248359 270.706719)scale(0.11 -0.11)">
       <defs>
        <path id="ArialMT-52" d="M 503 0 
L 503 4581 
L 2534 4581 
Q 3147 4581 3465 4457 
Q 3784 4334 3975 4021 
Q 4166 3709 4166 3331 
Q 4166 2844 3850 2509 
Q 3534 2175 2875 2084 
Q 3116 1969 3241 1856 
Q 3506 1613 3744 1247 
L 4541 0 
L 3778 0 
L 3172 953 
Q 2906 1366 2734 1584 
Q 2563 1803 2427 1890 
Q 2291 1978 2150 2013 
Q 2047 2034 1813 2034 
L 1109 2034 
L 1109 0 
L 503 0 
z
M 1109 2559 
L 2413 2559 
Q 2828 2559 3062 2645 
Q 3297 2731 3419 2920 
Q 3541 3109 3541 3331 
Q 3541 3656 3305 3865 
Q 3069 4075 2559 4075 
L 1109 4075 
L 1109 2559 
z
" transform="scale(0.015625)"/>
        <path id="ArialMT-64" d="M 2575 0 
L 2575 419 
Q 2259 -75 1647 -75 
Q 1250 -75 917 144 
Q 584 363 401 755 
Q 219 1147 219 1656 
Q 219 2153 384 2558 
Q 550 2963 881 3178 
Q 1213 3394 1622 3394 
Q 1922 3394 2156 3267 
Q 2391 3141 2538 2938 
L 2538 4581 
L 3097 4581 
L 3097 0 
L 2575 0 
z
M 797 1656 
Q 797 1019 1065 703 
Q 1334 388 1700 388 
Q 2069 388 2326 689 
Q 2584 991 2584 1609 
Q 2584 2291 2321 2609 
Q 2059 2928 1675 2928 
Q 1300 2928 1048 2622 
Q 797 2316 797 1656 
z
" transform="scale(0.015625)"/>
        <path id="ArialMT-45" d="M 506 0 
L 506 4581 
L 3819 4581 
L 3819 4041 
L 1113 4041 
L 1113 2638 
L 3647 2638 
L 3647 2100 
L 1113 2100 
L 1113 541 
L 3925 541 
L 3925 0 
L 506 0 
z
" transform="scale(0.015625)"/>
        <path id="ArialMT-54" d="M 1659 0 
L 1659 4041 
L 150 4041 
L 150 4581 
L 3781 4581 
L 3781 4041 
L 2266 4041 
L 2266 0 
L 1659 0 
z
" transform="scale(0.015625)"/>
       </defs>
       <use xlink:href="#ArialMT-20"/>
       <use xlink:href="#ArialMT-52" x="27.783203"/>
       <use xlink:href="#ArialMT-65" x="100"/>
       <use xlink:href="#ArialMT-74" x="155.615234"/>
       <use xlink:href="#ArialMT-61" x="183.398438"/>
       <use xlink:href="#ArialMT-69" x="239.013672"/>
       <use xlink:href="#ArialMT-6e" x="261.230469"/>
       <use xlink:href="#ArialMT-65" x="316.845703"/>
       <use xlink:href="#ArialMT-64" x="372.460938"/>
       <use xlink:href="#ArialMT-20" x="428.076172"/>
       <use xlink:href="#ArialMT-45" x="455.859375"/>
       <use xlink:href="#ArialMT-61" x="522.558594"/>
       <use xlink:href="#ArialMT-72" x="578.173828"/>
       <use xlink:href="#ArialMT-6e" x="611.474609"/>
       <use xlink:href="#ArialMT-69" x="667.089844"/>
       <use xlink:href="#ArialMT-6e" x="689.306641"/>
       <use xlink:href="#ArialMT-67" x="744.921875"/>
       <use xlink:href="#ArialMT-73" x="800.537109"/>
       <use xlink:href="#ArialMT-20" x="850.537109"/>
       <use xlink:href="#ArialMT-74" x="878.320312"/>
       <use xlink:href="#ArialMT-6f" x="906.103516"/>
       <use xlink:href="#ArialMT-20" x="961.71875"/>
       <use xlink:href="#ArialMT-54" x="987.751953"/>
       <use xlink:href="#ArialMT-6f" x="1037.710938"/>
       <use xlink:href="#ArialMT-74" x="1093.326172"/>
       <use xlink:href="#ArialMT-61" x="1121.109375"/>
       <use xlink:href="#ArialMT-6c" x="1176.724609"/>
       <use xlink:href="#ArialMT-20" x="1198.941406"/>
       <use xlink:href="#ArialMT-41" x="1221.224609"/>
       <use xlink:href="#ArialMT-73" x="1287.923828"/>
       <use xlink:href="#ArialMT-73" x="1337.923828"/>
       <use xlink:href="#ArialMT-65" x="1387.923828"/>
       <use xlink:href="#ArialMT-74" x="1443.539062"/>
       <use xlink:href="#ArialMT-73" x="1471.322266"/>
      </g>
     </g>
    </g>
    <g id="xtick_6">
     <g id="text_6">
      <!--  Total income/Total expense -->
      <g style="fill: #262626" transform="translate(666.382734 270.840781)scale(0.11 -0.11)">
       <defs>
        <path id="ArialMT-63" d="M 2588 1216 
L 3141 1144 
Q 3050 572 2676 248 
Q 2303 -75 1759 -75 
Q 1078 -75 664 370 
Q 250 816 250 1647 
Q 250 2184 428 2587 
Q 606 2991 970 3192 
Q 1334 3394 1763 3394 
Q 2303 3394 2647 3120 
Q 2991 2847 3088 2344 
L 2541 2259 
Q 2463 2594 2264 2762 
Q 2066 2931 1784 2931 
Q 1359 2931 1093 2626 
Q 828 2322 828 1663 
Q 828 994 1084 691 
Q 1341 388 1753 388 
Q 2084 388 2306 591 
Q 2528 794 2588 1216 
z
" transform="scale(0.015625)"/>
        <path id="ArialMT-78" d="M 47 0 
L 1259 1725 
L 138 3319 
L 841 3319 
L 1350 2541 
Q 1494 2319 1581 2169 
Q 1719 2375 1834 2534 
L 2394 3319 
L 3066 3319 
L 1919 1756 
L 3153 0 
L 2463 0 
L 1781 1031 
L 1600 1309 
L 728 0 
L 47 0 
z
" transform="scale(0.015625)"/>
       </defs>
       <use xlink:href="#ArialMT-20"/>
       <use xlink:href="#ArialMT-54" x="26.033203"/>
       <use xlink:href="#ArialMT-6f" x="75.992188"/>
       <use xlink:href="#ArialMT-74" x="131.607422"/>
       <use xlink:href="#ArialMT-61" x="159.390625"/>
       <use xlink:href="#ArialMT-6c" x="215.005859"/>
       <use xlink:href="#ArialMT-20" x="237.222656"/>
       <use xlink:href="#ArialMT-69" x="265.005859"/>
       <use xlink:href="#ArialMT-6e" x="287.222656"/>
       <use xlink:href="#ArialMT-63" x="342.837891"/>
       <use xlink:href="#ArialMT-6f" x="392.837891"/>
       <use xlink:href="#ArialMT-6d" x="448.453125"/>
       <use xlink:href="#ArialMT-65" x="531.753906"/>
       <use xlink:href="#ArialMT-2f" x="587.369141"/>
       <use xlink:href="#ArialMT-54" x="615.152344"/>
       <use xlink:href="#ArialMT-6f" x="665.111328"/>
       <use xlink:href="#ArialMT-74" x="720.726562"/>
       <use xlink:href="#ArialMT-61" x="748.509766"/>
       <use xlink:href="#ArialMT-6c" x="804.125"/>
       <use xlink:href="#ArialMT-20" x="826.341797"/>
       <use xlink:href="#ArialMT-65" x="854.125"/>
       <use xlink:href="#ArialMT-78" x="909.740234"/>
       <use xlink:href="#ArialMT-70" x="959.740234"/>
       <use xlink:href="#ArialMT-65" x="1015.355469"/>
       <use xlink:href="#ArialMT-6e" x="1070.970703"/>
       <use xlink:href="#ArialMT-73" x="1126.585938"/>
       <use xlink:href="#ArialMT-65" x="1176.585938"/>
      </g>
     </g>
    </g>
    <g id="xtick_7">
     <g id="text_7">
      <!--  Total expense/Assets -->
      <g style="fill: #262626" transform="translate(807.981406 270.840781)scale(0.11 -0.11)">
       <use xlink:href="#ArialMT-20"/>
       <use xlink:href="#ArialMT-54" x="26.033203"/>
       <use xlink:href="#ArialMT-6f" x="75.992188"/>
       <use xlink:href="#ArialMT-74" x="131.607422"/>
       <use xlink:href="#ArialMT-61" x="159.390625"/>
       <use xlink:href="#ArialMT-6c" x="215.005859"/>
       <use xlink:href="#ArialMT-20" x="237.222656"/>
       <use xlink:href="#ArialMT-65" x="265.005859"/>
       <use xlink:href="#ArialMT-78" x="320.621094"/>
       <use xlink:href="#ArialMT-70" x="370.621094"/>
       <use xlink:href="#ArialMT-65" x="426.236328"/>
       <use xlink:href="#ArialMT-6e" x="481.851562"/>
       <use xlink:href="#ArialMT-73" x="537.466797"/>
       <use xlink:href="#ArialMT-65" x="587.466797"/>
       <use xlink:href="#ArialMT-2f" x="643.082031"/>
       <use xlink:href="#ArialMT-41" x="670.865234"/>
       <use xlink:href="#ArialMT-73" x="737.564453"/>
       <use xlink:href="#ArialMT-73" x="787.564453"/>
       <use xlink:href="#ArialMT-65" x="837.564453"/>
       <use xlink:href="#ArialMT-74" x="893.179688"/>
       <use xlink:href="#ArialMT-73" x="920.962891"/>
      </g>
     </g>
    </g>
    <g id="xtick_8">
     <g id="text_8">
      <!--  Current Asset Turnover Rate -->
      <g style="fill: #262626" transform="translate(917.390469 270.706719)scale(0.11 -0.11)">
       <use xlink:href="#ArialMT-20"/>
       <use xlink:href="#ArialMT-43" x="27.783203"/>
       <use xlink:href="#ArialMT-75" x="100"/>
       <use xlink:href="#ArialMT-72" x="155.615234"/>
       <use xlink:href="#ArialMT-72" x="188.916016"/>
       <use xlink:href="#ArialMT-65" x="222.216797"/>
       <use xlink:href="#ArialMT-6e" x="277.832031"/>
       <use xlink:href="#ArialMT-74" x="333.447266"/>
       <use xlink:href="#ArialMT-20" x="361.230469"/>
       <use xlink:href="#ArialMT-41" x="383.513672"/>
       <use xlink:href="#ArialMT-73" x="450.212891"/>
       <use xlink:href="#ArialMT-73" x="500.212891"/>
       <use xlink:href="#ArialMT-65" x="550.212891"/>
       <use xlink:href="#ArialMT-74" x="605.828125"/>
       <use xlink:href="#ArialMT-20" x="633.611328"/>
       <use xlink:href="#ArialMT-54" x="659.644531"/>
       <use xlink:href="#ArialMT-75" x="716.978516"/>
       <use xlink:href="#ArialMT-72" x="772.59375"/>
       <use xlink:href="#ArialMT-6e" x="805.894531"/>
       <use xlink:href="#ArialMT-6f" x="861.509766"/>
       <use xlink:href="#ArialMT-76" x="917.125"/>
       <use xlink:href="#ArialMT-65" x="967.125"/>
       <use xlink:href="#ArialMT-72" x="1022.740234"/>
       <use xlink:href="#ArialMT-20" x="1056.041016"/>
       <use xlink:href="#ArialMT-52" x="1083.824219"/>
       <use xlink:href="#ArialMT-61" x="1156.041016"/>
       <use xlink:href="#ArialMT-74" x="1211.65625"/>
       <use xlink:href="#ArialMT-65" x="1239.439453"/>
      </g>
     </g>
    </g>
   </g>
   <g id="matplotlib.axis_2">
    <g id="ytick_1">
     <g id="line2d_1">
      <path d="M 34.37 220.597497 
L 1052.23 220.597497 
" clip-path="url(#pcc1b4ccf4f)" style="fill: none; stroke: #cbcbcb"/>
     </g>
     <g id="text_9">
      <!-- 0 -->
      <g style="fill: #262626" transform="translate(21.252969 224.534293)scale(0.11 -0.11)">
       <defs>
        <path id="ArialMT-30" d="M 266 2259 
Q 266 3072 433 3567 
Q 600 4063 929 4331 
Q 1259 4600 1759 4600 
Q 2128 4600 2406 4451 
Q 2684 4303 2865 4023 
Q 3047 3744 3150 3342 
Q 3253 2941 3253 2259 
Q 3253 1453 3087 958 
Q 2922 463 2592 192 
Q 2263 -78 1759 -78 
Q 1097 -78 719 397 
Q 266 969 266 2259 
z
M 844 2259 
Q 844 1131 1108 757 
Q 1372 384 1759 384 
Q 2147 384 2411 759 
Q 2675 1134 2675 2259 
Q 2675 3391 2411 3762 
Q 2147 4134 1753 4134 
Q 1366 4134 1134 3806 
Q 844 3388 844 2259 
z
" transform="scale(0.015625)"/>
       </defs>
       <use xlink:href="#ArialMT-30"/>
      </g>
     </g>
    </g>
    <g id="ytick_2">
     <g id="line2d_2">
      <path d="M 34.37 177.416892 
L 1052.23 177.416892 
" clip-path="url(#pcc1b4ccf4f)" style="fill: none; stroke: #cbcbcb"/>
     </g>
     <g id="text_10">
      <!-- 10 -->
      <g style="fill: #262626" transform="translate(15.135937 181.353689)scale(0.11 -0.11)">
       <defs>
        <path id="ArialMT-31" d="M 2384 0 
L 1822 0 
L 1822 3584 
Q 1619 3391 1289 3197 
Q 959 3003 697 2906 
L 697 3450 
Q 1169 3672 1522 3987 
Q 1875 4303 2022 4600 
L 2384 4600 
L 2384 0 
z
" transform="scale(0.015625)"/>
       </defs>
       <use xlink:href="#ArialMT-31"/>
       <use xlink:href="#ArialMT-30" x="55.615234"/>
      </g>
     </g>
    </g>
    <g id="ytick_3">
     <g id="line2d_3">
      <path d="M 34.37 134.236288 
L 1052.23 134.236288 
" clip-path="url(#pcc1b4ccf4f)" style="fill: none; stroke: #cbcbcb"/>
     </g>
     <g id="text_11">
      <!-- 20 -->
      <g style="fill: #262626" transform="translate(15.135937 138.173085)scale(0.11 -0.11)">
       <defs>
        <path id="ArialMT-32" d="M 3222 541 
L 3222 0 
L 194 0 
Q 188 203 259 391 
Q 375 700 629 1000 
Q 884 1300 1366 1694 
Q 2113 2306 2375 2664 
Q 2638 3022 2638 3341 
Q 2638 3675 2398 3904 
Q 2159 4134 1775 4134 
Q 1369 4134 1125 3890 
Q 881 3647 878 3216 
L 300 3275 
Q 359 3922 746 4261 
Q 1134 4600 1788 4600 
Q 2447 4600 2831 4234 
Q 3216 3869 3216 3328 
Q 3216 3053 3103 2787 
Q 2991 2522 2730 2228 
Q 2469 1934 1863 1422 
Q 1356 997 1212 845 
Q 1069 694 975 541 
L 3222 541 
z
" transform="scale(0.015625)"/>
       </defs>
       <use xlink:href="#ArialMT-32"/>
       <use xlink:href="#ArialMT-30" x="55.615234"/>
      </g>
     </g>
    </g>
    <g id="ytick_4">
     <g id="line2d_4">
      <path d="M 34.37 91.055684 
L 1052.23 91.055684 
" clip-path="url(#pcc1b4ccf4f)" style="fill: none; stroke: #cbcbcb"/>
     </g>
     <g id="text_12">
      <!-- 30 -->
      <g style="fill: #262626" transform="translate(15.135937 94.992481)scale(0.11 -0.11)">
       <defs>
        <path id="ArialMT-33" d="M 269 1209 
L 831 1284 
Q 928 806 1161 595 
Q 1394 384 1728 384 
Q 2125 384 2398 659 
Q 2672 934 2672 1341 
Q 2672 1728 2419 1979 
Q 2166 2231 1775 2231 
Q 1616 2231 1378 2169 
L 1441 2663 
Q 1497 2656 1531 2656 
Q 1891 2656 2178 2843 
Q 2466 3031 2466 3422 
Q 2466 3731 2256 3934 
Q 2047 4138 1716 4138 
Q 1388 4138 1169 3931 
Q 950 3725 888 3313 
L 325 3413 
Q 428 3978 793 4289 
Q 1159 4600 1703 4600 
Q 2078 4600 2393 4439 
Q 2709 4278 2876 4000 
Q 3044 3722 3044 3409 
Q 3044 3113 2884 2869 
Q 2725 2625 2413 2481 
Q 2819 2388 3044 2092 
Q 3269 1797 3269 1353 
Q 3269 753 2831 336 
Q 2394 -81 1725 -81 
Q 1122 -81 723 278 
Q 325 638 269 1209 
z
" transform="scale(0.015625)"/>
       </defs>
       <use xlink:href="#ArialMT-33"/>
       <use xlink:href="#ArialMT-30" x="55.615234"/>
      </g>
     </g>
    </g>
    <g id="ytick_5">
     <g id="line2d_5">
      <path d="M 34.37 47.87508 
L 1052.23 47.87508 
" clip-path="url(#pcc1b4ccf4f)" style="fill: none; stroke: #cbcbcb"/>
     </g>
     <g id="text_13">
      <!-- 40 -->
      <g style="fill: #262626" transform="translate(15.135937 51.811877)scale(0.11 -0.11)">
       <defs>
        <path id="ArialMT-34" d="M 2069 0 
L 2069 1097 
L 81 1097 
L 81 1613 
L 2172 4581 
L 2631 4581 
L 2631 1613 
L 3250 1613 
L 3250 1097 
L 2631 1097 
L 2631 0 
L 2069 0 
z
M 2069 1613 
L 2069 3678 
L 634 1613 
L 2069 1613 
z
" transform="scale(0.015625)"/>
       </defs>
       <use xlink:href="#ArialMT-34"/>
       <use xlink:href="#ArialMT-30" x="55.615234"/>
      </g>
     </g>
    </g>
   </g>
   <g id="PolyCollection_1">
    <defs>
     <path id="m6423b2c3e2" d="M 97.992921 -42.979741 
L 97.979579 -42.979741 
L 97.956676 -43.601971 
L 97.9184 -44.224201 
L 97.905349 -44.846432 
L 97.934771 -45.468662 
L 97.958957 -46.090893 
L 97.938814 -46.713123 
L 97.889019 -47.335353 
L 97.862935 -47.957584 
L 97.866394 -48.579814 
L 97.853819 -49.202044 
L 97.834062 -49.824275 
L 97.833154 -50.446505 
L 97.84183 -51.068736 
L 97.832203 -51.690966 
L 97.785808 -52.313196 
L 97.727493 -52.935427 
L 97.692224 -53.557657 
L 97.681858 -54.179887 
L 97.695755 -54.802118 
L 97.713553 -55.424348 
L 97.696198 -56.046579 
L 97.653983 -56.668809 
L 97.619822 -57.291039 
L 97.583037 -57.91327 
L 97.507979 -58.5355 
L 97.361085 -59.157731 
L 97.154526 -59.779961 
L 96.94818 -60.402191 
L 96.732812 -61.024422 
L 96.40141 -61.646652 
L 95.880607 -62.268882 
L 95.198594 -62.891113 
L 94.13879 -63.513343 
L 90.604538 -64.135574 
L 79.546124 -64.757804 
L 60.857347 -65.380034 
L 47.09325 -66.002265 
L 48.076235 -66.624495 
L 58.76411 -67.246725 
L 70.383994 -67.868956 
L 79.154859 -68.491186 
L 85.014406 -69.113417 
L 88.719997 -69.735647 
L 91.052697 -70.357877 
L 92.654033 -70.980108 
L 93.826868 -71.602338 
L 94.669951 -72.224568 
L 95.242594 -72.846799 
L 95.699024 -73.469029 
L 96.099902 -74.09126 
L 96.405473 -74.71349 
L 96.633618 -75.33572 
L 96.797227 -75.957951 
L 96.952575 -76.580181 
L 97.123702 -77.202411 
L 97.296009 -77.824642 
L 97.436224 -78.446872 
L 97.455951 -79.069103 
L 97.398266 -79.691333 
L 97.403041 -80.313563 
L 97.489014 -80.935794 
L 97.577315 -81.558024 
L 97.636153 -82.180254 
L 97.685484 -82.802485 
L 97.734105 -83.424715 
L 97.778778 -84.046946 
L 97.81238 -84.669176 
L 97.829389 -85.291406 
L 97.81742 -85.913637 
L 97.787329 -86.535867 
L 97.770393 -87.158097 
L 97.77224 -87.780328 
L 97.787937 -88.402558 
L 97.815777 -89.024789 
L 97.836745 -89.647019 
L 97.830377 -90.269249 
L 97.825382 -90.89148 
L 97.852285 -91.51371 
L 97.88088 -92.13594 
L 97.878484 -92.758171 
L 97.854755 -93.380401 
L 97.838547 -94.002632 
L 97.844002 -94.624862 
L 97.861976 -95.247092 
L 97.887848 -95.869323 
L 97.914361 -96.491553 
L 97.92249 -97.113784 
L 97.916417 -97.736014 
L 97.919453 -98.358244 
L 97.91885 -98.980475 
L 97.892544 -99.602705 
L 97.858366 -100.224935 
L 97.84098 -100.847166 
L 97.858563 -101.469396 
L 97.900586 -102.091627 
L 97.936671 -102.713857 
L 97.960154 -103.336087 
L 97.975928 -103.958318 
L 97.983794 -104.580548 
L 97.988706 -104.580548 
L 97.988706 -104.580548 
L 97.996572 -103.958318 
L 98.012346 -103.336087 
L 98.035829 -102.713857 
L 98.071914 -102.091627 
L 98.113937 -101.469396 
L 98.13152 -100.847166 
L 98.114134 -100.224935 
L 98.079956 -99.602705 
L 98.05365 -98.980475 
L 98.053047 -98.358244 
L 98.056083 -97.736014 
L 98.05001 -97.113784 
L 98.058139 -96.491553 
L 98.084652 -95.869323 
L 98.110524 -95.247092 
L 98.128498 -94.624862 
L 98.133953 -94.002632 
L 98.117745 -93.380401 
L 98.094016 -92.758171 
L 98.09162 -92.13594 
L 98.120215 -91.51371 
L 98.147118 -90.89148 
L 98.142123 -90.269249 
L 98.135755 -89.647019 
L 98.156723 -89.024789 
L 98.184563 -88.402558 
L 98.20026 -87.780328 
L 98.202107 -87.158097 
L 98.185171 -86.535867 
L 98.15508 -85.913637 
L 98.143111 -85.291406 
L 98.16012 -84.669176 
L 98.193722 -84.046946 
L 98.238395 -83.424715 
L 98.287016 -82.802485 
L 98.336347 -82.180254 
L 98.395185 -81.558024 
L 98.483486 -80.935794 
L 98.569459 -80.313563 
L 98.574234 -79.691333 
L 98.516549 -79.069103 
L 98.536276 -78.446872 
L 98.676491 -77.824642 
L 98.848798 -77.202411 
L 99.019925 -76.580181 
L 99.175273 -75.957951 
L 99.338882 -75.33572 
L 99.567027 -74.71349 
L 99.872598 -74.09126 
L 100.273476 -73.469029 
L 100.729906 -72.846799 
L 101.302549 -72.224568 
L 102.145632 -71.602338 
L 103.318467 -70.980108 
L 104.919803 -70.357877 
L 107.252503 -69.735647 
L 110.958094 -69.113417 
L 116.817641 -68.491186 
L 125.588506 -67.868956 
L 137.20839 -67.246725 
L 147.896265 -66.624495 
L 148.87925 -66.002265 
L 135.115153 -65.380034 
L 116.426376 -64.757804 
L 105.367962 -64.135574 
L 101.83371 -63.513343 
L 100.773906 -62.891113 
L 100.091893 -62.268882 
L 99.57109 -61.646652 
L 99.239688 -61.024422 
L 99.02432 -60.402191 
L 98.817974 -59.779961 
L 98.611415 -59.157731 
L 98.464521 -58.5355 
L 98.389463 -57.91327 
L 98.352678 -57.291039 
L 98.318517 -56.668809 
L 98.276302 -56.046579 
L 98.258947 -55.424348 
L 98.276745 -54.802118 
L 98.290642 -54.179887 
L 98.280276 -53.557657 
L 98.245007 -52.935427 
L 98.186692 -52.313196 
L 98.140297 -51.690966 
L 98.13067 -51.068736 
L 98.139346 -50.446505 
L 98.138438 -49.824275 
L 98.118681 -49.202044 
L 98.106106 -48.579814 
L 98.109565 -47.957584 
L 98.083481 -47.335353 
L 98.033686 -46.713123 
L 98.013543 -46.090893 
L 98.037729 -45.468662 
L 98.067151 -44.846432 
L 98.0541 -44.224201 
L 98.015824 -43.601971 
L 97.992921 -42.979741 
z
" style="stroke: #3e3e3e; stroke-width: 3"/>
    </defs>
    <g clip-path="url(#pcc1b4ccf4f)">
     <use xlink:href="#m6423b2c3e2" x="0" y="288" style="fill: #cb3335; stroke: #3e3e3e; stroke-width: 3"/>
    </g>
   </g>
   <g id="PolyCollection_2">
    <defs>
     <path id="m92bba8bf28" d="M 232.385293 -65.679154 
L 218.052207 -65.679154 
L 174.32575 -67.379923 
L 223.234695 -69.080691 
L 225.189799 -70.781459 
L 225.189723 -72.482227 
L 225.217465 -74.182995 
L 225.210696 -75.883763 
L 225.21789 -77.584531 
L 225.217949 -79.2853 
L 225.210657 -80.986068 
L 225.218161 -82.686836 
L 225.211812 -84.387604 
L 225.216177 -86.088372 
L 225.206911 -87.78914 
L 225.208976 -89.489909 
L 225.211051 -91.190677 
L 225.209431 -92.891445 
L 225.20461 -94.592213 
L 225.211274 -96.292981 
L 225.211746 -97.993749 
L 225.21687 -99.694517 
L 225.214252 -101.395286 
L 225.214731 -103.096054 
L 225.21873 -104.796822 
L 225.21875 -106.49759 
L 225.218691 -108.198358 
L 225.213113 -109.899126 
L 225.21578 -111.599895 
L 225.217038 -113.300663 
L 225.202671 -115.001431 
L 225.217889 -116.702199 
L 225.21875 -118.402967 
L 225.218728 -120.103735 
L 225.214204 -121.804503 
L 225.206395 -123.505272 
L 225.217804 -125.20604 
L 225.21773 -126.906808 
L 225.210827 -128.607576 
L 225.218412 -130.308344 
L 225.21875 -132.009112 
L 225.21875 -133.709881 
L 225.218172 -135.410649 
L 225.210593 -137.111417 
L 225.217887 -138.812185 
L 225.211178 -140.512953 
L 225.216016 -142.213721 
L 225.210747 -143.914489 
L 225.210421 -145.615258 
L 225.217968 -147.316026 
L 225.21875 -149.016794 
L 225.218739 -150.717562 
L 225.215387 -152.41833 
L 225.207908 -154.119098 
L 225.215692 -155.819867 
L 225.218741 -157.520635 
L 225.21875 -159.221403 
L 225.21875 -160.922171 
L 225.21875 -162.622939 
L 225.21875 -164.323707 
L 225.21875 -166.024475 
L 225.21875 -167.725244 
L 225.21875 -169.426012 
L 225.21875 -171.12678 
L 225.21875 -172.827548 
L 225.21875 -174.528316 
L 225.21875 -176.229084 
L 225.21875 -177.929853 
L 225.21875 -179.630621 
L 225.218731 -181.331389 
L 225.214777 -183.032157 
L 225.214208 -184.732925 
L 225.218722 -186.433693 
L 225.21875 -188.134461 
L 225.21875 -189.83523 
L 225.21875 -191.535998 
L 225.21875 -193.236766 
L 225.21875 -194.937534 
L 225.21875 -196.638302 
L 225.21875 -198.33907 
L 225.21875 -200.039839 
L 225.21875 -201.740607 
L 225.21875 -203.441375 
L 225.218746 -205.142143 
L 225.216606 -206.842911 
L 225.212132 -208.543679 
L 225.218638 -210.244447 
L 225.21875 -211.945216 
L 225.21875 -213.645984 
L 225.21875 -215.346752 
L 225.21875 -217.04752 
L 225.21875 -218.748288 
L 225.21875 -220.449056 
L 225.21875 -222.149825 
L 225.21875 -223.850593 
L 225.21875 -225.551361 
L 225.21875 -227.252129 
L 225.21875 -228.952897 
L 225.218445 -230.653665 
L 225.210909 -232.354433 
L 225.217646 -234.055202 
L 225.219854 -234.055202 
L 225.219854 -234.055202 
L 225.226591 -232.354433 
L 225.219055 -230.653665 
L 225.21875 -228.952897 
L 225.21875 -227.252129 
L 225.21875 -225.551361 
L 225.21875 -223.850593 
L 225.21875 -222.149825 
L 225.21875 -220.449056 
L 225.21875 -218.748288 
L 225.21875 -217.04752 
L 225.21875 -215.346752 
L 225.21875 -213.645984 
L 225.21875 -211.945216 
L 225.218862 -210.244447 
L 225.225368 -208.543679 
L 225.220894 -206.842911 
L 225.218754 -205.142143 
L 225.21875 -203.441375 
L 225.21875 -201.740607 
L 225.21875 -200.039839 
L 225.21875 -198.33907 
L 225.21875 -196.638302 
L 225.21875 -194.937534 
L 225.21875 -193.236766 
L 225.21875 -191.535998 
L 225.21875 -189.83523 
L 225.21875 -188.134461 
L 225.218778 -186.433693 
L 225.223292 -184.732925 
L 225.222723 -183.032157 
L 225.218769 -181.331389 
L 225.21875 -179.630621 
L 225.21875 -177.929853 
L 225.21875 -176.229084 
L 225.21875 -174.528316 
L 225.21875 -172.827548 
L 225.21875 -171.12678 
L 225.21875 -169.426012 
L 225.21875 -167.725244 
L 225.21875 -166.024475 
L 225.21875 -164.323707 
L 225.21875 -162.622939 
L 225.21875 -160.922171 
L 225.21875 -159.221403 
L 225.218759 -157.520635 
L 225.221808 -155.819867 
L 225.229592 -154.119098 
L 225.222113 -152.41833 
L 225.218761 -150.717562 
L 225.21875 -149.016794 
L 225.219532 -147.316026 
L 225.227079 -145.615258 
L 225.226753 -143.914489 
L 225.221484 -142.213721 
L 225.226322 -140.512953 
L 225.219613 -138.812185 
L 225.226907 -137.111417 
L 225.219328 -135.410649 
L 225.21875 -133.709881 
L 225.21875 -132.009112 
L 225.219088 -130.308344 
L 225.226673 -128.607576 
L 225.21977 -126.906808 
L 225.219696 -125.20604 
L 225.231105 -123.505272 
L 225.223296 -121.804503 
L 225.218772 -120.103735 
L 225.21875 -118.402967 
L 225.219611 -116.702199 
L 225.234829 -115.001431 
L 225.220462 -113.300663 
L 225.22172 -111.599895 
L 225.224387 -109.899126 
L 225.218809 -108.198358 
L 225.21875 -106.49759 
L 225.21877 -104.796822 
L 225.222769 -103.096054 
L 225.223248 -101.395286 
L 225.22063 -99.694517 
L 225.225754 -97.993749 
L 225.226226 -96.292981 
L 225.23289 -94.592213 
L 225.228069 -92.891445 
L 225.226449 -91.190677 
L 225.228524 -89.489909 
L 225.230589 -87.78914 
L 225.221323 -86.088372 
L 225.225688 -84.387604 
L 225.219339 -82.686836 
L 225.226843 -80.986068 
L 225.219551 -79.2853 
L 225.21961 -77.584531 
L 225.226804 -75.883763 
L 225.220035 -74.182995 
L 225.247777 -72.482227 
L 225.247701 -70.781459 
L 227.202805 -69.080691 
L 276.11175 -67.379923 
L 232.385293 -65.679154 
z
" style="stroke: #3e3e3e; stroke-width: 3"/>
    </defs>
    <g clip-path="url(#pcc1b4ccf4f)">
     <use xlink:href="#m92bba8bf28" x="0" y="288" style="fill: #477ca8; stroke: #3e3e3e; stroke-width: 3"/>
    </g>
   </g>
   <g id="PolyCollection_3">
    <defs>
     <path id="m36055005c9" d="M 352.511461 -53.57262 
L 352.391039 -53.57262 
L 352.338025 -53.779379 
L 352.251581 -53.986139 
L 352.120293 -54.192898 
L 351.934214 -54.399658 
L 351.68744 -54.606417 
L 351.380155 -54.813177 
L 351.019319 -55.019936 
L 350.617726 -55.226696 
L 350.191875 -55.433455 
L 349.75954 -55.640215 
L 349.3377 -55.846974 
L 348.940939 -56.053734 
L 348.579969 -56.260493 
L 348.260117 -56.467253 
L 347.980227 -56.674012 
L 347.732759 -56.880772 
L 347.505565 -57.087531 
L 347.28495 -57.294291 
L 347.05886 -57.50105 
L 346.818917 -57.70781 
L 346.560678 -57.914569 
L 346.282312 -58.121329 
L 345.982524 -58.328088 
L 345.658646 -58.534848 
L 345.305614 -58.741607 
L 344.916163 -58.948367 
L 344.482296 -59.155126 
L 343.997755 -59.361886 
L 343.460911 -59.568645 
L 342.877223 -59.775405 
L 342.260284 -59.982164 
L 341.630742 -60.188924 
L 341.012982 -60.395683 
L 340.430296 -60.602443 
L 339.899886 -60.809202 
L 339.429193 -61.015962 
L 339.014511 -61.222721 
L 338.64196 -61.429481 
L 338.29025 -61.63624 
L 337.93458 -61.843 
L 337.551256 -62.049759 
L 337.122584 -62.256519 
L 336.640942 -62.463278 
L 336.110341 -62.670038 
L 335.544129 -62.876797 
L 334.959302 -63.083557 
L 334.37001 -63.290316 
L 333.783771 -63.497076 
L 333.202471 -63.703835 
L 332.627237 -63.910595 
L 332.063668 -64.117354 
L 331.523492 -64.324114 
L 331.020809 -64.530873 
L 330.564447 -64.737633 
L 330.150581 -64.944392 
L 329.760047 -65.151152 
L 329.362627 -65.357911 
L 328.927039 -65.564671 
L 328.432481 -65.77143 
L 327.876789 -65.97819 
L 327.27787 -66.184949 
L 326.668045 -66.391709 
L 326.083842 -66.598468 
L 325.555278 -66.805228 
L 325.098389 -67.011987 
L 324.712978 -67.218747 
L 324.385145 -67.425506 
L 324.092426 -67.632266 
L 323.809001 -67.839025 
L 323.509519 -68.045785 
L 323.17165 -68.252544 
L 322.778376 -68.459304 
L 322.320588 -68.666063 
L 321.799208 -68.872823 
L 321.224794 -69.079582 
L 320.612734 -69.286342 
L 319.973828 -69.493101 
L 319.302606 -69.699861 
L 318.567465 -69.90662 
L 317.706675 -70.11338 
L 316.632896 -70.320139 
L 315.247593 -70.526899 
L 313.466722 -70.733658 
L 311.258895 -70.940418 
L 308.693794 -71.147177 
L 305.989535 -71.353937 
L 303.536066 -71.560696 
L 301.866358 -71.767456 
L 301.55825 -71.974215 
L 303.07959 -72.180975 
L 306.625437 -72.387734 
L 312.015913 -72.594494 
L 318.708382 -72.801253 
L 325.929931 -73.008013 
L 332.880553 -73.214772 
L 338.92666 -73.421532 
L 343.715664 -73.628291 
L 347.185815 -73.835051 
L 349.493145 -74.04181 
L 355.409355 -74.04181 
L 355.409355 -74.04181 
L 357.716685 -73.835051 
L 361.186836 -73.628291 
L 365.97584 -73.421532 
L 372.021947 -73.214772 
L 378.972569 -73.008013 
L 386.194118 -72.801253 
L 392.886587 -72.594494 
L 398.277063 -72.387734 
L 401.82291 -72.180975 
L 403.34425 -71.974215 
L 403.036142 -71.767456 
L 401.366434 -71.560696 
L 398.912965 -71.353937 
L 396.208706 -71.147177 
L 393.643605 -70.940418 
L 391.435778 -70.733658 
L 389.654907 -70.526899 
L 388.269604 -70.320139 
L 387.195825 -70.11338 
L 386.335035 -69.90662 
L 385.599894 -69.699861 
L 384.928672 -69.493101 
L 384.289766 -69.286342 
L 383.677706 -69.079582 
L 383.103292 -68.872823 
L 382.581912 -68.666063 
L 382.124124 -68.459304 
L 381.73085 -68.252544 
L 381.392981 -68.045785 
L 381.093499 -67.839025 
L 380.810074 -67.632266 
L 380.517355 -67.425506 
L 380.189522 -67.218747 
L 379.804111 -67.011987 
L 379.347222 -66.805228 
L 378.818658 -66.598468 
L 378.234455 -66.391709 
L 377.62463 -66.184949 
L 377.025711 -65.97819 
L 376.470019 -65.77143 
L 375.975461 -65.564671 
L 375.539873 -65.357911 
L 375.142453 -65.151152 
L 374.751919 -64.944392 
L 374.338053 -64.737633 
L 373.881691 -64.530873 
L 373.379008 -64.324114 
L 372.838832 -64.117354 
L 372.275263 -63.910595 
L 371.700029 -63.703835 
L 371.118729 -63.497076 
L 370.53249 -63.290316 
L 369.943198 -63.083557 
L 369.358371 -62.876797 
L 368.792159 -62.670038 
L 368.261558 -62.463278 
L 367.779916 -62.256519 
L 367.351244 -62.049759 
L 366.96792 -61.843 
L 366.61225 -61.63624 
L 366.26054 -61.429481 
L 365.887989 -61.222721 
L 365.473307 -61.015962 
L 365.002614 -60.809202 
L 364.472204 -60.602443 
L 363.889518 -60.395683 
L 363.271758 -60.188924 
L 362.642216 -59.982164 
L 362.025277 -59.775405 
L 361.441589 -59.568645 
L 360.904745 -59.361886 
L 360.420204 -59.155126 
L 359.986337 -58.948367 
L 359.596886 -58.741607 
L 359.243854 -58.534848 
L 358.919976 -58.328088 
L 358.620188 -58.121329 
L 358.341822 -57.914569 
L 358.083583 -57.70781 
L 357.84364 -57.50105 
L 357.61755 -57.294291 
L 357.396935 -57.087531 
L 357.169741 -56.880772 
L 356.922273 -56.674012 
L 356.642383 -56.467253 
L 356.322531 -56.260493 
L 355.961561 -56.053734 
L 355.5648 -55.846974 
L 355.14296 -55.640215 
L 354.710625 -55.433455 
L 354.284774 -55.226696 
L 353.883181 -55.019936 
L 353.522345 -54.813177 
L 353.21506 -54.606417 
L 352.968286 -54.399658 
L 352.782207 -54.192898 
L 352.650919 -53.986139 
L 352.564475 -53.779379 
L 352.511461 -53.57262 
z
" style="stroke: #3e3e3e; stroke-width: 3"/>
    </defs>
    <g clip-path="url(#pcc1b4ccf4f)">
     <use xlink:href="#m36055005c9" x="0" y="288" style="fill: #59a257; stroke: #3e3e3e; stroke-width: 3"/>
    </g>
   </g>
   <g id="PolyCollection_4">
    <defs>
     <path id="m04f5c44b38" d="M 486.615079 -65.660063 
L 472.752421 -65.660063 
L 428.79075 -67.066298 
L 469.024947 -68.472533 
L 479.594978 -69.878768 
L 479.67147 -71.285002 
L 479.663155 -72.691237 
L 479.661235 -74.097472 
L 479.681308 -75.503707 
L 479.677971 -76.909942 
L 479.678563 -78.316177 
L 479.675681 -79.722411 
L 479.673865 -81.128646 
L 479.659214 -82.534881 
L 479.665214 -83.941116 
L 479.681503 -85.347351 
L 479.675915 -86.753586 
L 479.682059 -88.159821 
L 479.683583 -89.566055 
L 479.678548 -90.97229 
L 479.678544 -92.378525 
L 479.672541 -93.78476 
L 479.665423 -95.190995 
L 479.67575 -96.59723 
L 479.679688 -98.003464 
L 479.683673 -99.409699 
L 479.68375 -100.815934 
L 479.68375 -102.222169 
L 479.68375 -103.628404 
L 479.68375 -105.034639 
L 479.68375 -106.440873 
L 479.68375 -107.847108 
L 479.68375 -109.253343 
L 479.68375 -110.659578 
L 479.68375 -112.065813 
L 479.68368 -113.472048 
L 479.679854 -114.878282 
L 479.677535 -116.284517 
L 479.680022 -117.690752 
L 479.668221 -119.096987 
L 479.681634 -120.503222 
L 479.683294 -121.909457 
L 479.672124 -123.315691 
L 479.675157 -124.721926 
L 479.683569 -126.128161 
L 479.68375 -127.534396 
L 479.683685 -128.940631 
L 479.67996 -130.346866 
L 479.677459 -131.7531 
L 479.683452 -133.159335 
L 479.683295 -134.56557 
L 479.676775 -135.971805 
L 479.678661 -137.37804 
L 479.676015 -138.784275 
L 479.680046 -140.190509 
L 479.67667 -141.596744 
L 479.683257 -143.002979 
L 479.683707 -144.409214 
L 479.679871 -145.815449 
L 479.66923 -147.221684 
L 479.68047 -148.627918 
L 479.676201 -150.034153 
L 479.681475 -151.440388 
L 479.68373 -152.846623 
L 479.68375 -154.252858 
L 479.683695 -155.659093 
L 479.680154 -157.065327 
L 479.674067 -158.471562 
L 479.676573 -159.877797 
L 479.683331 -161.284032 
L 479.683749 -162.690267 
L 479.68375 -164.096502 
L 479.68375 -165.502736 
L 479.68375 -166.908971 
L 479.68375 -168.315206 
L 479.68375 -169.721441 
L 479.68375 -171.127676 
L 479.68375 -172.533911 
L 479.68375 -173.940146 
L 479.68375 -175.34638 
L 479.68375 -176.752615 
L 479.68375 -178.15885 
L 479.68367 -179.565085 
L 479.679645 -180.97132 
L 479.677754 -182.377555 
L 479.683498 -183.783789 
L 479.682801 -185.190024 
L 479.675968 -186.596259 
L 479.681933 -188.002494 
L 479.683738 -189.408729 
L 479.68375 -190.814964 
L 479.68375 -192.221198 
L 479.68375 -193.627433 
L 479.68375 -195.033668 
L 479.68375 -196.439903 
L 479.68375 -197.846138 
L 479.68375 -199.252373 
L 479.68374 -200.658607 
L 479.68211 -202.064842 
L 479.675902 -203.471077 
L 479.682681 -204.877312 
L 479.684819 -204.877312 
L 479.684819 -204.877312 
L 479.691598 -203.471077 
L 479.68539 -202.064842 
L 479.68376 -200.658607 
L 479.68375 -199.252373 
L 479.68375 -197.846138 
L 479.68375 -196.439903 
L 479.68375 -195.033668 
L 479.68375 -193.627433 
L 479.68375 -192.221198 
L 479.68375 -190.814964 
L 479.683762 -189.408729 
L 479.685567 -188.002494 
L 479.691532 -186.596259 
L 479.684699 -185.190024 
L 479.684002 -183.783789 
L 479.689746 -182.377555 
L 479.687855 -180.97132 
L 479.68383 -179.565085 
L 479.68375 -178.15885 
L 479.68375 -176.752615 
L 479.68375 -175.34638 
L 479.68375 -173.940146 
L 479.68375 -172.533911 
L 479.68375 -171.127676 
L 479.68375 -169.721441 
L 479.68375 -168.315206 
L 479.68375 -166.908971 
L 479.68375 -165.502736 
L 479.68375 -164.096502 
L 479.683751 -162.690267 
L 479.684169 -161.284032 
L 479.690927 -159.877797 
L 479.693433 -158.471562 
L 479.687346 -157.065327 
L 479.683805 -155.659093 
L 479.68375 -154.252858 
L 479.68377 -152.846623 
L 479.686025 -151.440388 
L 479.691299 -150.034153 
L 479.68703 -148.627918 
L 479.69827 -147.221684 
L 479.687629 -145.815449 
L 479.683793 -144.409214 
L 479.684243 -143.002979 
L 479.69083 -141.596744 
L 479.687454 -140.190509 
L 479.691485 -138.784275 
L 479.688839 -137.37804 
L 479.690725 -135.971805 
L 479.684205 -134.56557 
L 479.684048 -133.159335 
L 479.690041 -131.7531 
L 479.68754 -130.346866 
L 479.683815 -128.940631 
L 479.68375 -127.534396 
L 479.683931 -126.128161 
L 479.692343 -124.721926 
L 479.695376 -123.315691 
L 479.684206 -121.909457 
L 479.685866 -120.503222 
L 479.699279 -119.096987 
L 479.687478 -117.690752 
L 479.689965 -116.284517 
L 479.687646 -114.878282 
L 479.68382 -113.472048 
L 479.68375 -112.065813 
L 479.68375 -110.659578 
L 479.68375 -109.253343 
L 479.68375 -107.847108 
L 479.68375 -106.440873 
L 479.68375 -105.034639 
L 479.68375 -103.628404 
L 479.68375 -102.222169 
L 479.68375 -100.815934 
L 479.683827 -99.409699 
L 479.687812 -98.003464 
L 479.69175 -96.59723 
L 479.702077 -95.190995 
L 479.694959 -93.78476 
L 479.688956 -92.378525 
L 479.688952 -90.97229 
L 479.683917 -89.566055 
L 479.685441 -88.159821 
L 479.691585 -86.753586 
L 479.685997 -85.347351 
L 479.702286 -83.941116 
L 479.708286 -82.534881 
L 479.693635 -81.128646 
L 479.691819 -79.722411 
L 479.688937 -78.316177 
L 479.689529 -76.909942 
L 479.686192 -75.503707 
L 479.706265 -74.097472 
L 479.704345 -72.691237 
L 479.69603 -71.285002 
L 479.772522 -69.878768 
L 490.342553 -68.472533 
L 530.57675 -67.066298 
L 486.615079 -65.660063 
z
" style="stroke: #3e3e3e; stroke-width: 3"/>
    </defs>
    <g clip-path="url(#pcc1b4ccf4f)">
     <use xlink:href="#m04f5c44b38" x="0" y="288" style="fill: #905998; stroke: #3e3e3e; stroke-width: 3"/>
    </g>
   </g>
   <g id="PolyCollection_5">
    <defs>
     <path id="m68688d25a2" d="M 606.92421 -41.780605 
L 606.90829 -41.780605 
L 606.894257 -42.155263 
L 606.867127 -42.529921 
L 606.825804 -42.904579 
L 606.775088 -43.279238 
L 606.723148 -43.653896 
L 606.677414 -44.028554 
L 606.643019 -44.403212 
L 606.620861 -44.77787 
L 606.604258 -45.152529 
L 606.582249 -45.527187 
L 606.55041 -45.901845 
L 606.51506 -46.276503 
L 606.485028 -46.651161 
L 606.46366 -47.02582 
L 606.44905 -47.400478 
L 606.437261 -47.775136 
L 606.424732 -48.149794 
L 606.408679 -48.524452 
L 606.385053 -48.899111 
L 606.349532 -49.273769 
L 606.303293 -49.648427 
L 606.255176 -50.023085 
L 606.216305 -50.397744 
L 606.192081 -50.772402 
L 606.177364 -51.14706 
L 606.15943 -51.521718 
L 606.126235 -51.896376 
L 606.071491 -52.271035 
L 605.995259 -52.645693 
L 605.903009 -53.020351 
L 605.803109 -53.395009 
L 605.706349 -53.769667 
L 605.627033 -54.144326 
L 605.57466 -54.518984 
L 605.539705 -54.893642 
L 605.495071 -55.2683 
L 605.416604 -55.642958 
L 605.300951 -56.017617 
L 605.162048 -56.392275 
L 605.009644 -56.766933 
L 604.836344 -57.141591 
L 604.628183 -57.516249 
L 604.373488 -57.890908 
L 604.054773 -58.265566 
L 603.655245 -58.640224 
L 603.189369 -59.014882 
L 602.710861 -59.38954 
L 602.275149 -59.764199 
L 601.899487 -60.138857 
L 601.563266 -60.513515 
L 601.229039 -60.888173 
L 600.842927 -61.262831 
L 600.327124 -61.63749 
L 599.609219 -62.012148 
L 598.678904 -62.386806 
L 597.601899 -62.761464 
L 596.451447 -63.136122 
L 595.224424 -63.510781 
L 593.838716 -63.885439 
L 592.168102 -64.260097 
L 589.989551 -64.634755 
L 586.917739 -65.009413 
L 582.568823 -65.384072 
L 576.939101 -65.75873 
L 570.623224 -66.133388 
L 564.610987 -66.508046 
L 559.852756 -66.882704 
L 556.94153 -67.257363 
L 556.02325 -67.632021 
L 556.860288 -68.006679 
L 558.982393 -68.381337 
L 561.872401 -68.755995 
L 565.122708 -69.130654 
L 568.516298 -69.505312 
L 572.005027 -69.87997 
L 575.596409 -70.254628 
L 579.220443 -70.629286 
L 582.672263 -71.003945 
L 585.697239 -71.378603 
L 588.180261 -71.753261 
L 590.256057 -72.127919 
L 592.188157 -72.502577 
L 594.133234 -72.877236 
L 596.054409 -73.251894 
L 597.833698 -73.626552 
L 599.394665 -74.00121 
L 600.714227 -74.375868 
L 601.78762 -74.750527 
L 602.627136 -75.125185 
L 603.279907 -75.499843 
L 603.821988 -75.874501 
L 604.329899 -76.24916 
L 604.852943 -76.623818 
L 605.395274 -76.998476 
L 605.913598 -77.373134 
L 606.342512 -77.747792 
L 606.638252 -78.122451 
L 606.804391 -78.497109 
L 606.879427 -78.871767 
L 606.953073 -78.871767 
L 606.953073 -78.871767 
L 607.028109 -78.497109 
L 607.194248 -78.122451 
L 607.489988 -77.747792 
L 607.918902 -77.373134 
L 608.437226 -76.998476 
L 608.979557 -76.623818 
L 609.502601 -76.24916 
L 610.010512 -75.874501 
L 610.552593 -75.499843 
L 611.205364 -75.125185 
L 612.04488 -74.750527 
L 613.118273 -74.375868 
L 614.437835 -74.00121 
L 615.998802 -73.626552 
L 617.778091 -73.251894 
L 619.699266 -72.877236 
L 621.644343 -72.502577 
L 623.576443 -72.127919 
L 625.652239 -71.753261 
L 628.135261 -71.378603 
L 631.160237 -71.003945 
L 634.612057 -70.629286 
L 638.236091 -70.254628 
L 641.827473 -69.87997 
L 645.316202 -69.505312 
L 648.709792 -69.130654 
L 651.960099 -68.755995 
L 654.850107 -68.381337 
L 656.972212 -68.006679 
L 657.80925 -67.632021 
L 656.89097 -67.257363 
L 653.979744 -66.882704 
L 649.221513 -66.508046 
L 643.209276 -66.133388 
L 636.893399 -65.75873 
L 631.263677 -65.384072 
L 626.914761 -65.009413 
L 623.842949 -64.634755 
L 621.664398 -64.260097 
L 619.993784 -63.885439 
L 618.608076 -63.510781 
L 617.381053 -63.136122 
L 616.230601 -62.761464 
L 615.153596 -62.386806 
L 614.223281 -62.012148 
L 613.505376 -61.63749 
L 612.989573 -61.262831 
L 612.603461 -60.888173 
L 612.269234 -60.513515 
L 611.933013 -60.138857 
L 611.557351 -59.764199 
L 611.121639 -59.38954 
L 610.643131 -59.014882 
L 610.177255 -58.640224 
L 609.777727 -58.265566 
L 609.459012 -57.890908 
L 609.204317 -57.516249 
L 608.996156 -57.141591 
L 608.822856 -56.766933 
L 608.670452 -56.392275 
L 608.531549 -56.017617 
L 608.415896 -55.642958 
L 608.337429 -55.2683 
L 608.292795 -54.893642 
L 608.25784 -54.518984 
L 608.205467 -54.144326 
L 608.126151 -53.769667 
L 608.029391 -53.395009 
L 607.929491 -53.020351 
L 607.837241 -52.645693 
L 607.761009 -52.271035 
L 607.706265 -51.896376 
L 607.67307 -51.521718 
L 607.655136 -51.14706 
L 607.640419 -50.772402 
L 607.616195 -50.397744 
L 607.577324 -50.023085 
L 607.529207 -49.648427 
L 607.482968 -49.273769 
L 607.447447 -48.899111 
L 607.423821 -48.524452 
L 607.407768 -48.149794 
L 607.395239 -47.775136 
L 607.38345 -47.400478 
L 607.36884 -47.02582 
L 607.347472 -46.651161 
L 607.31744 -46.276503 
L 607.28209 -45.901845 
L 607.250251 -45.527187 
L 607.228242 -45.152529 
L 607.211639 -44.77787 
L 607.189481 -44.403212 
L 607.155086 -44.028554 
L 607.109352 -43.653896 
L 607.057412 -43.279238 
L 607.006696 -42.904579 
L 606.965373 -42.529921 
L 606.938243 -42.155263 
L 606.92421 -41.780605 
z
" style="stroke: #3e3e3e; stroke-width: 3"/>
    </defs>
    <g clip-path="url(#pcc1b4ccf4f)">
     <use xlink:href="#m68688d25a2" x="0" y="288" style="fill: #df7f20; stroke: #3e3e3e; stroke-width: 3"/>
    </g>
   </g>
   <g id="PolyCollection_6">
    <defs>
     <path id="me5aa60c2d7" d="M 734.173562 -56.590463 
L 734.123938 -56.590463 
L 734.07652 -56.944392 
L 733.97148 -57.298321 
L 733.776851 -57.65225 
L 733.468752 -58.006179 
L 733.035869 -58.360108 
L 732.464566 -58.714037 
L 731.717012 -59.067966 
L 730.733815 -59.421895 
L 729.472952 -59.775824 
L 727.954775 -60.129752 
L 726.269655 -60.483681 
L 724.538256 -60.83761 
L 722.858964 -61.191539 
L 721.285919 -61.545468 
L 719.846658 -61.899397 
L 718.566363 -62.253326 
L 717.451715 -62.607255 
L 716.408292 -62.961184 
L 715.115926 -63.315113 
L 712.96923 -63.669042 
L 709.262234 -64.02297 
L 703.690284 -64.376899 
L 696.863528 -64.730828 
L 690.259528 -65.084757 
L 685.454641 -65.438686 
L 683.25575 -65.792615 
L 683.467911 -66.146544 
L 685.32753 -66.500473 
L 688.070568 -66.854402 
L 691.222052 -67.208331 
L 694.572407 -67.56226 
L 698.010242 -67.916189 
L 701.390433 -68.270117 
L 704.529911 -68.624046 
L 707.298157 -68.977975 
L 709.685885 -69.331904 
L 711.777932 -69.685833 
L 713.679363 -70.039762 
L 715.478052 -70.393691 
L 717.239507 -70.74762 
L 718.993598 -71.101549 
L 720.727877 -71.455478 
L 722.400653 -71.809407 
L 723.945145 -72.163335 
L 725.26991 -72.517264 
L 726.294865 -72.871193 
L 727.010147 -73.225122 
L 727.500648 -73.579051 
L 727.908638 -73.93298 
L 728.355882 -74.286909 
L 728.878339 -74.640838 
L 729.425024 -74.994767 
L 729.916696 -75.348696 
L 730.305477 -75.702625 
L 730.595372 -76.056553 
L 730.830668 -76.410482 
L 731.069123 -76.764411 
L 731.351236 -77.11834 
L 731.6795 -77.472269 
L 732.018058 -77.826198 
L 732.312355 -78.180127 
L 732.518028 -78.534056 
L 732.623808 -78.887985 
L 732.658396 -79.241914 
L 732.676917 -79.595843 
L 732.728393 -79.949772 
L 732.823967 -80.3037 
L 732.935358 -80.657629 
L 733.025276 -81.011558 
L 733.07795 -81.365487 
L 733.104482 -81.719416 
L 733.12788 -82.073345 
L 733.166216 -82.427274 
L 733.225772 -82.781203 
L 733.303993 -83.135132 
L 733.393445 -83.489061 
L 733.481473 -83.84299 
L 733.551922 -84.196918 
L 733.594033 -84.550847 
L 733.610621 -84.904776 
L 733.616253 -85.258705 
L 733.626597 -85.612634 
L 733.646216 -85.966563 
L 733.663833 -86.320492 
L 733.662112 -86.674421 
L 733.63641 -87.02835 
L 733.603958 -87.382279 
L 733.591677 -87.736208 
L 733.613501 -88.090137 
L 733.66045 -88.444065 
L 733.713227 -88.797994 
L 733.762455 -89.151923 
L 733.81454 -89.505852 
L 733.879224 -89.859781 
L 733.955107 -90.21371 
L 734.028777 -90.567639 
L 734.085962 -90.921568 
L 734.12135 -91.275497 
L 734.138864 -91.629426 
L 734.158636 -91.629426 
L 734.158636 -91.629426 
L 734.17615 -91.275497 
L 734.211538 -90.921568 
L 734.268723 -90.567639 
L 734.342393 -90.21371 
L 734.418276 -89.859781 
L 734.48296 -89.505852 
L 734.535045 -89.151923 
L 734.584273 -88.797994 
L 734.63705 -88.444065 
L 734.683999 -88.090137 
L 734.705823 -87.736208 
L 734.693542 -87.382279 
L 734.66109 -87.02835 
L 734.635388 -86.674421 
L 734.633667 -86.320492 
L 734.651284 -85.966563 
L 734.670903 -85.612634 
L 734.681247 -85.258705 
L 734.686879 -84.904776 
L 734.703467 -84.550847 
L 734.745578 -84.196918 
L 734.816027 -83.84299 
L 734.904055 -83.489061 
L 734.993507 -83.135132 
L 735.071728 -82.781203 
L 735.131284 -82.427274 
L 735.16962 -82.073345 
L 735.193018 -81.719416 
L 735.21955 -81.365487 
L 735.272224 -81.011558 
L 735.362142 -80.657629 
L 735.473533 -80.3037 
L 735.569107 -79.949772 
L 735.620583 -79.595843 
L 735.639104 -79.241914 
L 735.673692 -78.887985 
L 735.779472 -78.534056 
L 735.985145 -78.180127 
L 736.279442 -77.826198 
L 736.618 -77.472269 
L 736.946264 -77.11834 
L 737.228377 -76.764411 
L 737.466832 -76.410482 
L 737.702128 -76.056553 
L 737.992023 -75.702625 
L 738.380804 -75.348696 
L 738.872476 -74.994767 
L 739.419161 -74.640838 
L 739.941618 -74.286909 
L 740.388862 -73.93298 
L 740.796852 -73.579051 
L 741.287353 -73.225122 
L 742.002635 -72.871193 
L 743.02759 -72.517264 
L 744.352355 -72.163335 
L 745.896847 -71.809407 
L 747.569623 -71.455478 
L 749.303902 -71.101549 
L 751.057993 -70.74762 
L 752.819448 -70.393691 
L 754.618137 -70.039762 
L 756.519568 -69.685833 
L 758.611615 -69.331904 
L 760.999343 -68.977975 
L 763.767589 -68.624046 
L 766.907067 -68.270117 
L 770.287258 -67.916189 
L 773.725093 -67.56226 
L 777.075448 -67.208331 
L 780.226932 -66.854402 
L 782.96997 -66.500473 
L 784.829589 -66.146544 
L 785.04175 -65.792615 
L 782.842859 -65.438686 
L 778.037972 -65.084757 
L 771.433972 -64.730828 
L 764.607216 -64.376899 
L 759.035266 -64.02297 
L 755.32827 -63.669042 
L 753.181574 -63.315113 
L 751.889208 -62.961184 
L 750.845785 -62.607255 
L 749.731137 -62.253326 
L 748.450842 -61.899397 
L 747.011581 -61.545468 
L 745.438536 -61.191539 
L 743.759244 -60.83761 
L 742.027845 -60.483681 
L 740.342725 -60.129752 
L 738.824548 -59.775824 
L 737.563685 -59.421895 
L 736.580488 -59.067966 
L 735.832934 -58.714037 
L 735.261631 -58.360108 
L 734.828748 -58.006179 
L 734.520649 -57.65225 
L 734.32602 -57.298321 
L 734.22098 -56.944392 
L 734.173562 -56.590463 
z
" style="stroke: #3e3e3e; stroke-width: 3"/>
    </defs>
    <g clip-path="url(#pcc1b4ccf4f)">
     <use xlink:href="#me5aa60c2d7" x="0" y="288" style="fill: #e6e64c; stroke: #3e3e3e; stroke-width: 3"/>
    </g>
   </g>
   <g id="PolyCollection_7">
    <defs>
     <path id="m829f077939" d="M 861.845952 -60.528514 
L 860.916548 -60.528514 
L 860.157557 -60.839882 
L 858.583391 -61.15125 
L 855.785271 -61.462617 
L 851.501823 -61.773985 
L 845.82103 -62.085353 
L 839.246026 -62.39672 
L 832.540756 -62.708088 
L 826.431646 -63.019456 
L 821.35218 -63.330824 
L 817.382033 -63.642191 
L 814.388342 -63.953559 
L 812.238161 -64.264927 
L 810.917691 -64.576294 
L 810.48825 -64.887662 
L 810.953887 -65.19903 
L 812.183846 -65.510397 
L 813.964431 -65.821765 
L 816.121589 -66.133133 
L 818.589057 -66.4445 
L 821.355991 -66.755868 
L 824.350307 -67.067236 
L 827.381361 -67.378603 
L 830.208202 -67.689971 
L 832.671069 -68.001339 
L 834.762096 -68.312707 
L 836.582134 -68.624074 
L 838.241901 -68.935442 
L 839.794669 -69.24681 
L 841.234918 -69.558177 
L 842.542992 -69.869545 
L 843.734658 -70.180913 
L 844.874584 -70.49228 
L 846.037317 -70.803648 
L 847.245959 -71.115016 
L 848.445111 -71.426383 
L 849.534953 -71.737751 
L 850.436094 -72.049119 
L 851.131924 -72.360486 
L 851.666077 -72.671854 
L 852.114656 -72.983222 
L 852.560394 -73.29459 
L 853.074767 -73.605957 
L 853.700413 -73.917325 
L 854.432871 -74.228693 
L 855.212194 -74.54006 
L 855.937319 -74.851428 
L 856.506433 -75.162796 
L 856.867414 -75.474163 
L 857.047153 -75.785531 
L 857.136718 -76.096899 
L 857.241034 -76.408266 
L 857.428701 -76.719634 
L 857.713197 -77.031002 
L 858.067519 -77.342369 
L 858.45032 -77.653737 
L 858.822556 -77.965105 
L 859.15142 -78.276473 
L 859.411347 -78.58784 
L 859.589211 -78.899208 
L 859.690454 -79.210576 
L 859.738611 -79.521943 
L 859.766137 -79.833311 
L 859.801963 -80.144679 
L 859.862926 -80.456046 
L 859.952063 -80.767414 
L 860.061948 -81.078782 
L 860.179974 -81.390149 
L 860.293393 -81.701517 
L 860.392326 -82.012885 
L 860.469994 -82.324252 
L 860.522588 -82.63562 
L 860.551561 -82.946988 
L 860.565949 -83.258356 
L 860.579067 -83.569723 
L 860.599743 -83.881091 
L 860.62606 -84.192459 
L 860.648374 -84.503826 
L 860.659078 -84.815194 
L 860.660336 -85.126562 
L 860.663365 -85.437929 
L 860.680135 -85.749297 
L 860.714287 -86.060665 
L 860.758675 -86.372032 
L 860.801327 -86.6834 
L 860.834061 -86.994768 
L 860.856015 -87.306135 
L 860.870528 -87.617503 
L 860.880967 -87.928871 
L 860.890672 -88.240239 
L 860.9056 -88.551606 
L 860.934365 -88.862974 
L 860.983783 -89.174342 
L 861.053586 -89.485709 
L 861.135088 -89.797077 
L 861.214959 -90.108445 
L 861.281345 -90.419812 
L 861.328371 -90.73118 
L 861.356791 -91.042548 
L 861.371432 -91.353915 
L 861.391068 -91.353915 
L 861.391068 -91.353915 
L 861.405709 -91.042548 
L 861.434129 -90.73118 
L 861.481155 -90.419812 
L 861.547541 -90.108445 
L 861.627412 -89.797077 
L 861.708914 -89.485709 
L 861.778717 -89.174342 
L 861.828135 -88.862974 
L 861.8569 -88.551606 
L 861.871828 -88.240239 
L 861.881533 -87.928871 
L 861.891972 -87.617503 
L 861.906485 -87.306135 
L 861.928439 -86.994768 
L 861.961173 -86.6834 
L 862.003825 -86.372032 
L 862.048213 -86.060665 
L 862.082365 -85.749297 
L 862.099135 -85.437929 
L 862.102164 -85.126562 
L 862.103422 -84.815194 
L 862.114126 -84.503826 
L 862.13644 -84.192459 
L 862.162757 -83.881091 
L 862.183433 -83.569723 
L 862.196551 -83.258356 
L 862.210939 -82.946988 
L 862.239912 -82.63562 
L 862.292506 -82.324252 
L 862.370174 -82.012885 
L 862.469107 -81.701517 
L 862.582526 -81.390149 
L 862.700552 -81.078782 
L 862.810437 -80.767414 
L 862.899574 -80.456046 
L 862.960537 -80.144679 
L 862.996363 -79.833311 
L 863.023889 -79.521943 
L 863.072046 -79.210576 
L 863.173289 -78.899208 
L 863.351153 -78.58784 
L 863.61108 -78.276473 
L 863.939944 -77.965105 
L 864.31218 -77.653737 
L 864.694981 -77.342369 
L 865.049303 -77.031002 
L 865.333799 -76.719634 
L 865.521466 -76.408266 
L 865.625782 -76.096899 
L 865.715347 -75.785531 
L 865.895086 -75.474163 
L 866.256067 -75.162796 
L 866.825181 -74.851428 
L 867.550306 -74.54006 
L 868.329629 -74.228693 
L 869.062087 -73.917325 
L 869.687733 -73.605957 
L 870.202106 -73.29459 
L 870.647844 -72.983222 
L 871.096423 -72.671854 
L 871.630576 -72.360486 
L 872.326406 -72.049119 
L 873.227547 -71.737751 
L 874.317389 -71.426383 
L 875.516541 -71.115016 
L 876.725183 -70.803648 
L 877.887916 -70.49228 
L 879.027842 -70.180913 
L 880.219508 -69.869545 
L 881.527582 -69.558177 
L 882.967831 -69.24681 
L 884.520599 -68.935442 
L 886.180366 -68.624074 
L 888.000404 -68.312707 
L 890.091431 -68.001339 
L 892.554298 -67.689971 
L 895.381139 -67.378603 
L 898.412193 -67.067236 
L 901.406509 -66.755868 
L 904.173443 -66.4445 
L 906.640911 -66.133133 
L 908.798069 -65.821765 
L 910.578654 -65.510397 
L 911.808613 -65.19903 
L 912.27425 -64.887662 
L 911.844809 -64.576294 
L 910.524339 -64.264927 
L 908.374158 -63.953559 
L 905.380467 -63.642191 
L 901.41032 -63.330824 
L 896.330854 -63.019456 
L 890.221744 -62.708088 
L 883.516474 -62.39672 
L 876.94147 -62.085353 
L 871.260677 -61.773985 
L 866.977229 -61.462617 
L 864.179109 -61.15125 
L 862.604943 -60.839882 
L 861.845952 -60.528514 
z
" style="stroke: #3e3e3e; stroke-width: 3"/>
    </defs>
    <g clip-path="url(#pcc1b4ccf4f)">
     <use xlink:href="#m829f077939" x="0" y="288" style="fill: #965a38; stroke: #3e3e3e; stroke-width: 3"/>
    </g>
   </g>
   <g id="PolyCollection_8">
    <defs>
     <path id="m76d25dde6f" d="M 995.453076 -64.077607 
L 981.774424 -64.077607 
L 977.66274 -64.264673 
L 972.148391 -64.451739 
L 965.366272 -64.638805 
L 957.790058 -64.825871 
L 950.232258 -65.012937 
L 943.726483 -65.200003 
L 939.302973 -65.387069 
L 937.72075 -65.574135 
L 939.251662 -65.761201 
L 943.601076 -65.948267 
L 949.997466 -66.135333 
L 957.414015 -66.322399 
L 964.83519 -66.509465 
L 971.474097 -66.696531 
L 976.880824 -66.883597 
L 980.934795 -67.070663 
L 983.757139 -67.257729 
L 985.595606 -67.444795 
L 986.725297 -67.631861 
L 987.386427 -67.818927 
L 987.75929 -68.005993 
L 987.964891 -68.193059 
L 988.077617 -68.380125 
L 988.140025 -68.567191 
L 988.174928 -68.754257 
L 988.193679 -68.941323 
L 988.201345 -69.128389 
L 988.199831 -69.315455 
L 988.189746 -69.502521 
L 988.171491 -69.689587 
L 988.145856 -69.876653 
L 988.114295 -70.063719 
L 988.078995 -70.250785 
L 988.042757 -70.437851 
L 988.008682 -70.624917 
L 987.979648 -70.811983 
L 987.957659 -70.999049 
L 987.943248 -71.186115 
L 987.935148 -71.373181 
L 987.93041 -71.560247 
L 987.924966 -71.747313 
L 987.914474 -71.934379 
L 987.895166 -72.121445 
L 987.864477 -72.308511 
L 987.821334 -72.495577 
L 987.766171 -72.682643 
L 987.700807 -72.869709 
L 987.628281 -73.056775 
L 987.552606 -73.243841 
L 987.478363 -73.430907 
L 987.410057 -73.617973 
L 987.351309 -73.805039 
L 987.304121 -73.992105 
L 987.268475 -74.179171 
L 987.24245 -74.366237 
L 987.222829 -74.553303 
L 987.205998 -74.740369 
L 987.188835 -74.927434 
L 987.169317 -75.1145 
L 987.146676 -75.301566 
L 987.121129 -75.488632 
L 987.093316 -75.675698 
L 987.063726 -75.862764 
L 987.032349 -76.04983 
L 986.998721 -76.236896 
L 986.962279 -76.423962 
L 986.922811 -76.611028 
L 986.880688 -76.798094 
L 986.836705 -76.98516 
L 986.791581 -77.172226 
L 986.745359 -77.359292 
L 986.697049 -77.546358 
L 986.644724 -77.733424 
L 986.586108 -77.92049 
L 986.519444 -78.107556 
L 986.444363 -78.294622 
L 986.362432 -78.481688 
L 986.277198 -78.668754 
L 986.1937 -78.85582 
L 986.117628 -79.042886 
L 986.054471 -79.229952 
L 986.009027 -79.417018 
L 985.985536 -79.604084 
L 985.988304 -79.79115 
L 986.022403 -79.978216 
L 986.093778 -80.165282 
L 986.208305 -80.352348 
L 986.369817 -80.539414 
L 986.577747 -80.72648 
L 986.825391 -80.913546 
L 987.099736 -81.100612 
L 987.383179 -81.287678 
L 987.656719 -81.474744 
L 987.903584 -81.66181 
L 988.112113 -81.848876 
L 988.277103 -82.035942 
L 988.399452 -82.223008 
L 988.484525 -82.410074 
L 988.540015 -82.59714 
L 988.687485 -82.59714 
L 988.687485 -82.59714 
L 988.742975 -82.410074 
L 988.828048 -82.223008 
L 988.950397 -82.035942 
L 989.115387 -81.848876 
L 989.323916 -81.66181 
L 989.570781 -81.474744 
L 989.844321 -81.287678 
L 990.127764 -81.100612 
L 990.402109 -80.913546 
L 990.649753 -80.72648 
L 990.857683 -80.539414 
L 991.019195 -80.352348 
L 991.133722 -80.165282 
L 991.205097 -79.978216 
L 991.239196 -79.79115 
L 991.241964 -79.604084 
L 991.218473 -79.417018 
L 991.173029 -79.229952 
L 991.109872 -79.042886 
L 991.0338 -78.85582 
L 990.950302 -78.668754 
L 990.865068 -78.481688 
L 990.783137 -78.294622 
L 990.708056 -78.107556 
L 990.641392 -77.92049 
L 990.582776 -77.733424 
L 990.530451 -77.546358 
L 990.482141 -77.359292 
L 990.435919 -77.172226 
L 990.390795 -76.98516 
L 990.346812 -76.798094 
L 990.304689 -76.611028 
L 990.265221 -76.423962 
L 990.228779 -76.236896 
L 990.195151 -76.04983 
L 990.163774 -75.862764 
L 990.134184 -75.675698 
L 990.106371 -75.488632 
L 990.080824 -75.301566 
L 990.058183 -75.1145 
L 990.038665 -74.927434 
L 990.021502 -74.740369 
L 990.004671 -74.553303 
L 989.98505 -74.366237 
L 989.959025 -74.179171 
L 989.923379 -73.992105 
L 989.876191 -73.805039 
L 989.817443 -73.617973 
L 989.749137 -73.430907 
L 989.674894 -73.243841 
L 989.599219 -73.056775 
L 989.526693 -72.869709 
L 989.461329 -72.682643 
L 989.406166 -72.495577 
L 989.363023 -72.308511 
L 989.332334 -72.121445 
L 989.313026 -71.934379 
L 989.302534 -71.747313 
L 989.29709 -71.560247 
L 989.292352 -71.373181 
L 989.284252 -71.186115 
L 989.269841 -70.999049 
L 989.247852 -70.811983 
L 989.218818 -70.624917 
L 989.184743 -70.437851 
L 989.148505 -70.250785 
L 989.113205 -70.063719 
L 989.081644 -69.876653 
L 989.056009 -69.689587 
L 989.037754 -69.502521 
L 989.027669 -69.315455 
L 989.026155 -69.128389 
L 989.033821 -68.941323 
L 989.052572 -68.754257 
L 989.087475 -68.567191 
L 989.149883 -68.380125 
L 989.262609 -68.193059 
L 989.46821 -68.005993 
L 989.841073 -67.818927 
L 990.502203 -67.631861 
L 991.631894 -67.444795 
L 993.470361 -67.257729 
L 996.292705 -67.070663 
L 1000.346676 -66.883597 
L 1005.753403 -66.696531 
L 1012.39231 -66.509465 
L 1019.813485 -66.322399 
L 1027.230034 -66.135333 
L 1033.626424 -65.948267 
L 1037.975838 -65.761201 
L 1039.50675 -65.574135 
L 1037.924527 -65.387069 
L 1033.501017 -65.200003 
L 1026.995242 -65.012937 
L 1019.437442 -64.825871 
L 1011.861228 -64.638805 
L 1005.079109 -64.451739 
L 999.56476 -64.264673 
L 995.453076 -64.077607 
z
" style="stroke: #3e3e3e; stroke-width: 3"/>
    </defs>
    <g clip-path="url(#pcc1b4ccf4f)">
     <use xlink:href="#m76d25dde6f" x="0" y="288" style="fill: #e890be; stroke: #3e3e3e; stroke-width: 3"/>
    </g>
   </g>
   <g id="line2d_6">
    <path d="M 97.98625 225.428481 
L 97.98625 216.75585 
" clip-path="url(#pcc1b4ccf4f)" style="fill: none; stroke: #3e3e3e; stroke-width: 3"/>
   </g>
   <g id="line2d_7">
    <path d="M 97.98625 222.18215 
L 97.98625 219.994367 
" clip-path="url(#pcc1b4ccf4f)" style="fill: none; stroke: #3e3e3e; stroke-width: 9"/>
   </g>
   <g id="line2d_8">
    <path d="M 225.21875 220.830103 
L 225.21875 220.830103 
" clip-path="url(#pcc1b4ccf4f)" style="fill: none; stroke: #3e3e3e; stroke-width: 3"/>
   </g>
   <g id="line2d_9">
    <path d="M 225.21875 220.830103 
L 225.21875 220.830103 
" clip-path="url(#pcc1b4ccf4f)" style="fill: none; stroke: #3e3e3e; stroke-width: 9"/>
   </g>
   <g id="line2d_10">
    <path d="M 352.45125 232.936638 
L 352.45125 215.448932 
" clip-path="url(#pcc1b4ccf4f)" style="fill: none; stroke: #3e3e3e; stroke-width: 3"/>
   </g>
   <g id="line2d_11">
    <path d="M 352.45125 223.515241 
L 352.45125 216.778818 
" clip-path="url(#pcc1b4ccf4f)" style="fill: none; stroke: #3e3e3e; stroke-width: 9"/>
   </g>
   <g id="line2d_12">
    <path d="M 479.68375 220.849194 
L 479.68375 220.849194 
" clip-path="url(#pcc1b4ccf4f)" style="fill: none; stroke: #3e3e3e; stroke-width: 3"/>
   </g>
   <g id="line2d_13">
    <path d="M 479.68375 220.849194 
L 479.68375 220.849194 
" clip-path="url(#pcc1b4ccf4f)" style="fill: none; stroke: #3e3e3e; stroke-width: 9"/>
   </g>
   <g id="line2d_14">
    <path d="M 606.91625 227.70969 
L 606.91625 212.466903 
" clip-path="url(#pcc1b4ccf4f)" style="fill: none; stroke: #3e3e3e; stroke-width: 3"/>
   </g>
   <g id="line2d_15">
    <path d="M 606.91625 221.983875 
L 606.91625 218.165519 
" clip-path="url(#pcc1b4ccf4f)" style="fill: none; stroke: #3e3e3e; stroke-width: 9"/>
   </g>
   <g id="line2d_16">
    <path d="M 734.14875 229.196685 
L 734.14875 212.551783 
" clip-path="url(#pcc1b4ccf4f)" style="fill: none; stroke: #3e3e3e; stroke-width: 3"/>
   </g>
   <g id="line2d_17">
    <path d="M 734.14875 222.996264 
L 734.14875 218.817083 
" clip-path="url(#pcc1b4ccf4f)" style="fill: none; stroke: #3e3e3e; stroke-width: 9"/>
   </g>
   <g id="line2d_18">
    <path d="M 861.38125 225.980743 
L 861.38125 211.732465 
" clip-path="url(#pcc1b4ccf4f)" style="fill: none; stroke: #3e3e3e; stroke-width: 3"/>
   </g>
   <g id="line2d_19">
    <path d="M 861.38125 223.564519 
L 861.38125 218.829502 
" clip-path="url(#pcc1b4ccf4f)" style="fill: none; stroke: #3e3e3e; stroke-width: 9"/>
   </g>
   <g id="line2d_20">
    <path d="M 988.61375 222.43165 
L 988.61375 222.43165 
" clip-path="url(#pcc1b4ccf4f)" style="fill: none; stroke: #3e3e3e; stroke-width: 3"/>
   </g>
   <g id="line2d_21">
    <path d="M 988.61375 222.43165 
L 988.61375 222.43165 
" clip-path="url(#pcc1b4ccf4f)" style="fill: none; stroke: #3e3e3e; stroke-width: 9"/>
   </g>
   <g id="patch_3">
    <path d="M 34.37 255.833125 
L 34.37 44.331069 
" style="fill: none; stroke: #f0f0f0; stroke-width: 3; stroke-linejoin: miter; stroke-linecap: square"/>
   </g>
   <g id="patch_4">
    <path d="M 1052.23 255.833125 
L 1052.23 44.331069 
" style="fill: none; stroke: #f0f0f0; stroke-width: 3; stroke-linejoin: miter; stroke-linecap: square"/>
   </g>
   <g id="patch_5">
    <path d="M 34.37 255.833125 
L 1052.23 255.833125 
" style="fill: none; stroke: #f0f0f0; stroke-width: 3; stroke-linejoin: miter; stroke-linecap: square"/>
   </g>
   <g id="patch_6">
    <path d="M 34.37 44.331069 
L 1052.23 44.331069 
" style="fill: none; stroke: #f0f0f0; stroke-width: 3; stroke-linejoin: miter; stroke-linecap: square"/>
   </g>
   <g id="PathCollection_1">
    <defs>
     <path id="m658e442ada" d="M 0 3 
C 0.795609 3 1.55874 2.683901 2.12132 2.12132 
C 2.683901 1.55874 3 0.795609 3 0 
C 3 -0.795609 2.683901 -1.55874 2.12132 -2.12132 
C 1.55874 -2.683901 0.795609 -3 0 -3 
C -0.795609 -3 -1.55874 -2.683901 -2.12132 -2.12132 
C -2.683901 -1.55874 -3 -0.795609 -3 0 
C -3 0.795609 -2.683901 1.55874 -2.12132 2.12132 
C -1.55874 2.683901 -0.795609 3 0 3 
z
" style="stroke: #3e3e3e; stroke-width: 0.5"/>
    </defs>
    <g clip-path="url(#pcc1b4ccf4f)">
     <use xlink:href="#m658e442ada" x="97.98625" y="221.379958" style="fill: #ffffff; stroke: #3e3e3e; stroke-width: 0.5"/>
    </g>
   </g>
   <g id="PathCollection_2">
    <g clip-path="url(#pcc1b4ccf4f)">
     <use xlink:href="#m658e442ada" x="225.21875" y="220.830103" style="fill: #ffffff; stroke: #3e3e3e; stroke-width: 0.5"/>
    </g>
   </g>
   <g id="PathCollection_3">
    <g clip-path="url(#pcc1b4ccf4f)">
     <use xlink:href="#m658e442ada" x="352.45125" y="219.711995" style="fill: #ffffff; stroke: #3e3e3e; stroke-width: 0.5"/>
    </g>
   </g>
   <g id="PathCollection_4">
    <g clip-path="url(#pcc1b4ccf4f)">
     <use xlink:href="#m658e442ada" x="479.68375" y="220.849194" style="fill: #ffffff; stroke: #3e3e3e; stroke-width: 0.5"/>
    </g>
   </g>
   <g id="PathCollection_5">
    <g clip-path="url(#pcc1b4ccf4f)">
     <use xlink:href="#m658e442ada" x="606.91625" y="220.18584" style="fill: #ffffff; stroke: #3e3e3e; stroke-width: 0.5"/>
    </g>
   </g>
   <g id="PathCollection_6">
    <g clip-path="url(#pcc1b4ccf4f)">
     <use xlink:href="#m658e442ada" x="734.14875" y="221.330527" style="fill: #ffffff; stroke: #3e3e3e; stroke-width: 0.5"/>
    </g>
   </g>
   <g id="PathCollection_7">
    <g clip-path="url(#pcc1b4ccf4f)">
     <use xlink:href="#m658e442ada" x="861.38125" y="221.748144" style="fill: #ffffff; stroke: #3e3e3e; stroke-width: 0.5"/>
    </g>
   </g>
   <g id="PathCollection_8">
    <g clip-path="url(#pcc1b4ccf4f)">
     <use xlink:href="#m658e442ada" x="988.61375" y="222.43165" style="fill: #ffffff; stroke: #3e3e3e; stroke-width: 0.5"/>
    </g>
   </g>
  </g>
  <g id="text_14">
   <!-- Violin Plot of all Continuous Variables -->
   <g style="fill: #262626" transform="translate(416.035547 16.496719)scale(0.15 -0.15)">
    <defs>
     <path id="ArialMT-56" d="M 1803 0 
L 28 4581 
L 684 4581 
L 1875 1253 
Q 2019 853 2116 503 
Q 2222 878 2363 1253 
L 3600 4581 
L 4219 4581 
L 2425 0 
L 1803 0 
z
" transform="scale(0.015625)"/>
     <path id="ArialMT-50" d="M 494 0 
L 494 4581 
L 2222 4581 
Q 2678 4581 2919 4538 
Q 3256 4481 3484 4323 
Q 3713 4166 3852 3881 
Q 3991 3597 3991 3256 
Q 3991 2672 3619 2267 
Q 3247 1863 2275 1863 
L 1100 1863 
L 1100 0 
L 494 0 
z
M 1100 2403 
L 2284 2403 
Q 2872 2403 3119 2622 
Q 3366 2841 3366 3238 
Q 3366 3525 3220 3729 
Q 3075 3934 2838 4000 
Q 2684 4041 2272 4041 
L 1100 4041 
L 1100 2403 
z
" transform="scale(0.015625)"/>
     <path id="ArialMT-66" d="M 556 0 
L 556 2881 
L 59 2881 
L 59 3319 
L 556 3319 
L 556 3672 
Q 556 4006 616 4169 
Q 697 4388 901 4523 
Q 1106 4659 1475 4659 
Q 1713 4659 2000 4603 
L 1916 4113 
Q 1741 4144 1584 4144 
Q 1328 4144 1222 4034 
Q 1116 3925 1116 3625 
L 1116 3319 
L 1763 3319 
L 1763 2881 
L 1116 2881 
L 1116 0 
L 556 0 
z
" transform="scale(0.015625)"/>
    </defs>
    <use xlink:href="#ArialMT-56"/>
    <use xlink:href="#ArialMT-69" x="64.949219"/>
    <use xlink:href="#ArialMT-6f" x="87.166016"/>
    <use xlink:href="#ArialMT-6c" x="142.78125"/>
    <use xlink:href="#ArialMT-69" x="164.998047"/>
    <use xlink:href="#ArialMT-6e" x="187.214844"/>
    <use xlink:href="#ArialMT-20" x="242.830078"/>
    <use xlink:href="#ArialMT-50" x="270.613281"/>
    <use xlink:href="#ArialMT-6c" x="337.3125"/>
    <use xlink:href="#ArialMT-6f" x="359.529297"/>
    <use xlink:href="#ArialMT-74" x="415.144531"/>
    <use xlink:href="#ArialMT-20" x="442.927734"/>
    <use xlink:href="#ArialMT-6f" x="470.710938"/>
    <use xlink:href="#ArialMT-66" x="526.326172"/>
    <use xlink:href="#ArialMT-20" x="554.109375"/>
    <use xlink:href="#ArialMT-61" x="581.892578"/>
    <use xlink:href="#ArialMT-6c" x="637.507812"/>
    <use xlink:href="#ArialMT-6c" x="659.724609"/>
    <use xlink:href="#ArialMT-20" x="681.941406"/>
    <use xlink:href="#ArialMT-43" x="709.724609"/>
    <use xlink:href="#ArialMT-6f" x="781.941406"/>
    <use xlink:href="#ArialMT-6e" x="837.556641"/>
    <use xlink:href="#ArialMT-74" x="893.171875"/>
    <use xlink:href="#ArialMT-69" x="920.955078"/>
    <use xlink:href="#ArialMT-6e" x="943.171875"/>
    <use xlink:href="#ArialMT-75" x="998.787109"/>
    <use xlink:href="#ArialMT-6f" x="1054.402344"/>
    <use xlink:href="#ArialMT-75" x="1110.017578"/>
    <use xlink:href="#ArialMT-73" x="1165.632812"/>
    <use xlink:href="#ArialMT-20" x="1215.632812"/>
    <use xlink:href="#ArialMT-56" x="1243.416016"/>
    <use xlink:href="#ArialMT-61" x="1302.740234"/>
    <use xlink:href="#ArialMT-72" x="1358.355469"/>
    <use xlink:href="#ArialMT-69" x="1391.65625"/>
    <use xlink:href="#ArialMT-61" x="1413.873047"/>
    <use xlink:href="#ArialMT-62" x="1469.488281"/>
    <use xlink:href="#ArialMT-6c" x="1525.103516"/>
    <use xlink:href="#ArialMT-65" x="1547.320312"/>
    <use xlink:href="#ArialMT-73" x="1602.935547"/>
   </g>
  </g>
 </g>
 <defs>
  <clipPath id="pcc1b4ccf4f">
   <rect x="34.37" y="44.331069" width="1017.86" height="211.502056"/>
  </clipPath>
 </defs>
</svg>
