<?xml version="1.0" encoding="utf-8" standalone="no"?>
<!DOCTYPE svg PUBLIC "-//W3C//DTD SVG 1.1//EN"
  "http://www.w3.org/Graphics/SVG/1.1/DTD/svg11.dtd">
<svg xmlns:xlink="http://www.w3.org/1999/xlink" width="1080pt" height="288pt" viewBox="0 0 1080 288" xmlns="http://www.w3.org/2000/svg" version="1.1">
 <metadata>
  <rdf:RDF xmlns:dc="http://purl.org/dc/elements/1.1/" xmlns:cc="http://creativecommons.org/ns#" xmlns:rdf="http://www.w3.org/1999/02/22-rdf-syntax-ns#">
   <cc:Work>
    <dc:type rdf:resource="http://purl.org/dc/dcmitype/StillImage"/>
    <dc:date>2022-11-07T19:58:19.959477</dc:date>
    <dc:format>image/svg+xml</dc:format>
    <dc:creator>
     <cc:Agent>
      <dc:title>Matplotlib v3.5.1, https://matplotlib.org/</dc:title>
     </cc:Agent>
    </dc:creator>
   </cc:Work>
  </rdf:RDF>
 </metadata>
 <defs>
  <style type="text/css">*{stroke-linejoin: round; stroke-linecap: butt}</style>
 </defs>
 <g id="figure_1">
  <g id="patch_1">
   <path d="M 0 288 
L 1080 288 
L 1080 0 
L 0 0 
z
" style="fill: #f0f0f0"/>
  </g>
  <g id="axes_1">
   <g id="patch_2">
    <path d="M 43.87 255.833125 
L 1064.88 255.833125 
L 1064.88 44.24 
L 43.87 44.24 
z
" style="fill: #f0f0f0"/>
   </g>
   <g id="matplotlib.axis_1">
    <g id="xtick_1">
     <g id="text_1">
      <!--  No-credit Interval -->
      <g style="fill: #262626" transform="translate(170.637318 270.706719)scale(0.11 -0.11)">
       <defs>
        <path id="ArialMT-20" transform="scale(0.015625)"/>
        <path id="ArialMT-4e" d="M 488 0 
L 488 4581 
L 1109 4581 
L 3516 984 
L 3516 4581 
L 4097 4581 
L 4097 0 
L 3475 0 
L 1069 3600 
L 1069 0 
L 488 0 
z
" transform="scale(0.015625)"/>
        <path id="ArialMT-6f" d="M 213 1659 
Q 213 2581 725 3025 
Q 1153 3394 1769 3394 
Q 2453 3394 2887 2945 
Q 3322 2497 3322 1706 
Q 3322 1066 3130 698 
Q 2938 331 2570 128 
Q 2203 -75 1769 -75 
Q 1072 -75 642 372 
Q 213 819 213 1659 
z
M 791 1659 
Q 791 1022 1069 705 
Q 1347 388 1769 388 
Q 2188 388 2466 706 
Q 2744 1025 2744 1678 
Q 2744 2294 2464 2611 
Q 2184 2928 1769 2928 
Q 1347 2928 1069 2612 
Q 791 2297 791 1659 
z
" transform="scale(0.015625)"/>
        <path id="ArialMT-2d" d="M 203 1375 
L 203 1941 
L 1931 1941 
L 1931 1375 
L 203 1375 
z
" transform="scale(0.015625)"/>
        <path id="ArialMT-63" d="M 2588 1216 
L 3141 1144 
Q 3050 572 2676 248 
Q 2303 -75 1759 -75 
Q 1078 -75 664 370 
Q 250 816 250 1647 
Q 250 2184 428 2587 
Q 606 2991 970 3192 
Q 1334 3394 1763 3394 
Q 2303 3394 2647 3120 
Q 2991 2847 3088 2344 
L 2541 2259 
Q 2463 2594 2264 2762 
Q 2066 2931 1784 2931 
Q 1359 2931 1093 2626 
Q 828 2322 828 1663 
Q 828 994 1084 691 
Q 1341 388 1753 388 
Q 2084 388 2306 591 
Q 2528 794 2588 1216 
z
" transform="scale(0.015625)"/>
        <path id="ArialMT-72" d="M 416 0 
L 416 3319 
L 922 3319 
L 922 2816 
Q 1116 3169 1280 3281 
Q 1444 3394 1641 3394 
Q 1925 3394 2219 3213 
L 2025 2691 
Q 1819 2813 1613 2813 
Q 1428 2813 1281 2702 
Q 1134 2591 1072 2394 
Q 978 2094 978 1738 
L 978 0 
L 416 0 
z
" transform="scale(0.015625)"/>
        <path id="ArialMT-65" d="M 2694 1069 
L 3275 997 
Q 3138 488 2766 206 
Q 2394 -75 1816 -75 
Q 1088 -75 661 373 
Q 234 822 234 1631 
Q 234 2469 665 2931 
Q 1097 3394 1784 3394 
Q 2450 3394 2872 2941 
Q 3294 2488 3294 1666 
Q 3294 1616 3291 1516 
L 816 1516 
Q 847 969 1125 678 
Q 1403 388 1819 388 
Q 2128 388 2347 550 
Q 2566 713 2694 1069 
z
M 847 1978 
L 2700 1978 
Q 2663 2397 2488 2606 
Q 2219 2931 1791 2931 
Q 1403 2931 1139 2672 
Q 875 2413 847 1978 
z
" transform="scale(0.015625)"/>
        <path id="ArialMT-64" d="M 2575 0 
L 2575 419 
Q 2259 -75 1647 -75 
Q 1250 -75 917 144 
Q 584 363 401 755 
Q 219 1147 219 1656 
Q 219 2153 384 2558 
Q 550 2963 881 3178 
Q 1213 3394 1622 3394 
Q 1922 3394 2156 3267 
Q 2391 3141 2538 2938 
L 2538 4581 
L 3097 4581 
L 3097 0 
L 2575 0 
z
M 797 1656 
Q 797 1019 1065 703 
Q 1334 388 1700 388 
Q 2069 388 2326 689 
Q 2584 991 2584 1609 
Q 2584 2291 2321 2609 
Q 2059 2928 1675 2928 
Q 1300 2928 1048 2622 
Q 797 2316 797 1656 
z
" transform="scale(0.015625)"/>
        <path id="ArialMT-69" d="M 425 3934 
L 425 4581 
L 988 4581 
L 988 3934 
L 425 3934 
z
M 425 0 
L 425 3319 
L 988 3319 
L 988 0 
L 425 0 
z
" transform="scale(0.015625)"/>
        <path id="ArialMT-74" d="M 1650 503 
L 1731 6 
Q 1494 -44 1306 -44 
Q 1000 -44 831 53 
Q 663 150 594 308 
Q 525 466 525 972 
L 525 2881 
L 113 2881 
L 113 3319 
L 525 3319 
L 525 4141 
L 1084 4478 
L 1084 3319 
L 1650 3319 
L 1650 2881 
L 1084 2881 
L 1084 941 
Q 1084 700 1114 631 
Q 1144 563 1211 522 
Q 1278 481 1403 481 
Q 1497 481 1650 503 
z
" transform="scale(0.015625)"/>
        <path id="ArialMT-49" d="M 597 0 
L 597 4581 
L 1203 4581 
L 1203 0 
L 597 0 
z
" transform="scale(0.015625)"/>
        <path id="ArialMT-6e" d="M 422 0 
L 422 3319 
L 928 3319 
L 928 2847 
Q 1294 3394 1984 3394 
Q 2284 3394 2536 3286 
Q 2788 3178 2913 3003 
Q 3038 2828 3088 2588 
Q 3119 2431 3119 2041 
L 3119 0 
L 2556 0 
L 2556 2019 
Q 2556 2363 2490 2533 
Q 2425 2703 2258 2804 
Q 2091 2906 1866 2906 
Q 1506 2906 1245 2678 
Q 984 2450 984 1813 
L 984 0 
L 422 0 
z
" transform="scale(0.015625)"/>
        <path id="ArialMT-76" d="M 1344 0 
L 81 3319 
L 675 3319 
L 1388 1331 
Q 1503 1009 1600 663 
Q 1675 925 1809 1294 
L 2547 3319 
L 3125 3319 
L 1869 0 
L 1344 0 
z
" transform="scale(0.015625)"/>
        <path id="ArialMT-61" d="M 2588 409 
Q 2275 144 1986 34 
Q 1697 -75 1366 -75 
Q 819 -75 525 192 
Q 231 459 231 875 
Q 231 1119 342 1320 
Q 453 1522 633 1644 
Q 813 1766 1038 1828 
Q 1203 1872 1538 1913 
Q 2219 1994 2541 2106 
Q 2544 2222 2544 2253 
Q 2544 2597 2384 2738 
Q 2169 2928 1744 2928 
Q 1347 2928 1158 2789 
Q 969 2650 878 2297 
L 328 2372 
Q 403 2725 575 2942 
Q 747 3159 1072 3276 
Q 1397 3394 1825 3394 
Q 2250 3394 2515 3294 
Q 2781 3194 2906 3042 
Q 3031 2891 3081 2659 
Q 3109 2516 3109 2141 
L 3109 1391 
Q 3109 606 3145 398 
Q 3181 191 3288 0 
L 2700 0 
Q 2613 175 2588 409 
z
M 2541 1666 
Q 2234 1541 1622 1453 
Q 1275 1403 1131 1340 
Q 988 1278 909 1158 
Q 831 1038 831 891 
Q 831 666 1001 516 
Q 1172 366 1500 366 
Q 1825 366 2078 508 
Q 2331 650 2450 897 
Q 2541 1088 2541 1459 
L 2541 1666 
z
" transform="scale(0.015625)"/>
        <path id="ArialMT-6c" d="M 409 0 
L 409 4581 
L 972 4581 
L 972 0 
L 409 0 
z
" transform="scale(0.015625)"/>
       </defs>
       <use xlink:href="#ArialMT-20"/>
       <use xlink:href="#ArialMT-4e" x="27.783203"/>
       <use xlink:href="#ArialMT-6f" x="100"/>
       <use xlink:href="#ArialMT-2d" x="155.615234"/>
       <use xlink:href="#ArialMT-63" x="188.916016"/>
       <use xlink:href="#ArialMT-72" x="238.916016"/>
       <use xlink:href="#ArialMT-65" x="272.216797"/>
       <use xlink:href="#ArialMT-64" x="327.832031"/>
       <use xlink:href="#ArialMT-69" x="383.447266"/>
       <use xlink:href="#ArialMT-74" x="405.664062"/>
       <use xlink:href="#ArialMT-20" x="433.447266"/>
       <use xlink:href="#ArialMT-49" x="461.230469"/>
       <use xlink:href="#ArialMT-6e" x="489.013672"/>
       <use xlink:href="#ArialMT-74" x="544.628906"/>
       <use xlink:href="#ArialMT-65" x="572.412109"/>
       <use xlink:href="#ArialMT-72" x="628.027344"/>
       <use xlink:href="#ArialMT-76" x="661.328125"/>
       <use xlink:href="#ArialMT-61" x="711.328125"/>
       <use xlink:href="#ArialMT-6c" x="766.943359"/>
      </g>
     </g>
    </g>
    <g id="xtick_2">
     <g id="text_2">
      <!--  Degree of Financial Leverage (DFL) -->
      <g style="fill: #262626" transform="translate(465.116875 270.840781)scale(0.11 -0.11)">
       <defs>
        <path id="ArialMT-44" d="M 494 0 
L 494 4581 
L 2072 4581 
Q 2606 4581 2888 4516 
Q 3281 4425 3559 4188 
Q 3922 3881 4101 3404 
Q 4281 2928 4281 2316 
Q 4281 1794 4159 1391 
Q 4038 988 3847 723 
Q 3656 459 3429 307 
Q 3203 156 2883 78 
Q 2563 0 2147 0 
L 494 0 
z
M 1100 541 
L 2078 541 
Q 2531 541 2789 625 
Q 3047 709 3200 863 
Q 3416 1078 3536 1442 
Q 3656 1806 3656 2325 
Q 3656 3044 3420 3430 
Q 3184 3816 2847 3947 
Q 2603 4041 2063 4041 
L 1100 4041 
L 1100 541 
z
" transform="scale(0.015625)"/>
        <path id="ArialMT-67" d="M 319 -275 
L 866 -356 
Q 900 -609 1056 -725 
Q 1266 -881 1628 -881 
Q 2019 -881 2231 -725 
Q 2444 -569 2519 -288 
Q 2563 -116 2559 434 
Q 2191 0 1641 0 
Q 956 0 581 494 
Q 206 988 206 1678 
Q 206 2153 378 2554 
Q 550 2956 876 3175 
Q 1203 3394 1644 3394 
Q 2231 3394 2613 2919 
L 2613 3319 
L 3131 3319 
L 3131 450 
Q 3131 -325 2973 -648 
Q 2816 -972 2473 -1159 
Q 2131 -1347 1631 -1347 
Q 1038 -1347 672 -1080 
Q 306 -813 319 -275 
z
M 784 1719 
Q 784 1066 1043 766 
Q 1303 466 1694 466 
Q 2081 466 2343 764 
Q 2606 1063 2606 1700 
Q 2606 2309 2336 2618 
Q 2066 2928 1684 2928 
Q 1309 2928 1046 2623 
Q 784 2319 784 1719 
z
" transform="scale(0.015625)"/>
        <path id="ArialMT-66" d="M 556 0 
L 556 2881 
L 59 2881 
L 59 3319 
L 556 3319 
L 556 3672 
Q 556 4006 616 4169 
Q 697 4388 901 4523 
Q 1106 4659 1475 4659 
Q 1713 4659 2000 4603 
L 1916 4113 
Q 1741 4144 1584 4144 
Q 1328 4144 1222 4034 
Q 1116 3925 1116 3625 
L 1116 3319 
L 1763 3319 
L 1763 2881 
L 1116 2881 
L 1116 0 
L 556 0 
z
" transform="scale(0.015625)"/>
        <path id="ArialMT-46" d="M 525 0 
L 525 4581 
L 3616 4581 
L 3616 4041 
L 1131 4041 
L 1131 2622 
L 3281 2622 
L 3281 2081 
L 1131 2081 
L 1131 0 
L 525 0 
z
" transform="scale(0.015625)"/>
        <path id="ArialMT-4c" d="M 469 0 
L 469 4581 
L 1075 4581 
L 1075 541 
L 3331 541 
L 3331 0 
L 469 0 
z
" transform="scale(0.015625)"/>
        <path id="ArialMT-28" d="M 1497 -1347 
Q 1031 -759 709 28 
Q 388 816 388 1659 
Q 388 2403 628 3084 
Q 909 3875 1497 4659 
L 1900 4659 
Q 1522 4009 1400 3731 
Q 1209 3300 1100 2831 
Q 966 2247 966 1656 
Q 966 153 1900 -1347 
L 1497 -1347 
z
" transform="scale(0.015625)"/>
        <path id="ArialMT-29" d="M 791 -1347 
L 388 -1347 
Q 1322 153 1322 1656 
Q 1322 2244 1188 2822 
Q 1081 3291 891 3722 
Q 769 4003 388 4659 
L 791 4659 
Q 1378 3875 1659 3084 
Q 1900 2403 1900 1659 
Q 1900 816 1576 28 
Q 1253 -759 791 -1347 
z
" transform="scale(0.015625)"/>
       </defs>
       <use xlink:href="#ArialMT-20"/>
       <use xlink:href="#ArialMT-44" x="27.783203"/>
       <use xlink:href="#ArialMT-65" x="100"/>
       <use xlink:href="#ArialMT-67" x="155.615234"/>
       <use xlink:href="#ArialMT-72" x="211.230469"/>
       <use xlink:href="#ArialMT-65" x="244.53125"/>
       <use xlink:href="#ArialMT-65" x="300.146484"/>
       <use xlink:href="#ArialMT-20" x="355.761719"/>
       <use xlink:href="#ArialMT-6f" x="383.544922"/>
       <use xlink:href="#ArialMT-66" x="439.160156"/>
       <use xlink:href="#ArialMT-20" x="466.943359"/>
       <use xlink:href="#ArialMT-46" x="494.726562"/>
       <use xlink:href="#ArialMT-69" x="555.810547"/>
       <use xlink:href="#ArialMT-6e" x="578.027344"/>
       <use xlink:href="#ArialMT-61" x="633.642578"/>
       <use xlink:href="#ArialMT-6e" x="689.257812"/>
       <use xlink:href="#ArialMT-63" x="744.873047"/>
       <use xlink:href="#ArialMT-69" x="794.873047"/>
       <use xlink:href="#ArialMT-61" x="817.089844"/>
       <use xlink:href="#ArialMT-6c" x="872.705078"/>
       <use xlink:href="#ArialMT-20" x="894.921875"/>
       <use xlink:href="#ArialMT-4c" x="922.705078"/>
       <use xlink:href="#ArialMT-65" x="978.320312"/>
       <use xlink:href="#ArialMT-76" x="1033.935547"/>
       <use xlink:href="#ArialMT-65" x="1083.935547"/>
       <use xlink:href="#ArialMT-72" x="1139.550781"/>
       <use xlink:href="#ArialMT-61" x="1172.851562"/>
       <use xlink:href="#ArialMT-67" x="1228.466797"/>
       <use xlink:href="#ArialMT-65" x="1284.082031"/>
       <use xlink:href="#ArialMT-20" x="1339.697266"/>
       <use xlink:href="#ArialMT-28" x="1367.480469"/>
       <use xlink:href="#ArialMT-44" x="1400.78125"/>
       <use xlink:href="#ArialMT-46" x="1472.998047"/>
       <use xlink:href="#ArialMT-4c" x="1534.082031"/>
       <use xlink:href="#ArialMT-29" x="1589.697266"/>
      </g>
     </g>
    </g>
    <g id="xtick_3">
     <g id="text_3">
      <!--  Interest Coverage Ratio (Interest expense to EBIT) -->
      <g style="fill: #262626" transform="translate(769.382995 270.840781)scale(0.11 -0.11)">
       <defs>
        <path id="ArialMT-73" d="M 197 991 
L 753 1078 
Q 800 744 1014 566 
Q 1228 388 1613 388 
Q 2000 388 2187 545 
Q 2375 703 2375 916 
Q 2375 1106 2209 1216 
Q 2094 1291 1634 1406 
Q 1016 1563 777 1677 
Q 538 1791 414 1992 
Q 291 2194 291 2438 
Q 291 2659 392 2848 
Q 494 3038 669 3163 
Q 800 3259 1026 3326 
Q 1253 3394 1513 3394 
Q 1903 3394 2198 3281 
Q 2494 3169 2634 2976 
Q 2775 2784 2828 2463 
L 2278 2388 
Q 2241 2644 2061 2787 
Q 1881 2931 1553 2931 
Q 1166 2931 1000 2803 
Q 834 2675 834 2503 
Q 834 2394 903 2306 
Q 972 2216 1119 2156 
Q 1203 2125 1616 2013 
Q 2213 1853 2448 1751 
Q 2684 1650 2818 1456 
Q 2953 1263 2953 975 
Q 2953 694 2789 445 
Q 2625 197 2315 61 
Q 2006 -75 1616 -75 
Q 969 -75 630 194 
Q 291 463 197 991 
z
" transform="scale(0.015625)"/>
        <path id="ArialMT-43" d="M 3763 1606 
L 4369 1453 
Q 4178 706 3683 314 
Q 3188 -78 2472 -78 
Q 1731 -78 1267 223 
Q 803 525 561 1097 
Q 319 1669 319 2325 
Q 319 3041 592 3573 
Q 866 4106 1370 4382 
Q 1875 4659 2481 4659 
Q 3169 4659 3637 4309 
Q 4106 3959 4291 3325 
L 3694 3184 
Q 3534 3684 3231 3912 
Q 2928 4141 2469 4141 
Q 1941 4141 1586 3887 
Q 1231 3634 1087 3207 
Q 944 2781 944 2328 
Q 944 1744 1114 1308 
Q 1284 872 1643 656 
Q 2003 441 2422 441 
Q 2931 441 3284 734 
Q 3638 1028 3763 1606 
z
" transform="scale(0.015625)"/>
        <path id="ArialMT-52" d="M 503 0 
L 503 4581 
L 2534 4581 
Q 3147 4581 3465 4457 
Q 3784 4334 3975 4021 
Q 4166 3709 4166 3331 
Q 4166 2844 3850 2509 
Q 3534 2175 2875 2084 
Q 3116 1969 3241 1856 
Q 3506 1613 3744 1247 
L 4541 0 
L 3778 0 
L 3172 953 
Q 2906 1366 2734 1584 
Q 2563 1803 2427 1890 
Q 2291 1978 2150 2013 
Q 2047 2034 1813 2034 
L 1109 2034 
L 1109 0 
L 503 0 
z
M 1109 2559 
L 2413 2559 
Q 2828 2559 3062 2645 
Q 3297 2731 3419 2920 
Q 3541 3109 3541 3331 
Q 3541 3656 3305 3865 
Q 3069 4075 2559 4075 
L 1109 4075 
L 1109 2559 
z
" transform="scale(0.015625)"/>
        <path id="ArialMT-78" d="M 47 0 
L 1259 1725 
L 138 3319 
L 841 3319 
L 1350 2541 
Q 1494 2319 1581 2169 
Q 1719 2375 1834 2534 
L 2394 3319 
L 3066 3319 
L 1919 1756 
L 3153 0 
L 2463 0 
L 1781 1031 
L 1600 1309 
L 728 0 
L 47 0 
z
" transform="scale(0.015625)"/>
        <path id="ArialMT-70" d="M 422 -1272 
L 422 3319 
L 934 3319 
L 934 2888 
Q 1116 3141 1344 3267 
Q 1572 3394 1897 3394 
Q 2322 3394 2647 3175 
Q 2972 2956 3137 2557 
Q 3303 2159 3303 1684 
Q 3303 1175 3120 767 
Q 2938 359 2589 142 
Q 2241 -75 1856 -75 
Q 1575 -75 1351 44 
Q 1128 163 984 344 
L 984 -1272 
L 422 -1272 
z
M 931 1641 
Q 931 1000 1190 694 
Q 1450 388 1819 388 
Q 2194 388 2461 705 
Q 2728 1022 2728 1688 
Q 2728 2322 2467 2637 
Q 2206 2953 1844 2953 
Q 1484 2953 1207 2617 
Q 931 2281 931 1641 
z
" transform="scale(0.015625)"/>
        <path id="ArialMT-45" d="M 506 0 
L 506 4581 
L 3819 4581 
L 3819 4041 
L 1113 4041 
L 1113 2638 
L 3647 2638 
L 3647 2100 
L 1113 2100 
L 1113 541 
L 3925 541 
L 3925 0 
L 506 0 
z
" transform="scale(0.015625)"/>
        <path id="ArialMT-42" d="M 469 0 
L 469 4581 
L 2188 4581 
Q 2713 4581 3030 4442 
Q 3347 4303 3526 4014 
Q 3706 3725 3706 3409 
Q 3706 3116 3547 2856 
Q 3388 2597 3066 2438 
Q 3481 2316 3704 2022 
Q 3928 1728 3928 1328 
Q 3928 1006 3792 729 
Q 3656 453 3456 303 
Q 3256 153 2954 76 
Q 2653 0 2216 0 
L 469 0 
z
M 1075 2656 
L 2066 2656 
Q 2469 2656 2644 2709 
Q 2875 2778 2992 2937 
Q 3109 3097 3109 3338 
Q 3109 3566 3000 3739 
Q 2891 3913 2687 3977 
Q 2484 4041 1991 4041 
L 1075 4041 
L 1075 2656 
z
M 1075 541 
L 2216 541 
Q 2509 541 2628 563 
Q 2838 600 2978 687 
Q 3119 775 3209 942 
Q 3300 1109 3300 1328 
Q 3300 1584 3169 1773 
Q 3038 1963 2805 2039 
Q 2572 2116 2134 2116 
L 1075 2116 
L 1075 541 
z
" transform="scale(0.015625)"/>
        <path id="ArialMT-54" d="M 1659 0 
L 1659 4041 
L 150 4041 
L 150 4581 
L 3781 4581 
L 3781 4041 
L 2266 4041 
L 2266 0 
L 1659 0 
z
" transform="scale(0.015625)"/>
       </defs>
       <use xlink:href="#ArialMT-20"/>
       <use xlink:href="#ArialMT-49" x="27.783203"/>
       <use xlink:href="#ArialMT-6e" x="55.566406"/>
       <use xlink:href="#ArialMT-74" x="111.181641"/>
       <use xlink:href="#ArialMT-65" x="138.964844"/>
       <use xlink:href="#ArialMT-72" x="194.580078"/>
       <use xlink:href="#ArialMT-65" x="227.880859"/>
       <use xlink:href="#ArialMT-73" x="283.496094"/>
       <use xlink:href="#ArialMT-74" x="333.496094"/>
       <use xlink:href="#ArialMT-20" x="361.279297"/>
       <use xlink:href="#ArialMT-43" x="389.0625"/>
       <use xlink:href="#ArialMT-6f" x="461.279297"/>
       <use xlink:href="#ArialMT-76" x="516.894531"/>
       <use xlink:href="#ArialMT-65" x="566.894531"/>
       <use xlink:href="#ArialMT-72" x="622.509766"/>
       <use xlink:href="#ArialMT-61" x="655.810547"/>
       <use xlink:href="#ArialMT-67" x="711.425781"/>
       <use xlink:href="#ArialMT-65" x="767.041016"/>
       <use xlink:href="#ArialMT-20" x="822.65625"/>
       <use xlink:href="#ArialMT-52" x="850.439453"/>
       <use xlink:href="#ArialMT-61" x="922.65625"/>
       <use xlink:href="#ArialMT-74" x="978.271484"/>
       <use xlink:href="#ArialMT-69" x="1006.054688"/>
       <use xlink:href="#ArialMT-6f" x="1028.271484"/>
       <use xlink:href="#ArialMT-20" x="1083.886719"/>
       <use xlink:href="#ArialMT-28" x="1111.669922"/>
       <use xlink:href="#ArialMT-49" x="1144.970703"/>
       <use xlink:href="#ArialMT-6e" x="1172.753906"/>
       <use xlink:href="#ArialMT-74" x="1228.369141"/>
       <use xlink:href="#ArialMT-65" x="1256.152344"/>
       <use xlink:href="#ArialMT-72" x="1311.767578"/>
       <use xlink:href="#ArialMT-65" x="1345.068359"/>
       <use xlink:href="#ArialMT-73" x="1400.683594"/>
       <use xlink:href="#ArialMT-74" x="1450.683594"/>
       <use xlink:href="#ArialMT-20" x="1478.466797"/>
       <use xlink:href="#ArialMT-65" x="1506.25"/>
       <use xlink:href="#ArialMT-78" x="1561.865234"/>
       <use xlink:href="#ArialMT-70" x="1611.865234"/>
       <use xlink:href="#ArialMT-65" x="1667.480469"/>
       <use xlink:href="#ArialMT-6e" x="1723.095703"/>
       <use xlink:href="#ArialMT-73" x="1778.710938"/>
       <use xlink:href="#ArialMT-65" x="1828.710938"/>
       <use xlink:href="#ArialMT-20" x="1884.326172"/>
       <use xlink:href="#ArialMT-74" x="1912.109375"/>
       <use xlink:href="#ArialMT-6f" x="1939.892578"/>
       <use xlink:href="#ArialMT-20" x="1995.507812"/>
       <use xlink:href="#ArialMT-45" x="2023.291016"/>
       <use xlink:href="#ArialMT-42" x="2089.990234"/>
       <use xlink:href="#ArialMT-49" x="2156.689453"/>
       <use xlink:href="#ArialMT-54" x="2184.472656"/>
       <use xlink:href="#ArialMT-29" x="2245.556641"/>
      </g>
     </g>
    </g>
   </g>
   <g id="matplotlib.axis_2">
    <g id="ytick_1">
     <g id="line2d_1">
      <path d="M 43.87 247.780698 
L 1064.88 247.780698 
" clip-path="url(#p229ab76e84)" style="fill: none; stroke: #cbcbcb"/>
     </g>
     <g id="text_4">
      <!-- −7.5 -->
      <g style="fill: #262626" transform="translate(15.155312 251.717495)scale(0.11 -0.11)">
       <defs>
        <path id="ArialMT-2212" d="M 3381 1997 
L 356 1997 
L 356 2522 
L 3381 2522 
L 3381 1997 
z
" transform="scale(0.015625)"/>
        <path id="ArialMT-37" d="M 303 3981 
L 303 4522 
L 3269 4522 
L 3269 4084 
Q 2831 3619 2401 2847 
Q 1972 2075 1738 1259 
Q 1569 684 1522 0 
L 944 0 
Q 953 541 1156 1306 
Q 1359 2072 1739 2783 
Q 2119 3494 2547 3981 
L 303 3981 
z
" transform="scale(0.015625)"/>
        <path id="ArialMT-2e" d="M 581 0 
L 581 641 
L 1222 641 
L 1222 0 
L 581 0 
z
" transform="scale(0.015625)"/>
        <path id="ArialMT-35" d="M 266 1200 
L 856 1250 
Q 922 819 1161 601 
Q 1400 384 1738 384 
Q 2144 384 2425 690 
Q 2706 997 2706 1503 
Q 2706 1984 2436 2262 
Q 2166 2541 1728 2541 
Q 1456 2541 1237 2417 
Q 1019 2294 894 2097 
L 366 2166 
L 809 4519 
L 3088 4519 
L 3088 3981 
L 1259 3981 
L 1013 2750 
Q 1425 3038 1878 3038 
Q 2478 3038 2890 2622 
Q 3303 2206 3303 1553 
Q 3303 931 2941 478 
Q 2500 -78 1738 -78 
Q 1113 -78 717 272 
Q 322 622 266 1200 
z
" transform="scale(0.015625)"/>
       </defs>
       <use xlink:href="#ArialMT-2212"/>
       <use xlink:href="#ArialMT-37" x="58.398438"/>
       <use xlink:href="#ArialMT-2e" x="114.013672"/>
       <use xlink:href="#ArialMT-35" x="141.796875"/>
      </g>
     </g>
    </g>
    <g id="ytick_2">
     <g id="line2d_2">
      <path d="M 43.87 223.525211 
L 1064.88 223.525211 
" clip-path="url(#p229ab76e84)" style="fill: none; stroke: #cbcbcb"/>
     </g>
     <g id="text_5">
      <!-- −5.0 -->
      <g style="fill: #262626" transform="translate(15.155312 227.462008)scale(0.11 -0.11)">
       <defs>
        <path id="ArialMT-30" d="M 266 2259 
Q 266 3072 433 3567 
Q 600 4063 929 4331 
Q 1259 4600 1759 4600 
Q 2128 4600 2406 4451 
Q 2684 4303 2865 4023 
Q 3047 3744 3150 3342 
Q 3253 2941 3253 2259 
Q 3253 1453 3087 958 
Q 2922 463 2592 192 
Q 2263 -78 1759 -78 
Q 1097 -78 719 397 
Q 266 969 266 2259 
z
M 844 2259 
Q 844 1131 1108 757 
Q 1372 384 1759 384 
Q 2147 384 2411 759 
Q 2675 1134 2675 2259 
Q 2675 3391 2411 3762 
Q 2147 4134 1753 4134 
Q 1366 4134 1134 3806 
Q 844 3388 844 2259 
z
" transform="scale(0.015625)"/>
       </defs>
       <use xlink:href="#ArialMT-2212"/>
       <use xlink:href="#ArialMT-35" x="58.398438"/>
       <use xlink:href="#ArialMT-2e" x="114.013672"/>
       <use xlink:href="#ArialMT-30" x="141.796875"/>
      </g>
     </g>
    </g>
    <g id="ytick_3">
     <g id="line2d_3">
      <path d="M 43.87 199.269723 
L 1064.88 199.269723 
" clip-path="url(#p229ab76e84)" style="fill: none; stroke: #cbcbcb"/>
     </g>
     <g id="text_6">
      <!-- −2.5 -->
      <g style="fill: #262626" transform="translate(15.155312 203.20652)scale(0.11 -0.11)">
       <defs>
        <path id="ArialMT-32" d="M 3222 541 
L 3222 0 
L 194 0 
Q 188 203 259 391 
Q 375 700 629 1000 
Q 884 1300 1366 1694 
Q 2113 2306 2375 2664 
Q 2638 3022 2638 3341 
Q 2638 3675 2398 3904 
Q 2159 4134 1775 4134 
Q 1369 4134 1125 3890 
Q 881 3647 878 3216 
L 300 3275 
Q 359 3922 746 4261 
Q 1134 4600 1788 4600 
Q 2447 4600 2831 4234 
Q 3216 3869 3216 3328 
Q 3216 3053 3103 2787 
Q 2991 2522 2730 2228 
Q 2469 1934 1863 1422 
Q 1356 997 1212 845 
Q 1069 694 975 541 
L 3222 541 
z
" transform="scale(0.015625)"/>
       </defs>
       <use xlink:href="#ArialMT-2212"/>
       <use xlink:href="#ArialMT-32" x="58.398438"/>
       <use xlink:href="#ArialMT-2e" x="114.013672"/>
       <use xlink:href="#ArialMT-35" x="141.796875"/>
      </g>
     </g>
    </g>
    <g id="ytick_4">
     <g id="line2d_4">
      <path d="M 43.87 175.014236 
L 1064.88 175.014236 
" clip-path="url(#p229ab76e84)" style="fill: none; stroke: #cbcbcb"/>
     </g>
     <g id="text_7">
      <!-- 0.0 -->
      <g style="fill: #262626" transform="translate(21.58 178.951033)scale(0.11 -0.11)">
       <use xlink:href="#ArialMT-30"/>
       <use xlink:href="#ArialMT-2e" x="55.615234"/>
       <use xlink:href="#ArialMT-30" x="83.398438"/>
      </g>
     </g>
    </g>
    <g id="ytick_5">
     <g id="line2d_5">
      <path d="M 43.87 150.758749 
L 1064.88 150.758749 
" clip-path="url(#p229ab76e84)" style="fill: none; stroke: #cbcbcb"/>
     </g>
     <g id="text_8">
      <!-- 2.5 -->
      <g style="fill: #262626" transform="translate(21.58 154.695546)scale(0.11 -0.11)">
       <use xlink:href="#ArialMT-32"/>
       <use xlink:href="#ArialMT-2e" x="55.615234"/>
       <use xlink:href="#ArialMT-35" x="83.398438"/>
      </g>
     </g>
    </g>
    <g id="ytick_6">
     <g id="line2d_6">
      <path d="M 43.87 126.503262 
L 1064.88 126.503262 
" clip-path="url(#p229ab76e84)" style="fill: none; stroke: #cbcbcb"/>
     </g>
     <g id="text_9">
      <!-- 5.0 -->
      <g style="fill: #262626" transform="translate(21.58 130.440059)scale(0.11 -0.11)">
       <use xlink:href="#ArialMT-35"/>
       <use xlink:href="#ArialMT-2e" x="55.615234"/>
       <use xlink:href="#ArialMT-30" x="83.398438"/>
      </g>
     </g>
    </g>
    <g id="ytick_7">
     <g id="line2d_7">
      <path d="M 43.87 102.247775 
L 1064.88 102.247775 
" clip-path="url(#p229ab76e84)" style="fill: none; stroke: #cbcbcb"/>
     </g>
     <g id="text_10">
      <!-- 7.5 -->
      <g style="fill: #262626" transform="translate(21.58 106.184571)scale(0.11 -0.11)">
       <use xlink:href="#ArialMT-37"/>
       <use xlink:href="#ArialMT-2e" x="55.615234"/>
       <use xlink:href="#ArialMT-35" x="83.398438"/>
      </g>
     </g>
    </g>
    <g id="ytick_8">
     <g id="line2d_8">
      <path d="M 43.87 77.992287 
L 1064.88 77.992287 
" clip-path="url(#p229ab76e84)" style="fill: none; stroke: #cbcbcb"/>
     </g>
     <g id="text_11">
      <!-- 10.0 -->
      <g style="fill: #262626" transform="translate(15.462969 81.929084)scale(0.11 -0.11)">
       <defs>
        <path id="ArialMT-31" d="M 2384 0 
L 1822 0 
L 1822 3584 
Q 1619 3391 1289 3197 
Q 959 3003 697 2906 
L 697 3450 
Q 1169 3672 1522 3987 
Q 1875 4303 2022 4600 
L 2384 4600 
L 2384 0 
z
" transform="scale(0.015625)"/>
       </defs>
       <use xlink:href="#ArialMT-31"/>
       <use xlink:href="#ArialMT-30" x="55.615234"/>
       <use xlink:href="#ArialMT-2e" x="111.230469"/>
       <use xlink:href="#ArialMT-30" x="139.013672"/>
      </g>
     </g>
    </g>
    <g id="ytick_9">
     <g id="line2d_9">
      <path d="M 43.87 53.7368 
L 1064.88 53.7368 
" clip-path="url(#p229ab76e84)" style="fill: none; stroke: #cbcbcb"/>
     </g>
     <g id="text_12">
      <!-- 12.5 -->
      <g style="fill: #262626" transform="translate(15.462969 57.673597)scale(0.11 -0.11)">
       <use xlink:href="#ArialMT-31"/>
       <use xlink:href="#ArialMT-32" x="55.615234"/>
       <use xlink:href="#ArialMT-2e" x="111.230469"/>
       <use xlink:href="#ArialMT-35" x="139.013672"/>
      </g>
     </g>
    </g>
   </g>
   <g id="PolyCollection_1">
    <defs>
     <path id="me5ff3d99ba" d="M 214.044733 -43.026825 
L 214.031934 -43.026825 
L 214.009353 -44.545766 
L 213.964907 -46.064707 
L 213.907715 -47.583648 
L 213.869664 -49.102589 
L 213.878907 -50.62153 
L 213.906277 -52.140471 
L 213.927636 -53.659412 
L 213.901381 -55.178353 
L 213.794298 -56.697294 
L 213.633328 -58.216235 
L 213.528708 -59.735176 
L 213.545602 -61.254117 
L 213.624788 -62.773059 
L 213.643559 -64.292 
L 213.531434 -65.810941 
L 213.348308 -67.329882 
L 213.233968 -68.848823 
L 213.271138 -70.367764 
L 213.348713 -71.886705 
L 213.35761 -73.405646 
L 213.342448 -74.924587 
L 213.344666 -76.443528 
L 213.351547 -77.962469 
L 213.219195 -79.48141 
L 212.941025 -81.000351 
L 212.765571 -82.519292 
L 212.622224 -84.038233 
L 212.277892 -85.557174 
L 211.787304 -87.076115 
L 211.46792 -88.595056 
L 211.487531 -90.113997 
L 211.523514 -91.632938 
L 211.321994 -93.151879 
L 210.947278 -94.67082 
L 210.50678 -96.189761 
L 209.925829 -97.708702 
L 209.190074 -99.227644 
L 208.301513 -100.746585 
L 206.892755 -102.265526 
L 204.5487 -103.784467 
L 201.124477 -105.303408 
L 194.702953 -106.822349 
L 180.008588 -108.34129 
L 149.412284 -109.860231 
L 105.678926 -111.379172 
L 77.903667 -112.898113 
L 90.407523 -114.417054 
L 127.382146 -115.935995 
L 160.89975 -117.454936 
L 182.032202 -118.973877 
L 193.905869 -120.492818 
L 200.303373 -122.011759 
L 204.070713 -123.5307 
L 206.732574 -125.049641 
L 208.699759 -126.568582 
L 210.149507 -128.087523 
L 211.229996 -129.606464 
L 211.850106 -131.125405 
L 212.159148 -132.644346 
L 212.432986 -134.163287 
L 212.777247 -135.682228 
L 213.059284 -137.20117 
L 213.189466 -138.720111 
L 213.253373 -140.239052 
L 213.31933 -141.757993 
L 213.406897 -143.276934 
L 213.49463 -144.795875 
L 213.567944 -146.314816 
L 213.633902 -147.833757 
L 213.619622 -149.352698 
L 213.534544 -150.871639 
L 213.512436 -152.39058 
L 213.562853 -153.909521 
L 213.552311 -155.428462 
L 213.504666 -156.947403 
L 213.524925 -158.466344 
L 213.608958 -159.985285 
L 213.728399 -161.504226 
L 213.854642 -163.023167 
L 213.894152 -164.542108 
L 213.825788 -166.061049 
L 213.764037 -167.57999 
L 213.782991 -169.098931 
L 213.816455 -170.617872 
L 213.818314 -172.136813 
L 213.80429 -173.655754 
L 213.822106 -175.174696 
L 213.870505 -176.693637 
L 213.909187 -178.212578 
L 213.941256 -179.731519 
L 213.961266 -181.25046 
L 213.952182 -182.769401 
L 213.934127 -184.288342 
L 213.920709 -185.807283 
L 213.923109 -187.326224 
L 213.950735 -188.845165 
L 213.980944 -190.364106 
L 214.011935 -191.883047 
L 214.032113 -193.401988 
L 214.044554 -193.401988 
L 214.044554 -193.401988 
L 214.064732 -191.883047 
L 214.095723 -190.364106 
L 214.125932 -188.845165 
L 214.153557 -187.326224 
L 214.155957 -185.807283 
L 214.142539 -184.288342 
L 214.124485 -182.769401 
L 214.1154 -181.25046 
L 214.135411 -179.731519 
L 214.16748 -178.212578 
L 214.206161 -176.693637 
L 214.254561 -175.174696 
L 214.272376 -173.655754 
L 214.258352 -172.136813 
L 214.260212 -170.617872 
L 214.293675 -169.098931 
L 214.31263 -167.57999 
L 214.250878 -166.061049 
L 214.182514 -164.542108 
L 214.222025 -163.023167 
L 214.348268 -161.504226 
L 214.467709 -159.985285 
L 214.551741 -158.466344 
L 214.572001 -156.947403 
L 214.524356 -155.428462 
L 214.513813 -153.909521 
L 214.56423 -152.39058 
L 214.542122 -150.871639 
L 214.457045 -149.352698 
L 214.442764 -147.833757 
L 214.508723 -146.314816 
L 214.582037 -144.795875 
L 214.669769 -143.276934 
L 214.757337 -141.757993 
L 214.823294 -140.239052 
L 214.887201 -138.720111 
L 215.017383 -137.20117 
L 215.299419 -135.682228 
L 215.643681 -134.163287 
L 215.917518 -132.644346 
L 216.226561 -131.125405 
L 216.84667 -129.606464 
L 217.92716 -128.087523 
L 219.376908 -126.568582 
L 221.344092 -125.049641 
L 224.005954 -123.5307 
L 227.773293 -122.011759 
L 234.170797 -120.492818 
L 246.044464 -118.973877 
L 267.176917 -117.454936 
L 300.694521 -115.935995 
L 337.669143 -114.417054 
L 350.173 -112.898113 
L 322.397741 -111.379172 
L 278.664383 -109.860231 
L 248.068079 -108.34129 
L 233.373714 -106.822349 
L 226.95219 -105.303408 
L 223.527967 -103.784467 
L 221.183912 -102.265526 
L 219.775154 -100.746585 
L 218.886593 -99.227644 
L 218.150838 -97.708702 
L 217.569887 -96.189761 
L 217.129388 -94.67082 
L 216.754673 -93.151879 
L 216.553153 -91.632938 
L 216.589136 -90.113997 
L 216.608746 -88.595056 
L 216.289363 -87.076115 
L 215.798775 -85.557174 
L 215.454442 -84.038233 
L 215.311096 -82.519292 
L 215.135642 -81.000351 
L 214.857471 -79.48141 
L 214.72512 -77.962469 
L 214.732001 -76.443528 
L 214.734218 -74.924587 
L 214.719057 -73.405646 
L 214.727953 -71.886705 
L 214.805529 -70.367764 
L 214.842699 -68.848823 
L 214.728359 -67.329882 
L 214.545233 -65.810941 
L 214.433107 -64.292 
L 214.451879 -62.773059 
L 214.531064 -61.254117 
L 214.547959 -59.735176 
L 214.443339 -58.216235 
L 214.282368 -56.697294 
L 214.175285 -55.178353 
L 214.149031 -53.659412 
L 214.170389 -52.140471 
L 214.197759 -50.62153 
L 214.207002 -49.102589 
L 214.168951 -47.583648 
L 214.11176 -46.064707 
L 214.067314 -44.545766 
L 214.044733 -43.026825 
z
" style="stroke: #484848; stroke-width: 3"/>
    </defs>
    <g clip-path="url(#p229ab76e84)">
     <use xlink:href="#me5ff3d99ba" x="0" y="288" style="fill: #cb3335; stroke: #484848; stroke-width: 3"/>
    </g>
   </g>
   <g id="PolyCollection_2">
    <defs>
     <path id="m669cdf1a20" d="M 554.382762 -88.995132 
L 554.367238 -88.995132 
L 554.330868 -90.461263 
L 554.224729 -91.927394 
L 554.014204 -93.393526 
L 553.682042 -94.859657 
L 553.291648 -96.325788 
L 552.926026 -97.79192 
L 552.528149 -99.258051 
L 552.00028 -100.724182 
L 551.242243 -102.190313 
L 549.929736 -103.656445 
L 546.999428 -105.122576 
L 538.191906 -106.588707 
L 509.97196 -108.054839 
L 454.563225 -109.52097 
L 418.240333 -110.987101 
L 447.87395 -112.453233 
L 500.226232 -113.919364 
L 529.89966 -115.385495 
L 541.084503 -116.851626 
L 545.560921 -118.317758 
L 547.802411 -119.783889 
L 549.280216 -121.25002 
L 550.408615 -122.716152 
L 551.306817 -124.182283 
L 552.011636 -125.648414 
L 552.448239 -127.114546 
L 552.662154 -128.580677 
L 552.799103 -130.046808 
L 552.896644 -131.51294 
L 552.98391 -132.979071 
L 553.099273 -134.445202 
L 553.308153 -135.911333 
L 553.619044 -137.377465 
L 553.822517 -138.843596 
L 553.818995 -140.309727 
L 553.759664 -141.775859 
L 553.810789 -143.24199 
L 553.911414 -144.708121 
L 553.98527 -146.174253 
L 554.027608 -147.640384 
L 554.001544 -149.106515 
L 553.949962 -150.572646 
L 553.96841 -152.038778 
L 554.052746 -153.504909 
L 554.11184 -154.97104 
L 554.112202 -156.437172 
L 554.070048 -157.903303 
L 554.036965 -159.369434 
L 554.074165 -160.835566 
L 554.150965 -162.301697 
L 554.181458 -163.767828 
L 554.147964 -165.233959 
L 554.122396 -166.700091 
L 554.167569 -168.166222 
L 554.230763 -169.632353 
L 554.245879 -171.098485 
L 554.243043 -172.564616 
L 554.27264 -174.030747 
L 554.309674 -175.496879 
L 554.293515 -176.96301 
L 554.226181 -178.429141 
L 554.182322 -179.895272 
L 554.181836 -181.361404 
L 554.179465 -182.827535 
L 554.181791 -184.293666 
L 554.217369 -185.759798 
L 554.257968 -187.225929 
L 554.266171 -188.69206 
L 554.24209 -190.158192 
L 554.227636 -191.624323 
L 554.265701 -193.090454 
L 554.31729 -194.556586 
L 554.334804 -196.022717 
L 554.33331 -197.488848 
L 554.330523 -198.954979 
L 554.321708 -200.421111 
L 554.293557 -201.887242 
L 554.249768 -203.353373 
L 554.241586 -204.819505 
L 554.27569 -206.285636 
L 554.29012 -207.751767 
L 554.287969 -209.217899 
L 554.301999 -210.68403 
L 554.306891 -212.150161 
L 554.289353 -213.616292 
L 554.28017 -215.082424 
L 554.297624 -216.548555 
L 554.311483 -218.014686 
L 554.287436 -219.480818 
L 554.258257 -220.946949 
L 554.24659 -222.41308 
L 554.248679 -223.879212 
L 554.289601 -225.345343 
L 554.341747 -226.811474 
L 554.359278 -228.277605 
L 554.349359 -229.743737 
L 554.345354 -231.209868 
L 554.358763 -232.675999 
L 554.370865 -234.142131 
L 554.379135 -234.142131 
L 554.379135 -234.142131 
L 554.391237 -232.675999 
L 554.404646 -231.209868 
L 554.400641 -229.743737 
L 554.390722 -228.277605 
L 554.408253 -226.811474 
L 554.460399 -225.345343 
L 554.501321 -223.879212 
L 554.50341 -222.41308 
L 554.491743 -220.946949 
L 554.462564 -219.480818 
L 554.438517 -218.014686 
L 554.452376 -216.548555 
L 554.46983 -215.082424 
L 554.460647 -213.616292 
L 554.443109 -212.150161 
L 554.448001 -210.68403 
L 554.462031 -209.217899 
L 554.45988 -207.751767 
L 554.47431 -206.285636 
L 554.508414 -204.819505 
L 554.500232 -203.353373 
L 554.456443 -201.887242 
L 554.428292 -200.421111 
L 554.419477 -198.954979 
L 554.41669 -197.488848 
L 554.415196 -196.022717 
L 554.43271 -194.556586 
L 554.484299 -193.090454 
L 554.522364 -191.624323 
L 554.50791 -190.158192 
L 554.483829 -188.69206 
L 554.492032 -187.225929 
L 554.532631 -185.759798 
L 554.568209 -184.293666 
L 554.570535 -182.827535 
L 554.568164 -181.361404 
L 554.567678 -179.895272 
L 554.523819 -178.429141 
L 554.456485 -176.96301 
L 554.440326 -175.496879 
L 554.47736 -174.030747 
L 554.506957 -172.564616 
L 554.504121 -171.098485 
L 554.519237 -169.632353 
L 554.582431 -168.166222 
L 554.627604 -166.700091 
L 554.602036 -165.233959 
L 554.568542 -163.767828 
L 554.599035 -162.301697 
L 554.675835 -160.835566 
L 554.713035 -159.369434 
L 554.679952 -157.903303 
L 554.637798 -156.437172 
L 554.63816 -154.97104 
L 554.697254 -153.504909 
L 554.78159 -152.038778 
L 554.800038 -150.572646 
L 554.748456 -149.106515 
L 554.722392 -147.640384 
L 554.76473 -146.174253 
L 554.838586 -144.708121 
L 554.939211 -143.24199 
L 554.990336 -141.775859 
L 554.931005 -140.309727 
L 554.927483 -138.843596 
L 555.130956 -137.377465 
L 555.441847 -135.911333 
L 555.650727 -134.445202 
L 555.76609 -132.979071 
L 555.853356 -131.51294 
L 555.950897 -130.046808 
L 556.087846 -128.580677 
L 556.301761 -127.114546 
L 556.738364 -125.648414 
L 557.443183 -124.182283 
L 558.341385 -122.716152 
L 559.469784 -121.25002 
L 560.947589 -119.783889 
L 563.189079 -118.317758 
L 567.665497 -116.851626 
L 578.85034 -115.385495 
L 608.523768 -113.919364 
L 660.87605 -112.453233 
L 690.509667 -110.987101 
L 654.186775 -109.52097 
L 598.77804 -108.054839 
L 570.558094 -106.588707 
L 561.750572 -105.122576 
L 558.820264 -103.656445 
L 557.507757 -102.190313 
L 556.74972 -100.724182 
L 556.221851 -99.258051 
L 555.823974 -97.79192 
L 555.458352 -96.325788 
L 555.067958 -94.859657 
L 554.735796 -93.393526 
L 554.525271 -91.927394 
L 554.419132 -90.461263 
L 554.382762 -88.995132 
z
" style="stroke: #484848; stroke-width: 3"/>
    </defs>
    <g clip-path="url(#p229ab76e84)">
     <use xlink:href="#m669cdf1a20" x="0" y="288" style="fill: #477ca8; stroke: #484848; stroke-width: 3"/>
    </g>
   </g>
   <g id="PolyCollection_3">
    <defs>
     <path id="mdd723cc7b8" d="M 894.724027 -41.784744 
L 894.699307 -41.784744 
L 894.662411 -43.05157 
L 894.591951 -44.318396 
L 894.5199 -45.585221 
L 894.481904 -46.852047 
L 894.470139 -48.118873 
L 894.44974 -49.385699 
L 894.410244 -50.652524 
L 894.389983 -51.91935 
L 894.406925 -53.186176 
L 894.445897 -54.453002 
L 894.501229 -55.719827 
L 894.558446 -56.986653 
L 894.598009 -58.253479 
L 894.583939 -59.520304 
L 894.494844 -60.78713 
L 894.39034 -62.053956 
L 894.334822 -63.320782 
L 894.311447 -64.587607 
L 894.291266 -65.854433 
L 894.295371 -67.121259 
L 894.338279 -68.388084 
L 894.3935 -69.65491 
L 894.442628 -70.921736 
L 894.476752 -72.188562 
L 894.472638 -73.455387 
L 894.398612 -74.722213 
L 894.257735 -75.989039 
L 894.114255 -77.255865 
L 894.018669 -78.52269 
L 893.979838 -79.789516 
L 893.979177 -81.056342 
L 893.922073 -82.323167 
L 893.739288 -83.589993 
L 893.542913 -84.856819 
L 893.505065 -86.123645 
L 893.606187 -87.39047 
L 893.656534 -88.657296 
L 893.542858 -89.924122 
L 893.299437 -91.190947 
L 893.03398 -92.457773 
L 892.793065 -93.724599 
L 892.510055 -94.991425 
L 892.103036 -96.25825 
L 891.558189 -97.525076 
L 890.968486 -98.791902 
L 890.288841 -100.058727 
L 889.173769 -101.325553 
L 887.443154 -102.592379 
L 885.351867 -103.859205 
L 882.751641 -105.12603 
L 877.3828 -106.392856 
L 861.51362 -107.659682 
L 824.231257 -108.926508 
L 776.477813 -110.193333 
L 758.577 -111.460159 
L 784.10117 -112.726985 
L 821.866579 -113.99381 
L 848.058246 -115.260636 
L 862.560573 -116.527462 
L 870.978978 -117.794288 
L 876.417477 -119.061113 
L 880.037709 -120.327939 
L 882.590528 -121.594765 
L 884.516804 -122.86159 
L 885.852009 -124.128416 
L 886.824481 -125.395242 
L 887.77038 -126.662068 
L 888.714129 -127.928893 
L 889.478107 -129.195719 
L 889.927436 -130.462545 
L 890.213496 -131.72937 
L 890.625758 -132.996196 
L 891.162251 -134.263022 
L 891.56615 -135.529848 
L 891.754276 -136.796673 
L 891.842743 -138.063499 
L 891.866626 -139.330325 
L 891.769811 -140.597151 
L 891.615772 -141.863976 
L 891.689263 -143.130802 
L 892.266199 -144.397628 
L 893.180846 -145.664453 
L 893.956523 -146.931279 
L 894.371593 -148.198105 
L 894.51452 -149.464931 
L 894.516421 -150.731756 
L 894.45033 -151.998582 
L 894.351333 -153.265408 
L 894.277104 -154.532233 
L 894.291343 -155.799059 
L 894.365773 -157.065885 
L 894.441081 -158.332711 
L 894.522609 -159.599536 
L 894.587041 -160.866362 
L 894.597854 -162.133188 
L 894.596557 -163.400014 
L 894.629479 -164.666839 
L 894.675688 -165.933665 
L 894.702353 -167.200491 
L 894.72098 -167.200491 
L 894.72098 -167.200491 
L 894.747645 -165.933665 
L 894.793855 -164.666839 
L 894.826776 -163.400014 
L 894.82548 -162.133188 
L 894.836292 -160.866362 
L 894.900724 -159.599536 
L 894.982252 -158.332711 
L 895.057561 -157.065885 
L 895.131991 -155.799059 
L 895.146229 -154.532233 
L 895.072 -153.265408 
L 894.973004 -151.998582 
L 894.906912 -150.731756 
L 894.908813 -149.464931 
L 895.051741 -148.198105 
L 895.466811 -146.931279 
L 896.242487 -145.664453 
L 897.157134 -144.397628 
L 897.73407 -143.130802 
L 897.807561 -141.863976 
L 897.653522 -140.597151 
L 897.556708 -139.330325 
L 897.58059 -138.063499 
L 897.669057 -136.796673 
L 897.857183 -135.529848 
L 898.261083 -134.263022 
L 898.797576 -132.996196 
L 899.209837 -131.72937 
L 899.495898 -130.462545 
L 899.945226 -129.195719 
L 900.709204 -127.928893 
L 901.652953 -126.662068 
L 902.598853 -125.395242 
L 903.571324 -124.128416 
L 904.906529 -122.86159 
L 906.832805 -121.594765 
L 909.385624 -120.327939 
L 913.005857 -119.061113 
L 918.444355 -117.794288 
L 926.86276 -116.527462 
L 941.365088 -115.260636 
L 967.556754 -113.99381 
L 1005.322163 -112.726985 
L 1030.846333 -111.460159 
L 1012.94552 -110.193333 
L 965.192076 -108.926508 
L 927.909714 -107.659682 
L 912.040533 -106.392856 
L 906.671692 -105.12603 
L 904.071466 -103.859205 
L 901.980179 -102.592379 
L 900.249565 -101.325553 
L 899.134492 -100.058727 
L 898.454847 -98.791902 
L 897.865144 -97.525076 
L 897.320298 -96.25825 
L 896.913279 -94.991425 
L 896.630268 -93.724599 
L 896.389353 -92.457773 
L 896.123897 -91.190947 
L 895.880475 -89.924122 
L 895.766799 -88.657296 
L 895.817146 -87.39047 
L 895.918268 -86.123645 
L 895.88042 -84.856819 
L 895.684045 -83.589993 
L 895.50126 -82.323167 
L 895.444157 -81.056342 
L 895.443496 -79.789516 
L 895.404665 -78.52269 
L 895.309079 -77.255865 
L 895.165599 -75.989039 
L 895.024721 -74.722213 
L 894.950695 -73.455387 
L 894.946582 -72.188562 
L 894.980705 -70.921736 
L 895.029834 -69.65491 
L 895.085055 -68.388084 
L 895.127962 -67.121259 
L 895.132067 -65.854433 
L 895.111886 -64.587607 
L 895.088512 -63.320782 
L 895.032994 -62.053956 
L 894.928489 -60.78713 
L 894.839394 -59.520304 
L 894.825325 -58.253479 
L 894.864888 -56.986653 
L 894.922105 -55.719827 
L 894.977436 -54.453002 
L 895.016408 -53.186176 
L 895.03335 -51.91935 
L 895.013089 -50.652524 
L 894.973593 -49.385699 
L 894.953194 -48.118873 
L 894.941429 -46.852047 
L 894.903433 -45.585221 
L 894.831382 -44.318396 
L 894.760923 -43.05157 
L 894.724027 -41.784744 
z
" style="stroke: #484848; stroke-width: 3"/>
    </defs>
    <g clip-path="url(#p229ab76e84)">
     <use xlink:href="#mdd723cc7b8" x="0" y="288" style="fill: #59a257; stroke: #484848; stroke-width: 3"/>
    </g>
   </g>
   <g id="line2d_10">
    <path d="M 214.038333 182.814386 
L 214.038333 166.400342 
" clip-path="url(#p229ab76e84)" style="fill: none; stroke: #484848; stroke-width: 3"/>
   </g>
   <g id="line2d_11">
    <path d="M 214.038333 176.664922 
L 214.038333 172.547126 
" clip-path="url(#p229ab76e84)" style="fill: none; stroke: #484848; stroke-width: 9"/>
   </g>
   <g id="line2d_12">
    <path d="M 554.375 179.713421 
L 554.375 173.275247 
" clip-path="url(#p229ab76e84)" style="fill: none; stroke: #484848; stroke-width: 3"/>
   </g>
   <g id="line2d_13">
    <path d="M 554.375 177.296156 
L 554.375 175.682231 
" clip-path="url(#p229ab76e84)" style="fill: none; stroke: #484848; stroke-width: 9"/>
   </g>
   <g id="line2d_14">
    <path d="M 894.711667 183.315242 
L 894.711667 167.302455 
" clip-path="url(#p229ab76e84)" style="fill: none; stroke: #484848; stroke-width: 3"/>
   </g>
   <g id="line2d_15">
    <path d="M 894.711667 177.317168 
L 894.711667 173.308329 
" clip-path="url(#p229ab76e84)" style="fill: none; stroke: #484848; stroke-width: 9"/>
   </g>
   <g id="patch_3">
    <path d="M 43.87 255.833125 
L 43.87 44.24 
" style="fill: none; stroke: #f0f0f0; stroke-width: 3; stroke-linejoin: miter; stroke-linecap: square"/>
   </g>
   <g id="patch_4">
    <path d="M 1064.88 255.833125 
L 1064.88 44.24 
" style="fill: none; stroke: #f0f0f0; stroke-width: 3; stroke-linejoin: miter; stroke-linecap: square"/>
   </g>
   <g id="patch_5">
    <path d="M 43.87 255.833125 
L 1064.88 255.833125 
" style="fill: none; stroke: #f0f0f0; stroke-width: 3; stroke-linejoin: miter; stroke-linecap: square"/>
   </g>
   <g id="patch_6">
    <path d="M 43.87 44.24 
L 1064.88 44.24 
" style="fill: none; stroke: #f0f0f0; stroke-width: 3; stroke-linejoin: miter; stroke-linecap: square"/>
   </g>
   <g id="PathCollection_1">
    <defs>
     <path id="m4b64f3dc24" d="M 0 3 
C 0.795609 3 1.55874 2.683901 2.12132 2.12132 
C 2.683901 1.55874 3 0.795609 3 0 
C 3 -0.795609 2.683901 -1.55874 2.12132 -2.12132 
C 1.55874 -2.683901 0.795609 -3 0 -3 
C -0.795609 -3 -1.55874 -2.683901 -2.12132 -2.12132 
C -2.683901 -1.55874 -3 -0.795609 -3 0 
C -3 0.795609 -2.683901 1.55874 -2.12132 2.12132 
C -1.55874 2.683901 -0.795609 3 0 3 
z
" style="stroke: #484848; stroke-width: 0.5"/>
    </defs>
    <g clip-path="url(#p229ab76e84)">
     <use xlink:href="#m4b64f3dc24" x="214.038333" y="174.75346" style="fill: #ffffff; stroke: #484848; stroke-width: 0.5"/>
    </g>
   </g>
   <g id="PathCollection_2">
    <g clip-path="url(#p229ab76e84)">
     <use xlink:href="#m4b64f3dc24" x="554.375" y="177.031605" style="fill: #ffffff; stroke: #484848; stroke-width: 0.5"/>
    </g>
   </g>
   <g id="PathCollection_3">
    <g clip-path="url(#p229ab76e84)">
     <use xlink:href="#m4b64f3dc24" x="894.711667" y="176.544588" style="fill: #ffffff; stroke: #484848; stroke-width: 0.5"/>
    </g>
   </g>
  </g>
  <g id="text_13">
   <!-- Violin Plot of all Continuous Variables -->
   <g style="fill: #262626" transform="translate(416.035547 16.496719)scale(0.15 -0.15)">
    <defs>
     <path id="ArialMT-56" d="M 1803 0 
L 28 4581 
L 684 4581 
L 1875 1253 
Q 2019 853 2116 503 
Q 2222 878 2363 1253 
L 3600 4581 
L 4219 4581 
L 2425 0 
L 1803 0 
z
" transform="scale(0.015625)"/>
     <path id="ArialMT-50" d="M 494 0 
L 494 4581 
L 2222 4581 
Q 2678 4581 2919 4538 
Q 3256 4481 3484 4323 
Q 3713 4166 3852 3881 
Q 3991 3597 3991 3256 
Q 3991 2672 3619 2267 
Q 3247 1863 2275 1863 
L 1100 1863 
L 1100 0 
L 494 0 
z
M 1100 2403 
L 2284 2403 
Q 2872 2403 3119 2622 
Q 3366 2841 3366 3238 
Q 3366 3525 3220 3729 
Q 3075 3934 2838 4000 
Q 2684 4041 2272 4041 
L 1100 4041 
L 1100 2403 
z
" transform="scale(0.015625)"/>
     <path id="ArialMT-75" d="M 2597 0 
L 2597 488 
Q 2209 -75 1544 -75 
Q 1250 -75 995 37 
Q 741 150 617 320 
Q 494 491 444 738 
Q 409 903 409 1263 
L 409 3319 
L 972 3319 
L 972 1478 
Q 972 1038 1006 884 
Q 1059 663 1231 536 
Q 1403 409 1656 409 
Q 1909 409 2131 539 
Q 2353 669 2445 892 
Q 2538 1116 2538 1541 
L 2538 3319 
L 3100 3319 
L 3100 0 
L 2597 0 
z
" transform="scale(0.015625)"/>
     <path id="ArialMT-62" d="M 941 0 
L 419 0 
L 419 4581 
L 981 4581 
L 981 2947 
Q 1338 3394 1891 3394 
Q 2197 3394 2470 3270 
Q 2744 3147 2920 2923 
Q 3097 2700 3197 2384 
Q 3297 2069 3297 1709 
Q 3297 856 2875 390 
Q 2453 -75 1863 -75 
Q 1275 -75 941 416 
L 941 0 
z
M 934 1684 
Q 934 1088 1097 822 
Q 1363 388 1816 388 
Q 2184 388 2453 708 
Q 2722 1028 2722 1663 
Q 2722 2313 2464 2622 
Q 2206 2931 1841 2931 
Q 1472 2931 1203 2611 
Q 934 2291 934 1684 
z
" transform="scale(0.015625)"/>
    </defs>
    <use xlink:href="#ArialMT-56"/>
    <use xlink:href="#ArialMT-69" x="64.949219"/>
    <use xlink:href="#ArialMT-6f" x="87.166016"/>
    <use xlink:href="#ArialMT-6c" x="142.78125"/>
    <use xlink:href="#ArialMT-69" x="164.998047"/>
    <use xlink:href="#ArialMT-6e" x="187.214844"/>
    <use xlink:href="#ArialMT-20" x="242.830078"/>
    <use xlink:href="#ArialMT-50" x="270.613281"/>
    <use xlink:href="#ArialMT-6c" x="337.3125"/>
    <use xlink:href="#ArialMT-6f" x="359.529297"/>
    <use xlink:href="#ArialMT-74" x="415.144531"/>
    <use xlink:href="#ArialMT-20" x="442.927734"/>
    <use xlink:href="#ArialMT-6f" x="470.710938"/>
    <use xlink:href="#ArialMT-66" x="526.326172"/>
    <use xlink:href="#ArialMT-20" x="554.109375"/>
    <use xlink:href="#ArialMT-61" x="581.892578"/>
    <use xlink:href="#ArialMT-6c" x="637.507812"/>
    <use xlink:href="#ArialMT-6c" x="659.724609"/>
    <use xlink:href="#ArialMT-20" x="681.941406"/>
    <use xlink:href="#ArialMT-43" x="709.724609"/>
    <use xlink:href="#ArialMT-6f" x="781.941406"/>
    <use xlink:href="#ArialMT-6e" x="837.556641"/>
    <use xlink:href="#ArialMT-74" x="893.171875"/>
    <use xlink:href="#ArialMT-69" x="920.955078"/>
    <use xlink:href="#ArialMT-6e" x="943.171875"/>
    <use xlink:href="#ArialMT-75" x="998.787109"/>
    <use xlink:href="#ArialMT-6f" x="1054.402344"/>
    <use xlink:href="#ArialMT-75" x="1110.017578"/>
    <use xlink:href="#ArialMT-73" x="1165.632812"/>
    <use xlink:href="#ArialMT-20" x="1215.632812"/>
    <use xlink:href="#ArialMT-56" x="1243.416016"/>
    <use xlink:href="#ArialMT-61" x="1302.740234"/>
    <use xlink:href="#ArialMT-72" x="1358.355469"/>
    <use xlink:href="#ArialMT-69" x="1391.65625"/>
    <use xlink:href="#ArialMT-61" x="1413.873047"/>
    <use xlink:href="#ArialMT-62" x="1469.488281"/>
    <use xlink:href="#ArialMT-6c" x="1525.103516"/>
    <use xlink:href="#ArialMT-65" x="1547.320312"/>
    <use xlink:href="#ArialMT-73" x="1602.935547"/>
   </g>
  </g>
 </g>
 <defs>
  <clipPath id="p229ab76e84">
   <rect x="43.87" y="44.24" width="1021.01" height="211.593125"/>
  </clipPath>
 </defs>
</svg>
