<?xml version="1.0" encoding="utf-8" standalone="no"?>
<!DOCTYPE svg PUBLIC "-//W3C//DTD SVG 1.1//EN"
  "http://www.w3.org/Graphics/SVG/1.1/DTD/svg11.dtd">
<svg xmlns:xlink="http://www.w3.org/1999/xlink" width="1080pt" height="288pt" viewBox="0 0 1080 288" xmlns="http://www.w3.org/2000/svg" version="1.1">
 <metadata>
  <rdf:RDF xmlns:dc="http://purl.org/dc/elements/1.1/" xmlns:cc="http://creativecommons.org/ns#" xmlns:rdf="http://www.w3.org/1999/02/22-rdf-syntax-ns#">
   <cc:Work>
    <dc:type rdf:resource="http://purl.org/dc/dcmitype/StillImage"/>
    <dc:date>2022-11-07T19:58:59.381791</dc:date>
    <dc:format>image/svg+xml</dc:format>
    <dc:creator>
     <cc:Agent>
      <dc:title>Matplotlib v3.5.1, https://matplotlib.org/</dc:title>
     </cc:Agent>
    </dc:creator>
   </cc:Work>
  </rdf:RDF>
 </metadata>
 <defs>
  <style type="text/css">*{stroke-linejoin: round; stroke-linecap: butt}</style>
 </defs>
 <g id="figure_1">
  <g id="patch_1">
   <path d="M 0 288 
L 1080 288 
L 1080 0 
L 0 0 
z
" style="fill: #f0f0f0"/>
  </g>
  <g id="axes_1">
   <g id="patch_2">
    <path d="M 34.62 255.833125 
L 1064.88 255.833125 
L 1064.88 44.24 
L 34.62 44.24 
z
" style="fill: #f0f0f0"/>
   </g>
   <g id="matplotlib.axis_1">
    <g id="xtick_1">
     <g id="text_1">
      <!--  ROA(C) before interest and depreciation before interest -->
      <g style="fill: #262626" transform="translate(155.540938 270.847656)scale(0.11 -0.11)">
       <defs>
        <path id="ArialMT-20" transform="scale(0.015625)"/>
        <path id="ArialMT-52" d="M 503 0 
L 503 4581 
L 2534 4581 
Q 3147 4581 3465 4457 
Q 3784 4334 3975 4021 
Q 4166 3709 4166 3331 
Q 4166 2844 3850 2509 
Q 3534 2175 2875 2084 
Q 3116 1969 3241 1856 
Q 3506 1613 3744 1247 
L 4541 0 
L 3778 0 
L 3172 953 
Q 2906 1366 2734 1584 
Q 2563 1803 2427 1890 
Q 2291 1978 2150 2013 
Q 2047 2034 1813 2034 
L 1109 2034 
L 1109 0 
L 503 0 
z
M 1109 2559 
L 2413 2559 
Q 2828 2559 3062 2645 
Q 3297 2731 3419 2920 
Q 3541 3109 3541 3331 
Q 3541 3656 3305 3865 
Q 3069 4075 2559 4075 
L 1109 4075 
L 1109 2559 
z
" transform="scale(0.015625)"/>
        <path id="ArialMT-4f" d="M 309 2231 
Q 309 3372 921 4017 
Q 1534 4663 2503 4663 
Q 3138 4663 3647 4359 
Q 4156 4056 4423 3514 
Q 4691 2972 4691 2284 
Q 4691 1588 4409 1038 
Q 4128 488 3612 205 
Q 3097 -78 2500 -78 
Q 1853 -78 1343 234 
Q 834 547 571 1087 
Q 309 1628 309 2231 
z
M 934 2222 
Q 934 1394 1379 917 
Q 1825 441 2497 441 
Q 3181 441 3623 922 
Q 4066 1403 4066 2288 
Q 4066 2847 3877 3264 
Q 3688 3681 3323 3911 
Q 2959 4141 2506 4141 
Q 1863 4141 1398 3698 
Q 934 3256 934 2222 
z
" transform="scale(0.015625)"/>
        <path id="ArialMT-41" d="M -9 0 
L 1750 4581 
L 2403 4581 
L 4278 0 
L 3588 0 
L 3053 1388 
L 1138 1388 
L 634 0 
L -9 0 
z
M 1313 1881 
L 2866 1881 
L 2388 3150 
Q 2169 3728 2063 4100 
Q 1975 3659 1816 3225 
L 1313 1881 
z
" transform="scale(0.015625)"/>
        <path id="ArialMT-28" d="M 1497 -1347 
Q 1031 -759 709 28 
Q 388 816 388 1659 
Q 388 2403 628 3084 
Q 909 3875 1497 4659 
L 1900 4659 
Q 1522 4009 1400 3731 
Q 1209 3300 1100 2831 
Q 966 2247 966 1656 
Q 966 153 1900 -1347 
L 1497 -1347 
z
" transform="scale(0.015625)"/>
        <path id="ArialMT-43" d="M 3763 1606 
L 4369 1453 
Q 4178 706 3683 314 
Q 3188 -78 2472 -78 
Q 1731 -78 1267 223 
Q 803 525 561 1097 
Q 319 1669 319 2325 
Q 319 3041 592 3573 
Q 866 4106 1370 4382 
Q 1875 4659 2481 4659 
Q 3169 4659 3637 4309 
Q 4106 3959 4291 3325 
L 3694 3184 
Q 3534 3684 3231 3912 
Q 2928 4141 2469 4141 
Q 1941 4141 1586 3887 
Q 1231 3634 1087 3207 
Q 944 2781 944 2328 
Q 944 1744 1114 1308 
Q 1284 872 1643 656 
Q 2003 441 2422 441 
Q 2931 441 3284 734 
Q 3638 1028 3763 1606 
z
" transform="scale(0.015625)"/>
        <path id="ArialMT-29" d="M 791 -1347 
L 388 -1347 
Q 1322 153 1322 1656 
Q 1322 2244 1188 2822 
Q 1081 3291 891 3722 
Q 769 4003 388 4659 
L 791 4659 
Q 1378 3875 1659 3084 
Q 1900 2403 1900 1659 
Q 1900 816 1576 28 
Q 1253 -759 791 -1347 
z
" transform="scale(0.015625)"/>
        <path id="ArialMT-62" d="M 941 0 
L 419 0 
L 419 4581 
L 981 4581 
L 981 2947 
Q 1338 3394 1891 3394 
Q 2197 3394 2470 3270 
Q 2744 3147 2920 2923 
Q 3097 2700 3197 2384 
Q 3297 2069 3297 1709 
Q 3297 856 2875 390 
Q 2453 -75 1863 -75 
Q 1275 -75 941 416 
L 941 0 
z
M 934 1684 
Q 934 1088 1097 822 
Q 1363 388 1816 388 
Q 2184 388 2453 708 
Q 2722 1028 2722 1663 
Q 2722 2313 2464 2622 
Q 2206 2931 1841 2931 
Q 1472 2931 1203 2611 
Q 934 2291 934 1684 
z
" transform="scale(0.015625)"/>
        <path id="ArialMT-65" d="M 2694 1069 
L 3275 997 
Q 3138 488 2766 206 
Q 2394 -75 1816 -75 
Q 1088 -75 661 373 
Q 234 822 234 1631 
Q 234 2469 665 2931 
Q 1097 3394 1784 3394 
Q 2450 3394 2872 2941 
Q 3294 2488 3294 1666 
Q 3294 1616 3291 1516 
L 816 1516 
Q 847 969 1125 678 
Q 1403 388 1819 388 
Q 2128 388 2347 550 
Q 2566 713 2694 1069 
z
M 847 1978 
L 2700 1978 
Q 2663 2397 2488 2606 
Q 2219 2931 1791 2931 
Q 1403 2931 1139 2672 
Q 875 2413 847 1978 
z
" transform="scale(0.015625)"/>
        <path id="ArialMT-66" d="M 556 0 
L 556 2881 
L 59 2881 
L 59 3319 
L 556 3319 
L 556 3672 
Q 556 4006 616 4169 
Q 697 4388 901 4523 
Q 1106 4659 1475 4659 
Q 1713 4659 2000 4603 
L 1916 4113 
Q 1741 4144 1584 4144 
Q 1328 4144 1222 4034 
Q 1116 3925 1116 3625 
L 1116 3319 
L 1763 3319 
L 1763 2881 
L 1116 2881 
L 1116 0 
L 556 0 
z
" transform="scale(0.015625)"/>
        <path id="ArialMT-6f" d="M 213 1659 
Q 213 2581 725 3025 
Q 1153 3394 1769 3394 
Q 2453 3394 2887 2945 
Q 3322 2497 3322 1706 
Q 3322 1066 3130 698 
Q 2938 331 2570 128 
Q 2203 -75 1769 -75 
Q 1072 -75 642 372 
Q 213 819 213 1659 
z
M 791 1659 
Q 791 1022 1069 705 
Q 1347 388 1769 388 
Q 2188 388 2466 706 
Q 2744 1025 2744 1678 
Q 2744 2294 2464 2611 
Q 2184 2928 1769 2928 
Q 1347 2928 1069 2612 
Q 791 2297 791 1659 
z
" transform="scale(0.015625)"/>
        <path id="ArialMT-72" d="M 416 0 
L 416 3319 
L 922 3319 
L 922 2816 
Q 1116 3169 1280 3281 
Q 1444 3394 1641 3394 
Q 1925 3394 2219 3213 
L 2025 2691 
Q 1819 2813 1613 2813 
Q 1428 2813 1281 2702 
Q 1134 2591 1072 2394 
Q 978 2094 978 1738 
L 978 0 
L 416 0 
z
" transform="scale(0.015625)"/>
        <path id="ArialMT-69" d="M 425 3934 
L 425 4581 
L 988 4581 
L 988 3934 
L 425 3934 
z
M 425 0 
L 425 3319 
L 988 3319 
L 988 0 
L 425 0 
z
" transform="scale(0.015625)"/>
        <path id="ArialMT-6e" d="M 422 0 
L 422 3319 
L 928 3319 
L 928 2847 
Q 1294 3394 1984 3394 
Q 2284 3394 2536 3286 
Q 2788 3178 2913 3003 
Q 3038 2828 3088 2588 
Q 3119 2431 3119 2041 
L 3119 0 
L 2556 0 
L 2556 2019 
Q 2556 2363 2490 2533 
Q 2425 2703 2258 2804 
Q 2091 2906 1866 2906 
Q 1506 2906 1245 2678 
Q 984 2450 984 1813 
L 984 0 
L 422 0 
z
" transform="scale(0.015625)"/>
        <path id="ArialMT-74" d="M 1650 503 
L 1731 6 
Q 1494 -44 1306 -44 
Q 1000 -44 831 53 
Q 663 150 594 308 
Q 525 466 525 972 
L 525 2881 
L 113 2881 
L 113 3319 
L 525 3319 
L 525 4141 
L 1084 4478 
L 1084 3319 
L 1650 3319 
L 1650 2881 
L 1084 2881 
L 1084 941 
Q 1084 700 1114 631 
Q 1144 563 1211 522 
Q 1278 481 1403 481 
Q 1497 481 1650 503 
z
" transform="scale(0.015625)"/>
        <path id="ArialMT-73" d="M 197 991 
L 753 1078 
Q 800 744 1014 566 
Q 1228 388 1613 388 
Q 2000 388 2187 545 
Q 2375 703 2375 916 
Q 2375 1106 2209 1216 
Q 2094 1291 1634 1406 
Q 1016 1563 777 1677 
Q 538 1791 414 1992 
Q 291 2194 291 2438 
Q 291 2659 392 2848 
Q 494 3038 669 3163 
Q 800 3259 1026 3326 
Q 1253 3394 1513 3394 
Q 1903 3394 2198 3281 
Q 2494 3169 2634 2976 
Q 2775 2784 2828 2463 
L 2278 2388 
Q 2241 2644 2061 2787 
Q 1881 2931 1553 2931 
Q 1166 2931 1000 2803 
Q 834 2675 834 2503 
Q 834 2394 903 2306 
Q 972 2216 1119 2156 
Q 1203 2125 1616 2013 
Q 2213 1853 2448 1751 
Q 2684 1650 2818 1456 
Q 2953 1263 2953 975 
Q 2953 694 2789 445 
Q 2625 197 2315 61 
Q 2006 -75 1616 -75 
Q 969 -75 630 194 
Q 291 463 197 991 
z
" transform="scale(0.015625)"/>
        <path id="ArialMT-61" d="M 2588 409 
Q 2275 144 1986 34 
Q 1697 -75 1366 -75 
Q 819 -75 525 192 
Q 231 459 231 875 
Q 231 1119 342 1320 
Q 453 1522 633 1644 
Q 813 1766 1038 1828 
Q 1203 1872 1538 1913 
Q 2219 1994 2541 2106 
Q 2544 2222 2544 2253 
Q 2544 2597 2384 2738 
Q 2169 2928 1744 2928 
Q 1347 2928 1158 2789 
Q 969 2650 878 2297 
L 328 2372 
Q 403 2725 575 2942 
Q 747 3159 1072 3276 
Q 1397 3394 1825 3394 
Q 2250 3394 2515 3294 
Q 2781 3194 2906 3042 
Q 3031 2891 3081 2659 
Q 3109 2516 3109 2141 
L 3109 1391 
Q 3109 606 3145 398 
Q 3181 191 3288 0 
L 2700 0 
Q 2613 175 2588 409 
z
M 2541 1666 
Q 2234 1541 1622 1453 
Q 1275 1403 1131 1340 
Q 988 1278 909 1158 
Q 831 1038 831 891 
Q 831 666 1001 516 
Q 1172 366 1500 366 
Q 1825 366 2078 508 
Q 2331 650 2450 897 
Q 2541 1088 2541 1459 
L 2541 1666 
z
" transform="scale(0.015625)"/>
        <path id="ArialMT-64" d="M 2575 0 
L 2575 419 
Q 2259 -75 1647 -75 
Q 1250 -75 917 144 
Q 584 363 401 755 
Q 219 1147 219 1656 
Q 219 2153 384 2558 
Q 550 2963 881 3178 
Q 1213 3394 1622 3394 
Q 1922 3394 2156 3267 
Q 2391 3141 2538 2938 
L 2538 4581 
L 3097 4581 
L 3097 0 
L 2575 0 
z
M 797 1656 
Q 797 1019 1065 703 
Q 1334 388 1700 388 
Q 2069 388 2326 689 
Q 2584 991 2584 1609 
Q 2584 2291 2321 2609 
Q 2059 2928 1675 2928 
Q 1300 2928 1048 2622 
Q 797 2316 797 1656 
z
" transform="scale(0.015625)"/>
        <path id="ArialMT-70" d="M 422 -1272 
L 422 3319 
L 934 3319 
L 934 2888 
Q 1116 3141 1344 3267 
Q 1572 3394 1897 3394 
Q 2322 3394 2647 3175 
Q 2972 2956 3137 2557 
Q 3303 2159 3303 1684 
Q 3303 1175 3120 767 
Q 2938 359 2589 142 
Q 2241 -75 1856 -75 
Q 1575 -75 1351 44 
Q 1128 163 984 344 
L 984 -1272 
L 422 -1272 
z
M 931 1641 
Q 931 1000 1190 694 
Q 1450 388 1819 388 
Q 2194 388 2461 705 
Q 2728 1022 2728 1688 
Q 2728 2322 2467 2637 
Q 2206 2953 1844 2953 
Q 1484 2953 1207 2617 
Q 931 2281 931 1641 
z
" transform="scale(0.015625)"/>
        <path id="ArialMT-63" d="M 2588 1216 
L 3141 1144 
Q 3050 572 2676 248 
Q 2303 -75 1759 -75 
Q 1078 -75 664 370 
Q 250 816 250 1647 
Q 250 2184 428 2587 
Q 606 2991 970 3192 
Q 1334 3394 1763 3394 
Q 2303 3394 2647 3120 
Q 2991 2847 3088 2344 
L 2541 2259 
Q 2463 2594 2264 2762 
Q 2066 2931 1784 2931 
Q 1359 2931 1093 2626 
Q 828 2322 828 1663 
Q 828 994 1084 691 
Q 1341 388 1753 388 
Q 2084 388 2306 591 
Q 2528 794 2588 1216 
z
" transform="scale(0.015625)"/>
       </defs>
       <use xlink:href="#ArialMT-20"/>
       <use xlink:href="#ArialMT-52" x="27.783203"/>
       <use xlink:href="#ArialMT-4f" x="100"/>
       <use xlink:href="#ArialMT-41" x="177.783203"/>
       <use xlink:href="#ArialMT-28" x="244.482422"/>
       <use xlink:href="#ArialMT-43" x="277.783203"/>
       <use xlink:href="#ArialMT-29" x="350"/>
       <use xlink:href="#ArialMT-20" x="383.300781"/>
       <use xlink:href="#ArialMT-62" x="411.083984"/>
       <use xlink:href="#ArialMT-65" x="466.699219"/>
       <use xlink:href="#ArialMT-66" x="522.314453"/>
       <use xlink:href="#ArialMT-6f" x="550.097656"/>
       <use xlink:href="#ArialMT-72" x="605.712891"/>
       <use xlink:href="#ArialMT-65" x="639.013672"/>
       <use xlink:href="#ArialMT-20" x="694.628906"/>
       <use xlink:href="#ArialMT-69" x="722.412109"/>
       <use xlink:href="#ArialMT-6e" x="744.628906"/>
       <use xlink:href="#ArialMT-74" x="800.244141"/>
       <use xlink:href="#ArialMT-65" x="828.027344"/>
       <use xlink:href="#ArialMT-72" x="883.642578"/>
       <use xlink:href="#ArialMT-65" x="916.943359"/>
       <use xlink:href="#ArialMT-73" x="972.558594"/>
       <use xlink:href="#ArialMT-74" x="1022.558594"/>
       <use xlink:href="#ArialMT-20" x="1050.341797"/>
       <use xlink:href="#ArialMT-61" x="1078.125"/>
       <use xlink:href="#ArialMT-6e" x="1133.740234"/>
       <use xlink:href="#ArialMT-64" x="1189.355469"/>
       <use xlink:href="#ArialMT-20" x="1244.970703"/>
       <use xlink:href="#ArialMT-64" x="1272.753906"/>
       <use xlink:href="#ArialMT-65" x="1328.369141"/>
       <use xlink:href="#ArialMT-70" x="1383.984375"/>
       <use xlink:href="#ArialMT-72" x="1439.599609"/>
       <use xlink:href="#ArialMT-65" x="1472.900391"/>
       <use xlink:href="#ArialMT-63" x="1528.515625"/>
       <use xlink:href="#ArialMT-69" x="1578.515625"/>
       <use xlink:href="#ArialMT-61" x="1600.732422"/>
       <use xlink:href="#ArialMT-74" x="1656.347656"/>
       <use xlink:href="#ArialMT-69" x="1684.130859"/>
       <use xlink:href="#ArialMT-6f" x="1706.347656"/>
       <use xlink:href="#ArialMT-6e" x="1761.962891"/>
       <use xlink:href="#ArialMT-20" x="1817.578125"/>
       <use xlink:href="#ArialMT-62" x="1845.361328"/>
       <use xlink:href="#ArialMT-65" x="1900.976562"/>
       <use xlink:href="#ArialMT-66" x="1956.591797"/>
       <use xlink:href="#ArialMT-6f" x="1984.375"/>
       <use xlink:href="#ArialMT-72" x="2039.990234"/>
       <use xlink:href="#ArialMT-65" x="2073.291016"/>
       <use xlink:href="#ArialMT-20" x="2128.90625"/>
       <use xlink:href="#ArialMT-69" x="2156.689453"/>
       <use xlink:href="#ArialMT-6e" x="2178.90625"/>
       <use xlink:href="#ArialMT-74" x="2234.521484"/>
       <use xlink:href="#ArialMT-65" x="2262.304688"/>
       <use xlink:href="#ArialMT-72" x="2317.919922"/>
       <use xlink:href="#ArialMT-65" x="2351.220703"/>
       <use xlink:href="#ArialMT-73" x="2406.835938"/>
       <use xlink:href="#ArialMT-74" x="2456.835938"/>
      </g>
     </g>
    </g>
    <g id="xtick_2">
     <g id="text_2">
      <!--  Operating Gross Margin -->
      <g style="fill: #262626" transform="translate(747.101172 270.847656)scale(0.11 -0.11)">
       <defs>
        <path id="ArialMT-67" d="M 319 -275 
L 866 -356 
Q 900 -609 1056 -725 
Q 1266 -881 1628 -881 
Q 2019 -881 2231 -725 
Q 2444 -569 2519 -288 
Q 2563 -116 2559 434 
Q 2191 0 1641 0 
Q 956 0 581 494 
Q 206 988 206 1678 
Q 206 2153 378 2554 
Q 550 2956 876 3175 
Q 1203 3394 1644 3394 
Q 2231 3394 2613 2919 
L 2613 3319 
L 3131 3319 
L 3131 450 
Q 3131 -325 2973 -648 
Q 2816 -972 2473 -1159 
Q 2131 -1347 1631 -1347 
Q 1038 -1347 672 -1080 
Q 306 -813 319 -275 
z
M 784 1719 
Q 784 1066 1043 766 
Q 1303 466 1694 466 
Q 2081 466 2343 764 
Q 2606 1063 2606 1700 
Q 2606 2309 2336 2618 
Q 2066 2928 1684 2928 
Q 1309 2928 1046 2623 
Q 784 2319 784 1719 
z
" transform="scale(0.015625)"/>
        <path id="ArialMT-47" d="M 2638 1797 
L 2638 2334 
L 4578 2338 
L 4578 638 
Q 4131 281 3656 101 
Q 3181 -78 2681 -78 
Q 2006 -78 1454 211 
Q 903 500 622 1047 
Q 341 1594 341 2269 
Q 341 2938 620 3517 
Q 900 4097 1425 4378 
Q 1950 4659 2634 4659 
Q 3131 4659 3532 4498 
Q 3934 4338 4162 4050 
Q 4391 3763 4509 3300 
L 3963 3150 
Q 3859 3500 3706 3700 
Q 3553 3900 3268 4020 
Q 2984 4141 2638 4141 
Q 2222 4141 1919 4014 
Q 1616 3888 1430 3681 
Q 1244 3475 1141 3228 
Q 966 2803 966 2306 
Q 966 1694 1177 1281 
Q 1388 869 1791 669 
Q 2194 469 2647 469 
Q 3041 469 3416 620 
Q 3791 772 3984 944 
L 3984 1797 
L 2638 1797 
z
" transform="scale(0.015625)"/>
        <path id="ArialMT-4d" d="M 475 0 
L 475 4581 
L 1388 4581 
L 2472 1338 
Q 2622 884 2691 659 
Q 2769 909 2934 1394 
L 4031 4581 
L 4847 4581 
L 4847 0 
L 4263 0 
L 4263 3834 
L 2931 0 
L 2384 0 
L 1059 3900 
L 1059 0 
L 475 0 
z
" transform="scale(0.015625)"/>
       </defs>
       <use xlink:href="#ArialMT-20"/>
       <use xlink:href="#ArialMT-4f" x="27.783203"/>
       <use xlink:href="#ArialMT-70" x="105.566406"/>
       <use xlink:href="#ArialMT-65" x="161.181641"/>
       <use xlink:href="#ArialMT-72" x="216.796875"/>
       <use xlink:href="#ArialMT-61" x="250.097656"/>
       <use xlink:href="#ArialMT-74" x="305.712891"/>
       <use xlink:href="#ArialMT-69" x="333.496094"/>
       <use xlink:href="#ArialMT-6e" x="355.712891"/>
       <use xlink:href="#ArialMT-67" x="411.328125"/>
       <use xlink:href="#ArialMT-20" x="466.943359"/>
       <use xlink:href="#ArialMT-47" x="494.726562"/>
       <use xlink:href="#ArialMT-72" x="572.509766"/>
       <use xlink:href="#ArialMT-6f" x="605.810547"/>
       <use xlink:href="#ArialMT-73" x="661.425781"/>
       <use xlink:href="#ArialMT-73" x="711.425781"/>
       <use xlink:href="#ArialMT-20" x="761.425781"/>
       <use xlink:href="#ArialMT-4d" x="789.208984"/>
       <use xlink:href="#ArialMT-61" x="872.509766"/>
       <use xlink:href="#ArialMT-72" x="928.125"/>
       <use xlink:href="#ArialMT-67" x="961.425781"/>
       <use xlink:href="#ArialMT-69" x="1017.041016"/>
       <use xlink:href="#ArialMT-6e" x="1039.257812"/>
      </g>
     </g>
    </g>
   </g>
   <g id="matplotlib.axis_2">
    <g id="ytick_1">
     <g id="line2d_1">
      <path d="M 34.62 252.368357 
L 1064.88 252.368357 
" clip-path="url(#p79cdd55993)" style="fill: none; stroke: #cbcbcb"/>
     </g>
     <g id="text_3">
      <!-- −4 -->
      <g style="fill: #262626" transform="translate(15.078281 256.305154)scale(0.11 -0.11)">
       <defs>
        <path id="ArialMT-2212" d="M 3381 1997 
L 356 1997 
L 356 2522 
L 3381 2522 
L 3381 1997 
z
" transform="scale(0.015625)"/>
        <path id="ArialMT-34" d="M 2069 0 
L 2069 1097 
L 81 1097 
L 81 1613 
L 2172 4581 
L 2631 4581 
L 2631 1613 
L 3250 1613 
L 3250 1097 
L 2631 1097 
L 2631 0 
L 2069 0 
z
M 2069 1613 
L 2069 3678 
L 634 1613 
L 2069 1613 
z
" transform="scale(0.015625)"/>
       </defs>
       <use xlink:href="#ArialMT-2212"/>
       <use xlink:href="#ArialMT-34" x="58.398438"/>
      </g>
     </g>
    </g>
    <g id="ytick_2">
     <g id="line2d_2">
      <path d="M 34.62 205.972496 
L 1064.88 205.972496 
" clip-path="url(#p79cdd55993)" style="fill: none; stroke: #cbcbcb"/>
     </g>
     <g id="text_4">
      <!-- −2 -->
      <g style="fill: #262626" transform="translate(15.078281 209.909292)scale(0.11 -0.11)">
       <defs>
        <path id="ArialMT-32" d="M 3222 541 
L 3222 0 
L 194 0 
Q 188 203 259 391 
Q 375 700 629 1000 
Q 884 1300 1366 1694 
Q 2113 2306 2375 2664 
Q 2638 3022 2638 3341 
Q 2638 3675 2398 3904 
Q 2159 4134 1775 4134 
Q 1369 4134 1125 3890 
Q 881 3647 878 3216 
L 300 3275 
Q 359 3922 746 4261 
Q 1134 4600 1788 4600 
Q 2447 4600 2831 4234 
Q 3216 3869 3216 3328 
Q 3216 3053 3103 2787 
Q 2991 2522 2730 2228 
Q 2469 1934 1863 1422 
Q 1356 997 1212 845 
Q 1069 694 975 541 
L 3222 541 
z
" transform="scale(0.015625)"/>
       </defs>
       <use xlink:href="#ArialMT-2212"/>
       <use xlink:href="#ArialMT-32" x="58.398438"/>
      </g>
     </g>
    </g>
    <g id="ytick_3">
     <g id="line2d_3">
      <path d="M 34.62 159.576634 
L 1064.88 159.576634 
" clip-path="url(#p79cdd55993)" style="fill: none; stroke: #cbcbcb"/>
     </g>
     <g id="text_5">
      <!-- 0 -->
      <g style="fill: #262626" transform="translate(21.502969 163.513431)scale(0.11 -0.11)">
       <defs>
        <path id="ArialMT-30" d="M 266 2259 
Q 266 3072 433 3567 
Q 600 4063 929 4331 
Q 1259 4600 1759 4600 
Q 2128 4600 2406 4451 
Q 2684 4303 2865 4023 
Q 3047 3744 3150 3342 
Q 3253 2941 3253 2259 
Q 3253 1453 3087 958 
Q 2922 463 2592 192 
Q 2263 -78 1759 -78 
Q 1097 -78 719 397 
Q 266 969 266 2259 
z
M 844 2259 
Q 844 1131 1108 757 
Q 1372 384 1759 384 
Q 2147 384 2411 759 
Q 2675 1134 2675 2259 
Q 2675 3391 2411 3762 
Q 2147 4134 1753 4134 
Q 1366 4134 1134 3806 
Q 844 3388 844 2259 
z
" transform="scale(0.015625)"/>
       </defs>
       <use xlink:href="#ArialMT-30"/>
      </g>
     </g>
    </g>
    <g id="ytick_4">
     <g id="line2d_4">
      <path d="M 34.62 113.180773 
L 1064.88 113.180773 
" clip-path="url(#p79cdd55993)" style="fill: none; stroke: #cbcbcb"/>
     </g>
     <g id="text_6">
      <!-- 2 -->
      <g style="fill: #262626" transform="translate(21.502969 117.11757)scale(0.11 -0.11)">
       <use xlink:href="#ArialMT-32"/>
      </g>
     </g>
    </g>
    <g id="ytick_5">
     <g id="line2d_5">
      <path d="M 34.62 66.784911 
L 1064.88 66.784911 
" clip-path="url(#p79cdd55993)" style="fill: none; stroke: #cbcbcb"/>
     </g>
     <g id="text_7">
      <!-- 4 -->
      <g style="fill: #262626" transform="translate(21.502969 70.721708)scale(0.11 -0.11)">
       <use xlink:href="#ArialMT-34"/>
      </g>
     </g>
    </g>
   </g>
   <g id="PolyCollection_1">
    <defs>
     <path id="mc88c8f72ac" d="M 292.341195 -41.784744 
L 292.028805 -41.784744 
L 291.815501 -43.48591 
L 291.440316 -45.187077 
L 290.89606 -46.888243 
L 290.244474 -48.589409 
L 289.592355 -50.290575 
L 289.018231 -51.991741 
L 288.512906 -53.692907 
L 287.99754 -55.394073 
L 287.404724 -57.095239 
L 286.74064 -58.796405 
L 286.07247 -60.497571 
L 285.46689 -62.198737 
L 284.940034 -63.899904 
L 284.442549 -65.60107 
L 283.869622 -67.302236 
L 283.098939 -69.003402 
L 282.06318 -70.704568 
L 280.81659 -72.405734 
L 279.523934 -74.1069 
L 278.356348 -75.808066 
L 277.372879 -77.509232 
L 276.487798 -79.210398 
L 275.54028 -80.911564 
L 274.38045 -82.612731 
L 272.879133 -84.313897 
L 270.873411 -86.015063 
L 268.155426 -87.716229 
L 264.572418 -89.417395 
L 260.165664 -91.118561 
L 255.202023 -92.819727 
L 250.040211 -94.520893 
L 244.931064 -96.222059 
L 239.906256 -97.923225 
L 234.803458 -99.624391 
L 229.321529 -101.325558 
L 222.984272 -103.026724 
L 215.068266 -104.72789 
L 204.719677 -106.429056 
L 191.386149 -108.130222 
L 175.341581 -109.831388 
L 157.840402 -111.532554 
L 140.643922 -113.23372 
L 125.211874 -114.934886 
L 112.204512 -116.636052 
L 101.665722 -118.337219 
L 93.593651 -120.038385 
L 88.276729 -121.739551 
L 86.133 -123.440717 
L 87.345129 -125.141883 
L 91.668673 -126.843049 
L 98.478198 -128.544215 
L 106.939878 -130.245381 
L 116.251317 -131.946547 
L 125.866269 -133.647713 
L 135.547265 -135.348879 
L 145.215688 -137.050046 
L 154.76985 -138.751212 
L 164.015803 -140.452378 
L 172.698265 -142.153544 
L 180.588096 -143.85471 
L 187.612746 -145.555876 
L 193.949396 -147.257042 
L 199.956777 -148.958208 
L 205.956108 -150.659374 
L 212.048865 -152.36054 
L 218.135843 -154.061706 
L 224.086669 -155.762873 
L 229.861112 -157.464039 
L 235.471478 -159.165205 
L 240.865071 -160.866371 
L 245.86993 -162.567537 
L 250.260355 -164.268703 
L 253.894326 -165.969869 
L 256.828667 -167.671035 
L 259.323705 -169.372201 
L 261.713037 -171.073367 
L 264.221168 -172.774534 
L 266.864121 -174.4757 
L 269.490411 -176.176866 
L 271.896886 -177.878032 
L 273.928832 -179.579198 
L 275.538603 -181.280364 
L 276.808677 -182.98153 
L 277.9188 -184.682696 
L 279.048156 -186.383862 
L 280.275326 -188.085028 
L 281.561867 -189.786194 
L 282.822316 -191.487361 
L 284.001271 -193.188527 
L 285.100231 -194.889693 
L 286.162905 -196.590859 
L 287.241043 -198.292025 
L 288.349749 -199.993191 
L 289.437303 -201.694357 
L 290.402809 -203.395523 
L 291.154492 -205.096689 
L 291.659847 -206.797855 
L 291.951188 -208.499021 
L 292.094691 -210.200188 
L 292.275309 -210.200188 
L 292.275309 -210.200188 
L 292.418812 -208.499021 
L 292.710153 -206.797855 
L 293.215508 -205.096689 
L 293.967191 -203.395523 
L 294.932697 -201.694357 
L 296.020251 -199.993191 
L 297.128957 -198.292025 
L 298.207095 -196.590859 
L 299.269769 -194.889693 
L 300.368729 -193.188527 
L 301.547684 -191.487361 
L 302.808133 -189.786194 
L 304.094674 -188.085028 
L 305.321844 -186.383862 
L 306.4512 -184.682696 
L 307.561323 -182.98153 
L 308.831397 -181.280364 
L 310.441168 -179.579198 
L 312.473114 -177.878032 
L 314.879589 -176.176866 
L 317.505879 -174.4757 
L 320.148832 -172.774534 
L 322.656963 -171.073367 
L 325.046295 -169.372201 
L 327.541333 -167.671035 
L 330.475674 -165.969869 
L 334.109645 -164.268703 
L 338.50007 -162.567537 
L 343.504929 -160.866371 
L 348.898522 -159.165205 
L 354.508888 -157.464039 
L 360.283331 -155.762873 
L 366.234157 -154.061706 
L 372.321135 -152.36054 
L 378.413892 -150.659374 
L 384.413223 -148.958208 
L 390.420604 -147.257042 
L 396.757254 -145.555876 
L 403.781904 -143.85471 
L 411.671735 -142.153544 
L 420.354197 -140.452378 
L 429.60015 -138.751212 
L 439.154312 -137.050046 
L 448.822735 -135.348879 
L 458.503731 -133.647713 
L 468.118683 -131.946547 
L 477.430122 -130.245381 
L 485.891802 -128.544215 
L 492.701327 -126.843049 
L 497.024871 -125.141883 
L 498.237 -123.440717 
L 496.093271 -121.739551 
L 490.776349 -120.038385 
L 482.704278 -118.337219 
L 472.165488 -116.636052 
L 459.158126 -114.934886 
L 443.726078 -113.23372 
L 426.529598 -111.532554 
L 409.028419 -109.831388 
L 392.983851 -108.130222 
L 379.650323 -106.429056 
L 369.301734 -104.72789 
L 361.385728 -103.026724 
L 355.048471 -101.325558 
L 349.566542 -99.624391 
L 344.463744 -97.923225 
L 339.438936 -96.222059 
L 334.329789 -94.520893 
L 329.167977 -92.819727 
L 324.204336 -91.118561 
L 319.797582 -89.417395 
L 316.214574 -87.716229 
L 313.496589 -86.015063 
L 311.490867 -84.313897 
L 309.98955 -82.612731 
L 308.82972 -80.911564 
L 307.882202 -79.210398 
L 306.997121 -77.509232 
L 306.013652 -75.808066 
L 304.846066 -74.1069 
L 303.55341 -72.405734 
L 302.30682 -70.704568 
L 301.271061 -69.003402 
L 300.500378 -67.302236 
L 299.927451 -65.60107 
L 299.429966 -63.899904 
L 298.90311 -62.198737 
L 298.29753 -60.497571 
L 297.62936 -58.796405 
L 296.965276 -57.095239 
L 296.37246 -55.394073 
L 295.857094 -53.692907 
L 295.351769 -51.991741 
L 294.777645 -50.290575 
L 294.125526 -48.589409 
L 293.47394 -46.888243 
L 292.929684 -45.187077 
L 292.554499 -43.48591 
L 292.341195 -41.784744 
z
" style="stroke: #484848; stroke-width: 3"/>
    </defs>
    <g clip-path="url(#p79cdd55993)">
     <use xlink:href="#mc88c8f72ac" x="0" y="288" style="fill: #cb3335; stroke: #484848; stroke-width: 3"/>
    </g>
   </g>
   <g id="PolyCollection_2">
    <defs>
     <path id="m4fdd0cafd1" d="M 807.399156 -60.885026 
L 807.230844 -60.885026 
L 807.095056 -62.635097 
L 806.825872 -64.385169 
L 806.381811 -66.135241 
L 805.769873 -67.885313 
L 805.058478 -69.635384 
L 804.343439 -71.385456 
L 803.685342 -73.135528 
L 803.067622 -74.8856 
L 802.403346 -76.635672 
L 801.5754 -78.385743 
L 800.481988 -80.135815 
L 799.070168 -81.885887 
L 797.338572 -83.635959 
L 795.288447 -85.38603 
L 792.831194 -87.136102 
L 789.700278 -88.886174 
L 785.419698 -90.636246 
L 779.345337 -92.386317 
L 770.76412 -94.136389 
L 759.050912 -95.886461 
L 743.899961 -97.636533 
L 725.572029 -99.386605 
L 704.994432 -101.136676 
L 683.612342 -102.886748 
L 663.067778 -104.63682 
L 644.827001 -106.386892 
L 629.829781 -108.136963 
L 618.312102 -109.887035 
L 609.982015 -111.637107 
L 604.449714 -113.387179 
L 601.540127 -115.13725 
L 601.263 -116.887322 
L 603.569556 -118.637394 
L 608.150923 -120.387466 
L 614.408163 -122.137537 
L 621.582482 -123.887609 
L 628.996693 -125.637681 
L 636.335382 -127.387753 
L 643.773604 -129.137825 
L 651.733998 -130.887896 
L 660.367881 -132.637968 
L 669.24078 -134.38804 
L 677.576303 -136.138112 
L 684.828634 -137.888183 
L 691.027244 -139.638255 
L 696.639349 -141.388327 
L 702.196056 -143.138399 
L 708.044817 -144.88847 
L 714.311897 -146.638542 
L 720.926135 -148.388614 
L 727.618922 -150.138686 
L 733.977566 -151.888758 
L 739.621131 -153.638829 
L 744.414342 -155.388901 
L 748.547527 -157.138973 
L 752.396028 -158.889045 
L 756.25818 -160.639116 
L 760.191058 -162.389188 
L 764.075702 -164.13926 
L 767.805202 -165.889332 
L 771.375783 -167.639403 
L 774.818105 -169.389475 
L 778.106018 -171.139547 
L 781.159579 -172.889619 
L 783.906001 -174.639691 
L 786.316654 -176.389762 
L 788.409136 -178.139834 
L 790.238933 -179.889906 
L 791.880988 -181.639978 
L 793.399002 -183.390049 
L 794.823111 -185.140121 
L 796.152999 -186.890193 
L 797.375938 -188.640265 
L 798.477174 -190.390336 
L 799.436655 -192.140408 
L 800.229336 -193.89048 
L 800.843207 -195.640552 
L 801.29839 -197.390624 
L 801.638549 -199.140695 
L 801.902445 -200.890767 
L 802.116243 -202.640839 
L 802.313525 -204.390911 
L 802.537696 -206.140982 
L 802.801429 -207.891054 
L 803.046037 -209.641126 
L 803.161103 -211.391198 
L 803.068198 -213.141269 
L 802.803952 -214.891341 
L 802.524568 -216.641413 
L 802.419545 -218.391485 
L 802.608349 -220.141557 
L 803.100894 -221.891628 
L 803.825124 -223.6417 
L 804.66822 -225.391772 
L 805.502795 -227.141844 
L 806.213117 -228.891915 
L 806.729275 -230.641987 
L 807.046379 -232.392059 
L 807.20981 -234.142131 
L 807.42019 -234.142131 
L 807.42019 -234.142131 
L 807.583621 -232.392059 
L 807.900725 -230.641987 
L 808.416883 -228.891915 
L 809.127205 -227.141844 
L 809.96178 -225.391772 
L 810.804876 -223.6417 
L 811.529106 -221.891628 
L 812.021651 -220.141557 
L 812.210455 -218.391485 
L 812.105432 -216.641413 
L 811.826048 -214.891341 
L 811.561802 -213.141269 
L 811.468897 -211.391198 
L 811.583963 -209.641126 
L 811.828571 -207.891054 
L 812.092304 -206.140982 
L 812.316475 -204.390911 
L 812.513757 -202.640839 
L 812.727555 -200.890767 
L 812.991451 -199.140695 
L 813.33161 -197.390624 
L 813.786793 -195.640552 
L 814.400664 -193.89048 
L 815.193345 -192.140408 
L 816.152826 -190.390336 
L 817.254062 -188.640265 
L 818.477001 -186.890193 
L 819.806889 -185.140121 
L 821.230998 -183.390049 
L 822.749012 -181.639978 
L 824.391067 -179.889906 
L 826.220864 -178.139834 
L 828.313346 -176.389762 
L 830.723999 -174.639691 
L 833.470421 -172.889619 
L 836.523982 -171.139547 
L 839.811895 -169.389475 
L 843.254217 -167.639403 
L 846.824798 -165.889332 
L 850.554298 -164.13926 
L 854.438942 -162.389188 
L 858.37182 -160.639116 
L 862.233972 -158.889045 
L 866.082473 -157.138973 
L 870.215658 -155.388901 
L 875.008869 -153.638829 
L 880.652434 -151.888758 
L 887.011078 -150.138686 
L 893.703865 -148.388614 
L 900.318103 -146.638542 
L 906.585183 -144.88847 
L 912.433944 -143.138399 
L 917.990651 -141.388327 
L 923.602756 -139.638255 
L 929.801366 -137.888183 
L 937.053697 -136.138112 
L 945.38922 -134.38804 
L 954.262119 -132.637968 
L 962.896002 -130.887896 
L 970.856396 -129.137825 
L 978.294618 -127.387753 
L 985.633307 -125.637681 
L 993.047518 -123.887609 
L 1000.221837 -122.137537 
L 1006.479077 -120.387466 
L 1011.060444 -118.637394 
L 1013.367 -116.887322 
L 1013.089873 -115.13725 
L 1010.180286 -113.387179 
L 1004.647985 -111.637107 
L 996.317898 -109.887035 
L 984.800219 -108.136963 
L 969.802999 -106.386892 
L 951.562222 -104.63682 
L 931.017658 -102.886748 
L 909.635568 -101.136676 
L 889.057971 -99.386605 
L 870.730039 -97.636533 
L 855.579088 -95.886461 
L 843.86588 -94.136389 
L 835.284663 -92.386317 
L 829.210302 -90.636246 
L 824.929722 -88.886174 
L 821.798806 -87.136102 
L 819.341553 -85.38603 
L 817.291428 -83.635959 
L 815.559832 -81.885887 
L 814.148012 -80.135815 
L 813.0546 -78.385743 
L 812.226654 -76.635672 
L 811.562378 -74.8856 
L 810.944658 -73.135528 
L 810.286561 -71.385456 
L 809.571522 -69.635384 
L 808.860127 -67.885313 
L 808.248189 -66.135241 
L 807.804128 -64.385169 
L 807.534944 -62.635097 
L 807.399156 -60.885026 
z
" style="stroke: #484848; stroke-width: 3"/>
    </defs>
    <g clip-path="url(#p79cdd55993)">
     <use xlink:href="#m4fdd0cafd1" x="0" y="288" style="fill: #477ca8; stroke: #484848; stroke-width: 3"/>
    </g>
   </g>
   <g id="line2d_6">
    <path d="M 292.185 212.605132 
L 292.185 106.454089 
" clip-path="url(#p79cdd55993)" style="fill: none; stroke: #484848; stroke-width: 3"/>
   </g>
   <g id="line2d_7">
    <path d="M 292.185 172.839599 
L 292.185 146.283568 
" clip-path="url(#p79cdd55993)" style="fill: none; stroke: #484848; stroke-width: 9"/>
   </g>
   <g id="line2d_8">
    <path d="M 807.315 218.096561 
L 807.315 104.337807 
" clip-path="url(#p79cdd55993)" style="fill: none; stroke: #484848; stroke-width: 3"/>
   </g>
   <g id="line2d_9">
    <path d="M 807.315 175.833693 
L 807.315 147.145588 
" clip-path="url(#p79cdd55993)" style="fill: none; stroke: #484848; stroke-width: 9"/>
   </g>
   <g id="patch_3">
    <path d="M 34.62 255.833125 
L 34.62 44.24 
" style="fill: none; stroke: #f0f0f0; stroke-width: 3; stroke-linejoin: miter; stroke-linecap: square"/>
   </g>
   <g id="patch_4">
    <path d="M 1064.88 255.833125 
L 1064.88 44.24 
" style="fill: none; stroke: #f0f0f0; stroke-width: 3; stroke-linejoin: miter; stroke-linecap: square"/>
   </g>
   <g id="patch_5">
    <path d="M 34.62 255.833125 
L 1064.88 255.833125 
" style="fill: none; stroke: #f0f0f0; stroke-width: 3; stroke-linejoin: miter; stroke-linecap: square"/>
   </g>
   <g id="patch_6">
    <path d="M 34.62 44.24 
L 1064.88 44.24 
" style="fill: none; stroke: #f0f0f0; stroke-width: 3; stroke-linejoin: miter; stroke-linecap: square"/>
   </g>
   <g id="PathCollection_1">
    <defs>
     <path id="m7923fbf059" d="M 0 3 
C 0.795609 3 1.55874 2.683901 2.12132 2.12132 
C 2.683901 1.55874 3 0.795609 3 0 
C 3 -0.795609 2.683901 -1.55874 2.12132 -2.12132 
C 1.55874 -2.683901 0.795609 -3 0 -3 
C -0.795609 -3 -1.55874 -2.683901 -2.12132 -2.12132 
C -2.683901 -1.55874 -3 -0.795609 -3 0 
C -3 0.795609 -2.683901 1.55874 -2.12132 2.12132 
C -1.55874 2.683901 -0.795609 3 0 3 
z
" style="stroke: #484848; stroke-width: 0.5"/>
    </defs>
    <g clip-path="url(#p79cdd55993)">
     <use xlink:href="#m7923fbf059" x="292.185" y="160.922729" style="fill: #ffffff; stroke: #484848; stroke-width: 0.5"/>
    </g>
   </g>
   <g id="PathCollection_2">
    <g clip-path="url(#p79cdd55993)">
     <use xlink:href="#m7923fbf059" x="807.315" y="163.877645" style="fill: #ffffff; stroke: #484848; stroke-width: 0.5"/>
    </g>
   </g>
  </g>
  <g id="text_8">
   <!-- Violin Plot of all Continuous Variables -->
   <g style="fill: #262626" transform="translate(416.035547 16.496719)scale(0.15 -0.15)">
    <defs>
     <path id="ArialMT-56" d="M 1803 0 
L 28 4581 
L 684 4581 
L 1875 1253 
Q 2019 853 2116 503 
Q 2222 878 2363 1253 
L 3600 4581 
L 4219 4581 
L 2425 0 
L 1803 0 
z
" transform="scale(0.015625)"/>
     <path id="ArialMT-6c" d="M 409 0 
L 409 4581 
L 972 4581 
L 972 0 
L 409 0 
z
" transform="scale(0.015625)"/>
     <path id="ArialMT-50" d="M 494 0 
L 494 4581 
L 2222 4581 
Q 2678 4581 2919 4538 
Q 3256 4481 3484 4323 
Q 3713 4166 3852 3881 
Q 3991 3597 3991 3256 
Q 3991 2672 3619 2267 
Q 3247 1863 2275 1863 
L 1100 1863 
L 1100 0 
L 494 0 
z
M 1100 2403 
L 2284 2403 
Q 2872 2403 3119 2622 
Q 3366 2841 3366 3238 
Q 3366 3525 3220 3729 
Q 3075 3934 2838 4000 
Q 2684 4041 2272 4041 
L 1100 4041 
L 1100 2403 
z
" transform="scale(0.015625)"/>
     <path id="ArialMT-75" d="M 2597 0 
L 2597 488 
Q 2209 -75 1544 -75 
Q 1250 -75 995 37 
Q 741 150 617 320 
Q 494 491 444 738 
Q 409 903 409 1263 
L 409 3319 
L 972 3319 
L 972 1478 
Q 972 1038 1006 884 
Q 1059 663 1231 536 
Q 1403 409 1656 409 
Q 1909 409 2131 539 
Q 2353 669 2445 892 
Q 2538 1116 2538 1541 
L 2538 3319 
L 3100 3319 
L 3100 0 
L 2597 0 
z
" transform="scale(0.015625)"/>
    </defs>
    <use xlink:href="#ArialMT-56"/>
    <use xlink:href="#ArialMT-69" x="64.949219"/>
    <use xlink:href="#ArialMT-6f" x="87.166016"/>
    <use xlink:href="#ArialMT-6c" x="142.78125"/>
    <use xlink:href="#ArialMT-69" x="164.998047"/>
    <use xlink:href="#ArialMT-6e" x="187.214844"/>
    <use xlink:href="#ArialMT-20" x="242.830078"/>
    <use xlink:href="#ArialMT-50" x="270.613281"/>
    <use xlink:href="#ArialMT-6c" x="337.3125"/>
    <use xlink:href="#ArialMT-6f" x="359.529297"/>
    <use xlink:href="#ArialMT-74" x="415.144531"/>
    <use xlink:href="#ArialMT-20" x="442.927734"/>
    <use xlink:href="#ArialMT-6f" x="470.710938"/>
    <use xlink:href="#ArialMT-66" x="526.326172"/>
    <use xlink:href="#ArialMT-20" x="554.109375"/>
    <use xlink:href="#ArialMT-61" x="581.892578"/>
    <use xlink:href="#ArialMT-6c" x="637.507812"/>
    <use xlink:href="#ArialMT-6c" x="659.724609"/>
    <use xlink:href="#ArialMT-20" x="681.941406"/>
    <use xlink:href="#ArialMT-43" x="709.724609"/>
    <use xlink:href="#ArialMT-6f" x="781.941406"/>
    <use xlink:href="#ArialMT-6e" x="837.556641"/>
    <use xlink:href="#ArialMT-74" x="893.171875"/>
    <use xlink:href="#ArialMT-69" x="920.955078"/>
    <use xlink:href="#ArialMT-6e" x="943.171875"/>
    <use xlink:href="#ArialMT-75" x="998.787109"/>
    <use xlink:href="#ArialMT-6f" x="1054.402344"/>
    <use xlink:href="#ArialMT-75" x="1110.017578"/>
    <use xlink:href="#ArialMT-73" x="1165.632812"/>
    <use xlink:href="#ArialMT-20" x="1215.632812"/>
    <use xlink:href="#ArialMT-56" x="1243.416016"/>
    <use xlink:href="#ArialMT-61" x="1302.740234"/>
    <use xlink:href="#ArialMT-72" x="1358.355469"/>
    <use xlink:href="#ArialMT-69" x="1391.65625"/>
    <use xlink:href="#ArialMT-61" x="1413.873047"/>
    <use xlink:href="#ArialMT-62" x="1469.488281"/>
    <use xlink:href="#ArialMT-6c" x="1525.103516"/>
    <use xlink:href="#ArialMT-65" x="1547.320312"/>
    <use xlink:href="#ArialMT-73" x="1602.935547"/>
   </g>
  </g>
 </g>
 <defs>
  <clipPath id="p79cdd55993">
   <rect x="34.62" y="44.24" width="1030.26" height="211.593125"/>
  </clipPath>
 </defs>
</svg>
