<?xml version="1.0" encoding="utf-8" standalone="no"?>
<!DOCTYPE svg PUBLIC "-//W3C//DTD SVG 1.1//EN"
  "http://www.w3.org/Graphics/SVG/1.1/DTD/svg11.dtd">
<svg xmlns:xlink="http://www.w3.org/1999/xlink" width="1080pt" height="288pt" viewBox="0 0 1080 288" xmlns="http://www.w3.org/2000/svg" version="1.1">
 <metadata>
  <rdf:RDF xmlns:dc="http://purl.org/dc/elements/1.1/" xmlns:cc="http://creativecommons.org/ns#" xmlns:rdf="http://www.w3.org/1999/02/22-rdf-syntax-ns#">
   <cc:Work>
    <dc:type rdf:resource="http://purl.org/dc/dcmitype/StillImage"/>
    <dc:date>2022-11-07T19:58:19.465931</dc:date>
    <dc:format>image/svg+xml</dc:format>
    <dc:creator>
     <cc:Agent>
      <dc:title>Matplotlib v3.5.1, https://matplotlib.org/</dc:title>
     </cc:Agent>
    </dc:creator>
   </cc:Work>
  </rdf:RDF>
 </metadata>
 <defs>
  <style type="text/css">*{stroke-linejoin: round; stroke-linecap: butt}</style>
 </defs>
 <g id="figure_1">
  <g id="patch_1">
   <path d="M 0 288 
L 1080 288 
L 1080 0 
L 0 0 
z
" style="fill: #f0f0f0"/>
  </g>
  <g id="axes_1">
   <g id="patch_2">
    <path d="M 43.87 255.833125 
L 1060.2925 255.833125 
L 1060.2925 44.24 
L 43.87 44.24 
z
" style="fill: #f0f0f0"/>
   </g>
   <g id="matplotlib.axis_1">
    <g id="xtick_1">
     <g id="text_1">
      <!--  Quick Asset Turnover Rate -->
      <g style="fill: #262626" transform="translate(40.452812 270.706719)scale(0.11 -0.11)">
       <defs>
        <path id="ArialMT-20" transform="scale(0.015625)"/>
        <path id="ArialMT-51" d="M 3966 491 
Q 4388 200 4744 66 
L 4566 -356 
Q 4072 -178 3581 206 
Q 3072 -78 2456 -78 
Q 1834 -78 1328 222 
Q 822 522 548 1065 
Q 275 1609 275 2291 
Q 275 2969 550 3525 
Q 825 4081 1333 4372 
Q 1841 4663 2469 4663 
Q 3103 4663 3612 4361 
Q 4122 4059 4389 3517 
Q 4656 2975 4656 2294 
Q 4656 1728 4484 1276 
Q 4313 825 3966 491 
z
M 2631 1266 
Q 3156 1119 3497 828 
Q 4031 1316 4031 2294 
Q 4031 2850 3842 3265 
Q 3653 3681 3289 3911 
Q 2925 4141 2472 4141 
Q 1794 4141 1347 3677 
Q 900 3213 900 2291 
Q 900 1397 1342 919 
Q 1784 441 2472 441 
Q 2797 441 3084 563 
Q 2800 747 2484 825 
L 2631 1266 
z
" transform="scale(0.015625)"/>
        <path id="ArialMT-75" d="M 2597 0 
L 2597 488 
Q 2209 -75 1544 -75 
Q 1250 -75 995 37 
Q 741 150 617 320 
Q 494 491 444 738 
Q 409 903 409 1263 
L 409 3319 
L 972 3319 
L 972 1478 
Q 972 1038 1006 884 
Q 1059 663 1231 536 
Q 1403 409 1656 409 
Q 1909 409 2131 539 
Q 2353 669 2445 892 
Q 2538 1116 2538 1541 
L 2538 3319 
L 3100 3319 
L 3100 0 
L 2597 0 
z
" transform="scale(0.015625)"/>
        <path id="ArialMT-69" d="M 425 3934 
L 425 4581 
L 988 4581 
L 988 3934 
L 425 3934 
z
M 425 0 
L 425 3319 
L 988 3319 
L 988 0 
L 425 0 
z
" transform="scale(0.015625)"/>
        <path id="ArialMT-63" d="M 2588 1216 
L 3141 1144 
Q 3050 572 2676 248 
Q 2303 -75 1759 -75 
Q 1078 -75 664 370 
Q 250 816 250 1647 
Q 250 2184 428 2587 
Q 606 2991 970 3192 
Q 1334 3394 1763 3394 
Q 2303 3394 2647 3120 
Q 2991 2847 3088 2344 
L 2541 2259 
Q 2463 2594 2264 2762 
Q 2066 2931 1784 2931 
Q 1359 2931 1093 2626 
Q 828 2322 828 1663 
Q 828 994 1084 691 
Q 1341 388 1753 388 
Q 2084 388 2306 591 
Q 2528 794 2588 1216 
z
" transform="scale(0.015625)"/>
        <path id="ArialMT-6b" d="M 425 0 
L 425 4581 
L 988 4581 
L 988 1969 
L 2319 3319 
L 3047 3319 
L 1778 2088 
L 3175 0 
L 2481 0 
L 1384 1697 
L 988 1316 
L 988 0 
L 425 0 
z
" transform="scale(0.015625)"/>
        <path id="ArialMT-41" d="M -9 0 
L 1750 4581 
L 2403 4581 
L 4278 0 
L 3588 0 
L 3053 1388 
L 1138 1388 
L 634 0 
L -9 0 
z
M 1313 1881 
L 2866 1881 
L 2388 3150 
Q 2169 3728 2063 4100 
Q 1975 3659 1816 3225 
L 1313 1881 
z
" transform="scale(0.015625)"/>
        <path id="ArialMT-73" d="M 197 991 
L 753 1078 
Q 800 744 1014 566 
Q 1228 388 1613 388 
Q 2000 388 2187 545 
Q 2375 703 2375 916 
Q 2375 1106 2209 1216 
Q 2094 1291 1634 1406 
Q 1016 1563 777 1677 
Q 538 1791 414 1992 
Q 291 2194 291 2438 
Q 291 2659 392 2848 
Q 494 3038 669 3163 
Q 800 3259 1026 3326 
Q 1253 3394 1513 3394 
Q 1903 3394 2198 3281 
Q 2494 3169 2634 2976 
Q 2775 2784 2828 2463 
L 2278 2388 
Q 2241 2644 2061 2787 
Q 1881 2931 1553 2931 
Q 1166 2931 1000 2803 
Q 834 2675 834 2503 
Q 834 2394 903 2306 
Q 972 2216 1119 2156 
Q 1203 2125 1616 2013 
Q 2213 1853 2448 1751 
Q 2684 1650 2818 1456 
Q 2953 1263 2953 975 
Q 2953 694 2789 445 
Q 2625 197 2315 61 
Q 2006 -75 1616 -75 
Q 969 -75 630 194 
Q 291 463 197 991 
z
" transform="scale(0.015625)"/>
        <path id="ArialMT-65" d="M 2694 1069 
L 3275 997 
Q 3138 488 2766 206 
Q 2394 -75 1816 -75 
Q 1088 -75 661 373 
Q 234 822 234 1631 
Q 234 2469 665 2931 
Q 1097 3394 1784 3394 
Q 2450 3394 2872 2941 
Q 3294 2488 3294 1666 
Q 3294 1616 3291 1516 
L 816 1516 
Q 847 969 1125 678 
Q 1403 388 1819 388 
Q 2128 388 2347 550 
Q 2566 713 2694 1069 
z
M 847 1978 
L 2700 1978 
Q 2663 2397 2488 2606 
Q 2219 2931 1791 2931 
Q 1403 2931 1139 2672 
Q 875 2413 847 1978 
z
" transform="scale(0.015625)"/>
        <path id="ArialMT-74" d="M 1650 503 
L 1731 6 
Q 1494 -44 1306 -44 
Q 1000 -44 831 53 
Q 663 150 594 308 
Q 525 466 525 972 
L 525 2881 
L 113 2881 
L 113 3319 
L 525 3319 
L 525 4141 
L 1084 4478 
L 1084 3319 
L 1650 3319 
L 1650 2881 
L 1084 2881 
L 1084 941 
Q 1084 700 1114 631 
Q 1144 563 1211 522 
Q 1278 481 1403 481 
Q 1497 481 1650 503 
z
" transform="scale(0.015625)"/>
        <path id="ArialMT-54" d="M 1659 0 
L 1659 4041 
L 150 4041 
L 150 4581 
L 3781 4581 
L 3781 4041 
L 2266 4041 
L 2266 0 
L 1659 0 
z
" transform="scale(0.015625)"/>
        <path id="ArialMT-72" d="M 416 0 
L 416 3319 
L 922 3319 
L 922 2816 
Q 1116 3169 1280 3281 
Q 1444 3394 1641 3394 
Q 1925 3394 2219 3213 
L 2025 2691 
Q 1819 2813 1613 2813 
Q 1428 2813 1281 2702 
Q 1134 2591 1072 2394 
Q 978 2094 978 1738 
L 978 0 
L 416 0 
z
" transform="scale(0.015625)"/>
        <path id="ArialMT-6e" d="M 422 0 
L 422 3319 
L 928 3319 
L 928 2847 
Q 1294 3394 1984 3394 
Q 2284 3394 2536 3286 
Q 2788 3178 2913 3003 
Q 3038 2828 3088 2588 
Q 3119 2431 3119 2041 
L 3119 0 
L 2556 0 
L 2556 2019 
Q 2556 2363 2490 2533 
Q 2425 2703 2258 2804 
Q 2091 2906 1866 2906 
Q 1506 2906 1245 2678 
Q 984 2450 984 1813 
L 984 0 
L 422 0 
z
" transform="scale(0.015625)"/>
        <path id="ArialMT-6f" d="M 213 1659 
Q 213 2581 725 3025 
Q 1153 3394 1769 3394 
Q 2453 3394 2887 2945 
Q 3322 2497 3322 1706 
Q 3322 1066 3130 698 
Q 2938 331 2570 128 
Q 2203 -75 1769 -75 
Q 1072 -75 642 372 
Q 213 819 213 1659 
z
M 791 1659 
Q 791 1022 1069 705 
Q 1347 388 1769 388 
Q 2188 388 2466 706 
Q 2744 1025 2744 1678 
Q 2744 2294 2464 2611 
Q 2184 2928 1769 2928 
Q 1347 2928 1069 2612 
Q 791 2297 791 1659 
z
" transform="scale(0.015625)"/>
        <path id="ArialMT-76" d="M 1344 0 
L 81 3319 
L 675 3319 
L 1388 1331 
Q 1503 1009 1600 663 
Q 1675 925 1809 1294 
L 2547 3319 
L 3125 3319 
L 1869 0 
L 1344 0 
z
" transform="scale(0.015625)"/>
        <path id="ArialMT-52" d="M 503 0 
L 503 4581 
L 2534 4581 
Q 3147 4581 3465 4457 
Q 3784 4334 3975 4021 
Q 4166 3709 4166 3331 
Q 4166 2844 3850 2509 
Q 3534 2175 2875 2084 
Q 3116 1969 3241 1856 
Q 3506 1613 3744 1247 
L 4541 0 
L 3778 0 
L 3172 953 
Q 2906 1366 2734 1584 
Q 2563 1803 2427 1890 
Q 2291 1978 2150 2013 
Q 2047 2034 1813 2034 
L 1109 2034 
L 1109 0 
L 503 0 
z
M 1109 2559 
L 2413 2559 
Q 2828 2559 3062 2645 
Q 3297 2731 3419 2920 
Q 3541 3109 3541 3331 
Q 3541 3656 3305 3865 
Q 3069 4075 2559 4075 
L 1109 4075 
L 1109 2559 
z
" transform="scale(0.015625)"/>
        <path id="ArialMT-61" d="M 2588 409 
Q 2275 144 1986 34 
Q 1697 -75 1366 -75 
Q 819 -75 525 192 
Q 231 459 231 875 
Q 231 1119 342 1320 
Q 453 1522 633 1644 
Q 813 1766 1038 1828 
Q 1203 1872 1538 1913 
Q 2219 1994 2541 2106 
Q 2544 2222 2544 2253 
Q 2544 2597 2384 2738 
Q 2169 2928 1744 2928 
Q 1347 2928 1158 2789 
Q 969 2650 878 2297 
L 328 2372 
Q 403 2725 575 2942 
Q 747 3159 1072 3276 
Q 1397 3394 1825 3394 
Q 2250 3394 2515 3294 
Q 2781 3194 2906 3042 
Q 3031 2891 3081 2659 
Q 3109 2516 3109 2141 
L 3109 1391 
Q 3109 606 3145 398 
Q 3181 191 3288 0 
L 2700 0 
Q 2613 175 2588 409 
z
M 2541 1666 
Q 2234 1541 1622 1453 
Q 1275 1403 1131 1340 
Q 988 1278 909 1158 
Q 831 1038 831 891 
Q 831 666 1001 516 
Q 1172 366 1500 366 
Q 1825 366 2078 508 
Q 2331 650 2450 897 
Q 2541 1088 2541 1459 
L 2541 1666 
z
" transform="scale(0.015625)"/>
       </defs>
       <use xlink:href="#ArialMT-20"/>
       <use xlink:href="#ArialMT-51" x="27.783203"/>
       <use xlink:href="#ArialMT-75" x="105.566406"/>
       <use xlink:href="#ArialMT-69" x="161.181641"/>
       <use xlink:href="#ArialMT-63" x="183.398438"/>
       <use xlink:href="#ArialMT-6b" x="233.398438"/>
       <use xlink:href="#ArialMT-20" x="283.398438"/>
       <use xlink:href="#ArialMT-41" x="305.681641"/>
       <use xlink:href="#ArialMT-73" x="372.380859"/>
       <use xlink:href="#ArialMT-73" x="422.380859"/>
       <use xlink:href="#ArialMT-65" x="472.380859"/>
       <use xlink:href="#ArialMT-74" x="527.996094"/>
       <use xlink:href="#ArialMT-20" x="555.779297"/>
       <use xlink:href="#ArialMT-54" x="581.8125"/>
       <use xlink:href="#ArialMT-75" x="639.146484"/>
       <use xlink:href="#ArialMT-72" x="694.761719"/>
       <use xlink:href="#ArialMT-6e" x="728.0625"/>
       <use xlink:href="#ArialMT-6f" x="783.677734"/>
       <use xlink:href="#ArialMT-76" x="839.292969"/>
       <use xlink:href="#ArialMT-65" x="889.292969"/>
       <use xlink:href="#ArialMT-72" x="944.908203"/>
       <use xlink:href="#ArialMT-20" x="978.208984"/>
       <use xlink:href="#ArialMT-52" x="1005.992188"/>
       <use xlink:href="#ArialMT-61" x="1078.208984"/>
       <use xlink:href="#ArialMT-74" x="1133.824219"/>
       <use xlink:href="#ArialMT-65" x="1161.607422"/>
      </g>
     </g>
    </g>
    <g id="xtick_2">
     <g id="text_2">
      <!--  Working capitcal Turnover Rate -->
      <g style="fill: #262626" transform="translate(156.295078 270.706719)scale(0.11 -0.11)">
       <defs>
        <path id="ArialMT-57" d="M 1294 0 
L 78 4581 
L 700 4581 
L 1397 1578 
Q 1509 1106 1591 641 
Q 1766 1375 1797 1488 
L 2669 4581 
L 3400 4581 
L 4056 2263 
Q 4303 1400 4413 641 
Q 4500 1075 4641 1638 
L 5359 4581 
L 5969 4581 
L 4713 0 
L 4128 0 
L 3163 3491 
Q 3041 3928 3019 4028 
Q 2947 3713 2884 3491 
L 1913 0 
L 1294 0 
z
" transform="scale(0.015625)"/>
        <path id="ArialMT-67" d="M 319 -275 
L 866 -356 
Q 900 -609 1056 -725 
Q 1266 -881 1628 -881 
Q 2019 -881 2231 -725 
Q 2444 -569 2519 -288 
Q 2563 -116 2559 434 
Q 2191 0 1641 0 
Q 956 0 581 494 
Q 206 988 206 1678 
Q 206 2153 378 2554 
Q 550 2956 876 3175 
Q 1203 3394 1644 3394 
Q 2231 3394 2613 2919 
L 2613 3319 
L 3131 3319 
L 3131 450 
Q 3131 -325 2973 -648 
Q 2816 -972 2473 -1159 
Q 2131 -1347 1631 -1347 
Q 1038 -1347 672 -1080 
Q 306 -813 319 -275 
z
M 784 1719 
Q 784 1066 1043 766 
Q 1303 466 1694 466 
Q 2081 466 2343 764 
Q 2606 1063 2606 1700 
Q 2606 2309 2336 2618 
Q 2066 2928 1684 2928 
Q 1309 2928 1046 2623 
Q 784 2319 784 1719 
z
" transform="scale(0.015625)"/>
        <path id="ArialMT-70" d="M 422 -1272 
L 422 3319 
L 934 3319 
L 934 2888 
Q 1116 3141 1344 3267 
Q 1572 3394 1897 3394 
Q 2322 3394 2647 3175 
Q 2972 2956 3137 2557 
Q 3303 2159 3303 1684 
Q 3303 1175 3120 767 
Q 2938 359 2589 142 
Q 2241 -75 1856 -75 
Q 1575 -75 1351 44 
Q 1128 163 984 344 
L 984 -1272 
L 422 -1272 
z
M 931 1641 
Q 931 1000 1190 694 
Q 1450 388 1819 388 
Q 2194 388 2461 705 
Q 2728 1022 2728 1688 
Q 2728 2322 2467 2637 
Q 2206 2953 1844 2953 
Q 1484 2953 1207 2617 
Q 931 2281 931 1641 
z
" transform="scale(0.015625)"/>
        <path id="ArialMT-6c" d="M 409 0 
L 409 4581 
L 972 4581 
L 972 0 
L 409 0 
z
" transform="scale(0.015625)"/>
       </defs>
       <use xlink:href="#ArialMT-20"/>
       <use xlink:href="#ArialMT-57" x="27.783203"/>
       <use xlink:href="#ArialMT-6f" x="120.417969"/>
       <use xlink:href="#ArialMT-72" x="176.033203"/>
       <use xlink:href="#ArialMT-6b" x="209.333984"/>
       <use xlink:href="#ArialMT-69" x="259.333984"/>
       <use xlink:href="#ArialMT-6e" x="281.550781"/>
       <use xlink:href="#ArialMT-67" x="337.166016"/>
       <use xlink:href="#ArialMT-20" x="392.78125"/>
       <use xlink:href="#ArialMT-63" x="420.564453"/>
       <use xlink:href="#ArialMT-61" x="470.564453"/>
       <use xlink:href="#ArialMT-70" x="526.179688"/>
       <use xlink:href="#ArialMT-69" x="581.794922"/>
       <use xlink:href="#ArialMT-74" x="604.011719"/>
       <use xlink:href="#ArialMT-63" x="631.794922"/>
       <use xlink:href="#ArialMT-61" x="681.794922"/>
       <use xlink:href="#ArialMT-6c" x="737.410156"/>
       <use xlink:href="#ArialMT-20" x="759.626953"/>
       <use xlink:href="#ArialMT-54" x="785.660156"/>
       <use xlink:href="#ArialMT-75" x="842.994141"/>
       <use xlink:href="#ArialMT-72" x="898.609375"/>
       <use xlink:href="#ArialMT-6e" x="931.910156"/>
       <use xlink:href="#ArialMT-6f" x="987.525391"/>
       <use xlink:href="#ArialMT-76" x="1043.140625"/>
       <use xlink:href="#ArialMT-65" x="1093.140625"/>
       <use xlink:href="#ArialMT-72" x="1148.755859"/>
       <use xlink:href="#ArialMT-20" x="1182.056641"/>
       <use xlink:href="#ArialMT-52" x="1209.839844"/>
       <use xlink:href="#ArialMT-61" x="1282.056641"/>
       <use xlink:href="#ArialMT-74" x="1337.671875"/>
       <use xlink:href="#ArialMT-65" x="1365.455078"/>
      </g>
     </g>
    </g>
    <g id="xtick_3">
     <g id="text_3">
      <!--  Cash Turnover Rate -->
      <g style="fill: #262626" transform="translate(310.758516 270.706719)scale(0.11 -0.11)">
       <defs>
        <path id="ArialMT-43" d="M 3763 1606 
L 4369 1453 
Q 4178 706 3683 314 
Q 3188 -78 2472 -78 
Q 1731 -78 1267 223 
Q 803 525 561 1097 
Q 319 1669 319 2325 
Q 319 3041 592 3573 
Q 866 4106 1370 4382 
Q 1875 4659 2481 4659 
Q 3169 4659 3637 4309 
Q 4106 3959 4291 3325 
L 3694 3184 
Q 3534 3684 3231 3912 
Q 2928 4141 2469 4141 
Q 1941 4141 1586 3887 
Q 1231 3634 1087 3207 
Q 944 2781 944 2328 
Q 944 1744 1114 1308 
Q 1284 872 1643 656 
Q 2003 441 2422 441 
Q 2931 441 3284 734 
Q 3638 1028 3763 1606 
z
" transform="scale(0.015625)"/>
        <path id="ArialMT-68" d="M 422 0 
L 422 4581 
L 984 4581 
L 984 2938 
Q 1378 3394 1978 3394 
Q 2347 3394 2619 3248 
Q 2891 3103 3008 2847 
Q 3125 2591 3125 2103 
L 3125 0 
L 2563 0 
L 2563 2103 
Q 2563 2525 2380 2717 
Q 2197 2909 1863 2909 
Q 1613 2909 1392 2779 
Q 1172 2650 1078 2428 
Q 984 2206 984 1816 
L 984 0 
L 422 0 
z
" transform="scale(0.015625)"/>
       </defs>
       <use xlink:href="#ArialMT-20"/>
       <use xlink:href="#ArialMT-43" x="27.783203"/>
       <use xlink:href="#ArialMT-61" x="100"/>
       <use xlink:href="#ArialMT-73" x="155.615234"/>
       <use xlink:href="#ArialMT-68" x="205.615234"/>
       <use xlink:href="#ArialMT-20" x="261.230469"/>
       <use xlink:href="#ArialMT-54" x="287.263672"/>
       <use xlink:href="#ArialMT-75" x="344.597656"/>
       <use xlink:href="#ArialMT-72" x="400.212891"/>
       <use xlink:href="#ArialMT-6e" x="433.513672"/>
       <use xlink:href="#ArialMT-6f" x="489.128906"/>
       <use xlink:href="#ArialMT-76" x="544.744141"/>
       <use xlink:href="#ArialMT-65" x="594.744141"/>
       <use xlink:href="#ArialMT-72" x="650.359375"/>
       <use xlink:href="#ArialMT-20" x="683.660156"/>
       <use xlink:href="#ArialMT-52" x="711.443359"/>
       <use xlink:href="#ArialMT-61" x="783.660156"/>
       <use xlink:href="#ArialMT-74" x="839.275391"/>
       <use xlink:href="#ArialMT-65" x="867.058594"/>
      </g>
     </g>
    </g>
    <g id="xtick_4">
     <g id="text_4">
      <!--  Cash Flow to Sales -->
      <g style="fill: #262626" transform="translate(439.647812 270.706719)scale(0.11 -0.11)">
       <defs>
        <path id="ArialMT-46" d="M 525 0 
L 525 4581 
L 3616 4581 
L 3616 4041 
L 1131 4041 
L 1131 2622 
L 3281 2622 
L 3281 2081 
L 1131 2081 
L 1131 0 
L 525 0 
z
" transform="scale(0.015625)"/>
        <path id="ArialMT-77" d="M 1034 0 
L 19 3319 
L 600 3319 
L 1128 1403 
L 1325 691 
Q 1338 744 1497 1375 
L 2025 3319 
L 2603 3319 
L 3100 1394 
L 3266 759 
L 3456 1400 
L 4025 3319 
L 4572 3319 
L 3534 0 
L 2950 0 
L 2422 1988 
L 2294 2553 
L 1622 0 
L 1034 0 
z
" transform="scale(0.015625)"/>
        <path id="ArialMT-53" d="M 288 1472 
L 859 1522 
Q 900 1178 1048 958 
Q 1197 738 1509 602 
Q 1822 466 2213 466 
Q 2559 466 2825 569 
Q 3091 672 3220 851 
Q 3350 1031 3350 1244 
Q 3350 1459 3225 1620 
Q 3100 1781 2813 1891 
Q 2628 1963 1997 2114 
Q 1366 2266 1113 2400 
Q 784 2572 623 2826 
Q 463 3081 463 3397 
Q 463 3744 659 4045 
Q 856 4347 1234 4503 
Q 1613 4659 2075 4659 
Q 2584 4659 2973 4495 
Q 3363 4331 3572 4012 
Q 3781 3694 3797 3291 
L 3216 3247 
Q 3169 3681 2898 3903 
Q 2628 4125 2100 4125 
Q 1550 4125 1298 3923 
Q 1047 3722 1047 3438 
Q 1047 3191 1225 3031 
Q 1400 2872 2139 2705 
Q 2878 2538 3153 2413 
Q 3553 2228 3743 1945 
Q 3934 1663 3934 1294 
Q 3934 928 3725 604 
Q 3516 281 3123 101 
Q 2731 -78 2241 -78 
Q 1619 -78 1198 103 
Q 778 284 539 648 
Q 300 1013 288 1472 
z
" transform="scale(0.015625)"/>
       </defs>
       <use xlink:href="#ArialMT-20"/>
       <use xlink:href="#ArialMT-43" x="27.783203"/>
       <use xlink:href="#ArialMT-61" x="100"/>
       <use xlink:href="#ArialMT-73" x="155.615234"/>
       <use xlink:href="#ArialMT-68" x="205.615234"/>
       <use xlink:href="#ArialMT-20" x="261.230469"/>
       <use xlink:href="#ArialMT-46" x="289.013672"/>
       <use xlink:href="#ArialMT-6c" x="350.097656"/>
       <use xlink:href="#ArialMT-6f" x="372.314453"/>
       <use xlink:href="#ArialMT-77" x="427.929688"/>
       <use xlink:href="#ArialMT-20" x="500.146484"/>
       <use xlink:href="#ArialMT-74" x="527.929688"/>
       <use xlink:href="#ArialMT-6f" x="555.712891"/>
       <use xlink:href="#ArialMT-20" x="611.328125"/>
       <use xlink:href="#ArialMT-53" x="639.111328"/>
       <use xlink:href="#ArialMT-61" x="705.810547"/>
       <use xlink:href="#ArialMT-6c" x="761.425781"/>
       <use xlink:href="#ArialMT-65" x="783.642578"/>
       <use xlink:href="#ArialMT-73" x="839.257812"/>
      </g>
     </g>
    </g>
    <g id="xtick_5">
     <g id="text_5">
      <!--  Fixed Assets to Assets -->
      <g style="fill: #262626" transform="translate(559.055625 270.706719)scale(0.11 -0.11)">
       <defs>
        <path id="ArialMT-78" d="M 47 0 
L 1259 1725 
L 138 3319 
L 841 3319 
L 1350 2541 
Q 1494 2319 1581 2169 
Q 1719 2375 1834 2534 
L 2394 3319 
L 3066 3319 
L 1919 1756 
L 3153 0 
L 2463 0 
L 1781 1031 
L 1600 1309 
L 728 0 
L 47 0 
z
" transform="scale(0.015625)"/>
        <path id="ArialMT-64" d="M 2575 0 
L 2575 419 
Q 2259 -75 1647 -75 
Q 1250 -75 917 144 
Q 584 363 401 755 
Q 219 1147 219 1656 
Q 219 2153 384 2558 
Q 550 2963 881 3178 
Q 1213 3394 1622 3394 
Q 1922 3394 2156 3267 
Q 2391 3141 2538 2938 
L 2538 4581 
L 3097 4581 
L 3097 0 
L 2575 0 
z
M 797 1656 
Q 797 1019 1065 703 
Q 1334 388 1700 388 
Q 2069 388 2326 689 
Q 2584 991 2584 1609 
Q 2584 2291 2321 2609 
Q 2059 2928 1675 2928 
Q 1300 2928 1048 2622 
Q 797 2316 797 1656 
z
" transform="scale(0.015625)"/>
       </defs>
       <use xlink:href="#ArialMT-20"/>
       <use xlink:href="#ArialMT-46" x="27.783203"/>
       <use xlink:href="#ArialMT-69" x="88.867188"/>
       <use xlink:href="#ArialMT-78" x="111.083984"/>
       <use xlink:href="#ArialMT-65" x="161.083984"/>
       <use xlink:href="#ArialMT-64" x="216.699219"/>
       <use xlink:href="#ArialMT-20" x="272.314453"/>
       <use xlink:href="#ArialMT-41" x="294.597656"/>
       <use xlink:href="#ArialMT-73" x="361.296875"/>
       <use xlink:href="#ArialMT-73" x="411.296875"/>
       <use xlink:href="#ArialMT-65" x="461.296875"/>
       <use xlink:href="#ArialMT-74" x="516.912109"/>
       <use xlink:href="#ArialMT-73" x="544.695312"/>
       <use xlink:href="#ArialMT-20" x="594.695312"/>
       <use xlink:href="#ArialMT-74" x="622.478516"/>
       <use xlink:href="#ArialMT-6f" x="650.261719"/>
       <use xlink:href="#ArialMT-20" x="705.876953"/>
       <use xlink:href="#ArialMT-41" x="728.160156"/>
       <use xlink:href="#ArialMT-73" x="794.859375"/>
       <use xlink:href="#ArialMT-73" x="844.859375"/>
       <use xlink:href="#ArialMT-65" x="894.859375"/>
       <use xlink:href="#ArialMT-74" x="950.474609"/>
       <use xlink:href="#ArialMT-73" x="978.257812"/>
      </g>
     </g>
    </g>
    <g id="xtick_6">
     <g id="text_6">
      <!--  Equity to Long-term Liability -->
      <g style="fill: #262626" transform="translate(673.270234 270.706719)scale(0.11 -0.11)">
       <defs>
        <path id="ArialMT-45" d="M 506 0 
L 506 4581 
L 3819 4581 
L 3819 4041 
L 1113 4041 
L 1113 2638 
L 3647 2638 
L 3647 2100 
L 1113 2100 
L 1113 541 
L 3925 541 
L 3925 0 
L 506 0 
z
" transform="scale(0.015625)"/>
        <path id="ArialMT-71" d="M 2538 -1272 
L 2538 353 
Q 2406 169 2170 47 
Q 1934 -75 1669 -75 
Q 1078 -75 651 397 
Q 225 869 225 1691 
Q 225 2191 398 2587 
Q 572 2984 901 3189 
Q 1231 3394 1625 3394 
Q 2241 3394 2594 2875 
L 2594 3319 
L 3100 3319 
L 3100 -1272 
L 2538 -1272 
z
M 803 1669 
Q 803 1028 1072 708 
Q 1341 388 1716 388 
Q 2075 388 2334 692 
Q 2594 997 2594 1619 
Q 2594 2281 2320 2615 
Q 2047 2950 1678 2950 
Q 1313 2950 1058 2639 
Q 803 2328 803 1669 
z
" transform="scale(0.015625)"/>
        <path id="ArialMT-79" d="M 397 -1278 
L 334 -750 
Q 519 -800 656 -800 
Q 844 -800 956 -737 
Q 1069 -675 1141 -563 
Q 1194 -478 1313 -144 
Q 1328 -97 1363 -6 
L 103 3319 
L 709 3319 
L 1400 1397 
Q 1534 1031 1641 628 
Q 1738 1016 1872 1384 
L 2581 3319 
L 3144 3319 
L 1881 -56 
Q 1678 -603 1566 -809 
Q 1416 -1088 1222 -1217 
Q 1028 -1347 759 -1347 
Q 597 -1347 397 -1278 
z
" transform="scale(0.015625)"/>
        <path id="ArialMT-4c" d="M 469 0 
L 469 4581 
L 1075 4581 
L 1075 541 
L 3331 541 
L 3331 0 
L 469 0 
z
" transform="scale(0.015625)"/>
        <path id="ArialMT-2d" d="M 203 1375 
L 203 1941 
L 1931 1941 
L 1931 1375 
L 203 1375 
z
" transform="scale(0.015625)"/>
        <path id="ArialMT-6d" d="M 422 0 
L 422 3319 
L 925 3319 
L 925 2853 
Q 1081 3097 1340 3245 
Q 1600 3394 1931 3394 
Q 2300 3394 2536 3241 
Q 2772 3088 2869 2813 
Q 3263 3394 3894 3394 
Q 4388 3394 4653 3120 
Q 4919 2847 4919 2278 
L 4919 0 
L 4359 0 
L 4359 2091 
Q 4359 2428 4304 2576 
Q 4250 2725 4106 2815 
Q 3963 2906 3769 2906 
Q 3419 2906 3187 2673 
Q 2956 2441 2956 1928 
L 2956 0 
L 2394 0 
L 2394 2156 
Q 2394 2531 2256 2718 
Q 2119 2906 1806 2906 
Q 1569 2906 1367 2781 
Q 1166 2656 1075 2415 
Q 984 2175 984 1722 
L 984 0 
L 422 0 
z
" transform="scale(0.015625)"/>
        <path id="ArialMT-62" d="M 941 0 
L 419 0 
L 419 4581 
L 981 4581 
L 981 2947 
Q 1338 3394 1891 3394 
Q 2197 3394 2470 3270 
Q 2744 3147 2920 2923 
Q 3097 2700 3197 2384 
Q 3297 2069 3297 1709 
Q 3297 856 2875 390 
Q 2453 -75 1863 -75 
Q 1275 -75 941 416 
L 941 0 
z
M 934 1684 
Q 934 1088 1097 822 
Q 1363 388 1816 388 
Q 2184 388 2453 708 
Q 2722 1028 2722 1663 
Q 2722 2313 2464 2622 
Q 2206 2931 1841 2931 
Q 1472 2931 1203 2611 
Q 934 2291 934 1684 
z
" transform="scale(0.015625)"/>
       </defs>
       <use xlink:href="#ArialMT-20"/>
       <use xlink:href="#ArialMT-45" x="27.783203"/>
       <use xlink:href="#ArialMT-71" x="94.482422"/>
       <use xlink:href="#ArialMT-75" x="150.097656"/>
       <use xlink:href="#ArialMT-69" x="205.712891"/>
       <use xlink:href="#ArialMT-74" x="227.929688"/>
       <use xlink:href="#ArialMT-79" x="255.712891"/>
       <use xlink:href="#ArialMT-20" x="305.712891"/>
       <use xlink:href="#ArialMT-74" x="333.496094"/>
       <use xlink:href="#ArialMT-6f" x="361.279297"/>
       <use xlink:href="#ArialMT-20" x="416.894531"/>
       <use xlink:href="#ArialMT-4c" x="444.677734"/>
       <use xlink:href="#ArialMT-6f" x="500.292969"/>
       <use xlink:href="#ArialMT-6e" x="555.908203"/>
       <use xlink:href="#ArialMT-67" x="611.523438"/>
       <use xlink:href="#ArialMT-2d" x="667.138672"/>
       <use xlink:href="#ArialMT-74" x="700.439453"/>
       <use xlink:href="#ArialMT-65" x="728.222656"/>
       <use xlink:href="#ArialMT-72" x="783.837891"/>
       <use xlink:href="#ArialMT-6d" x="817.138672"/>
       <use xlink:href="#ArialMT-20" x="900.439453"/>
       <use xlink:href="#ArialMT-4c" x="928.222656"/>
       <use xlink:href="#ArialMT-69" x="983.837891"/>
       <use xlink:href="#ArialMT-61" x="1006.054688"/>
       <use xlink:href="#ArialMT-62" x="1061.669922"/>
       <use xlink:href="#ArialMT-69" x="1117.285156"/>
       <use xlink:href="#ArialMT-6c" x="1139.501953"/>
       <use xlink:href="#ArialMT-69" x="1161.71875"/>
       <use xlink:href="#ArialMT-74" x="1183.935547"/>
       <use xlink:href="#ArialMT-79" x="1211.71875"/>
      </g>
     </g>
    </g>
    <g id="xtick_7">
     <g id="text_7">
      <!--  Cash Flow to Total Assets -->
      <g style="fill: #262626" transform="translate(805.315156 270.706719)scale(0.11 -0.11)">
       <use xlink:href="#ArialMT-20"/>
       <use xlink:href="#ArialMT-43" x="27.783203"/>
       <use xlink:href="#ArialMT-61" x="100"/>
       <use xlink:href="#ArialMT-73" x="155.615234"/>
       <use xlink:href="#ArialMT-68" x="205.615234"/>
       <use xlink:href="#ArialMT-20" x="261.230469"/>
       <use xlink:href="#ArialMT-46" x="289.013672"/>
       <use xlink:href="#ArialMT-6c" x="350.097656"/>
       <use xlink:href="#ArialMT-6f" x="372.314453"/>
       <use xlink:href="#ArialMT-77" x="427.929688"/>
       <use xlink:href="#ArialMT-20" x="500.146484"/>
       <use xlink:href="#ArialMT-74" x="527.929688"/>
       <use xlink:href="#ArialMT-6f" x="555.712891"/>
       <use xlink:href="#ArialMT-20" x="611.328125"/>
       <use xlink:href="#ArialMT-54" x="637.361328"/>
       <use xlink:href="#ArialMT-6f" x="687.320312"/>
       <use xlink:href="#ArialMT-74" x="742.935547"/>
       <use xlink:href="#ArialMT-61" x="770.71875"/>
       <use xlink:href="#ArialMT-6c" x="826.333984"/>
       <use xlink:href="#ArialMT-20" x="848.550781"/>
       <use xlink:href="#ArialMT-41" x="870.833984"/>
       <use xlink:href="#ArialMT-73" x="937.533203"/>
       <use xlink:href="#ArialMT-73" x="987.533203"/>
       <use xlink:href="#ArialMT-65" x="1037.533203"/>
       <use xlink:href="#ArialMT-74" x="1093.148438"/>
       <use xlink:href="#ArialMT-73" x="1120.931641"/>
      </g>
     </g>
    </g>
    <g id="xtick_8">
     <g id="text_8">
      <!--  Total assets to GNP price -->
      <g style="fill: #262626" transform="translate(933.38375 270.840781)scale(0.11 -0.11)">
       <defs>
        <path id="ArialMT-47" d="M 2638 1797 
L 2638 2334 
L 4578 2338 
L 4578 638 
Q 4131 281 3656 101 
Q 3181 -78 2681 -78 
Q 2006 -78 1454 211 
Q 903 500 622 1047 
Q 341 1594 341 2269 
Q 341 2938 620 3517 
Q 900 4097 1425 4378 
Q 1950 4659 2634 4659 
Q 3131 4659 3532 4498 
Q 3934 4338 4162 4050 
Q 4391 3763 4509 3300 
L 3963 3150 
Q 3859 3500 3706 3700 
Q 3553 3900 3268 4020 
Q 2984 4141 2638 4141 
Q 2222 4141 1919 4014 
Q 1616 3888 1430 3681 
Q 1244 3475 1141 3228 
Q 966 2803 966 2306 
Q 966 1694 1177 1281 
Q 1388 869 1791 669 
Q 2194 469 2647 469 
Q 3041 469 3416 620 
Q 3791 772 3984 944 
L 3984 1797 
L 2638 1797 
z
" transform="scale(0.015625)"/>
        <path id="ArialMT-4e" d="M 488 0 
L 488 4581 
L 1109 4581 
L 3516 984 
L 3516 4581 
L 4097 4581 
L 4097 0 
L 3475 0 
L 1069 3600 
L 1069 0 
L 488 0 
z
" transform="scale(0.015625)"/>
        <path id="ArialMT-50" d="M 494 0 
L 494 4581 
L 2222 4581 
Q 2678 4581 2919 4538 
Q 3256 4481 3484 4323 
Q 3713 4166 3852 3881 
Q 3991 3597 3991 3256 
Q 3991 2672 3619 2267 
Q 3247 1863 2275 1863 
L 1100 1863 
L 1100 0 
L 494 0 
z
M 1100 2403 
L 2284 2403 
Q 2872 2403 3119 2622 
Q 3366 2841 3366 3238 
Q 3366 3525 3220 3729 
Q 3075 3934 2838 4000 
Q 2684 4041 2272 4041 
L 1100 4041 
L 1100 2403 
z
" transform="scale(0.015625)"/>
       </defs>
       <use xlink:href="#ArialMT-20"/>
       <use xlink:href="#ArialMT-54" x="26.033203"/>
       <use xlink:href="#ArialMT-6f" x="75.992188"/>
       <use xlink:href="#ArialMT-74" x="131.607422"/>
       <use xlink:href="#ArialMT-61" x="159.390625"/>
       <use xlink:href="#ArialMT-6c" x="215.005859"/>
       <use xlink:href="#ArialMT-20" x="237.222656"/>
       <use xlink:href="#ArialMT-61" x="265.005859"/>
       <use xlink:href="#ArialMT-73" x="320.621094"/>
       <use xlink:href="#ArialMT-73" x="370.621094"/>
       <use xlink:href="#ArialMT-65" x="420.621094"/>
       <use xlink:href="#ArialMT-74" x="476.236328"/>
       <use xlink:href="#ArialMT-73" x="504.019531"/>
       <use xlink:href="#ArialMT-20" x="554.019531"/>
       <use xlink:href="#ArialMT-74" x="581.802734"/>
       <use xlink:href="#ArialMT-6f" x="609.585938"/>
       <use xlink:href="#ArialMT-20" x="665.201172"/>
       <use xlink:href="#ArialMT-47" x="692.984375"/>
       <use xlink:href="#ArialMT-4e" x="770.767578"/>
       <use xlink:href="#ArialMT-50" x="842.984375"/>
       <use xlink:href="#ArialMT-20" x="907.933594"/>
       <use xlink:href="#ArialMT-70" x="935.716797"/>
       <use xlink:href="#ArialMT-72" x="991.332031"/>
       <use xlink:href="#ArialMT-69" x="1024.632812"/>
       <use xlink:href="#ArialMT-63" x="1046.849609"/>
       <use xlink:href="#ArialMT-65" x="1096.849609"/>
      </g>
     </g>
    </g>
   </g>
   <g id="matplotlib.axis_2">
    <g id="ytick_1">
     <g id="line2d_1">
      <path d="M 43.87 234.077629 
L 1060.2925 234.077629 
" clip-path="url(#p9b5d2681dc)" style="fill: none; stroke: #cbcbcb"/>
     </g>
     <g id="text_9">
      <!-- −5.0 -->
      <g style="fill: #262626" transform="translate(15.155312 238.014426)scale(0.11 -0.11)">
       <defs>
        <path id="ArialMT-2212" d="M 3381 1997 
L 356 1997 
L 356 2522 
L 3381 2522 
L 3381 1997 
z
" transform="scale(0.015625)"/>
        <path id="ArialMT-35" d="M 266 1200 
L 856 1250 
Q 922 819 1161 601 
Q 1400 384 1738 384 
Q 2144 384 2425 690 
Q 2706 997 2706 1503 
Q 2706 1984 2436 2262 
Q 2166 2541 1728 2541 
Q 1456 2541 1237 2417 
Q 1019 2294 894 2097 
L 366 2166 
L 809 4519 
L 3088 4519 
L 3088 3981 
L 1259 3981 
L 1013 2750 
Q 1425 3038 1878 3038 
Q 2478 3038 2890 2622 
Q 3303 2206 3303 1553 
Q 3303 931 2941 478 
Q 2500 -78 1738 -78 
Q 1113 -78 717 272 
Q 322 622 266 1200 
z
" transform="scale(0.015625)"/>
        <path id="ArialMT-2e" d="M 581 0 
L 581 641 
L 1222 641 
L 1222 0 
L 581 0 
z
" transform="scale(0.015625)"/>
        <path id="ArialMT-30" d="M 266 2259 
Q 266 3072 433 3567 
Q 600 4063 929 4331 
Q 1259 4600 1759 4600 
Q 2128 4600 2406 4451 
Q 2684 4303 2865 4023 
Q 3047 3744 3150 3342 
Q 3253 2941 3253 2259 
Q 3253 1453 3087 958 
Q 2922 463 2592 192 
Q 2263 -78 1759 -78 
Q 1097 -78 719 397 
Q 266 969 266 2259 
z
M 844 2259 
Q 844 1131 1108 757 
Q 1372 384 1759 384 
Q 2147 384 2411 759 
Q 2675 1134 2675 2259 
Q 2675 3391 2411 3762 
Q 2147 4134 1753 4134 
Q 1366 4134 1134 3806 
Q 844 3388 844 2259 
z
" transform="scale(0.015625)"/>
       </defs>
       <use xlink:href="#ArialMT-2212"/>
       <use xlink:href="#ArialMT-35" x="58.398438"/>
       <use xlink:href="#ArialMT-2e" x="114.013672"/>
       <use xlink:href="#ArialMT-30" x="141.796875"/>
      </g>
     </g>
    </g>
    <g id="ytick_2">
     <g id="line2d_2">
      <path d="M 43.87 205.763835 
L 1060.2925 205.763835 
" clip-path="url(#p9b5d2681dc)" style="fill: none; stroke: #cbcbcb"/>
     </g>
     <g id="text_10">
      <!-- −2.5 -->
      <g style="fill: #262626" transform="translate(15.155312 209.700632)scale(0.11 -0.11)">
       <defs>
        <path id="ArialMT-32" d="M 3222 541 
L 3222 0 
L 194 0 
Q 188 203 259 391 
Q 375 700 629 1000 
Q 884 1300 1366 1694 
Q 2113 2306 2375 2664 
Q 2638 3022 2638 3341 
Q 2638 3675 2398 3904 
Q 2159 4134 1775 4134 
Q 1369 4134 1125 3890 
Q 881 3647 878 3216 
L 300 3275 
Q 359 3922 746 4261 
Q 1134 4600 1788 4600 
Q 2447 4600 2831 4234 
Q 3216 3869 3216 3328 
Q 3216 3053 3103 2787 
Q 2991 2522 2730 2228 
Q 2469 1934 1863 1422 
Q 1356 997 1212 845 
Q 1069 694 975 541 
L 3222 541 
z
" transform="scale(0.015625)"/>
       </defs>
       <use xlink:href="#ArialMT-2212"/>
       <use xlink:href="#ArialMT-32" x="58.398438"/>
       <use xlink:href="#ArialMT-2e" x="114.013672"/>
       <use xlink:href="#ArialMT-35" x="141.796875"/>
      </g>
     </g>
    </g>
    <g id="ytick_3">
     <g id="line2d_3">
      <path d="M 43.87 177.45004 
L 1060.2925 177.45004 
" clip-path="url(#p9b5d2681dc)" style="fill: none; stroke: #cbcbcb"/>
     </g>
     <g id="text_11">
      <!-- 0.0 -->
      <g style="fill: #262626" transform="translate(21.58 181.386837)scale(0.11 -0.11)">
       <use xlink:href="#ArialMT-30"/>
       <use xlink:href="#ArialMT-2e" x="55.615234"/>
       <use xlink:href="#ArialMT-30" x="83.398438"/>
      </g>
     </g>
    </g>
    <g id="ytick_4">
     <g id="line2d_4">
      <path d="M 43.87 149.136246 
L 1060.2925 149.136246 
" clip-path="url(#p9b5d2681dc)" style="fill: none; stroke: #cbcbcb"/>
     </g>
     <g id="text_12">
      <!-- 2.5 -->
      <g style="fill: #262626" transform="translate(21.58 153.073042)scale(0.11 -0.11)">
       <use xlink:href="#ArialMT-32"/>
       <use xlink:href="#ArialMT-2e" x="55.615234"/>
       <use xlink:href="#ArialMT-35" x="83.398438"/>
      </g>
     </g>
    </g>
    <g id="ytick_5">
     <g id="line2d_5">
      <path d="M 43.87 120.822451 
L 1060.2925 120.822451 
" clip-path="url(#p9b5d2681dc)" style="fill: none; stroke: #cbcbcb"/>
     </g>
     <g id="text_13">
      <!-- 5.0 -->
      <g style="fill: #262626" transform="translate(21.58 124.759248)scale(0.11 -0.11)">
       <use xlink:href="#ArialMT-35"/>
       <use xlink:href="#ArialMT-2e" x="55.615234"/>
       <use xlink:href="#ArialMT-30" x="83.398438"/>
      </g>
     </g>
    </g>
    <g id="ytick_6">
     <g id="line2d_6">
      <path d="M 43.87 92.508657 
L 1060.2925 92.508657 
" clip-path="url(#p9b5d2681dc)" style="fill: none; stroke: #cbcbcb"/>
     </g>
     <g id="text_14">
      <!-- 7.5 -->
      <g style="fill: #262626" transform="translate(21.58 96.445453)scale(0.11 -0.11)">
       <defs>
        <path id="ArialMT-37" d="M 303 3981 
L 303 4522 
L 3269 4522 
L 3269 4084 
Q 2831 3619 2401 2847 
Q 1972 2075 1738 1259 
Q 1569 684 1522 0 
L 944 0 
Q 953 541 1156 1306 
Q 1359 2072 1739 2783 
Q 2119 3494 2547 3981 
L 303 3981 
z
" transform="scale(0.015625)"/>
       </defs>
       <use xlink:href="#ArialMT-37"/>
       <use xlink:href="#ArialMT-2e" x="55.615234"/>
       <use xlink:href="#ArialMT-35" x="83.398438"/>
      </g>
     </g>
    </g>
    <g id="ytick_7">
     <g id="line2d_7">
      <path d="M 43.87 64.194862 
L 1060.2925 64.194862 
" clip-path="url(#p9b5d2681dc)" style="fill: none; stroke: #cbcbcb"/>
     </g>
     <g id="text_15">
      <!-- 10.0 -->
      <g style="fill: #262626" transform="translate(15.462969 68.131659)scale(0.11 -0.11)">
       <defs>
        <path id="ArialMT-31" d="M 2384 0 
L 1822 0 
L 1822 3584 
Q 1619 3391 1289 3197 
Q 959 3003 697 2906 
L 697 3450 
Q 1169 3672 1522 3987 
Q 1875 4303 2022 4600 
L 2384 4600 
L 2384 0 
z
" transform="scale(0.015625)"/>
       </defs>
       <use xlink:href="#ArialMT-31"/>
       <use xlink:href="#ArialMT-30" x="55.615234"/>
       <use xlink:href="#ArialMT-2e" x="111.230469"/>
       <use xlink:href="#ArialMT-30" x="139.013672"/>
      </g>
     </g>
    </g>
   </g>
   <g id="PolyCollection_1">
    <defs>
     <path id="m1b7045530d" d="M 114.161953 -99.319316 
L 100.630859 -99.319316 
L 97.243838 -99.737632 
L 92.840634 -100.155947 
L 87.45759 -100.574262 
L 81.2993 -100.992578 
L 74.756726 -101.410893 
L 68.384082 -101.829208 
L 62.829149 -102.247524 
L 58.726225 -102.665839 
L 56.575281 -103.084154 
L 56.63914 -103.502469 
L 58.888127 -103.920785 
L 63.008552 -104.3391 
L 68.472099 -104.757415 
L 74.645105 -105.175731 
L 80.906659 -105.594046 
L 86.745564 -106.012361 
L 91.816776 -106.430676 
L 95.952791 -106.848992 
L 99.138554 -107.267307 
L 101.465781 -107.685622 
L 103.083138 -108.103938 
L 104.154354 -108.522253 
L 104.830026 -108.940568 
L 105.23337 -109.358884 
L 105.456748 -109.777199 
L 105.564748 -110.195514 
L 105.600106 -110.613829 
L 105.589964 -111.032145 
L 105.551167 -111.45046 
L 105.494194 -111.868775 
L 105.425798 -112.287091 
L 105.350627 -112.705406 
L 105.272116 -113.123721 
L 105.192905 -113.542036 
L 105.114982 -113.960352 
L 105.039688 -114.378667 
L 104.967671 -114.796982 
L 104.898873 -115.215298 
L 104.832548 -115.633613 
L 104.767346 -116.051928 
L 104.701446 -116.470244 
L 104.632714 -116.888559 
L 104.558892 -117.306874 
L 104.477768 -117.725189 
L 104.387338 -118.143505 
L 104.285952 -118.56182 
L 104.172452 -118.980135 
L 104.046295 -119.398451 
L 103.907674 -119.816766 
L 103.757592 -120.235081 
L 103.597876 -120.653396 
L 103.431099 -121.071712 
L 103.260405 -121.490027 
L 103.089273 -121.908342 
L 102.921252 -122.326658 
L 102.759731 -122.744973 
L 102.607763 -123.163288 
L 102.46796 -123.581604 
L 102.342436 -123.999919 
L 102.232746 -124.418234 
L 102.139813 -124.836549 
L 102.063799 -125.254865 
L 102.003973 -125.67318 
L 101.958613 -126.091495 
L 101.925019 -126.509811 
L 101.899674 -126.928126 
L 101.878587 -127.346441 
L 101.857755 -127.764757 
L 101.833671 -128.183072 
L 101.803751 -128.601387 
L 101.766604 -129.019702 
L 101.72207 -129.438018 
L 101.671081 -129.856333 
L 101.615398 -130.274648 
L 101.557365 -130.692964 
L 101.499801 -131.111279 
L 101.446095 -131.529594 
L 101.400537 -131.947909 
L 101.368795 -132.366225 
L 101.358365 -132.78454 
L 101.378792 -133.202855 
L 101.441406 -133.621171 
L 101.558423 -134.039486 
L 101.741357 -134.457801 
L 101.99894 -134.876117 
L 102.33491 -135.294432 
L 102.746189 -135.712747 
L 103.222007 -136.131062 
L 103.744332 -136.549378 
L 104.289688 -136.967693 
L 104.832091 -137.386008 
L 105.346479 -137.804324 
L 105.811924 -138.222639 
L 106.213936 -138.640954 
L 106.545467 -139.059269 
L 106.806567 -139.477585 
L 107.002965 -139.8959 
L 107.144072 -140.314215 
L 107.240914 -140.732531 
L 107.551899 -140.732531 
L 107.551899 -140.732531 
L 107.648741 -140.314215 
L 107.789848 -139.8959 
L 107.986245 -139.477585 
L 108.247345 -139.059269 
L 108.578876 -138.640954 
L 108.980888 -138.222639 
L 109.446333 -137.804324 
L 109.960721 -137.386008 
L 110.503124 -136.967693 
L 111.048481 -136.549378 
L 111.570805 -136.131062 
L 112.046624 -135.712747 
L 112.457903 -135.294432 
L 112.793872 -134.876117 
L 113.051456 -134.457801 
L 113.23439 -134.039486 
L 113.351406 -133.621171 
L 113.414021 -133.202855 
L 113.434447 -132.78454 
L 113.424017 -132.366225 
L 113.392275 -131.947909 
L 113.346718 -131.529594 
L 113.293012 -131.111279 
L 113.235447 -130.692964 
L 113.177415 -130.274648 
L 113.121732 -129.856333 
L 113.070743 -129.438018 
L 113.026209 -129.019702 
L 112.989061 -128.601387 
L 112.959142 -128.183072 
L 112.935058 -127.764757 
L 112.914226 -127.346441 
L 112.893138 -126.928126 
L 112.867793 -126.509811 
L 112.834199 -126.091495 
L 112.78884 -125.67318 
L 112.729014 -125.254865 
L 112.652999 -124.836549 
L 112.560066 -124.418234 
L 112.450377 -123.999919 
L 112.324852 -123.581604 
L 112.18505 -123.163288 
L 112.033082 -122.744973 
L 111.871561 -122.326658 
L 111.70354 -121.908342 
L 111.532407 -121.490027 
L 111.361713 -121.071712 
L 111.194936 -120.653396 
L 111.035221 -120.235081 
L 110.885139 -119.816766 
L 110.746517 -119.398451 
L 110.62036 -118.980135 
L 110.50686 -118.56182 
L 110.405475 -118.143505 
L 110.315045 -117.725189 
L 110.23392 -117.306874 
L 110.160099 -116.888559 
L 110.091367 -116.470244 
L 110.025466 -116.051928 
L 109.960265 -115.633613 
L 109.89394 -115.215298 
L 109.825142 -114.796982 
L 109.753125 -114.378667 
L 109.67783 -113.960352 
L 109.599908 -113.542036 
L 109.520696 -113.123721 
L 109.442185 -112.705406 
L 109.367015 -112.287091 
L 109.298619 -111.868775 
L 109.241646 -111.45046 
L 109.202849 -111.032145 
L 109.192707 -110.613829 
L 109.228065 -110.195514 
L 109.336064 -109.777199 
L 109.559442 -109.358884 
L 109.962787 -108.940568 
L 110.638459 -108.522253 
L 111.709674 -108.103938 
L 113.327032 -107.685622 
L 115.654258 -107.267307 
L 118.840021 -106.848992 
L 122.976036 -106.430676 
L 128.047249 -106.012361 
L 133.886154 -105.594046 
L 140.147708 -105.175731 
L 146.320713 -104.757415 
L 151.784261 -104.3391 
L 155.904686 -103.920785 
L 158.153672 -103.502469 
L 158.217531 -103.084154 
L 156.066588 -102.665839 
L 151.963664 -102.247524 
L 146.408731 -101.829208 
L 140.036086 -101.410893 
L 133.493513 -100.992578 
L 127.335222 -100.574262 
L 121.952179 -100.155947 
L 117.548975 -99.737632 
L 114.161953 -99.319316 
z
" style="stroke: #3e3e3e; stroke-width: 3"/>
    </defs>
    <g clip-path="url(#p9b5d2681dc)">
     <use xlink:href="#m1b7045530d" x="0" y="288" style="fill: #cb3335; stroke: #3e3e3e; stroke-width: 3"/>
    </g>
   </g>
   <g id="PolyCollection_2">
    <defs>
     <path id="m994f8b60c0" d="M 234.47348 -78.551444 
L 234.424958 -78.551444 
L 234.359974 -79.784256 
L 234.211622 -81.017069 
L 233.97672 -82.249881 
L 233.714042 -83.482693 
L 233.489205 -84.715506 
L 233.288331 -85.948318 
L 233.023776 -87.18113 
L 232.628233 -88.413943 
L 232.107981 -89.646755 
L 231.512302 -90.879567 
L 230.871131 -92.112379 
L 230.151327 -93.345192 
L 229.260045 -94.578004 
L 228.007881 -95.810816 
L 225.989606 -97.043629 
L 222.503914 -98.276441 
L 216.779415 -99.509253 
L 208.750221 -100.742066 
L 199.652765 -101.974878 
L 191.475196 -103.20769 
L 185.898953 -104.440503 
L 183.628094 -105.673315 
L 184.227314 -106.906127 
L 186.673275 -108.13894 
L 190.130196 -109.371752 
L 194.136189 -110.604564 
L 198.449402 -111.837377 
L 202.944481 -113.070189 
L 207.478966 -114.303001 
L 211.842598 -115.535814 
L 215.797016 -116.768626 
L 219.083417 -118.001438 
L 221.537472 -119.23425 
L 223.241395 -120.467063 
L 224.470308 -121.699875 
L 225.507694 -122.932687 
L 226.529268 -124.1655 
L 227.563272 -125.398312 
L 228.526203 -126.631124 
L 229.364872 -127.863937 
L 230.112406 -129.096749 
L 230.774486 -130.329561 
L 231.294594 -131.562374 
L 231.657521 -132.795186 
L 231.910009 -134.027998 
L 232.094048 -135.260811 
L 232.242056 -136.493623 
L 232.393629 -137.726435 
L 232.572764 -138.959248 
L 232.766856 -140.19206 
L 232.938069 -141.424872 
L 233.067244 -142.657684 
L 233.171221 -143.890497 
L 233.273235 -145.123309 
L 233.398727 -146.356121 
L 233.568904 -147.588934 
L 233.747398 -148.821746 
L 233.849187 -150.054558 
L 233.84255 -151.287371 
L 233.792932 -152.520183 
L 233.784935 -153.752995 
L 233.835244 -154.985808 
L 233.906523 -156.21862 
L 233.979018 -157.451432 
L 234.061747 -158.684245 
L 234.146756 -159.917057 
L 234.20067 -161.149869 
L 234.206647 -162.382682 
L 234.188893 -163.615494 
L 234.178148 -164.848306 
L 234.171417 -166.081119 
L 234.155751 -167.313931 
L 234.144308 -168.546743 
L 234.156747 -169.779555 
L 234.191178 -171.012368 
L 234.234651 -172.24518 
L 234.279614 -173.477992 
L 234.317954 -174.710805 
L 234.339511 -175.943617 
L 234.345481 -177.176429 
L 234.347093 -178.409242 
L 234.353116 -179.642054 
L 234.366112 -180.874866 
L 234.38196 -182.107679 
L 234.391169 -183.340491 
L 234.383125 -184.573303 
L 234.354435 -185.806116 
L 234.320316 -187.038928 
L 234.304452 -188.27174 
L 234.313641 -189.504553 
L 234.336334 -190.737365 
L 234.358241 -191.970177 
L 234.370543 -193.20299 
L 234.372964 -194.435802 
L 234.374718 -195.668614 
L 234.387045 -196.901426 
L 234.409784 -198.134239 
L 234.431332 -199.367051 
L 234.443581 -200.599863 
L 234.454856 -200.599863 
L 234.454856 -200.599863 
L 234.467106 -199.367051 
L 234.488654 -198.134239 
L 234.511393 -196.901426 
L 234.52372 -195.668614 
L 234.525474 -194.435802 
L 234.527895 -193.20299 
L 234.540196 -191.970177 
L 234.562103 -190.737365 
L 234.584796 -189.504553 
L 234.593986 -188.27174 
L 234.578122 -187.038928 
L 234.544003 -185.806116 
L 234.515313 -184.573303 
L 234.507268 -183.340491 
L 234.516478 -182.107679 
L 234.532325 -180.874866 
L 234.545321 -179.642054 
L 234.551344 -178.409242 
L 234.552956 -177.176429 
L 234.558927 -175.943617 
L 234.580483 -174.710805 
L 234.618824 -173.477992 
L 234.663787 -172.24518 
L 234.70726 -171.012368 
L 234.741691 -169.779555 
L 234.754129 -168.546743 
L 234.742687 -167.313931 
L 234.72702 -166.081119 
L 234.72029 -164.848306 
L 234.709544 -163.615494 
L 234.69179 -162.382682 
L 234.697768 -161.149869 
L 234.751682 -159.917057 
L 234.83669 -158.684245 
L 234.91942 -157.451432 
L 234.991914 -156.21862 
L 235.063194 -154.985808 
L 235.113503 -153.752995 
L 235.105505 -152.520183 
L 235.055888 -151.287371 
L 235.049251 -150.054558 
L 235.15104 -148.821746 
L 235.329534 -147.588934 
L 235.499711 -146.356121 
L 235.625203 -145.123309 
L 235.727216 -143.890497 
L 235.831193 -142.657684 
L 235.960369 -141.424872 
L 236.131581 -140.19206 
L 236.325674 -138.959248 
L 236.504808 -137.726435 
L 236.656381 -136.493623 
L 236.804389 -135.260811 
L 236.988429 -134.027998 
L 237.240916 -132.795186 
L 237.603844 -131.562374 
L 238.123952 -130.329561 
L 238.786032 -129.096749 
L 239.533566 -127.863937 
L 240.372234 -126.631124 
L 241.335166 -125.398312 
L 242.36917 -124.1655 
L 243.390744 -122.932687 
L 244.428129 -121.699875 
L 245.657043 -120.467063 
L 247.360965 -119.23425 
L 249.81502 -118.001438 
L 253.101421 -116.768626 
L 257.05584 -115.535814 
L 261.419471 -114.303001 
L 265.953956 -113.070189 
L 270.449036 -111.837377 
L 274.762249 -110.604564 
L 278.768242 -109.371752 
L 282.225163 -108.13894 
L 284.671124 -106.906127 
L 285.270344 -105.673315 
L 282.999484 -104.440503 
L 277.423241 -103.20769 
L 269.245673 -101.974878 
L 260.148216 -100.742066 
L 252.119023 -99.509253 
L 246.394523 -98.276441 
L 242.908831 -97.043629 
L 240.890556 -95.810816 
L 239.638392 -94.578004 
L 238.74711 -93.345192 
L 238.027307 -92.112379 
L 237.386135 -90.879567 
L 236.790457 -89.646755 
L 236.270204 -88.413943 
L 235.874662 -87.18113 
L 235.610107 -85.948318 
L 235.409233 -84.715506 
L 235.184395 -83.482693 
L 234.921718 -82.249881 
L 234.686815 -81.017069 
L 234.538464 -79.784256 
L 234.47348 -78.551444 
z
" style="stroke: #3e3e3e; stroke-width: 3"/>
    </defs>
    <g clip-path="url(#p9b5d2681dc)">
     <use xlink:href="#m994f8b60c0" x="0" y="288" style="fill: #477ca8; stroke: #3e3e3e; stroke-width: 3"/>
    </g>
   </g>
   <g id="PolyCollection_3">
    <defs>
     <path id="m0d855209b1" d="M 367.561121 -96.884178 
L 355.442942 -96.884178 
L 351.962574 -97.34951 
L 347.294646 -97.814843 
L 341.480265 -98.280176 
L 334.793357 -98.745509 
L 327.759016 -99.210841 
L 321.100745 -99.676174 
L 315.614483 -100.141507 
L 311.997122 -100.60684 
L 310.680906 -101.072172 
L 311.729549 -101.537505 
L 314.832162 -102.002838 
L 319.395191 -102.468171 
L 324.697017 -102.933503 
L 330.051194 -103.398836 
L 334.929157 -103.864169 
L 339.01637 -104.329502 
L 342.203887 -104.794835 
L 344.53744 -105.260167 
L 346.152254 -105.7255 
L 347.215817 -106.190833 
L 347.889316 -106.656166 
L 348.308096 -107.121498 
L 348.575761 -107.586831 
L 348.765625 -108.052164 
L 348.925012 -108.517497 
L 349.080312 -108.982829 
L 349.242263 -109.448162 
L 349.411381 -109.913495 
L 349.583255 -110.378828 
L 349.753053 -110.84416 
L 349.918486 -111.309493 
L 350.08081 -111.774826 
L 350.243966 -112.240159 
L 350.412548 -112.705491 
L 350.589568 -113.170824 
L 350.77499 -113.636157 
L 350.965581 -114.10149 
L 351.156024 -114.566822 
L 351.340754 -115.032155 
L 351.51568 -115.497488 
L 351.679133 -115.962821 
L 351.831786 -116.428153 
L 351.975768 -116.893486 
L 352.113491 -117.358819 
L 352.246689 -117.824152 
L 352.375985 -118.289484 
L 352.500999 -118.754817 
L 352.620817 -119.22015 
L 352.734593 -119.685483 
L 352.84204 -120.150816 
L 352.943642 -120.616148 
L 353.04051 -121.081481 
L 353.133957 -121.546814 
L 353.22501 -122.012147 
L 353.314198 -122.477479 
L 353.401816 -122.942812 
L 353.488622 -123.408145 
L 353.576629 -123.873478 
L 353.669473 -124.33881 
L 353.771978 -124.804143 
L 353.888929 -125.269476 
L 354.023444 -125.734809 
L 354.175587 -126.200141 
L 354.341768 -126.665474 
L 354.51515 -127.130807 
L 354.686892 -127.59614 
L 354.847804 -128.061472 
L 354.989958 -128.526805 
L 355.107954 -128.992138 
L 355.199678 -129.457471 
L 355.266549 -129.922803 
L 355.313231 -130.388136 
L 355.346832 -130.853469 
L 355.375657 -131.318802 
L 355.407741 -131.784134 
L 355.449467 -132.249467 
L 355.504658 -132.7148 
L 355.574411 -133.180133 
L 355.657734 -133.645465 
L 355.752891 -134.110798 
L 355.859125 -134.576131 
L 355.978359 -135.041464 
L 356.116377 -135.506797 
L 356.283004 -135.972129 
L 356.490932 -136.437462 
L 356.753144 -136.902795 
L 357.079379 -137.368128 
L 357.472509 -137.83346 
L 357.925987 -138.298793 
L 358.423338 -138.764126 
L 358.940119 -139.229459 
L 359.447951 -139.694791 
L 359.919533 -140.160124 
L 360.333239 -140.625457 
L 360.676086 -141.09079 
L 360.944499 -141.556122 
L 361.143035 -142.021455 
L 361.281789 -142.486788 
L 361.373423 -142.952121 
L 361.63064 -142.952121 
L 361.63064 -142.952121 
L 361.722274 -142.486788 
L 361.861027 -142.021455 
L 362.059563 -141.556122 
L 362.327976 -141.09079 
L 362.670823 -140.625457 
L 363.08453 -140.160124 
L 363.556112 -139.694791 
L 364.063943 -139.229459 
L 364.580724 -138.764126 
L 365.078075 -138.298793 
L 365.531553 -137.83346 
L 365.924683 -137.368128 
L 366.250918 -136.902795 
L 366.513131 -136.437462 
L 366.721058 -135.972129 
L 366.887685 -135.506797 
L 367.025703 -135.041464 
L 367.144937 -134.576131 
L 367.251172 -134.110798 
L 367.346329 -133.645465 
L 367.429652 -133.180133 
L 367.499404 -132.7148 
L 367.554596 -132.249467 
L 367.596321 -131.784134 
L 367.628405 -131.318802 
L 367.657231 -130.853469 
L 367.690831 -130.388136 
L 367.737514 -129.922803 
L 367.804385 -129.457471 
L 367.896109 -128.992138 
L 368.014104 -128.526805 
L 368.156259 -128.061472 
L 368.31717 -127.59614 
L 368.488912 -127.130807 
L 368.662295 -126.665474 
L 368.828476 -126.200141 
L 368.980619 -125.734809 
L 369.115133 -125.269476 
L 369.232084 -124.804143 
L 369.334589 -124.33881 
L 369.427433 -123.873478 
L 369.515441 -123.408145 
L 369.602247 -122.942812 
L 369.689864 -122.477479 
L 369.779053 -122.012147 
L 369.870106 -121.546814 
L 369.963552 -121.081481 
L 370.060421 -120.616148 
L 370.162022 -120.150816 
L 370.269469 -119.685483 
L 370.383246 -119.22015 
L 370.503064 -118.754817 
L 370.628078 -118.289484 
L 370.757374 -117.824152 
L 370.890571 -117.358819 
L 371.028294 -116.893486 
L 371.172277 -116.428153 
L 371.324929 -115.962821 
L 371.488382 -115.497488 
L 371.663308 -115.032155 
L 371.848038 -114.566822 
L 372.038482 -114.10149 
L 372.229072 -113.636157 
L 372.414495 -113.170824 
L 372.591514 -112.705491 
L 372.760096 -112.240159 
L 372.923253 -111.774826 
L 373.085576 -111.309493 
L 373.25101 -110.84416 
L 373.420808 -110.378828 
L 373.592682 -109.913495 
L 373.761799 -109.448162 
L 373.92375 -108.982829 
L 374.079051 -108.517497 
L 374.238437 -108.052164 
L 374.428302 -107.586831 
L 374.695967 -107.121498 
L 375.114747 -106.656166 
L 375.788246 -106.190833 
L 376.851808 -105.7255 
L 378.466623 -105.260167 
L 380.800176 -104.794835 
L 383.987693 -104.329502 
L 388.074905 -103.864169 
L 392.952868 -103.398836 
L 398.307045 -102.933503 
L 403.608872 -102.468171 
L 408.1719 -102.002838 
L 411.274514 -101.537505 
L 412.323156 -101.072172 
L 411.006941 -100.60684 
L 407.389579 -100.141507 
L 401.903318 -99.676174 
L 395.245046 -99.210841 
L 388.210706 -98.745509 
L 381.523798 -98.280176 
L 375.709417 -97.814843 
L 371.041489 -97.34951 
L 367.561121 -96.884178 
z
" style="stroke: #3e3e3e; stroke-width: 3"/>
    </defs>
    <g clip-path="url(#p9b5d2681dc)">
     <use xlink:href="#m0d855209b1" x="0" y="288" style="fill: #59a257; stroke: #3e3e3e; stroke-width: 3"/>
    </g>
   </g>
   <g id="PolyCollection_4">
    <defs>
     <path id="m97b5d87ef9" d="M 488.562661 -41.784744 
L 488.547027 -41.784744 
L 488.527481 -43.171182 
L 488.495074 -44.55762 
L 488.469343 -45.944058 
L 488.462076 -47.330496 
L 488.456135 -48.716934 
L 488.443772 -50.103372 
L 488.437233 -51.48981 
L 488.43483 -52.876248 
L 488.429523 -54.262686 
L 488.425922 -55.649124 
L 488.417894 -57.035562 
L 488.38649 -58.422 
L 488.336132 -59.808438 
L 488.297204 -61.194875 
L 488.288033 -62.581313 
L 488.286229 -63.967751 
L 488.257587 -65.354189 
L 488.20432 -66.740627 
L 488.159484 -68.127065 
L 488.150357 -69.513503 
L 488.173575 -70.899941 
L 488.196158 -72.286379 
L 488.172061 -73.672817 
L 488.081661 -75.059255 
L 487.981732 -76.445693 
L 487.951885 -77.832131 
L 487.972908 -79.218569 
L 487.965966 -80.605007 
L 487.910391 -81.991445 
L 487.815937 -83.377882 
L 487.657328 -84.76432 
L 487.424378 -86.150758 
L 487.16141 -87.537196 
L 486.907195 -88.923634 
L 486.636236 -90.310072 
L 486.303246 -91.69651 
L 485.935692 -93.082948 
L 485.550083 -94.469386 
L 485.013595 -95.855824 
L 484.161058 -97.242262 
L 482.885575 -98.6287 
L 481.101426 -100.015138 
L 478.718128 -101.401576 
L 475.422488 -102.788014 
L 470.390374 -104.174452 
L 462.318249 -105.560889 
L 451.101413 -106.947327 
L 440.756299 -108.333765 
L 437.733719 -109.720203 
L 443.77226 -111.106641 
L 454.033927 -112.493079 
L 463.328687 -113.879517 
L 470.056501 -115.265955 
L 474.668618 -116.652393 
L 477.732429 -118.038831 
L 479.674928 -119.425269 
L 480.979662 -120.811707 
L 482.051319 -122.198145 
L 483.049911 -123.584583 
L 483.939858 -124.971021 
L 484.682928 -126.357459 
L 485.289307 -127.743896 
L 485.744506 -129.130334 
L 486.070593 -130.516772 
L 486.34856 -131.90321 
L 486.620666 -133.289648 
L 486.876842 -134.676086 
L 487.115047 -136.062524 
L 487.320972 -137.448962 
L 487.469968 -138.8354 
L 487.596971 -140.221838 
L 487.740339 -141.608276 
L 487.866425 -142.994714 
L 487.95031 -144.381152 
L 488.014865 -145.76759 
L 488.075518 -147.154028 
L 488.141095 -148.540466 
L 488.208773 -149.926903 
L 488.259529 -151.313341 
L 488.293386 -152.699779 
L 488.313364 -154.086217 
L 488.311523 -155.472655 
L 488.298874 -156.859093 
L 488.296831 -158.245531 
L 488.306533 -159.631969 
L 488.32091 -161.018407 
L 488.337562 -162.404845 
L 488.338723 -163.791283 
L 488.302455 -165.177721 
L 488.244423 -166.564159 
L 488.220928 -167.950597 
L 488.266299 -169.337035 
L 488.346387 -170.723473 
L 488.413033 -172.10991 
L 488.456649 -173.496348 
L 488.489521 -174.882786 
L 488.518799 -176.269224 
L 488.540437 -177.655662 
L 488.551007 -179.0421 
L 488.55868 -179.0421 
L 488.55868 -179.0421 
L 488.56925 -177.655662 
L 488.590889 -176.269224 
L 488.620167 -174.882786 
L 488.653038 -173.496348 
L 488.696655 -172.10991 
L 488.7633 -170.723473 
L 488.843389 -169.337035 
L 488.88876 -167.950597 
L 488.865265 -166.564159 
L 488.807233 -165.177721 
L 488.770964 -163.791283 
L 488.772125 -162.404845 
L 488.788777 -161.018407 
L 488.803154 -159.631969 
L 488.812856 -158.245531 
L 488.810814 -156.859093 
L 488.798164 -155.472655 
L 488.796324 -154.086217 
L 488.816302 -152.699779 
L 488.850159 -151.313341 
L 488.900914 -149.926903 
L 488.968593 -148.540466 
L 489.03417 -147.154028 
L 489.094823 -145.76759 
L 489.159378 -144.381152 
L 489.243263 -142.994714 
L 489.369349 -141.608276 
L 489.512717 -140.221838 
L 489.63972 -138.8354 
L 489.788715 -137.448962 
L 489.99464 -136.062524 
L 490.232845 -134.676086 
L 490.489022 -133.289648 
L 490.761128 -131.90321 
L 491.039095 -130.516772 
L 491.365182 -129.130334 
L 491.820381 -127.743896 
L 492.426759 -126.357459 
L 493.16983 -124.971021 
L 494.059777 -123.584583 
L 495.058368 -122.198145 
L 496.130026 -120.811707 
L 497.434759 -119.425269 
L 499.377258 -118.038831 
L 502.441069 -116.652393 
L 507.053187 -115.265955 
L 513.781 -113.879517 
L 523.075761 -112.493079 
L 533.337427 -111.106641 
L 539.375969 -109.720203 
L 536.353388 -108.333765 
L 526.008275 -106.947327 
L 514.791439 -105.560889 
L 506.719313 -104.174452 
L 501.6872 -102.788014 
L 498.39156 -101.401576 
L 496.008262 -100.015138 
L 494.224113 -98.6287 
L 492.948629 -97.242262 
L 492.096093 -95.855824 
L 491.559604 -94.469386 
L 491.173996 -93.082948 
L 490.806441 -91.69651 
L 490.473452 -90.310072 
L 490.202492 -88.923634 
L 489.948278 -87.537196 
L 489.68531 -86.150758 
L 489.45236 -84.76432 
L 489.293751 -83.377882 
L 489.199296 -81.991445 
L 489.143722 -80.605007 
L 489.13678 -79.218569 
L 489.157803 -77.832131 
L 489.127955 -76.445693 
L 489.028027 -75.059255 
L 488.937627 -73.672817 
L 488.91353 -72.286379 
L 488.936112 -70.899941 
L 488.959331 -69.513503 
L 488.950204 -68.127065 
L 488.905367 -66.740627 
L 488.852101 -65.354189 
L 488.823459 -63.967751 
L 488.821655 -62.581313 
L 488.812484 -61.194875 
L 488.773555 -59.808438 
L 488.723197 -58.422 
L 488.691793 -57.035562 
L 488.683766 -55.649124 
L 488.680165 -54.262686 
L 488.674858 -52.876248 
L 488.672454 -51.48981 
L 488.665915 -50.103372 
L 488.653553 -48.716934 
L 488.647611 -47.330496 
L 488.640345 -45.944058 
L 488.614614 -44.55762 
L 488.582206 -43.171182 
L 488.562661 -41.784744 
z
" style="stroke: #3e3e3e; stroke-width: 3"/>
    </defs>
    <g clip-path="url(#p9b5d2681dc)">
     <use xlink:href="#m97b5d87ef9" x="0" y="288" style="fill: #905998; stroke: #3e3e3e; stroke-width: 3"/>
    </g>
   </g>
   <g id="PolyCollection_5">
    <defs>
     <path id="m6821ef68df" d="M 616.878947 -92.047473 
L 614.336366 -92.047473 
L 613.204213 -92.600404 
L 611.368555 -93.153335 
L 608.620181 -93.706266 
L 604.821192 -94.259197 
L 599.974988 -94.812128 
L 594.273628 -95.365059 
L 588.095421 -95.917991 
L 581.942424 -96.470922 
L 576.333631 -97.023853 
L 571.690616 -97.576784 
L 568.255798 -98.129715 
L 566.067584 -98.682646 
L 564.991539 -99.235577 
L 564.786531 -99.788508 
L 565.178294 -100.341439 
L 565.918877 -100.89437 
L 566.82194 -101.447301 
L 567.773819 -102.000232 
L 568.725867 -102.553163 
L 569.675518 -103.106094 
L 570.643424 -103.659025 
L 571.652877 -104.211957 
L 572.715662 -104.764888 
L 573.825966 -105.317819 
L 574.961731 -105.87075 
L 576.091483 -106.423681 
L 577.184221 -106.976612 
L 578.219754 -107.529543 
L 579.196581 -108.082474 
L 580.134427 -108.635405 
L 581.069518 -109.188336 
L 582.043032 -109.741267 
L 583.08605 -110.294198 
L 584.206303 -110.847129 
L 585.381866 -111.40006 
L 586.564507 -111.952991 
L 587.691893 -112.505923 
L 588.704621 -113.058854 
L 589.562566 -113.611785 
L 590.255526 -114.164716 
L 590.805334 -114.717647 
L 591.259394 -115.270578 
L 591.678019 -115.823509 
L 592.119397 -116.37644 
L 592.626398 -116.929371 
L 593.218718 -117.482302 
L 593.892115 -118.035233 
L 594.624119 -118.588164 
L 595.38331 -119.141095 
L 596.138297 -119.694026 
L 596.86343 -120.246957 
L 597.540517 -120.799889 
L 598.157951 -121.35282 
L 598.709405 -121.905751 
L 599.193436 -122.458682 
L 599.613844 -123.011613 
L 599.979752 -123.564544 
L 600.304511 -124.117475 
L 600.603393 -124.670406 
L 600.890773 -125.223337 
L 601.17775 -125.776268 
L 601.470934 -126.329199 
L 601.772627 -126.88213 
L 602.082087 -127.435061 
L 602.397109 -127.987992 
L 602.715126 -128.540924 
L 603.033538 -129.093855 
L 603.34972 -129.646786 
L 603.661639 -130.199717 
L 603.969568 -130.752648 
L 604.278279 -131.305579 
L 604.598133 -131.85851 
L 604.943607 -132.411441 
L 605.329222 -132.964372 
L 605.764582 -133.517303 
L 606.251 -134.070234 
L 606.781345 -134.623165 
L 607.342811 -135.176096 
L 607.920738 -135.729027 
L 608.501434 -136.281958 
L 609.07306 -136.83489 
L 609.62523 -137.387821 
L 610.148794 -137.940752 
L 610.636985 -138.493683 
L 611.087872 -139.046614 
L 611.506691 -139.599545 
L 611.906005 -140.152476 
L 612.302414 -140.705407 
L 612.71042 -141.258338 
L 613.135935 -141.811269 
L 613.572578 -142.3642 
L 614.002723 -142.917131 
L 614.402922 -143.470062 
L 614.751241 -144.022993 
L 615.033413 -144.575924 
L 615.245618 -145.128856 
L 615.393582 -145.681787 
L 615.489177 -146.234718 
L 615.546386 -146.787649 
L 615.668927 -146.787649 
L 615.668927 -146.787649 
L 615.726135 -146.234718 
L 615.821731 -145.681787 
L 615.969694 -145.128856 
L 616.1819 -144.575924 
L 616.464071 -144.022993 
L 616.812391 -143.470062 
L 617.212589 -142.917131 
L 617.642735 -142.3642 
L 618.079378 -141.811269 
L 618.504893 -141.258338 
L 618.912899 -140.705407 
L 619.309308 -140.152476 
L 619.708621 -139.599545 
L 620.127441 -139.046614 
L 620.578328 -138.493683 
L 621.066518 -137.940752 
L 621.590082 -137.387821 
L 622.142252 -136.83489 
L 622.713878 -136.281958 
L 623.294574 -135.729027 
L 623.872502 -135.176096 
L 624.433967 -134.623165 
L 624.964312 -134.070234 
L 625.45073 -133.517303 
L 625.88609 -132.964372 
L 626.271705 -132.411441 
L 626.617179 -131.85851 
L 626.937033 -131.305579 
L 627.245745 -130.752648 
L 627.553673 -130.199717 
L 627.865592 -129.646786 
L 628.181775 -129.093855 
L 628.500187 -128.540924 
L 628.818204 -127.987992 
L 629.133225 -127.435061 
L 629.442685 -126.88213 
L 629.744378 -126.329199 
L 630.037562 -125.776268 
L 630.324539 -125.223337 
L 630.611919 -124.670406 
L 630.910801 -124.117475 
L 631.23556 -123.564544 
L 631.601468 -123.011613 
L 632.021877 -122.458682 
L 632.505908 -121.905751 
L 633.057361 -121.35282 
L 633.674795 -120.799889 
L 634.351883 -120.246957 
L 635.077016 -119.694026 
L 635.832002 -119.141095 
L 636.591194 -118.588164 
L 637.323198 -118.035233 
L 637.996594 -117.482302 
L 638.588914 -116.929371 
L 639.095916 -116.37644 
L 639.537293 -115.823509 
L 639.955918 -115.270578 
L 640.409979 -114.717647 
L 640.959786 -114.164716 
L 641.652746 -113.611785 
L 642.510692 -113.058854 
L 643.52342 -112.505923 
L 644.650805 -111.952991 
L 645.833447 -111.40006 
L 647.009009 -110.847129 
L 648.129263 -110.294198 
L 649.17228 -109.741267 
L 650.145794 -109.188336 
L 651.080886 -108.635405 
L 652.018732 -108.082474 
L 652.995559 -107.529543 
L 654.031091 -106.976612 
L 655.12383 -106.423681 
L 656.253581 -105.87075 
L 657.389346 -105.317819 
L 658.499651 -104.764888 
L 659.562435 -104.211957 
L 660.571889 -103.659025 
L 661.539795 -103.106094 
L 662.489445 -102.553163 
L 663.441493 -102.000232 
L 664.393372 -101.447301 
L 665.296436 -100.89437 
L 666.037019 -100.341439 
L 666.428781 -99.788508 
L 666.223773 -99.235577 
L 665.147728 -98.682646 
L 662.959515 -98.129715 
L 659.524696 -97.576784 
L 654.881682 -97.023853 
L 649.272888 -96.470922 
L 643.119891 -95.917991 
L 636.941685 -95.365059 
L 631.240325 -94.812128 
L 626.39412 -94.259197 
L 622.595132 -93.706266 
L 619.846757 -93.153335 
L 618.0111 -92.600404 
L 616.878947 -92.047473 
z
" style="stroke: #3e3e3e; stroke-width: 3"/>
    </defs>
    <g clip-path="url(#p9b5d2681dc)">
     <use xlink:href="#m6821ef68df" x="0" y="288" style="fill: #df7f20; stroke: #3e3e3e; stroke-width: 3"/>
    </g>
   </g>
   <g id="PolyCollection_6">
    <defs>
     <path id="m31a0c92d82" d="M 748.558445 -98.486397 
L 736.762493 -98.486397 
L 730.947276 -99.211854 
L 722.317983 -99.93731 
L 711.717425 -100.662766 
L 701.335245 -101.388223 
L 694.010133 -102.113679 
L 691.839344 -102.839135 
L 695.025364 -103.564592 
L 701.846724 -104.290048 
L 709.741992 -105.015505 
L 716.629756 -105.740961 
L 721.585072 -106.466417 
L 724.693172 -107.191874 
L 726.505755 -107.91733 
L 727.581408 -108.642786 
L 728.29703 -109.368243 
L 728.858852 -110.093699 
L 729.374694 -110.819156 
L 729.903985 -111.544612 
L 730.471944 -112.270068 
L 731.070275 -112.995525 
L 731.666837 -113.720981 
L 732.227795 -114.446437 
L 732.738474 -115.171894 
L 733.207959 -115.89735 
L 733.656179 -116.622806 
L 734.095835 -117.348263 
L 734.522692 -118.073719 
L 734.918993 -118.799176 
L 735.266525 -119.524632 
L 735.562466 -120.250088 
L 735.82934 -120.975545 
L 736.110513 -121.701001 
L 736.44938 -122.426457 
L 736.862882 -123.151914 
L 737.327349 -123.87737 
L 737.7876 -124.602826 
L 738.183626 -125.328283 
L 738.477446 -126.053739 
L 738.665352 -126.779196 
L 738.773237 -127.504652 
L 738.843145 -128.230108 
L 738.919908 -128.955565 
L 739.04062 -129.681021 
L 739.225337 -130.406477 
L 739.469723 -131.131934 
L 739.744928 -131.85739 
L 740.009021 -132.582847 
L 740.226224 -133.308303 
L 740.383003 -134.033759 
L 740.491418 -134.759216 
L 740.579085 -135.484672 
L 740.673288 -136.210128 
L 740.788595 -136.935585 
L 740.923431 -137.661041 
L 741.06549 -138.386497 
L 741.201455 -139.111954 
L 741.324669 -139.83741 
L 741.436337 -140.562867 
L 741.540622 -141.288323 
L 741.638599 -142.013779 
L 741.726354 -142.739236 
L 741.798306 -143.464692 
L 741.852047 -144.190148 
L 741.890204 -144.915605 
L 741.918284 -145.641061 
L 741.941124 -146.366517 
L 741.960944 -147.091974 
L 741.9778 -147.81743 
L 741.991255 -148.542887 
L 742.001792 -149.268343 
L 742.01112 -149.993799 
L 742.021255 -150.719256 
L 742.033085 -151.444712 
L 742.045643 -152.170168 
L 742.056898 -152.895625 
L 742.065555 -153.621081 
L 742.072489 -154.346538 
L 742.080791 -155.071994 
L 742.094396 -155.79745 
L 742.116039 -156.522907 
L 742.145775 -157.248363 
L 742.18111 -157.973819 
L 742.218615 -158.699276 
L 742.255583 -159.424732 
L 742.290416 -160.150188 
L 742.322033 -160.875645 
L 742.349614 -161.601101 
L 742.373367 -162.326558 
L 742.395442 -163.052014 
L 742.419591 -163.77747 
L 742.449237 -164.502927 
L 742.485228 -165.228383 
L 742.52504 -165.953839 
L 742.564006 -166.679296 
L 742.597584 -167.404752 
L 742.62313 -168.130208 
L 742.640358 -168.855665 
L 742.650682 -169.581121 
L 742.656183 -170.306578 
L 742.664754 -170.306578 
L 742.664754 -170.306578 
L 742.670256 -169.581121 
L 742.68058 -168.855665 
L 742.697807 -168.130208 
L 742.723354 -167.404752 
L 742.756931 -166.679296 
L 742.795897 -165.953839 
L 742.83571 -165.228383 
L 742.871701 -164.502927 
L 742.901346 -163.77747 
L 742.925495 -163.052014 
L 742.94757 -162.326558 
L 742.971324 -161.601101 
L 742.998905 -160.875645 
L 743.030521 -160.150188 
L 743.065354 -159.424732 
L 743.102322 -158.699276 
L 743.139828 -157.973819 
L 743.175163 -157.248363 
L 743.204898 -156.522907 
L 743.226541 -155.79745 
L 743.240146 -155.071994 
L 743.248448 -154.346538 
L 743.255382 -153.621081 
L 743.264039 -152.895625 
L 743.275294 -152.170168 
L 743.287852 -151.444712 
L 743.299683 -150.719256 
L 743.309818 -149.993799 
L 743.319145 -149.268343 
L 743.329683 -148.542887 
L 743.343138 -147.81743 
L 743.359994 -147.091974 
L 743.379814 -146.366517 
L 743.402654 -145.641061 
L 743.430734 -144.915605 
L 743.46889 -144.190148 
L 743.522631 -143.464692 
L 743.594583 -142.739236 
L 743.682338 -142.013779 
L 743.780316 -141.288323 
L 743.8846 -140.562867 
L 743.996268 -139.83741 
L 744.119483 -139.111954 
L 744.255447 -138.386497 
L 744.397507 -137.661041 
L 744.532342 -136.935585 
L 744.64765 -136.210128 
L 744.741852 -135.484672 
L 744.829519 -134.759216 
L 744.937935 -134.033759 
L 745.094713 -133.308303 
L 745.311917 -132.582847 
L 745.576009 -131.85739 
L 745.851215 -131.131934 
L 746.095601 -130.406477 
L 746.280318 -129.681021 
L 746.401029 -128.955565 
L 746.477793 -128.230108 
L 746.547701 -127.504652 
L 746.655585 -126.779196 
L 746.843491 -126.053739 
L 747.137311 -125.328283 
L 747.533337 -124.602826 
L 747.993589 -123.87737 
L 748.458055 -123.151914 
L 748.871558 -122.426457 
L 749.210424 -121.701001 
L 749.491597 -120.975545 
L 749.758471 -120.250088 
L 750.054412 -119.524632 
L 750.401945 -118.799176 
L 750.798245 -118.073719 
L 751.225102 -117.348263 
L 751.664758 -116.622806 
L 752.112979 -115.89735 
L 752.582464 -115.171894 
L 753.093142 -114.446437 
L 753.6541 -113.720981 
L 754.250662 -112.995525 
L 754.848993 -112.270068 
L 755.416952 -111.544612 
L 755.946243 -110.819156 
L 756.462086 -110.093699 
L 757.023907 -109.368243 
L 757.73953 -108.642786 
L 758.815183 -107.91733 
L 760.627766 -107.191874 
L 763.735865 -106.466417 
L 768.691182 -105.740961 
L 775.578945 -105.015505 
L 783.474213 -104.290048 
L 790.295573 -103.564592 
L 793.481594 -102.839135 
L 791.310804 -102.113679 
L 783.985693 -101.388223 
L 773.603513 -100.662766 
L 763.002955 -99.93731 
L 754.373662 -99.211854 
L 748.558445 -98.486397 
z
" style="stroke: #3e3e3e; stroke-width: 3"/>
    </defs>
    <g clip-path="url(#p9b5d2681dc)">
     <use xlink:href="#m31a0c92d82" x="0" y="288" style="fill: #e6e64c; stroke: #3e3e3e; stroke-width: 3"/>
    </g>
   </g>
   <g id="PolyCollection_7">
    <defs>
     <path id="m8ea6deb03a" d="M 869.725085 -67.801461 
L 869.701477 -67.801461 
L 869.679798 -68.75346 
L 869.633987 -69.70546 
L 869.553007 -70.65746 
L 869.430258 -71.60946 
L 869.268765 -72.56146 
L 869.087643 -73.513459 
L 868.924091 -74.465459 
L 868.817799 -75.417459 
L 868.780894 -76.369459 
L 868.784192 -77.321459 
L 868.781279 -78.273459 
L 868.746914 -79.225458 
L 868.68688 -80.177458 
L 868.612215 -81.129458 
L 868.514796 -82.081458 
L 868.374499 -83.033458 
L 868.183316 -83.985457 
L 867.954167 -84.937457 
L 867.709173 -85.889457 
L 867.467066 -86.841457 
L 867.240186 -87.793457 
L 867.031643 -88.745457 
L 866.827534 -89.697456 
L 866.594732 -90.649456 
L 866.288111 -91.601456 
L 865.856726 -92.553456 
L 865.248436 -93.505456 
L 864.427071 -94.457456 
L 863.4024 -95.409455 
L 862.24252 -96.361455 
L 861.03466 -97.313455 
L 859.812611 -98.265455 
L 858.524389 -99.217455 
L 857.067498 -100.169454 
L 855.311168 -101.121454 
L 853.040374 -102.073454 
L 849.902211 -103.025454 
L 845.48872 -103.977454 
L 839.59029 -104.929454 
L 832.555411 -105.881453 
L 825.57037 -106.833453 
L 820.475511 -107.785453 
L 818.892156 -108.737453 
L 821.192381 -109.689453 
L 826.290388 -110.641453 
L 832.473551 -111.593452 
L 838.405519 -112.545452 
L 843.478231 -113.497452 
L 847.582416 -114.449452 
L 850.799857 -115.401452 
L 853.262675 -116.353451 
L 855.134137 -117.305451 
L 856.60646 -118.257451 
L 857.85882 -119.209451 
L 859.004941 -120.161451 
L 860.090321 -121.113451 
L 861.123427 -122.06545 
L 862.085252 -123.01745 
L 862.926528 -123.96945 
L 863.597242 -124.92145 
L 864.096964 -125.87345 
L 864.487935 -126.825449 
L 864.849133 -127.777449 
L 865.220644 -128.729449 
L 865.596156 -129.681449 
L 865.95214 -130.633449 
L 866.263752 -131.585449 
L 866.506891 -132.537448 
L 866.67792 -133.489448 
L 866.815163 -134.441448 
L 866.979345 -135.393448 
L 867.201886 -136.345448 
L 867.456236 -137.297448 
L 867.680305 -138.249447 
L 867.823365 -139.201447 
L 867.877385 -140.153447 
L 867.876388 -141.105447 
L 867.871522 -142.057447 
L 867.903625 -143.009446 
L 867.992509 -143.961446 
L 868.139894 -144.913446 
L 868.330354 -145.865446 
L 868.531857 -146.817446 
L 868.710461 -147.769446 
L 868.852455 -148.721445 
L 868.966142 -149.673445 
L 869.058643 -150.625445 
L 869.120251 -151.577445 
L 869.139396 -152.529445 
L 869.127461 -153.481445 
L 869.119634 -154.433444 
L 869.149849 -155.385444 
L 869.22774 -156.337444 
L 869.338064 -157.289444 
L 869.45554 -158.241444 
L 869.558076 -159.193443 
L 869.632913 -160.145443 
L 869.678217 -161.097443 
L 869.700616 -162.049443 
L 869.725947 -162.049443 
L 869.725947 -162.049443 
L 869.748346 -161.097443 
L 869.793649 -160.145443 
L 869.868486 -159.193443 
L 869.971022 -158.241444 
L 870.088498 -157.289444 
L 870.198823 -156.337444 
L 870.276713 -155.385444 
L 870.306928 -154.433444 
L 870.299102 -153.481445 
L 870.287167 -152.529445 
L 870.306311 -151.577445 
L 870.367919 -150.625445 
L 870.46042 -149.673445 
L 870.574108 -148.721445 
L 870.716101 -147.769446 
L 870.894706 -146.817446 
L 871.096209 -145.865446 
L 871.286669 -144.913446 
L 871.434053 -143.961446 
L 871.522938 -143.009446 
L 871.555041 -142.057447 
L 871.550175 -141.105447 
L 871.549177 -140.153447 
L 871.603197 -139.201447 
L 871.746258 -138.249447 
L 871.970327 -137.297448 
L 872.224677 -136.345448 
L 872.447218 -135.393448 
L 872.6114 -134.441448 
L 872.748643 -133.489448 
L 872.919672 -132.537448 
L 873.162811 -131.585449 
L 873.474422 -130.633449 
L 873.830407 -129.681449 
L 874.205919 -128.729449 
L 874.577429 -127.777449 
L 874.938628 -126.825449 
L 875.329599 -125.87345 
L 875.82932 -124.92145 
L 876.500035 -123.96945 
L 877.341311 -123.01745 
L 878.303135 -122.06545 
L 879.336242 -121.113451 
L 880.421622 -120.161451 
L 881.567742 -119.209451 
L 882.820102 -118.257451 
L 884.292425 -117.305451 
L 886.163888 -116.353451 
L 888.626705 -115.401452 
L 891.844146 -114.449452 
L 895.948331 -113.497452 
L 901.021044 -112.545452 
L 906.953012 -111.593452 
L 913.136175 -110.641453 
L 918.234182 -109.689453 
L 920.534406 -108.737453 
L 918.951052 -107.785453 
L 913.856192 -106.833453 
L 906.871152 -105.881453 
L 899.836273 -104.929454 
L 893.937843 -103.977454 
L 889.524351 -103.025454 
L 886.386189 -102.073454 
L 884.115395 -101.121454 
L 882.359064 -100.169454 
L 880.902173 -99.217455 
L 879.613951 -98.265455 
L 878.391903 -97.313455 
L 877.184042 -96.361455 
L 876.024162 -95.409455 
L 874.999492 -94.457456 
L 874.178127 -93.505456 
L 873.569836 -92.553456 
L 873.138452 -91.601456 
L 872.831831 -90.649456 
L 872.599029 -89.697456 
L 872.394919 -88.745457 
L 872.186377 -87.793457 
L 871.959497 -86.841457 
L 871.71739 -85.889457 
L 871.472395 -84.937457 
L 871.243246 -83.985457 
L 871.052063 -83.033458 
L 870.911766 -82.081458 
L 870.814348 -81.129458 
L 870.739682 -80.177458 
L 870.679648 -79.225458 
L 870.645283 -78.273459 
L 870.64237 -77.321459 
L 870.645668 -76.369459 
L 870.608764 -75.417459 
L 870.502472 -74.465459 
L 870.33892 -73.513459 
L 870.157797 -72.56146 
L 869.996304 -71.60946 
L 869.873556 -70.65746 
L 869.792575 -69.70546 
L 869.746764 -68.75346 
L 869.725085 -67.801461 
z
" style="stroke: #3e3e3e; stroke-width: 3"/>
    </defs>
    <g clip-path="url(#p9b5d2681dc)">
     <use xlink:href="#m8ea6deb03a" x="0" y="288" style="fill: #965a38; stroke: #3e3e3e; stroke-width: 3"/>
    </g>
   </g>
   <g id="PolyCollection_8">
    <defs>
     <path id="mc42f43af4e" d="M 999.600483 -101.880257 
L 993.931705 -101.880257 
L 985.923416 -103.216236 
L 969.734467 -104.552215 
L 952.017958 -105.888193 
L 945.944969 -107.224172 
L 954.809757 -108.56015 
L 969.057218 -109.896129 
L 980.09933 -111.232107 
L 986.472438 -112.568086 
L 989.866313 -113.904064 
L 991.832959 -115.240043 
L 993.178598 -116.576021 
L 994.151245 -117.912 
L 994.777796 -119.247978 
L 995.137826 -120.583957 
L 995.363832 -121.919935 
L 995.519298 -123.255914 
L 995.614351 -124.591892 
L 995.692056 -125.927871 
L 995.804251 -127.263849 
L 995.945118 -128.599828 
L 996.070397 -129.935806 
L 996.157211 -131.271785 
L 996.221332 -132.607763 
L 996.279225 -133.943742 
L 996.326016 -135.27972 
L 996.359974 -136.615699 
L 996.381296 -137.951677 
L 996.391279 -139.287656 
L 996.413297 -140.623634 
L 996.464646 -141.959613 
L 996.521898 -143.295592 
L 996.548212 -144.63157 
L 996.539172 -145.967549 
L 996.527616 -147.303527 
L 996.542471 -148.639506 
L 996.57602 -149.975484 
L 996.603737 -151.311463 
L 996.620958 -152.647441 
L 996.634653 -153.98342 
L 996.641959 -155.319398 
L 996.646066 -156.655377 
L 996.656698 -157.991355 
L 996.664601 -159.327334 
L 996.652774 -160.663312 
L 996.623209 -161.999291 
L 996.593432 -163.335269 
L 996.574418 -164.671248 
L 996.565656 -166.007226 
L 996.572112 -167.343205 
L 996.598899 -168.679183 
L 996.630852 -170.015162 
L 996.645743 -171.35114 
L 996.645874 -172.687119 
L 996.654238 -174.023097 
L 996.677652 -175.359076 
L 996.697323 -176.695054 
L 996.698165 -178.031033 
L 996.684324 -179.367011 
L 996.667023 -180.70299 
L 996.658344 -182.038969 
L 996.67001 -183.374947 
L 996.699152 -184.710926 
L 996.726755 -186.046904 
L 996.73785 -187.382883 
L 996.731646 -188.718861 
L 996.714447 -190.05484 
L 996.694501 -191.390818 
L 996.682639 -192.726797 
L 996.684987 -194.062775 
L 996.692865 -195.398754 
L 996.691991 -196.734732 
L 996.682994 -198.070711 
L 996.680524 -199.406689 
L 996.687374 -200.742668 
L 996.687543 -202.078646 
L 996.676144 -203.414625 
L 996.669688 -204.750603 
L 996.678468 -206.086582 
L 996.695808 -207.42256 
L 996.713785 -208.758539 
L 996.728914 -210.094517 
L 996.738042 -211.430496 
L 996.740139 -212.766474 
L 996.738144 -214.102453 
L 996.7369 -215.438431 
L 996.73823 -216.77441 
L 996.73898 -218.110388 
L 996.736161 -219.446367 
L 996.732378 -220.782346 
L 996.732849 -222.118324 
L 996.736457 -223.454303 
L 996.737955 -224.790281 
L 996.738712 -226.12626 
L 996.742897 -227.462238 
L 996.748078 -228.798217 
L 996.751799 -230.134195 
L 996.756195 -231.470174 
L 996.761234 -232.806152 
L 996.764547 -234.142131 
L 996.767641 -234.142131 
L 996.767641 -234.142131 
L 996.770953 -232.806152 
L 996.775992 -231.470174 
L 996.780388 -230.134195 
L 996.78411 -228.798217 
L 996.78929 -227.462238 
L 996.793476 -226.12626 
L 996.794232 -224.790281 
L 996.795731 -223.454303 
L 996.799338 -222.118324 
L 996.79981 -220.782346 
L 996.796026 -219.446367 
L 996.793207 -218.110388 
L 996.793958 -216.77441 
L 996.795288 -215.438431 
L 996.794043 -214.102453 
L 996.792049 -212.766474 
L 996.794145 -211.430496 
L 996.803274 -210.094517 
L 996.818403 -208.758539 
L 996.83638 -207.42256 
L 996.85372 -206.086582 
L 996.862499 -204.750603 
L 996.856043 -203.414625 
L 996.844645 -202.078646 
L 996.844814 -200.742668 
L 996.851664 -199.406689 
L 996.849193 -198.070711 
L 996.840196 -196.734732 
L 996.839322 -195.398754 
L 996.8472 -194.062775 
L 996.849548 -192.726797 
L 996.837686 -191.390818 
L 996.817741 -190.05484 
L 996.800542 -188.718861 
L 996.794338 -187.382883 
L 996.805433 -186.046904 
L 996.833035 -184.710926 
L 996.862178 -183.374947 
L 996.873844 -182.038969 
L 996.865165 -180.70299 
L 996.847863 -179.367011 
L 996.834023 -178.031033 
L 996.834865 -176.695054 
L 996.854535 -175.359076 
L 996.877949 -174.023097 
L 996.886314 -172.687119 
L 996.886444 -171.35114 
L 996.901335 -170.015162 
L 996.933289 -168.679183 
L 996.960076 -167.343205 
L 996.966531 -166.007226 
L 996.95777 -164.671248 
L 996.938756 -163.335269 
L 996.908978 -161.999291 
L 996.879414 -160.663312 
L 996.867587 -159.327334 
L 996.875489 -157.991355 
L 996.886121 -156.655377 
L 996.890228 -155.319398 
L 996.897534 -153.98342 
L 996.91123 -152.647441 
L 996.928451 -151.311463 
L 996.956167 -149.975484 
L 996.989717 -148.639506 
L 997.004571 -147.303527 
L 996.993015 -145.967549 
L 996.983975 -144.63157 
L 997.01029 -143.295592 
L 997.067541 -141.959613 
L 997.118891 -140.623634 
L 997.140908 -139.287656 
L 997.150891 -137.951677 
L 997.172213 -136.615699 
L 997.206172 -135.27972 
L 997.252962 -133.943742 
L 997.310856 -132.607763 
L 997.374977 -131.271785 
L 997.461791 -129.935806 
L 997.587069 -128.599828 
L 997.727936 -127.263849 
L 997.840132 -125.927871 
L 997.917836 -124.591892 
L 998.01289 -123.255914 
L 998.168355 -121.919935 
L 998.394361 -120.583957 
L 998.754392 -119.247978 
L 999.380942 -117.912 
L 1000.35359 -116.576021 
L 1001.699229 -115.240043 
L 1003.665874 -113.904064 
L 1007.059749 -112.568086 
L 1013.432857 -111.232107 
L 1024.47497 -109.896129 
L 1038.72243 -108.56015 
L 1047.587219 -107.224172 
L 1041.514229 -105.888193 
L 1023.79772 -104.552215 
L 1007.608772 -103.216236 
L 999.600483 -101.880257 
z
" style="stroke: #3e3e3e; stroke-width: 3"/>
    </defs>
    <g clip-path="url(#p9b5d2681dc)">
     <use xlink:href="#mc42f43af4e" x="0" y="288" style="fill: #e890be; stroke: #3e3e3e; stroke-width: 3"/>
    </g>
   </g>
   <g id="line2d_8">
    <path d="M 107.396406 184.770727 
L 107.396406 151.177426 
" clip-path="url(#p9b5d2681dc)" style="fill: none; stroke: #3e3e3e; stroke-width: 3"/>
   </g>
   <g id="line2d_9">
    <path d="M 107.396406 184.770727 
L 107.396406 168.435429 
" clip-path="url(#p9b5d2681dc)" style="fill: none; stroke: #3e3e3e; stroke-width: 9"/>
   </g>
   <g id="line2d_10">
    <path d="M 234.449219 198.80951 
L 234.449219 158.841494 
" clip-path="url(#p9b5d2681dc)" style="fill: none; stroke: #3e3e3e; stroke-width: 3"/>
   </g>
   <g id="line2d_11">
    <path d="M 234.449219 183.830741 
L 234.449219 173.834272 
" clip-path="url(#p9b5d2681dc)" style="fill: none; stroke: #3e3e3e; stroke-width: 9"/>
   </g>
   <g id="line2d_12">
    <path d="M 361.502031 187.205866 
L 361.502031 148.957836 
" clip-path="url(#p9b5d2681dc)" style="fill: none; stroke: #3e3e3e; stroke-width: 3"/>
   </g>
   <g id="line2d_13">
    <path d="M 361.502031 187.205866 
L 361.502031 169.632447 
" clip-path="url(#p9b5d2681dc)" style="fill: none; stroke: #3e3e3e; stroke-width: 9"/>
   </g>
   <g id="line2d_14">
    <path d="M 488.554844 191.10945 
L 488.554844 164.23296 
" clip-path="url(#p9b5d2681dc)" style="fill: none; stroke: #3e3e3e; stroke-width: 3"/>
   </g>
   <g id="line2d_15">
    <path d="M 488.554844 181.034941 
L 488.554844 174.304396 
" clip-path="url(#p9b5d2681dc)" style="fill: none; stroke: #3e3e3e; stroke-width: 9"/>
   </g>
   <g id="line2d_16">
    <path d="M 615.607656 192.04257 
L 615.607656 145.360907 
" clip-path="url(#p9b5d2681dc)" style="fill: none; stroke: #3e3e3e; stroke-width: 3"/>
   </g>
   <g id="line2d_17">
    <path d="M 615.607656 186.803407 
L 615.607656 170.179186 
" clip-path="url(#p9b5d2681dc)" style="fill: none; stroke: #3e3e3e; stroke-width: 9"/>
   </g>
   <g id="line2d_18">
    <path d="M 742.660469 185.603646 
L 742.660469 153.899233 
" clip-path="url(#p9b5d2681dc)" style="fill: none; stroke: #3e3e3e; stroke-width: 3"/>
   </g>
   <g id="line2d_19">
    <path d="M 742.660469 185.603646 
L 742.660469 172.890342 
" clip-path="url(#p9b5d2681dc)" style="fill: none; stroke: #3e3e3e; stroke-width: 9"/>
   </g>
   <g id="line2d_20">
    <path d="M 869.713281 195.811132 
L 869.713281 160.021136 
" clip-path="url(#p9b5d2681dc)" style="fill: none; stroke: #3e3e3e; stroke-width: 3"/>
   </g>
   <g id="line2d_21">
    <path d="M 869.713281 182.383325 
L 869.713281 173.42759 
" clip-path="url(#p9b5d2681dc)" style="fill: none; stroke: #3e3e3e; stroke-width: 9"/>
   </g>
   <g id="line2d_22">
    <path d="M 996.766094 182.209786 
L 996.766094 173.396936 
" clip-path="url(#p9b5d2681dc)" style="fill: none; stroke: #3e3e3e; stroke-width: 3"/>
   </g>
   <g id="line2d_23">
    <path d="M 996.766094 181.622393 
L 996.766094 178.331279 
" clip-path="url(#p9b5d2681dc)" style="fill: none; stroke: #3e3e3e; stroke-width: 9"/>
   </g>
   <g id="patch_3">
    <path d="M 43.87 255.833125 
L 43.87 44.24 
" style="fill: none; stroke: #f0f0f0; stroke-width: 3; stroke-linejoin: miter; stroke-linecap: square"/>
   </g>
   <g id="patch_4">
    <path d="M 1060.2925 255.833125 
L 1060.2925 44.24 
" style="fill: none; stroke: #f0f0f0; stroke-width: 3; stroke-linejoin: miter; stroke-linecap: square"/>
   </g>
   <g id="patch_5">
    <path d="M 43.87 255.833125 
L 1060.2925 255.833125 
" style="fill: none; stroke: #f0f0f0; stroke-width: 3; stroke-linejoin: miter; stroke-linecap: square"/>
   </g>
   <g id="patch_6">
    <path d="M 43.87 44.24 
L 1060.2925 44.24 
" style="fill: none; stroke: #f0f0f0; stroke-width: 3; stroke-linejoin: miter; stroke-linecap: square"/>
   </g>
   <g id="PathCollection_1">
    <defs>
     <path id="mb86304751b" d="M 0 3 
C 0.795609 3 1.55874 2.683901 2.12132 2.12132 
C 2.683901 1.55874 3 0.795609 3 0 
C 3 -0.795609 2.683901 -1.55874 2.12132 -2.12132 
C 1.55874 -2.683901 0.795609 -3 0 -3 
C -0.795609 -3 -1.55874 -2.683901 -2.12132 -2.12132 
C -2.683901 -1.55874 -3 -0.795609 -3 0 
C -3 0.795609 -2.683901 1.55874 -2.12132 2.12132 
C -1.55874 2.683901 -0.795609 3 0 3 
z
" style="stroke: #3e3e3e; stroke-width: 0.5"/>
    </defs>
    <g clip-path="url(#p9b5d2681dc)">
     <use xlink:href="#mb86304751b" x="107.396406" y="184.770727" style="fill: #ffffff; stroke: #3e3e3e; stroke-width: 0.5"/>
    </g>
   </g>
   <g id="PathCollection_2">
    <g clip-path="url(#p9b5d2681dc)">
     <use xlink:href="#mb86304751b" x="234.449219" y="179.619779" style="fill: #ffffff; stroke: #3e3e3e; stroke-width: 0.5"/>
    </g>
   </g>
   <g id="PathCollection_3">
    <g clip-path="url(#p9b5d2681dc)">
     <use xlink:href="#mb86304751b" x="361.502031" y="182.355284" style="fill: #ffffff; stroke: #3e3e3e; stroke-width: 0.5"/>
    </g>
   </g>
   <g id="PathCollection_4">
    <g clip-path="url(#p9b5d2681dc)">
     <use xlink:href="#mb86304751b" x="488.554844" y="178.290261" style="fill: #ffffff; stroke: #3e3e3e; stroke-width: 0.5"/>
    </g>
   </g>
   <g id="PathCollection_5">
    <g clip-path="url(#p9b5d2681dc)">
     <use xlink:href="#mb86304751b" x="615.607656" y="180.251183" style="fill: #ffffff; stroke: #3e3e3e; stroke-width: 0.5"/>
    </g>
   </g>
   <g id="PathCollection_6">
    <g clip-path="url(#p9b5d2681dc)">
     <use xlink:href="#mb86304751b" x="742.660469" y="182.485891" style="fill: #ffffff; stroke: #3e3e3e; stroke-width: 0.5"/>
    </g>
   </g>
   <g id="PathCollection_7">
    <g clip-path="url(#p9b5d2681dc)">
     <use xlink:href="#mb86304751b" x="869.713281" y="178.858107" style="fill: #ffffff; stroke: #3e3e3e; stroke-width: 0.5"/>
    </g>
   </g>
   <g id="PathCollection_8">
    <g clip-path="url(#p9b5d2681dc)">
     <use xlink:href="#mb86304751b" x="996.766094" y="180.713339" style="fill: #ffffff; stroke: #3e3e3e; stroke-width: 0.5"/>
    </g>
   </g>
  </g>
  <g id="text_16">
   <!-- Violin Plot of all Continuous Variables -->
   <g style="fill: #262626" transform="translate(416.035547 16.496719)scale(0.15 -0.15)">
    <defs>
     <path id="ArialMT-56" d="M 1803 0 
L 28 4581 
L 684 4581 
L 1875 1253 
Q 2019 853 2116 503 
Q 2222 878 2363 1253 
L 3600 4581 
L 4219 4581 
L 2425 0 
L 1803 0 
z
" transform="scale(0.015625)"/>
     <path id="ArialMT-66" d="M 556 0 
L 556 2881 
L 59 2881 
L 59 3319 
L 556 3319 
L 556 3672 
Q 556 4006 616 4169 
Q 697 4388 901 4523 
Q 1106 4659 1475 4659 
Q 1713 4659 2000 4603 
L 1916 4113 
Q 1741 4144 1584 4144 
Q 1328 4144 1222 4034 
Q 1116 3925 1116 3625 
L 1116 3319 
L 1763 3319 
L 1763 2881 
L 1116 2881 
L 1116 0 
L 556 0 
z
" transform="scale(0.015625)"/>
    </defs>
    <use xlink:href="#ArialMT-56"/>
    <use xlink:href="#ArialMT-69" x="64.949219"/>
    <use xlink:href="#ArialMT-6f" x="87.166016"/>
    <use xlink:href="#ArialMT-6c" x="142.78125"/>
    <use xlink:href="#ArialMT-69" x="164.998047"/>
    <use xlink:href="#ArialMT-6e" x="187.214844"/>
    <use xlink:href="#ArialMT-20" x="242.830078"/>
    <use xlink:href="#ArialMT-50" x="270.613281"/>
    <use xlink:href="#ArialMT-6c" x="337.3125"/>
    <use xlink:href="#ArialMT-6f" x="359.529297"/>
    <use xlink:href="#ArialMT-74" x="415.144531"/>
    <use xlink:href="#ArialMT-20" x="442.927734"/>
    <use xlink:href="#ArialMT-6f" x="470.710938"/>
    <use xlink:href="#ArialMT-66" x="526.326172"/>
    <use xlink:href="#ArialMT-20" x="554.109375"/>
    <use xlink:href="#ArialMT-61" x="581.892578"/>
    <use xlink:href="#ArialMT-6c" x="637.507812"/>
    <use xlink:href="#ArialMT-6c" x="659.724609"/>
    <use xlink:href="#ArialMT-20" x="681.941406"/>
    <use xlink:href="#ArialMT-43" x="709.724609"/>
    <use xlink:href="#ArialMT-6f" x="781.941406"/>
    <use xlink:href="#ArialMT-6e" x="837.556641"/>
    <use xlink:href="#ArialMT-74" x="893.171875"/>
    <use xlink:href="#ArialMT-69" x="920.955078"/>
    <use xlink:href="#ArialMT-6e" x="943.171875"/>
    <use xlink:href="#ArialMT-75" x="998.787109"/>
    <use xlink:href="#ArialMT-6f" x="1054.402344"/>
    <use xlink:href="#ArialMT-75" x="1110.017578"/>
    <use xlink:href="#ArialMT-73" x="1165.632812"/>
    <use xlink:href="#ArialMT-20" x="1215.632812"/>
    <use xlink:href="#ArialMT-56" x="1243.416016"/>
    <use xlink:href="#ArialMT-61" x="1302.740234"/>
    <use xlink:href="#ArialMT-72" x="1358.355469"/>
    <use xlink:href="#ArialMT-69" x="1391.65625"/>
    <use xlink:href="#ArialMT-61" x="1413.873047"/>
    <use xlink:href="#ArialMT-62" x="1469.488281"/>
    <use xlink:href="#ArialMT-6c" x="1525.103516"/>
    <use xlink:href="#ArialMT-65" x="1547.320312"/>
    <use xlink:href="#ArialMT-73" x="1602.935547"/>
   </g>
  </g>
 </g>
 <defs>
  <clipPath id="p9b5d2681dc">
   <rect x="43.87" y="44.24" width="1016.4225" height="211.593125"/>
  </clipPath>
 </defs>
</svg>
