<?xml version="1.0" encoding="utf-8" standalone="no"?>
<!DOCTYPE svg PUBLIC "-//W3C//DTD SVG 1.1//EN"
  "http://www.w3.org/Graphics/SVG/1.1/DTD/svg11.dtd">
<svg xmlns:xlink="http://www.w3.org/1999/xlink" width="1080pt" height="288pt" viewBox="0 0 1080 288" xmlns="http://www.w3.org/2000/svg" version="1.1">
 <metadata>
  <rdf:RDF xmlns:dc="http://purl.org/dc/elements/1.1/" xmlns:cc="http://creativecommons.org/ns#" xmlns:rdf="http://www.w3.org/1999/02/22-rdf-syntax-ns#">
   <cc:Work>
    <dc:type rdf:resource="http://purl.org/dc/dcmitype/StillImage"/>
    <dc:date>2022-11-07T19:58:17.541459</dc:date>
    <dc:format>image/svg+xml</dc:format>
    <dc:creator>
     <cc:Agent>
      <dc:title>Matplotlib v3.5.1, https://matplotlib.org/</dc:title>
     </cc:Agent>
    </dc:creator>
   </cc:Work>
  </rdf:RDF>
 </metadata>
 <defs>
  <style type="text/css">*{stroke-linejoin: round; stroke-linecap: butt}</style>
 </defs>
 <g id="figure_1">
  <g id="patch_1">
   <path d="M 0 288 
L 1080 288 
L 1080 0 
L 0 0 
z
" style="fill: #f0f0f0"/>
  </g>
  <g id="axes_1">
   <g id="patch_2">
    <path d="M 43.87 255.833125 
L 1064.88 255.833125 
L 1064.88 44.24 
L 43.87 44.24 
z
" style="fill: #f0f0f0"/>
   </g>
   <g id="matplotlib.axis_1">
    <g id="xtick_1">
     <g id="text_1">
      <!--  Accounts Receivable Turnover -->
      <g style="fill: #262626" transform="translate(31.867344 270.706719)scale(0.11 -0.11)">
       <defs>
        <path id="ArialMT-20" transform="scale(0.015625)"/>
        <path id="ArialMT-41" d="M -9 0 
L 1750 4581 
L 2403 4581 
L 4278 0 
L 3588 0 
L 3053 1388 
L 1138 1388 
L 634 0 
L -9 0 
z
M 1313 1881 
L 2866 1881 
L 2388 3150 
Q 2169 3728 2063 4100 
Q 1975 3659 1816 3225 
L 1313 1881 
z
" transform="scale(0.015625)"/>
        <path id="ArialMT-63" d="M 2588 1216 
L 3141 1144 
Q 3050 572 2676 248 
Q 2303 -75 1759 -75 
Q 1078 -75 664 370 
Q 250 816 250 1647 
Q 250 2184 428 2587 
Q 606 2991 970 3192 
Q 1334 3394 1763 3394 
Q 2303 3394 2647 3120 
Q 2991 2847 3088 2344 
L 2541 2259 
Q 2463 2594 2264 2762 
Q 2066 2931 1784 2931 
Q 1359 2931 1093 2626 
Q 828 2322 828 1663 
Q 828 994 1084 691 
Q 1341 388 1753 388 
Q 2084 388 2306 591 
Q 2528 794 2588 1216 
z
" transform="scale(0.015625)"/>
        <path id="ArialMT-6f" d="M 213 1659 
Q 213 2581 725 3025 
Q 1153 3394 1769 3394 
Q 2453 3394 2887 2945 
Q 3322 2497 3322 1706 
Q 3322 1066 3130 698 
Q 2938 331 2570 128 
Q 2203 -75 1769 -75 
Q 1072 -75 642 372 
Q 213 819 213 1659 
z
M 791 1659 
Q 791 1022 1069 705 
Q 1347 388 1769 388 
Q 2188 388 2466 706 
Q 2744 1025 2744 1678 
Q 2744 2294 2464 2611 
Q 2184 2928 1769 2928 
Q 1347 2928 1069 2612 
Q 791 2297 791 1659 
z
" transform="scale(0.015625)"/>
        <path id="ArialMT-75" d="M 2597 0 
L 2597 488 
Q 2209 -75 1544 -75 
Q 1250 -75 995 37 
Q 741 150 617 320 
Q 494 491 444 738 
Q 409 903 409 1263 
L 409 3319 
L 972 3319 
L 972 1478 
Q 972 1038 1006 884 
Q 1059 663 1231 536 
Q 1403 409 1656 409 
Q 1909 409 2131 539 
Q 2353 669 2445 892 
Q 2538 1116 2538 1541 
L 2538 3319 
L 3100 3319 
L 3100 0 
L 2597 0 
z
" transform="scale(0.015625)"/>
        <path id="ArialMT-6e" d="M 422 0 
L 422 3319 
L 928 3319 
L 928 2847 
Q 1294 3394 1984 3394 
Q 2284 3394 2536 3286 
Q 2788 3178 2913 3003 
Q 3038 2828 3088 2588 
Q 3119 2431 3119 2041 
L 3119 0 
L 2556 0 
L 2556 2019 
Q 2556 2363 2490 2533 
Q 2425 2703 2258 2804 
Q 2091 2906 1866 2906 
Q 1506 2906 1245 2678 
Q 984 2450 984 1813 
L 984 0 
L 422 0 
z
" transform="scale(0.015625)"/>
        <path id="ArialMT-74" d="M 1650 503 
L 1731 6 
Q 1494 -44 1306 -44 
Q 1000 -44 831 53 
Q 663 150 594 308 
Q 525 466 525 972 
L 525 2881 
L 113 2881 
L 113 3319 
L 525 3319 
L 525 4141 
L 1084 4478 
L 1084 3319 
L 1650 3319 
L 1650 2881 
L 1084 2881 
L 1084 941 
Q 1084 700 1114 631 
Q 1144 563 1211 522 
Q 1278 481 1403 481 
Q 1497 481 1650 503 
z
" transform="scale(0.015625)"/>
        <path id="ArialMT-73" d="M 197 991 
L 753 1078 
Q 800 744 1014 566 
Q 1228 388 1613 388 
Q 2000 388 2187 545 
Q 2375 703 2375 916 
Q 2375 1106 2209 1216 
Q 2094 1291 1634 1406 
Q 1016 1563 777 1677 
Q 538 1791 414 1992 
Q 291 2194 291 2438 
Q 291 2659 392 2848 
Q 494 3038 669 3163 
Q 800 3259 1026 3326 
Q 1253 3394 1513 3394 
Q 1903 3394 2198 3281 
Q 2494 3169 2634 2976 
Q 2775 2784 2828 2463 
L 2278 2388 
Q 2241 2644 2061 2787 
Q 1881 2931 1553 2931 
Q 1166 2931 1000 2803 
Q 834 2675 834 2503 
Q 834 2394 903 2306 
Q 972 2216 1119 2156 
Q 1203 2125 1616 2013 
Q 2213 1853 2448 1751 
Q 2684 1650 2818 1456 
Q 2953 1263 2953 975 
Q 2953 694 2789 445 
Q 2625 197 2315 61 
Q 2006 -75 1616 -75 
Q 969 -75 630 194 
Q 291 463 197 991 
z
" transform="scale(0.015625)"/>
        <path id="ArialMT-52" d="M 503 0 
L 503 4581 
L 2534 4581 
Q 3147 4581 3465 4457 
Q 3784 4334 3975 4021 
Q 4166 3709 4166 3331 
Q 4166 2844 3850 2509 
Q 3534 2175 2875 2084 
Q 3116 1969 3241 1856 
Q 3506 1613 3744 1247 
L 4541 0 
L 3778 0 
L 3172 953 
Q 2906 1366 2734 1584 
Q 2563 1803 2427 1890 
Q 2291 1978 2150 2013 
Q 2047 2034 1813 2034 
L 1109 2034 
L 1109 0 
L 503 0 
z
M 1109 2559 
L 2413 2559 
Q 2828 2559 3062 2645 
Q 3297 2731 3419 2920 
Q 3541 3109 3541 3331 
Q 3541 3656 3305 3865 
Q 3069 4075 2559 4075 
L 1109 4075 
L 1109 2559 
z
" transform="scale(0.015625)"/>
        <path id="ArialMT-65" d="M 2694 1069 
L 3275 997 
Q 3138 488 2766 206 
Q 2394 -75 1816 -75 
Q 1088 -75 661 373 
Q 234 822 234 1631 
Q 234 2469 665 2931 
Q 1097 3394 1784 3394 
Q 2450 3394 2872 2941 
Q 3294 2488 3294 1666 
Q 3294 1616 3291 1516 
L 816 1516 
Q 847 969 1125 678 
Q 1403 388 1819 388 
Q 2128 388 2347 550 
Q 2566 713 2694 1069 
z
M 847 1978 
L 2700 1978 
Q 2663 2397 2488 2606 
Q 2219 2931 1791 2931 
Q 1403 2931 1139 2672 
Q 875 2413 847 1978 
z
" transform="scale(0.015625)"/>
        <path id="ArialMT-69" d="M 425 3934 
L 425 4581 
L 988 4581 
L 988 3934 
L 425 3934 
z
M 425 0 
L 425 3319 
L 988 3319 
L 988 0 
L 425 0 
z
" transform="scale(0.015625)"/>
        <path id="ArialMT-76" d="M 1344 0 
L 81 3319 
L 675 3319 
L 1388 1331 
Q 1503 1009 1600 663 
Q 1675 925 1809 1294 
L 2547 3319 
L 3125 3319 
L 1869 0 
L 1344 0 
z
" transform="scale(0.015625)"/>
        <path id="ArialMT-61" d="M 2588 409 
Q 2275 144 1986 34 
Q 1697 -75 1366 -75 
Q 819 -75 525 192 
Q 231 459 231 875 
Q 231 1119 342 1320 
Q 453 1522 633 1644 
Q 813 1766 1038 1828 
Q 1203 1872 1538 1913 
Q 2219 1994 2541 2106 
Q 2544 2222 2544 2253 
Q 2544 2597 2384 2738 
Q 2169 2928 1744 2928 
Q 1347 2928 1158 2789 
Q 969 2650 878 2297 
L 328 2372 
Q 403 2725 575 2942 
Q 747 3159 1072 3276 
Q 1397 3394 1825 3394 
Q 2250 3394 2515 3294 
Q 2781 3194 2906 3042 
Q 3031 2891 3081 2659 
Q 3109 2516 3109 2141 
L 3109 1391 
Q 3109 606 3145 398 
Q 3181 191 3288 0 
L 2700 0 
Q 2613 175 2588 409 
z
M 2541 1666 
Q 2234 1541 1622 1453 
Q 1275 1403 1131 1340 
Q 988 1278 909 1158 
Q 831 1038 831 891 
Q 831 666 1001 516 
Q 1172 366 1500 366 
Q 1825 366 2078 508 
Q 2331 650 2450 897 
Q 2541 1088 2541 1459 
L 2541 1666 
z
" transform="scale(0.015625)"/>
        <path id="ArialMT-62" d="M 941 0 
L 419 0 
L 419 4581 
L 981 4581 
L 981 2947 
Q 1338 3394 1891 3394 
Q 2197 3394 2470 3270 
Q 2744 3147 2920 2923 
Q 3097 2700 3197 2384 
Q 3297 2069 3297 1709 
Q 3297 856 2875 390 
Q 2453 -75 1863 -75 
Q 1275 -75 941 416 
L 941 0 
z
M 934 1684 
Q 934 1088 1097 822 
Q 1363 388 1816 388 
Q 2184 388 2453 708 
Q 2722 1028 2722 1663 
Q 2722 2313 2464 2622 
Q 2206 2931 1841 2931 
Q 1472 2931 1203 2611 
Q 934 2291 934 1684 
z
" transform="scale(0.015625)"/>
        <path id="ArialMT-6c" d="M 409 0 
L 409 4581 
L 972 4581 
L 972 0 
L 409 0 
z
" transform="scale(0.015625)"/>
        <path id="ArialMT-54" d="M 1659 0 
L 1659 4041 
L 150 4041 
L 150 4581 
L 3781 4581 
L 3781 4041 
L 2266 4041 
L 2266 0 
L 1659 0 
z
" transform="scale(0.015625)"/>
        <path id="ArialMT-72" d="M 416 0 
L 416 3319 
L 922 3319 
L 922 2816 
Q 1116 3169 1280 3281 
Q 1444 3394 1641 3394 
Q 1925 3394 2219 3213 
L 2025 2691 
Q 1819 2813 1613 2813 
Q 1428 2813 1281 2702 
Q 1134 2591 1072 2394 
Q 978 2094 978 1738 
L 978 0 
L 416 0 
z
" transform="scale(0.015625)"/>
       </defs>
       <use xlink:href="#ArialMT-20"/>
       <use xlink:href="#ArialMT-41" x="22.283203"/>
       <use xlink:href="#ArialMT-63" x="88.982422"/>
       <use xlink:href="#ArialMT-63" x="138.982422"/>
       <use xlink:href="#ArialMT-6f" x="188.982422"/>
       <use xlink:href="#ArialMT-75" x="244.597656"/>
       <use xlink:href="#ArialMT-6e" x="300.212891"/>
       <use xlink:href="#ArialMT-74" x="355.828125"/>
       <use xlink:href="#ArialMT-73" x="383.611328"/>
       <use xlink:href="#ArialMT-20" x="433.611328"/>
       <use xlink:href="#ArialMT-52" x="461.394531"/>
       <use xlink:href="#ArialMT-65" x="533.611328"/>
       <use xlink:href="#ArialMT-63" x="589.226562"/>
       <use xlink:href="#ArialMT-65" x="639.226562"/>
       <use xlink:href="#ArialMT-69" x="694.841797"/>
       <use xlink:href="#ArialMT-76" x="717.058594"/>
       <use xlink:href="#ArialMT-61" x="767.058594"/>
       <use xlink:href="#ArialMT-62" x="822.673828"/>
       <use xlink:href="#ArialMT-6c" x="878.289062"/>
       <use xlink:href="#ArialMT-65" x="900.505859"/>
       <use xlink:href="#ArialMT-20" x="956.121094"/>
       <use xlink:href="#ArialMT-54" x="982.154297"/>
       <use xlink:href="#ArialMT-75" x="1039.488281"/>
       <use xlink:href="#ArialMT-72" x="1095.103516"/>
       <use xlink:href="#ArialMT-6e" x="1128.404297"/>
       <use xlink:href="#ArialMT-6f" x="1184.019531"/>
       <use xlink:href="#ArialMT-76" x="1239.634766"/>
       <use xlink:href="#ArialMT-65" x="1289.634766"/>
       <use xlink:href="#ArialMT-72" x="1345.25"/>
      </g>
     </g>
    </g>
    <g id="xtick_2">
     <g id="text_2">
      <!--  Average Collection Days -->
      <g style="fill: #262626" transform="translate(173.959453 270.840781)scale(0.11 -0.11)">
       <defs>
        <path id="ArialMT-67" d="M 319 -275 
L 866 -356 
Q 900 -609 1056 -725 
Q 1266 -881 1628 -881 
Q 2019 -881 2231 -725 
Q 2444 -569 2519 -288 
Q 2563 -116 2559 434 
Q 2191 0 1641 0 
Q 956 0 581 494 
Q 206 988 206 1678 
Q 206 2153 378 2554 
Q 550 2956 876 3175 
Q 1203 3394 1644 3394 
Q 2231 3394 2613 2919 
L 2613 3319 
L 3131 3319 
L 3131 450 
Q 3131 -325 2973 -648 
Q 2816 -972 2473 -1159 
Q 2131 -1347 1631 -1347 
Q 1038 -1347 672 -1080 
Q 306 -813 319 -275 
z
M 784 1719 
Q 784 1066 1043 766 
Q 1303 466 1694 466 
Q 2081 466 2343 764 
Q 2606 1063 2606 1700 
Q 2606 2309 2336 2618 
Q 2066 2928 1684 2928 
Q 1309 2928 1046 2623 
Q 784 2319 784 1719 
z
" transform="scale(0.015625)"/>
        <path id="ArialMT-43" d="M 3763 1606 
L 4369 1453 
Q 4178 706 3683 314 
Q 3188 -78 2472 -78 
Q 1731 -78 1267 223 
Q 803 525 561 1097 
Q 319 1669 319 2325 
Q 319 3041 592 3573 
Q 866 4106 1370 4382 
Q 1875 4659 2481 4659 
Q 3169 4659 3637 4309 
Q 4106 3959 4291 3325 
L 3694 3184 
Q 3534 3684 3231 3912 
Q 2928 4141 2469 4141 
Q 1941 4141 1586 3887 
Q 1231 3634 1087 3207 
Q 944 2781 944 2328 
Q 944 1744 1114 1308 
Q 1284 872 1643 656 
Q 2003 441 2422 441 
Q 2931 441 3284 734 
Q 3638 1028 3763 1606 
z
" transform="scale(0.015625)"/>
        <path id="ArialMT-44" d="M 494 0 
L 494 4581 
L 2072 4581 
Q 2606 4581 2888 4516 
Q 3281 4425 3559 4188 
Q 3922 3881 4101 3404 
Q 4281 2928 4281 2316 
Q 4281 1794 4159 1391 
Q 4038 988 3847 723 
Q 3656 459 3429 307 
Q 3203 156 2883 78 
Q 2563 0 2147 0 
L 494 0 
z
M 1100 541 
L 2078 541 
Q 2531 541 2789 625 
Q 3047 709 3200 863 
Q 3416 1078 3536 1442 
Q 3656 1806 3656 2325 
Q 3656 3044 3420 3430 
Q 3184 3816 2847 3947 
Q 2603 4041 2063 4041 
L 1100 4041 
L 1100 541 
z
" transform="scale(0.015625)"/>
        <path id="ArialMT-79" d="M 397 -1278 
L 334 -750 
Q 519 -800 656 -800 
Q 844 -800 956 -737 
Q 1069 -675 1141 -563 
Q 1194 -478 1313 -144 
Q 1328 -97 1363 -6 
L 103 3319 
L 709 3319 
L 1400 1397 
Q 1534 1031 1641 628 
Q 1738 1016 1872 1384 
L 2581 3319 
L 3144 3319 
L 1881 -56 
Q 1678 -603 1566 -809 
Q 1416 -1088 1222 -1217 
Q 1028 -1347 759 -1347 
Q 597 -1347 397 -1278 
z
" transform="scale(0.015625)"/>
       </defs>
       <use xlink:href="#ArialMT-20"/>
       <use xlink:href="#ArialMT-41" x="22.283203"/>
       <use xlink:href="#ArialMT-76" x="87.232422"/>
       <use xlink:href="#ArialMT-65" x="137.232422"/>
       <use xlink:href="#ArialMT-72" x="192.847656"/>
       <use xlink:href="#ArialMT-61" x="226.148438"/>
       <use xlink:href="#ArialMT-67" x="281.763672"/>
       <use xlink:href="#ArialMT-65" x="337.378906"/>
       <use xlink:href="#ArialMT-20" x="392.994141"/>
       <use xlink:href="#ArialMT-43" x="420.777344"/>
       <use xlink:href="#ArialMT-6f" x="492.994141"/>
       <use xlink:href="#ArialMT-6c" x="548.609375"/>
       <use xlink:href="#ArialMT-6c" x="570.826172"/>
       <use xlink:href="#ArialMT-65" x="593.042969"/>
       <use xlink:href="#ArialMT-63" x="648.658203"/>
       <use xlink:href="#ArialMT-74" x="698.658203"/>
       <use xlink:href="#ArialMT-69" x="726.441406"/>
       <use xlink:href="#ArialMT-6f" x="748.658203"/>
       <use xlink:href="#ArialMT-6e" x="804.273438"/>
       <use xlink:href="#ArialMT-20" x="859.888672"/>
       <use xlink:href="#ArialMT-44" x="887.671875"/>
       <use xlink:href="#ArialMT-61" x="959.888672"/>
       <use xlink:href="#ArialMT-79" x="1015.503906"/>
       <use xlink:href="#ArialMT-73" x="1065.503906"/>
      </g>
     </g>
    </g>
    <g id="xtick_3">
     <g id="text_3">
      <!--  Inventory Turnover Rate (times) -->
      <g style="fill: #262626" transform="translate(284.079375 270.840781)scale(0.11 -0.11)">
       <defs>
        <path id="ArialMT-49" d="M 597 0 
L 597 4581 
L 1203 4581 
L 1203 0 
L 597 0 
z
" transform="scale(0.015625)"/>
        <path id="ArialMT-28" d="M 1497 -1347 
Q 1031 -759 709 28 
Q 388 816 388 1659 
Q 388 2403 628 3084 
Q 909 3875 1497 4659 
L 1900 4659 
Q 1522 4009 1400 3731 
Q 1209 3300 1100 2831 
Q 966 2247 966 1656 
Q 966 153 1900 -1347 
L 1497 -1347 
z
" transform="scale(0.015625)"/>
        <path id="ArialMT-6d" d="M 422 0 
L 422 3319 
L 925 3319 
L 925 2853 
Q 1081 3097 1340 3245 
Q 1600 3394 1931 3394 
Q 2300 3394 2536 3241 
Q 2772 3088 2869 2813 
Q 3263 3394 3894 3394 
Q 4388 3394 4653 3120 
Q 4919 2847 4919 2278 
L 4919 0 
L 4359 0 
L 4359 2091 
Q 4359 2428 4304 2576 
Q 4250 2725 4106 2815 
Q 3963 2906 3769 2906 
Q 3419 2906 3187 2673 
Q 2956 2441 2956 1928 
L 2956 0 
L 2394 0 
L 2394 2156 
Q 2394 2531 2256 2718 
Q 2119 2906 1806 2906 
Q 1569 2906 1367 2781 
Q 1166 2656 1075 2415 
Q 984 2175 984 1722 
L 984 0 
L 422 0 
z
" transform="scale(0.015625)"/>
        <path id="ArialMT-29" d="M 791 -1347 
L 388 -1347 
Q 1322 153 1322 1656 
Q 1322 2244 1188 2822 
Q 1081 3291 891 3722 
Q 769 4003 388 4659 
L 791 4659 
Q 1378 3875 1659 3084 
Q 1900 2403 1900 1659 
Q 1900 816 1576 28 
Q 1253 -759 791 -1347 
z
" transform="scale(0.015625)"/>
       </defs>
       <use xlink:href="#ArialMT-20"/>
       <use xlink:href="#ArialMT-49" x="27.783203"/>
       <use xlink:href="#ArialMT-6e" x="55.566406"/>
       <use xlink:href="#ArialMT-76" x="111.181641"/>
       <use xlink:href="#ArialMT-65" x="161.181641"/>
       <use xlink:href="#ArialMT-6e" x="216.796875"/>
       <use xlink:href="#ArialMT-74" x="272.412109"/>
       <use xlink:href="#ArialMT-6f" x="300.195312"/>
       <use xlink:href="#ArialMT-72" x="355.810547"/>
       <use xlink:href="#ArialMT-79" x="389.111328"/>
       <use xlink:href="#ArialMT-20" x="439.111328"/>
       <use xlink:href="#ArialMT-54" x="465.144531"/>
       <use xlink:href="#ArialMT-75" x="522.478516"/>
       <use xlink:href="#ArialMT-72" x="578.09375"/>
       <use xlink:href="#ArialMT-6e" x="611.394531"/>
       <use xlink:href="#ArialMT-6f" x="667.009766"/>
       <use xlink:href="#ArialMT-76" x="722.625"/>
       <use xlink:href="#ArialMT-65" x="772.625"/>
       <use xlink:href="#ArialMT-72" x="828.240234"/>
       <use xlink:href="#ArialMT-20" x="861.541016"/>
       <use xlink:href="#ArialMT-52" x="889.324219"/>
       <use xlink:href="#ArialMT-61" x="961.541016"/>
       <use xlink:href="#ArialMT-74" x="1017.15625"/>
       <use xlink:href="#ArialMT-65" x="1044.939453"/>
       <use xlink:href="#ArialMT-20" x="1100.554688"/>
       <use xlink:href="#ArialMT-28" x="1128.337891"/>
       <use xlink:href="#ArialMT-74" x="1161.638672"/>
       <use xlink:href="#ArialMT-69" x="1189.421875"/>
       <use xlink:href="#ArialMT-6d" x="1211.638672"/>
       <use xlink:href="#ArialMT-65" x="1294.939453"/>
       <use xlink:href="#ArialMT-73" x="1350.554688"/>
       <use xlink:href="#ArialMT-29" x="1400.554688"/>
      </g>
     </g>
    </g>
    <g id="xtick_4">
     <g id="text_4">
      <!--  Fixed Assets Turnover Frequency -->
      <g style="fill: #262626" transform="translate(407.112266 270.706719)scale(0.11 -0.11)">
       <defs>
        <path id="ArialMT-46" d="M 525 0 
L 525 4581 
L 3616 4581 
L 3616 4041 
L 1131 4041 
L 1131 2622 
L 3281 2622 
L 3281 2081 
L 1131 2081 
L 1131 0 
L 525 0 
z
" transform="scale(0.015625)"/>
        <path id="ArialMT-78" d="M 47 0 
L 1259 1725 
L 138 3319 
L 841 3319 
L 1350 2541 
Q 1494 2319 1581 2169 
Q 1719 2375 1834 2534 
L 2394 3319 
L 3066 3319 
L 1919 1756 
L 3153 0 
L 2463 0 
L 1781 1031 
L 1600 1309 
L 728 0 
L 47 0 
z
" transform="scale(0.015625)"/>
        <path id="ArialMT-64" d="M 2575 0 
L 2575 419 
Q 2259 -75 1647 -75 
Q 1250 -75 917 144 
Q 584 363 401 755 
Q 219 1147 219 1656 
Q 219 2153 384 2558 
Q 550 2963 881 3178 
Q 1213 3394 1622 3394 
Q 1922 3394 2156 3267 
Q 2391 3141 2538 2938 
L 2538 4581 
L 3097 4581 
L 3097 0 
L 2575 0 
z
M 797 1656 
Q 797 1019 1065 703 
Q 1334 388 1700 388 
Q 2069 388 2326 689 
Q 2584 991 2584 1609 
Q 2584 2291 2321 2609 
Q 2059 2928 1675 2928 
Q 1300 2928 1048 2622 
Q 797 2316 797 1656 
z
" transform="scale(0.015625)"/>
        <path id="ArialMT-71" d="M 2538 -1272 
L 2538 353 
Q 2406 169 2170 47 
Q 1934 -75 1669 -75 
Q 1078 -75 651 397 
Q 225 869 225 1691 
Q 225 2191 398 2587 
Q 572 2984 901 3189 
Q 1231 3394 1625 3394 
Q 2241 3394 2594 2875 
L 2594 3319 
L 3100 3319 
L 3100 -1272 
L 2538 -1272 
z
M 803 1669 
Q 803 1028 1072 708 
Q 1341 388 1716 388 
Q 2075 388 2334 692 
Q 2594 997 2594 1619 
Q 2594 2281 2320 2615 
Q 2047 2950 1678 2950 
Q 1313 2950 1058 2639 
Q 803 2328 803 1669 
z
" transform="scale(0.015625)"/>
       </defs>
       <use xlink:href="#ArialMT-20"/>
       <use xlink:href="#ArialMT-46" x="27.783203"/>
       <use xlink:href="#ArialMT-69" x="88.867188"/>
       <use xlink:href="#ArialMT-78" x="111.083984"/>
       <use xlink:href="#ArialMT-65" x="161.083984"/>
       <use xlink:href="#ArialMT-64" x="216.699219"/>
       <use xlink:href="#ArialMT-20" x="272.314453"/>
       <use xlink:href="#ArialMT-41" x="294.597656"/>
       <use xlink:href="#ArialMT-73" x="361.296875"/>
       <use xlink:href="#ArialMT-73" x="411.296875"/>
       <use xlink:href="#ArialMT-65" x="461.296875"/>
       <use xlink:href="#ArialMT-74" x="516.912109"/>
       <use xlink:href="#ArialMT-73" x="544.695312"/>
       <use xlink:href="#ArialMT-20" x="594.695312"/>
       <use xlink:href="#ArialMT-54" x="620.728516"/>
       <use xlink:href="#ArialMT-75" x="678.0625"/>
       <use xlink:href="#ArialMT-72" x="733.677734"/>
       <use xlink:href="#ArialMT-6e" x="766.978516"/>
       <use xlink:href="#ArialMT-6f" x="822.59375"/>
       <use xlink:href="#ArialMT-76" x="878.208984"/>
       <use xlink:href="#ArialMT-65" x="928.208984"/>
       <use xlink:href="#ArialMT-72" x="983.824219"/>
       <use xlink:href="#ArialMT-20" x="1017.125"/>
       <use xlink:href="#ArialMT-46" x="1044.908203"/>
       <use xlink:href="#ArialMT-72" x="1105.992188"/>
       <use xlink:href="#ArialMT-65" x="1139.292969"/>
       <use xlink:href="#ArialMT-71" x="1194.908203"/>
       <use xlink:href="#ArialMT-75" x="1250.523438"/>
       <use xlink:href="#ArialMT-65" x="1306.138672"/>
       <use xlink:href="#ArialMT-6e" x="1361.753906"/>
       <use xlink:href="#ArialMT-63" x="1417.369141"/>
       <use xlink:href="#ArialMT-79" x="1467.369141"/>
      </g>
     </g>
    </g>
    <g id="xtick_5">
     <g id="text_5">
      <!--  Revenue per person -->
      <g style="fill: #262626" transform="translate(566.825859 270.706719)scale(0.11 -0.11)">
       <defs>
        <path id="ArialMT-70" d="M 422 -1272 
L 422 3319 
L 934 3319 
L 934 2888 
Q 1116 3141 1344 3267 
Q 1572 3394 1897 3394 
Q 2322 3394 2647 3175 
Q 2972 2956 3137 2557 
Q 3303 2159 3303 1684 
Q 3303 1175 3120 767 
Q 2938 359 2589 142 
Q 2241 -75 1856 -75 
Q 1575 -75 1351 44 
Q 1128 163 984 344 
L 984 -1272 
L 422 -1272 
z
M 931 1641 
Q 931 1000 1190 694 
Q 1450 388 1819 388 
Q 2194 388 2461 705 
Q 2728 1022 2728 1688 
Q 2728 2322 2467 2637 
Q 2206 2953 1844 2953 
Q 1484 2953 1207 2617 
Q 931 2281 931 1641 
z
" transform="scale(0.015625)"/>
       </defs>
       <use xlink:href="#ArialMT-20"/>
       <use xlink:href="#ArialMT-52" x="27.783203"/>
       <use xlink:href="#ArialMT-65" x="100"/>
       <use xlink:href="#ArialMT-76" x="155.615234"/>
       <use xlink:href="#ArialMT-65" x="205.615234"/>
       <use xlink:href="#ArialMT-6e" x="261.230469"/>
       <use xlink:href="#ArialMT-75" x="316.845703"/>
       <use xlink:href="#ArialMT-65" x="372.460938"/>
       <use xlink:href="#ArialMT-20" x="428.076172"/>
       <use xlink:href="#ArialMT-70" x="455.859375"/>
       <use xlink:href="#ArialMT-65" x="511.474609"/>
       <use xlink:href="#ArialMT-72" x="567.089844"/>
       <use xlink:href="#ArialMT-20" x="600.390625"/>
       <use xlink:href="#ArialMT-70" x="628.173828"/>
       <use xlink:href="#ArialMT-65" x="683.789062"/>
       <use xlink:href="#ArialMT-72" x="739.404297"/>
       <use xlink:href="#ArialMT-73" x="772.705078"/>
       <use xlink:href="#ArialMT-6f" x="822.705078"/>
       <use xlink:href="#ArialMT-6e" x="878.320312"/>
      </g>
     </g>
    </g>
    <g id="xtick_6">
     <g id="text_6">
      <!--  Operating profit per person -->
      <g style="fill: #262626" transform="translate(678.560547 270.847656)scale(0.11 -0.11)">
       <defs>
        <path id="ArialMT-4f" d="M 309 2231 
Q 309 3372 921 4017 
Q 1534 4663 2503 4663 
Q 3138 4663 3647 4359 
Q 4156 4056 4423 3514 
Q 4691 2972 4691 2284 
Q 4691 1588 4409 1038 
Q 4128 488 3612 205 
Q 3097 -78 2500 -78 
Q 1853 -78 1343 234 
Q 834 547 571 1087 
Q 309 1628 309 2231 
z
M 934 2222 
Q 934 1394 1379 917 
Q 1825 441 2497 441 
Q 3181 441 3623 922 
Q 4066 1403 4066 2288 
Q 4066 2847 3877 3264 
Q 3688 3681 3323 3911 
Q 2959 4141 2506 4141 
Q 1863 4141 1398 3698 
Q 934 3256 934 2222 
z
" transform="scale(0.015625)"/>
        <path id="ArialMT-66" d="M 556 0 
L 556 2881 
L 59 2881 
L 59 3319 
L 556 3319 
L 556 3672 
Q 556 4006 616 4169 
Q 697 4388 901 4523 
Q 1106 4659 1475 4659 
Q 1713 4659 2000 4603 
L 1916 4113 
Q 1741 4144 1584 4144 
Q 1328 4144 1222 4034 
Q 1116 3925 1116 3625 
L 1116 3319 
L 1763 3319 
L 1763 2881 
L 1116 2881 
L 1116 0 
L 556 0 
z
" transform="scale(0.015625)"/>
       </defs>
       <use xlink:href="#ArialMT-20"/>
       <use xlink:href="#ArialMT-4f" x="27.783203"/>
       <use xlink:href="#ArialMT-70" x="105.566406"/>
       <use xlink:href="#ArialMT-65" x="161.181641"/>
       <use xlink:href="#ArialMT-72" x="216.796875"/>
       <use xlink:href="#ArialMT-61" x="250.097656"/>
       <use xlink:href="#ArialMT-74" x="305.712891"/>
       <use xlink:href="#ArialMT-69" x="333.496094"/>
       <use xlink:href="#ArialMT-6e" x="355.712891"/>
       <use xlink:href="#ArialMT-67" x="411.328125"/>
       <use xlink:href="#ArialMT-20" x="466.943359"/>
       <use xlink:href="#ArialMT-70" x="494.726562"/>
       <use xlink:href="#ArialMT-72" x="550.341797"/>
       <use xlink:href="#ArialMT-6f" x="583.642578"/>
       <use xlink:href="#ArialMT-66" x="639.257812"/>
       <use xlink:href="#ArialMT-69" x="667.041016"/>
       <use xlink:href="#ArialMT-74" x="689.257812"/>
       <use xlink:href="#ArialMT-20" x="717.041016"/>
       <use xlink:href="#ArialMT-70" x="744.824219"/>
       <use xlink:href="#ArialMT-65" x="800.439453"/>
       <use xlink:href="#ArialMT-72" x="856.054688"/>
       <use xlink:href="#ArialMT-20" x="889.355469"/>
       <use xlink:href="#ArialMT-70" x="917.138672"/>
       <use xlink:href="#ArialMT-65" x="972.753906"/>
       <use xlink:href="#ArialMT-72" x="1028.369141"/>
       <use xlink:href="#ArialMT-73" x="1061.669922"/>
       <use xlink:href="#ArialMT-6f" x="1111.669922"/>
       <use xlink:href="#ArialMT-6e" x="1167.285156"/>
      </g>
     </g>
    </g>
    <g id="xtick_7">
     <g id="text_7">
      <!--  Allocation rate per person -->
      <g style="fill: #262626" transform="translate(809.544375 270.706719)scale(0.11 -0.11)">
       <use xlink:href="#ArialMT-20"/>
       <use xlink:href="#ArialMT-41" x="22.283203"/>
       <use xlink:href="#ArialMT-6c" x="88.982422"/>
       <use xlink:href="#ArialMT-6c" x="111.199219"/>
       <use xlink:href="#ArialMT-6f" x="133.416016"/>
       <use xlink:href="#ArialMT-63" x="189.03125"/>
       <use xlink:href="#ArialMT-61" x="239.03125"/>
       <use xlink:href="#ArialMT-74" x="294.646484"/>
       <use xlink:href="#ArialMT-69" x="322.429688"/>
       <use xlink:href="#ArialMT-6f" x="344.646484"/>
       <use xlink:href="#ArialMT-6e" x="400.261719"/>
       <use xlink:href="#ArialMT-20" x="455.876953"/>
       <use xlink:href="#ArialMT-72" x="483.660156"/>
       <use xlink:href="#ArialMT-61" x="516.960938"/>
       <use xlink:href="#ArialMT-74" x="572.576172"/>
       <use xlink:href="#ArialMT-65" x="600.359375"/>
       <use xlink:href="#ArialMT-20" x="655.974609"/>
       <use xlink:href="#ArialMT-70" x="683.757812"/>
       <use xlink:href="#ArialMT-65" x="739.373047"/>
       <use xlink:href="#ArialMT-72" x="794.988281"/>
       <use xlink:href="#ArialMT-20" x="828.289062"/>
       <use xlink:href="#ArialMT-70" x="856.072266"/>
       <use xlink:href="#ArialMT-65" x="911.6875"/>
       <use xlink:href="#ArialMT-72" x="967.302734"/>
       <use xlink:href="#ArialMT-73" x="1000.603516"/>
       <use xlink:href="#ArialMT-6f" x="1050.603516"/>
       <use xlink:href="#ArialMT-6e" x="1106.21875"/>
      </g>
     </g>
    </g>
    <g id="xtick_8">
     <g id="text_8">
      <!--  Cash/Total Assets -->
      <g style="fill: #262626" transform="translate(955.826797 270.706719)scale(0.11 -0.11)">
       <defs>
        <path id="ArialMT-68" d="M 422 0 
L 422 4581 
L 984 4581 
L 984 2938 
Q 1378 3394 1978 3394 
Q 2347 3394 2619 3248 
Q 2891 3103 3008 2847 
Q 3125 2591 3125 2103 
L 3125 0 
L 2563 0 
L 2563 2103 
Q 2563 2525 2380 2717 
Q 2197 2909 1863 2909 
Q 1613 2909 1392 2779 
Q 1172 2650 1078 2428 
Q 984 2206 984 1816 
L 984 0 
L 422 0 
z
" transform="scale(0.015625)"/>
        <path id="ArialMT-2f" d="M 0 -78 
L 1328 4659 
L 1778 4659 
L 453 -78 
L 0 -78 
z
" transform="scale(0.015625)"/>
       </defs>
       <use xlink:href="#ArialMT-20"/>
       <use xlink:href="#ArialMT-43" x="27.783203"/>
       <use xlink:href="#ArialMT-61" x="100"/>
       <use xlink:href="#ArialMT-73" x="155.615234"/>
       <use xlink:href="#ArialMT-68" x="205.615234"/>
       <use xlink:href="#ArialMT-2f" x="261.230469"/>
       <use xlink:href="#ArialMT-54" x="289.013672"/>
       <use xlink:href="#ArialMT-6f" x="338.972656"/>
       <use xlink:href="#ArialMT-74" x="394.587891"/>
       <use xlink:href="#ArialMT-61" x="422.371094"/>
       <use xlink:href="#ArialMT-6c" x="477.986328"/>
       <use xlink:href="#ArialMT-20" x="500.203125"/>
       <use xlink:href="#ArialMT-41" x="522.486328"/>
       <use xlink:href="#ArialMT-73" x="589.185547"/>
       <use xlink:href="#ArialMT-73" x="639.185547"/>
       <use xlink:href="#ArialMT-65" x="689.185547"/>
       <use xlink:href="#ArialMT-74" x="744.800781"/>
       <use xlink:href="#ArialMT-73" x="772.583984"/>
      </g>
     </g>
    </g>
   </g>
   <g id="matplotlib.axis_2">
    <g id="ytick_1">
     <g id="line2d_1">
      <path d="M 43.87 237.384813 
L 1064.88 237.384813 
" clip-path="url(#p224dc32d46)" style="fill: none; stroke: #cbcbcb"/>
     </g>
     <g id="text_9">
      <!-- −2.5 -->
      <g style="fill: #262626" transform="translate(15.155312 241.32161)scale(0.11 -0.11)">
       <defs>
        <path id="ArialMT-2212" d="M 3381 1997 
L 356 1997 
L 356 2522 
L 3381 2522 
L 3381 1997 
z
" transform="scale(0.015625)"/>
        <path id="ArialMT-32" d="M 3222 541 
L 3222 0 
L 194 0 
Q 188 203 259 391 
Q 375 700 629 1000 
Q 884 1300 1366 1694 
Q 2113 2306 2375 2664 
Q 2638 3022 2638 3341 
Q 2638 3675 2398 3904 
Q 2159 4134 1775 4134 
Q 1369 4134 1125 3890 
Q 881 3647 878 3216 
L 300 3275 
Q 359 3922 746 4261 
Q 1134 4600 1788 4600 
Q 2447 4600 2831 4234 
Q 3216 3869 3216 3328 
Q 3216 3053 3103 2787 
Q 2991 2522 2730 2228 
Q 2469 1934 1863 1422 
Q 1356 997 1212 845 
Q 1069 694 975 541 
L 3222 541 
z
" transform="scale(0.015625)"/>
        <path id="ArialMT-2e" d="M 581 0 
L 581 641 
L 1222 641 
L 1222 0 
L 581 0 
z
" transform="scale(0.015625)"/>
        <path id="ArialMT-35" d="M 266 1200 
L 856 1250 
Q 922 819 1161 601 
Q 1400 384 1738 384 
Q 2144 384 2425 690 
Q 2706 997 2706 1503 
Q 2706 1984 2436 2262 
Q 2166 2541 1728 2541 
Q 1456 2541 1237 2417 
Q 1019 2294 894 2097 
L 366 2166 
L 809 4519 
L 3088 4519 
L 3088 3981 
L 1259 3981 
L 1013 2750 
Q 1425 3038 1878 3038 
Q 2478 3038 2890 2622 
Q 3303 2206 3303 1553 
Q 3303 931 2941 478 
Q 2500 -78 1738 -78 
Q 1113 -78 717 272 
Q 322 622 266 1200 
z
" transform="scale(0.015625)"/>
       </defs>
       <use xlink:href="#ArialMT-2212"/>
       <use xlink:href="#ArialMT-32" x="58.398438"/>
       <use xlink:href="#ArialMT-2e" x="114.013672"/>
       <use xlink:href="#ArialMT-35" x="141.796875"/>
      </g>
     </g>
    </g>
    <g id="ytick_2">
     <g id="line2d_2">
      <path d="M 43.87 208.657968 
L 1064.88 208.657968 
" clip-path="url(#p224dc32d46)" style="fill: none; stroke: #cbcbcb"/>
     </g>
     <g id="text_10">
      <!-- 0.0 -->
      <g style="fill: #262626" transform="translate(21.58 212.594764)scale(0.11 -0.11)">
       <defs>
        <path id="ArialMT-30" d="M 266 2259 
Q 266 3072 433 3567 
Q 600 4063 929 4331 
Q 1259 4600 1759 4600 
Q 2128 4600 2406 4451 
Q 2684 4303 2865 4023 
Q 3047 3744 3150 3342 
Q 3253 2941 3253 2259 
Q 3253 1453 3087 958 
Q 2922 463 2592 192 
Q 2263 -78 1759 -78 
Q 1097 -78 719 397 
Q 266 969 266 2259 
z
M 844 2259 
Q 844 1131 1108 757 
Q 1372 384 1759 384 
Q 2147 384 2411 759 
Q 2675 1134 2675 2259 
Q 2675 3391 2411 3762 
Q 2147 4134 1753 4134 
Q 1366 4134 1134 3806 
Q 844 3388 844 2259 
z
" transform="scale(0.015625)"/>
       </defs>
       <use xlink:href="#ArialMT-30"/>
       <use xlink:href="#ArialMT-2e" x="55.615234"/>
       <use xlink:href="#ArialMT-30" x="83.398438"/>
      </g>
     </g>
    </g>
    <g id="ytick_3">
     <g id="line2d_3">
      <path d="M 43.87 179.931122 
L 1064.88 179.931122 
" clip-path="url(#p224dc32d46)" style="fill: none; stroke: #cbcbcb"/>
     </g>
     <g id="text_11">
      <!-- 2.5 -->
      <g style="fill: #262626" transform="translate(21.58 183.867919)scale(0.11 -0.11)">
       <use xlink:href="#ArialMT-32"/>
       <use xlink:href="#ArialMT-2e" x="55.615234"/>
       <use xlink:href="#ArialMT-35" x="83.398438"/>
      </g>
     </g>
    </g>
    <g id="ytick_4">
     <g id="line2d_4">
      <path d="M 43.87 151.204276 
L 1064.88 151.204276 
" clip-path="url(#p224dc32d46)" style="fill: none; stroke: #cbcbcb"/>
     </g>
     <g id="text_12">
      <!-- 5.0 -->
      <g style="fill: #262626" transform="translate(21.58 155.141073)scale(0.11 -0.11)">
       <use xlink:href="#ArialMT-35"/>
       <use xlink:href="#ArialMT-2e" x="55.615234"/>
       <use xlink:href="#ArialMT-30" x="83.398438"/>
      </g>
     </g>
    </g>
    <g id="ytick_5">
     <g id="line2d_5">
      <path d="M 43.87 122.47743 
L 1064.88 122.47743 
" clip-path="url(#p224dc32d46)" style="fill: none; stroke: #cbcbcb"/>
     </g>
     <g id="text_13">
      <!-- 7.5 -->
      <g style="fill: #262626" transform="translate(21.58 126.414227)scale(0.11 -0.11)">
       <defs>
        <path id="ArialMT-37" d="M 303 3981 
L 303 4522 
L 3269 4522 
L 3269 4084 
Q 2831 3619 2401 2847 
Q 1972 2075 1738 1259 
Q 1569 684 1522 0 
L 944 0 
Q 953 541 1156 1306 
Q 1359 2072 1739 2783 
Q 2119 3494 2547 3981 
L 303 3981 
z
" transform="scale(0.015625)"/>
       </defs>
       <use xlink:href="#ArialMT-37"/>
       <use xlink:href="#ArialMT-2e" x="55.615234"/>
       <use xlink:href="#ArialMT-35" x="83.398438"/>
      </g>
     </g>
    </g>
    <g id="ytick_6">
     <g id="line2d_6">
      <path d="M 43.87 93.750584 
L 1064.88 93.750584 
" clip-path="url(#p224dc32d46)" style="fill: none; stroke: #cbcbcb"/>
     </g>
     <g id="text_14">
      <!-- 10.0 -->
      <g style="fill: #262626" transform="translate(15.462969 97.687381)scale(0.11 -0.11)">
       <defs>
        <path id="ArialMT-31" d="M 2384 0 
L 1822 0 
L 1822 3584 
Q 1619 3391 1289 3197 
Q 959 3003 697 2906 
L 697 3450 
Q 1169 3672 1522 3987 
Q 1875 4303 2022 4600 
L 2384 4600 
L 2384 0 
z
" transform="scale(0.015625)"/>
       </defs>
       <use xlink:href="#ArialMT-31"/>
       <use xlink:href="#ArialMT-30" x="55.615234"/>
       <use xlink:href="#ArialMT-2e" x="111.230469"/>
       <use xlink:href="#ArialMT-30" x="139.013672"/>
      </g>
     </g>
    </g>
    <g id="ytick_7">
     <g id="line2d_7">
      <path d="M 43.87 65.023739 
L 1064.88 65.023739 
" clip-path="url(#p224dc32d46)" style="fill: none; stroke: #cbcbcb"/>
     </g>
     <g id="text_15">
      <!-- 12.5 -->
      <g style="fill: #262626" transform="translate(15.462969 68.960535)scale(0.11 -0.11)">
       <use xlink:href="#ArialMT-31"/>
       <use xlink:href="#ArialMT-32" x="55.615234"/>
       <use xlink:href="#ArialMT-2e" x="111.230469"/>
       <use xlink:href="#ArialMT-35" x="139.013672"/>
      </g>
     </g>
    </g>
   </g>
   <g id="PolyCollection_1">
    <defs>
     <path id="m29181651d9" d="M 108.400315 -68.550409 
L 106.965935 -68.550409 
L 103.013045 -70.223053 
L 90.521623 -71.895697 
L 70.399629 -73.56834 
L 56.632625 -75.240984 
L 59.50054 -76.913628 
L 72.385229 -78.586271 
L 84.849518 -80.258915 
L 93.416954 -81.931559 
L 98.840778 -83.604202 
L 102.071333 -85.276846 
L 103.75996 -86.94949 
L 104.676066 -88.622133 
L 105.307524 -90.294777 
L 105.75325 -91.967421 
L 106.087881 -93.640064 
L 106.384194 -95.312708 
L 106.654379 -96.985351 
L 106.876485 -98.657995 
L 107.040924 -100.330639 
L 107.153562 -102.003282 
L 107.241783 -103.675926 
L 107.290499 -105.34857 
L 107.277671 -107.021213 
L 107.252058 -108.693857 
L 107.262446 -110.366501 
L 107.279654 -112.039144 
L 107.29211 -113.711788 
L 107.348082 -115.384432 
L 107.427823 -117.057075 
L 107.482194 -118.729719 
L 107.519665 -120.402363 
L 107.52953 -122.075006 
L 107.506637 -123.74765 
L 107.507537 -125.420293 
L 107.546213 -127.092937 
L 107.567892 -128.765581 
L 107.548081 -130.438224 
L 107.535952 -132.110868 
L 107.555269 -133.783512 
L 107.569899 -135.456155 
L 107.576443 -137.128799 
L 107.588447 -138.801443 
L 107.603278 -140.474086 
L 107.610535 -142.14673 
L 107.611727 -143.819374 
L 107.620032 -145.492017 
L 107.632711 -147.164661 
L 107.64509 -148.837305 
L 107.656039 -150.509948 
L 107.659347 -152.182592 
L 107.646951 -153.855236 
L 107.621568 -155.527879 
L 107.595428 -157.200523 
L 107.586809 -158.873166 
L 107.599222 -160.54581 
L 107.598978 -162.218454 
L 107.586577 -163.891097 
L 107.596253 -165.563741 
L 107.621218 -167.236385 
L 107.639357 -168.909028 
L 107.646252 -170.581672 
L 107.651159 -172.254316 
L 107.65526 -173.926959 
L 107.648617 -175.599603 
L 107.63772 -177.272247 
L 107.631703 -178.94489 
L 107.63256 -180.617534 
L 107.64738 -182.290178 
L 107.666073 -183.962821 
L 107.67075 -185.635465 
L 107.665187 -187.308109 
L 107.658297 -188.980752 
L 107.650971 -190.653396 
L 107.649474 -192.326039 
L 107.653699 -193.998683 
L 107.654954 -195.671327 
L 107.65334 -197.34397 
L 107.658308 -199.016614 
L 107.668875 -200.689258 
L 107.670236 -202.361901 
L 107.658658 -204.034545 
L 107.64907 -205.707189 
L 107.649496 -207.379832 
L 107.651999 -209.052476 
L 107.653346 -210.72512 
L 107.655376 -212.397763 
L 107.657839 -214.070407 
L 107.658839 -215.743051 
L 107.656233 -217.415694 
L 107.653469 -219.088338 
L 107.660671 -220.760981 
L 107.672041 -222.433625 
L 107.673546 -224.106269 
L 107.66564 -225.778912 
L 107.656467 -227.451556 
L 107.651553 -229.1242 
L 107.658051 -230.796843 
L 107.671907 -232.469487 
L 107.680509 -234.142131 
L 107.685741 -234.142131 
L 107.685741 -234.142131 
L 107.694343 -232.469487 
L 107.708199 -230.796843 
L 107.714697 -229.1242 
L 107.709783 -227.451556 
L 107.70061 -225.778912 
L 107.692704 -224.106269 
L 107.694209 -222.433625 
L 107.705579 -220.760981 
L 107.712781 -219.088338 
L 107.710017 -217.415694 
L 107.707411 -215.743051 
L 107.708411 -214.070407 
L 107.710874 -212.397763 
L 107.712904 -210.72512 
L 107.714251 -209.052476 
L 107.716754 -207.379832 
L 107.71718 -205.707189 
L 107.707592 -204.034545 
L 107.696014 -202.361901 
L 107.697375 -200.689258 
L 107.707942 -199.016614 
L 107.71291 -197.34397 
L 107.711296 -195.671327 
L 107.712551 -193.998683 
L 107.716776 -192.326039 
L 107.715279 -190.653396 
L 107.707953 -188.980752 
L 107.701063 -187.308109 
L 107.6955 -185.635465 
L 107.700177 -183.962821 
L 107.71887 -182.290178 
L 107.73369 -180.617534 
L 107.734547 -178.94489 
L 107.72853 -177.272247 
L 107.717633 -175.599603 
L 107.71099 -173.926959 
L 107.715091 -172.254316 
L 107.719998 -170.581672 
L 107.726893 -168.909028 
L 107.745032 -167.236385 
L 107.769997 -165.563741 
L 107.779673 -163.891097 
L 107.767272 -162.218454 
L 107.767028 -160.54581 
L 107.779441 -158.873166 
L 107.770822 -157.200523 
L 107.744682 -155.527879 
L 107.719299 -153.855236 
L 107.706903 -152.182592 
L 107.710211 -150.509948 
L 107.72116 -148.837305 
L 107.733539 -147.164661 
L 107.746218 -145.492017 
L 107.754523 -143.819374 
L 107.755715 -142.14673 
L 107.762972 -140.474086 
L 107.777803 -138.801443 
L 107.789807 -137.128799 
L 107.796351 -135.456155 
L 107.810981 -133.783512 
L 107.830298 -132.110868 
L 107.818169 -130.438224 
L 107.798358 -128.765581 
L 107.820037 -127.092937 
L 107.858713 -125.420293 
L 107.859613 -123.74765 
L 107.83672 -122.075006 
L 107.846585 -120.402363 
L 107.884056 -118.729719 
L 107.938427 -117.057075 
L 108.018168 -115.384432 
L 108.07414 -113.711788 
L 108.086596 -112.039144 
L 108.103804 -110.366501 
L 108.114192 -108.693857 
L 108.088579 -107.021213 
L 108.075751 -105.34857 
L 108.124467 -103.675926 
L 108.212688 -102.003282 
L 108.325326 -100.330639 
L 108.489765 -98.657995 
L 108.711871 -96.985351 
L 108.982056 -95.312708 
L 109.278369 -93.640064 
L 109.613 -91.967421 
L 110.058726 -90.294777 
L 110.690184 -88.622133 
L 111.60629 -86.94949 
L 113.294917 -85.276846 
L 116.525472 -83.604202 
L 121.949296 -81.931559 
L 130.516732 -80.258915 
L 142.981021 -78.586271 
L 155.86571 -76.913628 
L 158.733625 -75.240984 
L 144.966621 -73.56834 
L 124.844627 -71.895697 
L 112.353205 -70.223053 
L 108.400315 -68.550409 
z
" style="stroke: #3e3e3e; stroke-width: 3"/>
    </defs>
    <g clip-path="url(#p224dc32d46)">
     <use xlink:href="#m29181651d9" x="0" y="288" style="fill: #cb3335; stroke: #3e3e3e; stroke-width: 3"/>
    </g>
   </g>
   <g id="PolyCollection_2">
    <defs>
     <path id="mb53c77a154" d="M 235.56498 -53.472723 
L 235.05377 -53.472723 
L 234.672529 -54.297259 
L 233.934814 -55.121795 
L 232.718915 -55.94633 
L 231.001298 -56.770866 
L 228.896914 -57.595402 
L 226.611234 -58.419937 
L 224.329217 -59.244473 
L 222.133919 -60.069009 
L 220.0167 -60.893544 
L 217.939791 -61.71808 
L 215.864039 -62.542616 
L 213.717365 -63.367151 
L 211.369611 -64.191687 
L 208.684208 -65.016223 
L 205.629472 -65.840758 
L 202.351226 -66.665294 
L 199.126377 -67.48983 
L 196.219906 -68.314365 
L 193.75229 -69.138901 
L 191.673928 -69.963437 
L 189.856053 -70.787972 
L 188.218479 -71.612508 
L 186.790618 -72.437044 
L 185.665557 -73.261579 
L 184.903541 -74.086115 
L 184.47619 -74.910651 
L 184.290059 -75.735186 
L 184.258875 -76.559722 
L 184.369908 -77.384258 
L 184.700109 -78.208793 
L 185.361415 -79.033329 
L 186.401819 -79.857865 
L 187.740176 -80.6824 
L 189.202171 -81.506936 
L 190.638885 -82.331472 
L 192.033503 -83.156008 
L 193.512024 -83.980543 
L 195.248813 -84.805079 
L 197.333384 -85.629615 
L 199.697646 -86.45415 
L 202.162259 -87.278686 
L 204.55891 -88.103222 
L 206.817956 -88.927757 
L 208.959416 -89.752293 
L 211.028479 -90.576829 
L 213.04609 -91.401364 
L 214.991502 -92.2259 
L 216.800398 -93.050436 
L 218.385545 -93.874971 
L 219.691908 -94.699507 
L 220.750988 -95.524043 
L 221.676162 -96.348578 
L 222.593915 -97.173114 
L 223.570632 -97.99765 
L 224.59183 -98.822185 
L 225.59657 -99.646721 
L 226.529863 -100.471257 
L 227.374889 -101.295792 
L 228.148796 -102.120328 
L 228.873272 -102.944864 
L 229.549201 -103.769399 
L 230.157505 -104.593935 
L 230.680098 -105.418471 
L 231.116323 -106.243006 
L 231.481166 -107.067542 
L 231.793579 -107.892078 
L 232.06852 -108.716613 
L 232.315542 -109.541149 
L 232.539473 -110.365685 
L 232.741904 -111.19022 
L 232.925813 -112.014756 
L 233.10205 -112.839292 
L 233.290244 -113.663827 
L 233.508389 -114.488363 
L 233.756788 -115.312899 
L 234.011424 -116.137434 
L 234.235753 -116.96197 
L 234.402189 -117.786506 
L 234.505344 -118.611041 
L 234.559062 -119.435577 
L 234.585025 -120.260113 
L 234.603576 -121.084648 
L 234.628934 -121.909184 
L 234.666127 -122.73372 
L 234.710613 -123.558255 
L 234.75372 -124.382791 
L 234.791678 -125.207327 
L 234.830131 -126.031862 
L 234.878874 -126.856398 
L 234.941489 -127.680934 
L 235.010689 -128.505469 
L 235.074358 -129.330005 
L 235.125547 -130.154541 
L 235.166067 -130.979076 
L 235.201469 -131.803612 
L 235.234411 -132.628148 
L 235.263117 -133.452683 
L 235.284628 -134.277219 
L 235.298052 -135.101755 
L 235.320698 -135.101755 
L 235.320698 -135.101755 
L 235.334122 -134.277219 
L 235.355633 -133.452683 
L 235.384339 -132.628148 
L 235.417281 -131.803612 
L 235.452683 -130.979076 
L 235.493203 -130.154541 
L 235.544392 -129.330005 
L 235.608061 -128.505469 
L 235.677261 -127.680934 
L 235.739876 -126.856398 
L 235.788619 -126.031862 
L 235.827072 -125.207327 
L 235.86503 -124.382791 
L 235.908137 -123.558255 
L 235.952623 -122.73372 
L 235.989816 -121.909184 
L 236.015174 -121.084648 
L 236.033725 -120.260113 
L 236.059688 -119.435577 
L 236.113406 -118.611041 
L 236.216561 -117.786506 
L 236.382997 -116.96197 
L 236.607326 -116.137434 
L 236.861962 -115.312899 
L 237.110361 -114.488363 
L 237.328506 -113.663827 
L 237.5167 -112.839292 
L 237.692937 -112.014756 
L 237.876846 -111.19022 
L 238.079277 -110.365685 
L 238.303208 -109.541149 
L 238.55023 -108.716613 
L 238.825171 -107.892078 
L 239.137584 -107.067542 
L 239.502427 -106.243006 
L 239.938652 -105.418471 
L 240.461245 -104.593935 
L 241.069549 -103.769399 
L 241.745478 -102.944864 
L 242.469954 -102.120328 
L 243.243861 -101.295792 
L 244.088887 -100.471257 
L 245.02218 -99.646721 
L 246.02692 -98.822185 
L 247.048118 -97.99765 
L 248.024835 -97.173114 
L 248.942588 -96.348578 
L 249.867762 -95.524043 
L 250.926842 -94.699507 
L 252.233205 -93.874971 
L 253.818352 -93.050436 
L 255.627248 -92.2259 
L 257.57266 -91.401364 
L 259.590271 -90.576829 
L 261.659334 -89.752293 
L 263.800794 -88.927757 
L 266.05984 -88.103222 
L 268.456491 -87.278686 
L 270.921104 -86.45415 
L 273.285366 -85.629615 
L 275.369937 -84.805079 
L 277.106726 -83.980543 
L 278.585247 -83.156008 
L 279.979865 -82.331472 
L 281.416579 -81.506936 
L 282.878574 -80.6824 
L 284.216931 -79.857865 
L 285.257335 -79.033329 
L 285.918641 -78.208793 
L 286.248842 -77.384258 
L 286.359875 -76.559722 
L 286.328691 -75.735186 
L 286.14256 -74.910651 
L 285.715209 -74.086115 
L 284.953193 -73.261579 
L 283.828132 -72.437044 
L 282.400271 -71.612508 
L 280.762697 -70.787972 
L 278.944822 -69.963437 
L 276.86646 -69.138901 
L 274.398844 -68.314365 
L 271.492373 -67.48983 
L 268.267524 -66.665294 
L 264.989278 -65.840758 
L 261.934542 -65.016223 
L 259.249139 -64.191687 
L 256.901385 -63.367151 
L 254.754711 -62.542616 
L 252.678959 -61.71808 
L 250.60205 -60.893544 
L 248.484831 -60.069009 
L 246.289533 -59.244473 
L 244.007516 -58.419937 
L 241.721836 -57.595402 
L 239.617452 -56.770866 
L 237.899835 -55.94633 
L 236.683936 -55.121795 
L 235.946221 -54.297259 
L 235.56498 -53.472723 
z
" style="stroke: #3e3e3e; stroke-width: 3"/>
    </defs>
    <g clip-path="url(#p224dc32d46)">
     <use xlink:href="#mb53c77a154" x="0" y="288" style="fill: #477ca8; stroke: #3e3e3e; stroke-width: 3"/>
    </g>
   </g>
   <g id="PolyCollection_3">
    <defs>
     <path id="m126acc7408" d="M 369.544936 -67.664204 
L 356.326314 -67.664204 
L 352.90711 -68.099454 
L 348.429341 -68.534704 
L 342.929913 -68.969954 
L 336.628004 -69.405204 
L 329.943781 -69.840454 
L 323.470008 -70.275705 
L 317.891473 -70.710955 
L 313.864474 -71.146205 
L 311.885125 -71.581455 
L 312.183363 -72.016705 
L 314.674633 -72.451955 
L 318.98387 -72.887205 
L 324.533384 -73.322455 
L 330.66669 -73.757705 
L 336.772014 -74.192955 
L 342.374173 -74.628205 
L 347.178295 -75.063455 
L 351.066188 -75.498705 
L 354.059205 -75.933955 
L 356.26666 -76.369205 
L 357.836542 -76.804455 
L 358.918679 -77.239705 
L 359.643315 -77.674955 
L 360.112898 -78.110205 
L 360.402593 -78.545455 
L 360.565063 -78.980705 
L 360.636344 -79.415955 
L 360.641058 -79.851205 
L 360.596363 -80.286455 
L 360.51466 -80.721705 
L 360.405312 -81.156955 
L 360.275721 -81.592205 
L 360.131996 -82.027455 
L 359.979423 -82.462705 
L 359.82276 -82.897955 
L 359.666377 -83.333205 
L 359.514171 -83.768455 
L 359.369262 -84.203705 
L 359.233555 -84.638955 
L 359.107358 -85.074206 
L 358.989252 -85.509456 
L 358.876383 -85.944706 
L 358.765157 -86.379956 
L 358.652202 -86.815206 
L 358.535304 -87.250456 
L 358.414092 -87.685706 
L 358.290274 -88.120956 
L 358.167443 -88.556206 
L 358.050524 -88.991456 
L 357.945063 -89.426706 
L 357.856483 -89.861956 
L 357.789415 -90.297206 
L 357.747161 -90.732456 
L 357.731264 -91.167706 
L 357.741204 -91.602956 
L 357.774227 -92.038206 
L 357.825331 -92.473456 
L 357.887505 -92.908706 
L 357.95228 -93.343956 
L 358.01063 -93.779206 
L 358.054182 -94.214456 
L 358.076503 -94.649706 
L 358.074185 -95.084956 
L 358.047355 -95.520206 
L 357.999413 -95.955456 
L 357.935992 -96.390706 
L 357.863435 -96.825956 
L 357.787245 -97.261206 
L 357.710975 -97.696456 
L 357.63585 -98.131706 
L 357.561169 -98.566956 
L 357.485279 -99.002206 
L 357.406787 -99.437457 
L 357.325681 -99.872707 
L 357.244093 -100.307957 
L 357.166574 -100.743207 
L 357.099844 -101.178457 
L 357.052122 -101.613707 
L 357.032204 -102.048957 
L 357.048578 -102.484207 
L 357.108781 -102.919457 
L 357.219128 -103.354707 
L 357.384703 -103.789957 
L 357.609349 -104.225207 
L 357.895318 -104.660457 
L 358.242434 -105.095707 
L 358.646877 -105.530957 
L 359.100046 -105.966207 
L 359.588063 -106.401457 
L 360.092398 -106.836707 
L 360.591706 -107.271957 
L 361.064558 -107.707207 
L 361.492385 -108.142457 
L 361.86189 -108.577707 
L 362.166342 -109.012957 
L 362.40556 -109.448207 
L 362.584761 -109.883457 
L 362.71273 -110.318707 
L 362.799835 -110.753957 
L 363.071415 -110.753957 
L 363.071415 -110.753957 
L 363.15852 -110.318707 
L 363.286489 -109.883457 
L 363.46569 -109.448207 
L 363.704908 -109.012957 
L 364.00936 -108.577707 
L 364.378865 -108.142457 
L 364.806692 -107.707207 
L 365.279544 -107.271957 
L 365.778852 -106.836707 
L 366.283187 -106.401457 
L 366.771204 -105.966207 
L 367.224373 -105.530957 
L 367.628816 -105.095707 
L 367.975932 -104.660457 
L 368.261901 -104.225207 
L 368.486547 -103.789957 
L 368.652122 -103.354707 
L 368.762469 -102.919457 
L 368.822672 -102.484207 
L 368.839046 -102.048957 
L 368.819128 -101.613707 
L 368.771406 -101.178457 
L 368.704676 -100.743207 
L 368.627157 -100.307957 
L 368.545569 -99.872707 
L 368.464463 -99.437457 
L 368.385971 -99.002206 
L 368.310081 -98.566956 
L 368.2354 -98.131706 
L 368.160275 -97.696456 
L 368.084005 -97.261206 
L 368.007815 -96.825956 
L 367.935258 -96.390706 
L 367.871837 -95.955456 
L 367.823895 -95.520206 
L 367.797065 -95.084956 
L 367.794747 -94.649706 
L 367.817068 -94.214456 
L 367.86062 -93.779206 
L 367.91897 -93.343956 
L 367.983745 -92.908706 
L 368.045919 -92.473456 
L 368.097023 -92.038206 
L 368.130046 -91.602956 
L 368.139986 -91.167706 
L 368.124089 -90.732456 
L 368.081835 -90.297206 
L 368.014767 -89.861956 
L 367.926187 -89.426706 
L 367.820726 -88.991456 
L 367.703807 -88.556206 
L 367.580976 -88.120956 
L 367.457158 -87.685706 
L 367.335946 -87.250456 
L 367.219048 -86.815206 
L 367.106093 -86.379956 
L 366.994867 -85.944706 
L 366.881998 -85.509456 
L 366.763892 -85.074206 
L 366.637695 -84.638955 
L 366.501988 -84.203705 
L 366.357079 -83.768455 
L 366.204873 -83.333205 
L 366.04849 -82.897955 
L 365.891827 -82.462705 
L 365.739254 -82.027455 
L 365.595529 -81.592205 
L 365.465938 -81.156955 
L 365.35659 -80.721705 
L 365.274887 -80.286455 
L 365.230192 -79.851205 
L 365.234906 -79.415955 
L 365.306187 -78.980705 
L 365.468657 -78.545455 
L 365.758352 -78.110205 
L 366.227935 -77.674955 
L 366.952571 -77.239705 
L 368.034708 -76.804455 
L 369.60459 -76.369205 
L 371.812045 -75.933955 
L 374.805062 -75.498705 
L 378.692955 -75.063455 
L 383.497077 -74.628205 
L 389.099236 -74.192955 
L 395.20456 -73.757705 
L 401.337866 -73.322455 
L 406.88738 -72.887205 
L 411.196617 -72.451955 
L 413.687887 -72.016705 
L 413.986125 -71.581455 
L 412.006776 -71.146205 
L 407.979777 -70.710955 
L 402.401242 -70.275705 
L 395.927469 -69.840454 
L 389.243246 -69.405204 
L 382.941337 -68.969954 
L 377.441909 -68.534704 
L 372.96414 -68.099454 
L 369.544936 -67.664204 
z
" style="stroke: #3e3e3e; stroke-width: 3"/>
    </defs>
    <g clip-path="url(#p224dc32d46)">
     <use xlink:href="#m126acc7408" x="0" y="288" style="fill: #59a257; stroke: #3e3e3e; stroke-width: 3"/>
    </g>
   </g>
   <g id="PolyCollection_4">
    <defs>
     <path id="mc6d603d83a" d="M 497.438294 -70.80304 
L 483.685456 -70.80304 
L 479.012901 -71.355464 
L 472.611441 -71.907888 
L 464.740846 -72.460313 
L 456.185168 -73.012737 
L 448.198959 -73.565161 
L 442.233863 -74.117586 
L 439.511375 -74.67001 
L 440.610785 -75.222434 
L 445.26275 -75.774858 
L 452.449875 -76.327283 
L 460.763992 -76.879707 
L 468.849383 -77.432131 
L 475.74297 -77.984555 
L 481.004405 -78.53698 
L 484.646403 -79.089404 
L 486.956254 -79.641828 
L 488.311605 -80.194252 
L 489.054816 -80.746677 
L 489.43937 -81.299101 
L 489.628511 -81.851525 
L 489.717641 -82.403949 
L 489.759444 -82.956374 
L 489.782246 -83.508798 
L 489.800565 -84.061222 
L 489.820418 -84.613646 
L 489.842264 -85.166071 
L 489.863332 -85.718495 
L 489.879865 -86.270919 
L 489.889005 -86.823343 
L 489.88985 -87.375768 
L 489.883446 -87.928192 
L 489.871923 -88.480616 
L 489.857339 -89.03304 
L 489.840864 -89.585465 
L 489.822661 -90.137889 
L 489.802412 -90.690313 
L 489.780027 -91.242738 
L 489.756018 -91.795162 
L 489.731264 -92.347586 
L 489.70638 -92.90001 
L 489.681217 -93.452435 
L 489.654952 -94.004859 
L 489.626842 -94.557283 
L 489.597171 -95.109707 
L 489.567716 -95.662132 
L 489.541316 -96.214556 
L 489.520659 -96.76698 
L 489.506958 -97.319404 
L 489.499203 -97.871829 
L 489.494377 -98.424253 
L 489.488442 -98.976677 
L 489.477546 -99.529101 
L 489.458946 -100.081526 
L 489.431457 -100.63395 
L 489.395529 -101.186374 
L 489.353179 -101.738798 
L 489.307787 -102.291223 
L 489.263617 -102.843647 
L 489.224925 -103.396071 
L 489.194799 -103.948495 
L 489.174194 -104.50092 
L 489.16168 -105.053344 
L 489.154166 -105.605768 
L 489.148297 -106.158192 
L 489.141886 -106.710617 
L 489.134642 -107.263041 
L 489.127902 -107.815465 
L 489.123613 -108.367889 
L 489.12323 -108.920314 
L 489.127161 -109.472738 
L 489.13494 -110.025162 
L 489.145795 -110.577587 
L 489.159045 -111.130011 
L 489.174003 -111.682435 
L 489.18956 -112.234859 
L 489.203941 -112.787284 
L 489.215021 -113.339708 
L 489.221138 -113.892132 
L 489.221879 -114.444556 
L 489.218257 -114.996981 
L 489.21211 -115.549405 
L 489.20508 -116.101829 
L 489.197923 -116.654253 
L 489.190806 -117.206678 
L 489.184657 -117.759102 
L 489.182898 -118.311526 
L 489.192423 -118.86395 
L 489.222848 -119.416375 
L 489.283867 -119.968799 
L 489.381586 -120.521223 
L 489.515435 -121.073647 
L 489.677149 -121.626072 
L 489.852418 -122.178496 
L 490.024579 -122.73092 
L 490.178862 -123.283344 
L 490.30556 -123.835769 
L 490.40119 -124.388193 
L 490.467671 -124.940617 
L 490.5103 -125.493041 
L 490.61345 -125.493041 
L 490.61345 -125.493041 
L 490.656079 -124.940617 
L 490.72256 -124.388193 
L 490.81819 -123.835769 
L 490.944888 -123.283344 
L 491.099171 -122.73092 
L 491.271332 -122.178496 
L 491.446601 -121.626072 
L 491.608315 -121.073647 
L 491.742164 -120.521223 
L 491.839883 -119.968799 
L 491.900902 -119.416375 
L 491.931327 -118.86395 
L 491.940852 -118.311526 
L 491.939093 -117.759102 
L 491.932944 -117.206678 
L 491.925827 -116.654253 
L 491.91867 -116.101829 
L 491.91164 -115.549405 
L 491.905493 -114.996981 
L 491.901871 -114.444556 
L 491.902612 -113.892132 
L 491.908729 -113.339708 
L 491.919809 -112.787284 
L 491.93419 -112.234859 
L 491.949747 -111.682435 
L 491.964705 -111.130011 
L 491.977955 -110.577587 
L 491.98881 -110.025162 
L 491.996589 -109.472738 
L 492.00052 -108.920314 
L 492.000137 -108.367889 
L 491.995848 -107.815465 
L 491.989108 -107.263041 
L 491.981864 -106.710617 
L 491.975453 -106.158192 
L 491.969584 -105.605768 
L 491.96207 -105.053344 
L 491.949556 -104.50092 
L 491.928951 -103.948495 
L 491.898825 -103.396071 
L 491.860133 -102.843647 
L 491.815963 -102.291223 
L 491.770571 -101.738798 
L 491.728221 -101.186374 
L 491.692293 -100.63395 
L 491.664804 -100.081526 
L 491.646204 -99.529101 
L 491.635308 -98.976677 
L 491.629373 -98.424253 
L 491.624547 -97.871829 
L 491.616792 -97.319404 
L 491.603091 -96.76698 
L 491.582434 -96.214556 
L 491.556034 -95.662132 
L 491.526579 -95.109707 
L 491.496908 -94.557283 
L 491.468798 -94.004859 
L 491.442533 -93.452435 
L 491.41737 -92.90001 
L 491.392486 -92.347586 
L 491.367732 -91.795162 
L 491.343723 -91.242738 
L 491.321338 -90.690313 
L 491.301089 -90.137889 
L 491.282886 -89.585465 
L 491.266411 -89.03304 
L 491.251827 -88.480616 
L 491.240304 -87.928192 
L 491.2339 -87.375768 
L 491.234745 -86.823343 
L 491.243885 -86.270919 
L 491.260418 -85.718495 
L 491.281486 -85.166071 
L 491.303332 -84.613646 
L 491.323185 -84.061222 
L 491.341504 -83.508798 
L 491.364306 -82.956374 
L 491.406109 -82.403949 
L 491.495239 -81.851525 
L 491.68438 -81.299101 
L 492.068934 -80.746677 
L 492.812145 -80.194252 
L 494.167496 -79.641828 
L 496.477347 -79.089404 
L 500.119345 -78.53698 
L 505.38078 -77.984555 
L 512.274367 -77.432131 
L 520.359758 -76.879707 
L 528.673875 -76.327283 
L 535.861 -75.774858 
L 540.512965 -75.222434 
L 541.612375 -74.67001 
L 538.889887 -74.117586 
L 532.924791 -73.565161 
L 524.938582 -73.012737 
L 516.382904 -72.460313 
L 508.512309 -71.907888 
L 502.110849 -71.355464 
L 497.438294 -70.80304 
z
" style="stroke: #3e3e3e; stroke-width: 3"/>
    </defs>
    <g clip-path="url(#p224dc32d46)">
     <use xlink:href="#mc6d603d83a" x="0" y="288" style="fill: #905998; stroke: #3e3e3e; stroke-width: 3"/>
    </g>
   </g>
   <g id="PolyCollection_5">
    <defs>
     <path id="m20be7aaa44" d="M 619.051934 -66.305378 
L 617.324316 -66.305378 
L 615.696658 -67.204506 
L 612.151531 -68.103633 
L 605.826345 -69.002761 
L 596.625684 -69.901889 
L 585.832257 -70.801017 
L 575.890398 -71.700144 
L 569.254937 -72.599272 
L 567.137625 -73.4984 
L 569.122576 -74.397528 
L 573.776059 -75.296655 
L 579.570117 -76.195783 
L 585.44597 -77.094911 
L 590.870611 -77.994039 
L 595.634587 -78.893166 
L 599.66105 -79.792294 
L 602.924679 -80.691422 
L 605.448321 -81.59055 
L 607.318207 -82.489677 
L 608.678744 -83.388805 
L 609.697969 -84.287933 
L 610.523884 -85.187061 
L 611.256933 -86.086188 
L 611.944383 -86.985316 
L 612.589832 -87.884444 
L 613.173881 -88.783572 
L 613.679089 -89.682699 
L 614.103679 -90.581827 
L 614.45649 -91.480955 
L 614.746759 -92.380083 
L 614.984549 -93.27921 
L 615.185715 -94.178338 
L 615.365853 -95.077466 
L 615.528319 -95.976594 
L 615.666563 -96.875721 
L 615.781439 -97.774849 
L 615.889609 -98.673977 
L 616.010338 -99.573105 
L 616.148669 -100.472232 
L 616.295927 -101.37136 
L 616.441899 -102.270488 
L 616.579494 -103.169616 
L 616.698711 -104.068743 
L 616.784171 -104.967871 
L 616.825379 -105.866999 
L 616.830175 -106.766127 
L 616.823985 -107.665254 
L 616.831903 -108.564382 
L 616.862098 -109.46351 
L 616.908841 -110.362638 
L 616.96841 -111.261765 
L 617.044796 -112.160893 
L 617.138923 -113.060021 
L 617.239773 -113.959149 
L 617.330984 -114.858276 
L 617.402526 -115.757404 
L 617.452953 -116.656532 
L 617.485208 -117.55566 
L 617.505866 -118.454787 
L 617.526467 -119.353915 
L 617.5595 -120.253043 
L 617.609816 -121.152171 
L 617.669775 -122.051298 
L 617.723268 -122.950426 
L 617.755903 -123.849554 
L 617.763571 -124.748682 
L 617.752922 -125.647809 
L 617.735159 -126.546937 
L 617.720993 -127.446065 
L 617.720047 -128.345193 
L 617.739141 -129.24432 
L 617.776789 -130.143448 
L 617.821507 -131.042576 
L 617.859578 -131.941703 
L 617.885135 -132.840831 
L 617.902374 -133.739959 
L 617.919734 -134.639087 
L 617.942778 -135.538214 
L 617.970009 -136.437342 
L 617.993072 -137.33647 
L 618.002469 -138.235598 
L 617.995719 -139.134725 
L 617.979967 -140.033853 
L 617.965351 -140.932981 
L 617.956341 -141.832109 
L 617.950744 -142.731236 
L 617.946076 -143.630364 
L 617.943926 -144.529492 
L 617.947067 -145.42862 
L 617.954477 -146.327747 
L 617.961647 -147.226875 
L 617.966222 -148.126003 
L 617.972439 -149.025131 
L 617.988827 -149.924258 
L 618.020623 -150.823386 
L 618.064223 -151.722514 
L 618.109161 -152.621642 
L 618.145348 -153.520769 
L 618.168603 -154.419897 
L 618.180668 -155.319025 
L 618.195582 -155.319025 
L 618.195582 -155.319025 
L 618.207647 -154.419897 
L 618.230902 -153.520769 
L 618.267089 -152.621642 
L 618.312027 -151.722514 
L 618.355627 -150.823386 
L 618.387423 -149.924258 
L 618.403811 -149.025131 
L 618.410028 -148.126003 
L 618.414603 -147.226875 
L 618.421773 -146.327747 
L 618.429183 -145.42862 
L 618.432324 -144.529492 
L 618.430174 -143.630364 
L 618.425506 -142.731236 
L 618.419909 -141.832109 
L 618.410899 -140.932981 
L 618.396283 -140.033853 
L 618.380531 -139.134725 
L 618.373781 -138.235598 
L 618.383178 -137.33647 
L 618.406241 -136.437342 
L 618.433472 -135.538214 
L 618.456516 -134.639087 
L 618.473876 -133.739959 
L 618.491115 -132.840831 
L 618.516672 -131.941703 
L 618.554743 -131.042576 
L 618.599461 -130.143448 
L 618.637109 -129.24432 
L 618.656203 -128.345193 
L 618.655257 -127.446065 
L 618.641091 -126.546937 
L 618.623328 -125.647809 
L 618.612679 -124.748682 
L 618.620347 -123.849554 
L 618.652982 -122.950426 
L 618.706475 -122.051298 
L 618.766434 -121.152171 
L 618.81675 -120.253043 
L 618.849783 -119.353915 
L 618.870384 -118.454787 
L 618.891042 -117.55566 
L 618.923297 -116.656532 
L 618.973724 -115.757404 
L 619.045266 -114.858276 
L 619.136477 -113.959149 
L 619.237327 -113.060021 
L 619.331454 -112.160893 
L 619.40784 -111.261765 
L 619.467409 -110.362638 
L 619.514152 -109.46351 
L 619.544347 -108.564382 
L 619.552265 -107.665254 
L 619.546075 -106.766127 
L 619.550871 -105.866999 
L 619.592079 -104.967871 
L 619.677539 -104.068743 
L 619.796756 -103.169616 
L 619.934351 -102.270488 
L 620.080323 -101.37136 
L 620.227581 -100.472232 
L 620.365912 -99.573105 
L 620.486641 -98.673977 
L 620.594811 -97.774849 
L 620.709687 -96.875721 
L 620.847931 -95.976594 
L 621.010397 -95.077466 
L 621.190535 -94.178338 
L 621.391701 -93.27921 
L 621.629491 -92.380083 
L 621.91976 -91.480955 
L 622.272571 -90.581827 
L 622.697161 -89.682699 
L 623.202369 -88.783572 
L 623.786418 -87.884444 
L 624.431867 -86.985316 
L 625.119317 -86.086188 
L 625.852366 -85.187061 
L 626.678281 -84.287933 
L 627.697506 -83.388805 
L 629.058043 -82.489677 
L 630.927929 -81.59055 
L 633.451571 -80.691422 
L 636.7152 -79.792294 
L 640.741663 -78.893166 
L 645.505639 -77.994039 
L 650.93028 -77.094911 
L 656.806133 -76.195783 
L 662.600191 -75.296655 
L 667.253674 -74.397528 
L 669.238625 -73.4984 
L 667.121313 -72.599272 
L 660.485852 -71.700144 
L 650.543993 -70.801017 
L 639.750566 -69.901889 
L 630.549905 -69.002761 
L 624.224719 -68.103633 
L 620.679592 -67.204506 
L 619.051934 -66.305378 
z
" style="stroke: #3e3e3e; stroke-width: 3"/>
    </defs>
    <g clip-path="url(#p224dc32d46)">
     <use xlink:href="#m20be7aaa44" x="0" y="288" style="fill: #df7f20; stroke: #3e3e3e; stroke-width: 3"/>
    </g>
   </g>
   <g id="PolyCollection_6">
    <defs>
     <path id="m9afc7fb052" d="M 745.818587 -41.784744 
L 745.810163 -41.784744 
L 745.798863 -43.051065 
L 745.772037 -44.317386 
L 745.725778 -45.583707 
L 745.666214 -46.850028 
L 745.605694 -48.116349 
L 745.552553 -49.382669 
L 745.507834 -50.64899 
L 745.464632 -51.915311 
L 745.404566 -53.181632 
L 745.29448 -54.447953 
L 745.096937 -55.714274 
L 744.813962 -56.980594 
L 744.503872 -58.246915 
L 744.218511 -59.513236 
L 743.941333 -60.779557 
L 743.582464 -62.045878 
L 743.009726 -63.312199 
L 742.10688 -64.578519 
L 740.800176 -65.84484 
L 738.9639 -67.111161 
L 736.235628 -68.377482 
L 731.889375 -69.643803 
L 724.999035 -70.910124 
L 715.283511 -72.176444 
L 704.514377 -73.442765 
L 696.586266 -74.709086 
L 694.763875 -75.975407 
L 698.900012 -77.241728 
L 706.141802 -78.508049 
L 713.704245 -79.77437 
L 720.303443 -81.04069 
L 725.709696 -82.307011 
L 729.961825 -83.573332 
L 733.129487 -84.839653 
L 735.390689 -86.105974 
L 737.045665 -87.372295 
L 738.363728 -88.638615 
L 739.461529 -89.904936 
L 740.374266 -91.171257 
L 741.147095 -92.437578 
L 741.81508 -93.703899 
L 742.3706 -94.97022 
L 742.798124 -96.23654 
L 743.128633 -97.502861 
L 743.426969 -98.769182 
L 743.71796 -100.035503 
L 743.961556 -101.301824 
L 744.121057 -102.568145 
L 744.223719 -103.834465 
L 744.33095 -105.100786 
L 744.478325 -106.367107 
L 744.655395 -107.633428 
L 744.819191 -108.899749 
L 744.933631 -110.16607 
L 745.007694 -111.432391 
L 745.079386 -112.698711 
L 745.166969 -113.965032 
L 745.254371 -115.231353 
L 745.316287 -116.497674 
L 745.344423 -117.763995 
L 745.351306 -119.030316 
L 745.358664 -120.296636 
L 745.38066 -121.562957 
L 745.410893 -122.829278 
L 745.433637 -124.095599 
L 745.443591 -125.36192 
L 745.441603 -126.628241 
L 745.434606 -127.894561 
L 745.451213 -129.160882 
L 745.507026 -130.427203 
L 745.558471 -131.693524 
L 745.555262 -132.959845 
L 745.513105 -134.226166 
L 745.486861 -135.492487 
L 745.500753 -136.758807 
L 745.52863 -138.025128 
L 745.5361 -139.291449 
L 745.523169 -140.55777 
L 745.513155 -141.824091 
L 745.522579 -143.090412 
L 745.548922 -144.356732 
L 745.579253 -145.623053 
L 745.609263 -146.889374 
L 745.64289 -148.155695 
L 745.67708 -149.422016 
L 745.703211 -150.688337 
L 745.719565 -151.954657 
L 745.728749 -153.220978 
L 745.726847 -154.487299 
L 745.708119 -155.75362 
L 745.677949 -157.019941 
L 745.649558 -158.286262 
L 745.632862 -159.552582 
L 745.635948 -160.818903 
L 745.665312 -162.085224 
L 745.714323 -163.351545 
L 745.762811 -164.617866 
L 745.794666 -165.884187 
L 745.80894 -167.150508 
L 745.81981 -167.150508 
L 745.81981 -167.150508 
L 745.834084 -165.884187 
L 745.865939 -164.617866 
L 745.914427 -163.351545 
L 745.963438 -162.085224 
L 745.992802 -160.818903 
L 745.995888 -159.552582 
L 745.979192 -158.286262 
L 745.950801 -157.019941 
L 745.920631 -155.75362 
L 745.901903 -154.487299 
L 745.900001 -153.220978 
L 745.909185 -151.954657 
L 745.925539 -150.688337 
L 745.95167 -149.422016 
L 745.98586 -148.155695 
L 746.019487 -146.889374 
L 746.049497 -145.623053 
L 746.079828 -144.356732 
L 746.106171 -143.090412 
L 746.115595 -141.824091 
L 746.105581 -140.55777 
L 746.09265 -139.291449 
L 746.10012 -138.025128 
L 746.127997 -136.758807 
L 746.141889 -135.492487 
L 746.115645 -134.226166 
L 746.073488 -132.959845 
L 746.070279 -131.693524 
L 746.121724 -130.427203 
L 746.177537 -129.160882 
L 746.194144 -127.894561 
L 746.187147 -126.628241 
L 746.185159 -125.36192 
L 746.195113 -124.095599 
L 746.217857 -122.829278 
L 746.24809 -121.562957 
L 746.270086 -120.296636 
L 746.277444 -119.030316 
L 746.284327 -117.763995 
L 746.312463 -116.497674 
L 746.374379 -115.231353 
L 746.461781 -113.965032 
L 746.549364 -112.698711 
L 746.621056 -111.432391 
L 746.695119 -110.16607 
L 746.809559 -108.899749 
L 746.973355 -107.633428 
L 747.150425 -106.367107 
L 747.2978 -105.100786 
L 747.405031 -103.834465 
L 747.507693 -102.568145 
L 747.667194 -101.301824 
L 747.91079 -100.035503 
L 748.201781 -98.769182 
L 748.500117 -97.502861 
L 748.830626 -96.23654 
L 749.25815 -94.97022 
L 749.81367 -93.703899 
L 750.481655 -92.437578 
L 751.254484 -91.171257 
L 752.167221 -89.904936 
L 753.265022 -88.638615 
L 754.583085 -87.372295 
L 756.238061 -86.105974 
L 758.499263 -84.839653 
L 761.666925 -83.573332 
L 765.919054 -82.307011 
L 771.325307 -81.04069 
L 777.924505 -79.77437 
L 785.486948 -78.508049 
L 792.728738 -77.241728 
L 796.864875 -75.975407 
L 795.042484 -74.709086 
L 787.114373 -73.442765 
L 776.345239 -72.176444 
L 766.629715 -70.910124 
L 759.739375 -69.643803 
L 755.393122 -68.377482 
L 752.66485 -67.111161 
L 750.828574 -65.84484 
L 749.52187 -64.578519 
L 748.619024 -63.312199 
L 748.046286 -62.045878 
L 747.687417 -60.779557 
L 747.410239 -59.513236 
L 747.124878 -58.246915 
L 746.814788 -56.980594 
L 746.531813 -55.714274 
L 746.33427 -54.447953 
L 746.224184 -53.181632 
L 746.164118 -51.915311 
L 746.120916 -50.64899 
L 746.076197 -49.382669 
L 746.023056 -48.116349 
L 745.962536 -46.850028 
L 745.902972 -45.583707 
L 745.856713 -44.317386 
L 745.829887 -43.051065 
L 745.818587 -41.784744 
z
" style="stroke: #3e3e3e; stroke-width: 3"/>
    </defs>
    <g clip-path="url(#p224dc32d46)">
     <use xlink:href="#m9afc7fb052" x="0" y="288" style="fill: #e6e64c; stroke: #3e3e3e; stroke-width: 3"/>
    </g>
   </g>
   <g id="PolyCollection_7">
    <defs>
     <path id="m28b05f55a1" d="M 874.646157 -66.597167 
L 872.235093 -66.597167 
L 869.150208 -67.797845 
L 862.159045 -68.998523 
L 850.909342 -70.1992 
L 837.975286 -71.399878 
L 827.500711 -72.600556 
L 822.390125 -73.801234 
L 823.169734 -75.001912 
L 828.53086 -76.202589 
L 836.23669 -77.403267 
L 844.077826 -78.603945 
L 850.680749 -79.804623 
L 855.7328 -81.005301 
L 859.525969 -82.205978 
L 862.36473 -83.406656 
L 864.408094 -84.607334 
L 865.816283 -85.808012 
L 866.82101 -87.00869 
L 867.637147 -88.209367 
L 868.34402 -89.410045 
L 868.909693 -90.610723 
L 869.342203 -91.811401 
L 869.744859 -93.012079 
L 870.196497 -94.212757 
L 870.652417 -95.413434 
L 871.027263 -96.614112 
L 871.31068 -97.81479 
L 871.539869 -99.015468 
L 871.726389 -100.216146 
L 871.862818 -101.416823 
L 871.966352 -102.617501 
L 872.069103 -103.818179 
L 872.173322 -105.018857 
L 872.26293 -106.219535 
L 872.34191 -107.420212 
L 872.420993 -108.62089 
L 872.498641 -109.821568 
L 872.569849 -111.022246 
L 872.625353 -112.222924 
L 872.65661 -113.423601 
L 872.676885 -114.624279 
L 872.713462 -115.824957 
L 872.773373 -117.025635 
L 872.840432 -118.226313 
L 872.906107 -119.426991 
L 872.97366 -120.627668 
L 873.036617 -121.828346 
L 873.08398 -123.029024 
L 873.115647 -124.229702 
L 873.135631 -125.43038 
L 873.145892 -126.631057 
L 873.151033 -127.831735 
L 873.155223 -129.032413 
L 873.156409 -130.233091 
L 873.156016 -131.433769 
L 873.168578 -132.634446 
L 873.207047 -133.835124 
L 873.262059 -135.035802 
L 873.305477 -136.23648 
L 873.31436 -137.437158 
L 873.291311 -138.637835 
L 873.263099 -139.838513 
L 873.255366 -141.039191 
L 873.266913 -142.239869 
L 873.277938 -143.440547 
L 873.280179 -144.641225 
L 873.282415 -145.841902 
L 873.29208 -147.04258 
L 873.305273 -148.243258 
L 873.311862 -149.443936 
L 873.306993 -150.644614 
L 873.298806 -151.845291 
L 873.301675 -153.045969 
L 873.31999 -154.246647 
L 873.344476 -155.447325 
L 873.365251 -156.648003 
L 873.379292 -157.84868 
L 873.384494 -159.049358 
L 873.378906 -160.250036 
L 873.369054 -161.450714 
L 873.366721 -162.651392 
L 873.374473 -163.852069 
L 873.385405 -165.052747 
L 873.396221 -166.253425 
L 873.408017 -167.454103 
L 873.416867 -168.654781 
L 873.414613 -169.855459 
L 873.39773 -171.056136 
L 873.371685 -172.256814 
L 873.347875 -173.457492 
L 873.335034 -174.65817 
L 873.333752 -175.858848 
L 873.341538 -177.059525 
L 873.356377 -178.260203 
L 873.373582 -179.460881 
L 873.389297 -180.661559 
L 873.404536 -181.862237 
L 873.419609 -183.062914 
L 873.43129 -184.263592 
L 873.437597 -185.46427 
L 873.443653 -185.46427 
L 873.443653 -185.46427 
L 873.44996 -184.263592 
L 873.461641 -183.062914 
L 873.476714 -181.862237 
L 873.491953 -180.661559 
L 873.507668 -179.460881 
L 873.524873 -178.260203 
L 873.539712 -177.059525 
L 873.547498 -175.858848 
L 873.546216 -174.65817 
L 873.533375 -173.457492 
L 873.509565 -172.256814 
L 873.48352 -171.056136 
L 873.466637 -169.855459 
L 873.464383 -168.654781 
L 873.473233 -167.454103 
L 873.485029 -166.253425 
L 873.495845 -165.052747 
L 873.506777 -163.852069 
L 873.514529 -162.651392 
L 873.512196 -161.450714 
L 873.502344 -160.250036 
L 873.496756 -159.049358 
L 873.501958 -157.84868 
L 873.515999 -156.648003 
L 873.536774 -155.447325 
L 873.56126 -154.246647 
L 873.579575 -153.045969 
L 873.582444 -151.845291 
L 873.574257 -150.644614 
L 873.569388 -149.443936 
L 873.575977 -148.243258 
L 873.58917 -147.04258 
L 873.598835 -145.841902 
L 873.601071 -144.641225 
L 873.603312 -143.440547 
L 873.614337 -142.239869 
L 873.625884 -141.039191 
L 873.618151 -139.838513 
L 873.589939 -138.637835 
L 873.56689 -137.437158 
L 873.575773 -136.23648 
L 873.619191 -135.035802 
L 873.674203 -133.835124 
L 873.712672 -132.634446 
L 873.725234 -131.433769 
L 873.724841 -130.233091 
L 873.726027 -129.032413 
L 873.730217 -127.831735 
L 873.735358 -126.631057 
L 873.745619 -125.43038 
L 873.765603 -124.229702 
L 873.79727 -123.029024 
L 873.844633 -121.828346 
L 873.90759 -120.627668 
L 873.975143 -119.426991 
L 874.040818 -118.226313 
L 874.107877 -117.025635 
L 874.167788 -115.824957 
L 874.204365 -114.624279 
L 874.22464 -113.423601 
L 874.255897 -112.222924 
L 874.311401 -111.022246 
L 874.382609 -109.821568 
L 874.460257 -108.62089 
L 874.53934 -107.420212 
L 874.61832 -106.219535 
L 874.707928 -105.018857 
L 874.812147 -103.818179 
L 874.914898 -102.617501 
L 875.018432 -101.416823 
L 875.154861 -100.216146 
L 875.341381 -99.015468 
L 875.57057 -97.81479 
L 875.853987 -96.614112 
L 876.228833 -95.413434 
L 876.684753 -94.212757 
L 877.136391 -93.012079 
L 877.539047 -91.811401 
L 877.971557 -90.610723 
L 878.53723 -89.410045 
L 879.244103 -88.209367 
L 880.06024 -87.00869 
L 881.064967 -85.808012 
L 882.473156 -84.607334 
L 884.51652 -83.406656 
L 887.355281 -82.205978 
L 891.14845 -81.005301 
L 896.200501 -79.804623 
L 902.803424 -78.603945 
L 910.64456 -77.403267 
L 918.35039 -76.202589 
L 923.711516 -75.001912 
L 924.491125 -73.801234 
L 919.380539 -72.600556 
L 908.905964 -71.399878 
L 895.971908 -70.1992 
L 884.722205 -68.998523 
L 877.731042 -67.797845 
L 874.646157 -66.597167 
z
" style="stroke: #3e3e3e; stroke-width: 3"/>
    </defs>
    <g clip-path="url(#p224dc32d46)">
     <use xlink:href="#m28b05f55a1" x="0" y="288" style="fill: #965a38; stroke: #3e3e3e; stroke-width: 3"/>
    </g>
   </g>
   <g id="PolyCollection_8">
    <defs>
     <path id="ma40d13826d" d="M 1002.376714 -64.394623 
L 999.757036 -64.394623 
L 998.117745 -65.114556 
L 995.141501 -65.834489 
L 990.40379 -66.554422 
L 983.801162 -67.274354 
L 975.769259 -67.994287 
L 967.293487 -68.71422 
L 959.639656 -69.434153 
L 953.918991 -70.154086 
L 950.723661 -70.874019 
L 950.016375 -71.593952 
L 951.283456 -72.313885 
L 953.816012 -73.033818 
L 956.961681 -73.75375 
L 960.261906 -74.473683 
L 963.473395 -75.193616 
L 966.515946 -75.913549 
L 969.393812 -76.633482 
L 972.1261 -77.353415 
L 974.706666 -78.073348 
L 977.098259 -78.793281 
L 979.25174 -79.513214 
L 981.133152 -80.233146 
L 982.741511 -80.953079 
L 984.10802 -81.673012 
L 985.28005 -82.392945 
L 986.303206 -83.112878 
L 987.21403 -83.832811 
L 988.04422 -84.552744 
L 988.825755 -85.272677 
L 989.586658 -85.99261 
L 990.338849 -86.712542 
L 991.070015 -87.432475 
L 991.749608 -88.152408 
L 992.346924 -88.872341 
L 992.848796 -89.592274 
L 993.265111 -90.312207 
L 993.620418 -91.03214 
L 993.939819 -91.752073 
L 994.239303 -92.472006 
L 994.525103 -93.191938 
L 994.799734 -93.911871 
L 995.068952 -94.631804 
L 995.343988 -95.351737 
L 995.636251 -96.07167 
L 995.947608 -96.791603 
L 996.265106 -97.511536 
L 996.567354 -98.231469 
L 996.839045 -98.951401 
L 997.08078 -99.671334 
L 997.304982 -100.391267 
L 997.522247 -101.1112 
L 997.731179 -101.831133 
L 997.920016 -102.551066 
L 998.076899 -103.270999 
L 998.199494 -103.990932 
L 998.297578 -104.710865 
L 998.388325 -105.430797 
L 998.487563 -106.15073 
L 998.60117 -106.870663 
L 998.721169 -107.590596 
L 998.830119 -108.310529 
L 998.912746 -109.030462 
L 998.967495 -109.750395 
L 999.009083 -110.470328 
L 999.059575 -111.190261 
L 999.134992 -111.910193 
L 999.237664 -112.630126 
L 999.358505 -113.350059 
L 999.484821 -114.069992 
L 999.606585 -114.789925 
L 999.718275 -115.509858 
L 999.818145 -116.229791 
L 999.907283 -116.949724 
L 999.988371 -117.669657 
L 1000.063169 -118.389589 
L 1000.129629 -119.109522 
L 1000.181354 -119.829455 
L 1000.211026 -120.549388 
L 1000.216093 -121.269321 
L 1000.202595 -121.989254 
L 1000.18388 -122.709187 
L 1000.174588 -123.42912 
L 1000.183808 -124.149053 
L 1000.21194 -124.868985 
L 1000.252937 -125.588918 
L 1000.299701 -126.308851 
L 1000.348423 -127.028784 
L 1000.399259 -127.748717 
L 1000.454161 -128.46865 
L 1000.514689 -129.188583 
L 1000.581493 -129.908516 
L 1000.654578 -130.628449 
L 1000.732778 -131.348381 
L 1000.812529 -132.068314 
L 1000.887733 -132.788247 
L 1000.951692 -133.50818 
L 1000.999975 -134.228113 
L 1001.032047 -134.948046 
L 1001.050713 -135.667979 
L 1001.083037 -135.667979 
L 1001.083037 -135.667979 
L 1001.101703 -134.948046 
L 1001.133775 -134.228113 
L 1001.182058 -133.50818 
L 1001.246017 -132.788247 
L 1001.321221 -132.068314 
L 1001.400972 -131.348381 
L 1001.479172 -130.628449 
L 1001.552257 -129.908516 
L 1001.619061 -129.188583 
L 1001.679589 -128.46865 
L 1001.734491 -127.748717 
L 1001.785327 -127.028784 
L 1001.834049 -126.308851 
L 1001.880813 -125.588918 
L 1001.92181 -124.868985 
L 1001.949942 -124.149053 
L 1001.959162 -123.42912 
L 1001.94987 -122.709187 
L 1001.931155 -121.989254 
L 1001.917657 -121.269321 
L 1001.922724 -120.549388 
L 1001.952396 -119.829455 
L 1002.004121 -119.109522 
L 1002.070581 -118.389589 
L 1002.145379 -117.669657 
L 1002.226467 -116.949724 
L 1002.315605 -116.229791 
L 1002.415475 -115.509858 
L 1002.527165 -114.789925 
L 1002.648929 -114.069992 
L 1002.775245 -113.350059 
L 1002.896086 -112.630126 
L 1002.998758 -111.910193 
L 1003.074175 -111.190261 
L 1003.124667 -110.470328 
L 1003.166255 -109.750395 
L 1003.221004 -109.030462 
L 1003.303631 -108.310529 
L 1003.412581 -107.590596 
L 1003.53258 -106.870663 
L 1003.646187 -106.15073 
L 1003.745425 -105.430797 
L 1003.836172 -104.710865 
L 1003.934256 -103.990932 
L 1004.056851 -103.270999 
L 1004.213734 -102.551066 
L 1004.402571 -101.831133 
L 1004.611503 -101.1112 
L 1004.828768 -100.391267 
L 1005.05297 -99.671334 
L 1005.294705 -98.951401 
L 1005.566396 -98.231469 
L 1005.868644 -97.511536 
L 1006.186142 -96.791603 
L 1006.497499 -96.07167 
L 1006.789762 -95.351737 
L 1007.064798 -94.631804 
L 1007.334016 -93.911871 
L 1007.608647 -93.191938 
L 1007.894447 -92.472006 
L 1008.193931 -91.752073 
L 1008.513332 -91.03214 
L 1008.868639 -90.312207 
L 1009.284954 -89.592274 
L 1009.786826 -88.872341 
L 1010.384142 -88.152408 
L 1011.063735 -87.432475 
L 1011.794901 -86.712542 
L 1012.547092 -85.99261 
L 1013.307995 -85.272677 
L 1014.08953 -84.552744 
L 1014.91972 -83.832811 
L 1015.830544 -83.112878 
L 1016.8537 -82.392945 
L 1018.02573 -81.673012 
L 1019.392239 -80.953079 
L 1021.000598 -80.233146 
L 1022.88201 -79.513214 
L 1025.035491 -78.793281 
L 1027.427084 -78.073348 
L 1030.00765 -77.353415 
L 1032.739938 -76.633482 
L 1035.617804 -75.913549 
L 1038.660355 -75.193616 
L 1041.871844 -74.473683 
L 1045.172069 -73.75375 
L 1048.317738 -73.033818 
L 1050.850294 -72.313885 
L 1052.117375 -71.593952 
L 1051.410089 -70.874019 
L 1048.214759 -70.154086 
L 1042.494094 -69.434153 
L 1034.840263 -68.71422 
L 1026.364491 -67.994287 
L 1018.332588 -67.274354 
L 1011.72996 -66.554422 
L 1006.992249 -65.834489 
L 1004.016005 -65.114556 
L 1002.376714 -64.394623 
z
" style="stroke: #3e3e3e; stroke-width: 3"/>
    </defs>
    <g clip-path="url(#p224dc32d46)">
     <use xlink:href="#ma40d13826d" x="0" y="288" style="fill: #e890be; stroke: #3e3e3e; stroke-width: 3"/>
    </g>
   </g>
   <g id="line2d_8">
    <path d="M 107.683125 215.482594 
L 107.683125 201.796715 
" clip-path="url(#p224dc32d46)" style="fill: none; stroke: #3e3e3e; stroke-width: 3"/>
   </g>
   <g id="line2d_9">
    <path d="M 107.683125 213.077275 
L 107.683125 208.536753 
" clip-path="url(#p224dc32d46)" style="fill: none; stroke: #3e3e3e; stroke-width: 9"/>
   </g>
   <g id="line2d_10">
    <path d="M 235.309375 230.56028 
L 235.309375 179.885604 
" clip-path="url(#p224dc32d46)" style="fill: none; stroke: #3e3e3e; stroke-width: 3"/>
   </g>
   <g id="line2d_11">
    <path d="M 235.309375 216.862403 
L 235.309375 202.064214 
" clip-path="url(#p224dc32d46)" style="fill: none; stroke: #3e3e3e; stroke-width: 9"/>
   </g>
   <g id="line2d_12">
    <path d="M 362.935625 216.368799 
L 362.935625 181.213039 
" clip-path="url(#p224dc32d46)" style="fill: none; stroke: #3e3e3e; stroke-width: 3"/>
   </g>
   <g id="line2d_13">
    <path d="M 362.935625 216.368799 
L 362.935625 199.78453 
" clip-path="url(#p224dc32d46)" style="fill: none; stroke: #3e3e3e; stroke-width: 9"/>
   </g>
   <g id="line2d_14">
    <path d="M 490.561875 213.229963 
L 490.561875 213.229963 
" clip-path="url(#p224dc32d46)" style="fill: none; stroke: #3e3e3e; stroke-width: 3"/>
   </g>
   <g id="line2d_15">
    <path d="M 490.561875 213.229963 
L 490.561875 213.229963 
" clip-path="url(#p224dc32d46)" style="fill: none; stroke: #3e3e3e; stroke-width: 9"/>
   </g>
   <g id="line2d_16">
    <path d="M 618.188125 217.727626 
L 618.188125 196.335262 
" clip-path="url(#p224dc32d46)" style="fill: none; stroke: #3e3e3e; stroke-width: 3"/>
   </g>
   <g id="line2d_17">
    <path d="M 618.188125 215.155886 
L 618.188125 207.625129 
" clip-path="url(#p224dc32d46)" style="fill: none; stroke: #3e3e3e; stroke-width: 9"/>
   </g>
   <g id="line2d_18">
    <path d="M 745.814375 224.825417 
L 745.814375 195.678454 
" clip-path="url(#p224dc32d46)" style="fill: none; stroke: #3e3e3e; stroke-width: 3"/>
   </g>
   <g id="line2d_19">
    <path d="M 745.814375 213.917992 
L 745.814375 206.622177 
" clip-path="url(#p224dc32d46)" style="fill: none; stroke: #3e3e3e; stroke-width: 9"/>
   </g>
   <g id="line2d_20">
    <path d="M 873.440625 217.435836 
L 873.440625 197.050391 
" clip-path="url(#p224dc32d46)" style="fill: none; stroke: #3e3e3e; stroke-width: 3"/>
   </g>
   <g id="line2d_21">
    <path d="M 873.440625 214.634576 
L 873.440625 207.595694 
" clip-path="url(#p224dc32d46)" style="fill: none; stroke: #3e3e3e; stroke-width: 9"/>
   </g>
   <g id="line2d_22">
    <path d="M 1001.066875 219.638381 
L 1001.066875 187.052971 
" clip-path="url(#p224dc32d46)" style="fill: none; stroke: #3e3e3e; stroke-width: 3"/>
   </g>
   <g id="line2d_23">
    <path d="M 1001.066875 216.642817 
L 1001.066875 204.793837 
" clip-path="url(#p224dc32d46)" style="fill: none; stroke: #3e3e3e; stroke-width: 9"/>
   </g>
   <g id="patch_3">
    <path d="M 43.87 255.833125 
L 43.87 44.24 
" style="fill: none; stroke: #f0f0f0; stroke-width: 3; stroke-linejoin: miter; stroke-linecap: square"/>
   </g>
   <g id="patch_4">
    <path d="M 1064.88 255.833125 
L 1064.88 44.24 
" style="fill: none; stroke: #f0f0f0; stroke-width: 3; stroke-linejoin: miter; stroke-linecap: square"/>
   </g>
   <g id="patch_5">
    <path d="M 43.87 255.833125 
L 1064.88 255.833125 
" style="fill: none; stroke: #f0f0f0; stroke-width: 3; stroke-linejoin: miter; stroke-linecap: square"/>
   </g>
   <g id="patch_6">
    <path d="M 43.87 44.24 
L 1064.88 44.24 
" style="fill: none; stroke: #f0f0f0; stroke-width: 3; stroke-linejoin: miter; stroke-linecap: square"/>
   </g>
   <g id="PathCollection_1">
    <defs>
     <path id="mafe9d32f7f" d="M 0 3 
C 0.795609 3 1.55874 2.683901 2.12132 2.12132 
C 2.683901 1.55874 3 0.795609 3 0 
C 3 -0.795609 2.683901 -1.55874 2.12132 -2.12132 
C 1.55874 -2.683901 0.795609 -3 0 -3 
C -0.795609 -3 -1.55874 -2.683901 -2.12132 -2.12132 
C -2.683901 -1.55874 -3 -0.795609 -3 0 
C -3 0.795609 -2.683901 1.55874 -2.12132 2.12132 
C -1.55874 2.683901 -0.795609 3 0 3 
z
" style="stroke: #3e3e3e; stroke-width: 0.5"/>
    </defs>
    <g clip-path="url(#p224dc32d46)">
     <use xlink:href="#mafe9d32f7f" x="107.683125" y="211.482304" style="fill: #ffffff; stroke: #3e3e3e; stroke-width: 0.5"/>
    </g>
   </g>
   <g id="PathCollection_2">
    <g clip-path="url(#p224dc32d46)">
     <use xlink:href="#mafe9d32f7f" x="235.309375" y="209.80949" style="fill: #ffffff; stroke: #3e3e3e; stroke-width: 0.5"/>
    </g>
   </g>
   <g id="PathCollection_3">
    <g clip-path="url(#p224dc32d46)">
     <use xlink:href="#mafe9d32f7f" x="362.935625" y="216.368799" style="fill: #ffffff; stroke: #3e3e3e; stroke-width: 0.5"/>
    </g>
   </g>
   <g id="PathCollection_4">
    <g clip-path="url(#p224dc32d46)">
     <use xlink:href="#mafe9d32f7f" x="490.561875" y="213.229963" style="fill: #ffffff; stroke: #3e3e3e; stroke-width: 0.5"/>
    </g>
   </g>
   <g id="PathCollection_5">
    <g clip-path="url(#p224dc32d46)">
     <use xlink:href="#mafe9d32f7f" x="618.188125" y="212.699659" style="fill: #ffffff; stroke: #3e3e3e; stroke-width: 0.5"/>
    </g>
   </g>
   <g id="PathCollection_6">
    <g clip-path="url(#p224dc32d46)">
     <use xlink:href="#mafe9d32f7f" x="745.814375" y="211.222896" style="fill: #ffffff; stroke: #3e3e3e; stroke-width: 0.5"/>
    </g>
   </g>
   <g id="PathCollection_7">
    <g clip-path="url(#p224dc32d46)">
     <use xlink:href="#mafe9d32f7f" x="873.440625" y="212.190803" style="fill: #ffffff; stroke: #3e3e3e; stroke-width: 0.5"/>
    </g>
   </g>
   <g id="PathCollection_8">
    <g clip-path="url(#p224dc32d46)">
     <use xlink:href="#mafe9d32f7f" x="1001.066875" y="212.695253" style="fill: #ffffff; stroke: #3e3e3e; stroke-width: 0.5"/>
    </g>
   </g>
  </g>
  <g id="text_16">
   <!-- Violin Plot of all Continuous Variables -->
   <g style="fill: #262626" transform="translate(416.035547 16.496719)scale(0.15 -0.15)">
    <defs>
     <path id="ArialMT-56" d="M 1803 0 
L 28 4581 
L 684 4581 
L 1875 1253 
Q 2019 853 2116 503 
Q 2222 878 2363 1253 
L 3600 4581 
L 4219 4581 
L 2425 0 
L 1803 0 
z
" transform="scale(0.015625)"/>
     <path id="ArialMT-50" d="M 494 0 
L 494 4581 
L 2222 4581 
Q 2678 4581 2919 4538 
Q 3256 4481 3484 4323 
Q 3713 4166 3852 3881 
Q 3991 3597 3991 3256 
Q 3991 2672 3619 2267 
Q 3247 1863 2275 1863 
L 1100 1863 
L 1100 0 
L 494 0 
z
M 1100 2403 
L 2284 2403 
Q 2872 2403 3119 2622 
Q 3366 2841 3366 3238 
Q 3366 3525 3220 3729 
Q 3075 3934 2838 4000 
Q 2684 4041 2272 4041 
L 1100 4041 
L 1100 2403 
z
" transform="scale(0.015625)"/>
    </defs>
    <use xlink:href="#ArialMT-56"/>
    <use xlink:href="#ArialMT-69" x="64.949219"/>
    <use xlink:href="#ArialMT-6f" x="87.166016"/>
    <use xlink:href="#ArialMT-6c" x="142.78125"/>
    <use xlink:href="#ArialMT-69" x="164.998047"/>
    <use xlink:href="#ArialMT-6e" x="187.214844"/>
    <use xlink:href="#ArialMT-20" x="242.830078"/>
    <use xlink:href="#ArialMT-50" x="270.613281"/>
    <use xlink:href="#ArialMT-6c" x="337.3125"/>
    <use xlink:href="#ArialMT-6f" x="359.529297"/>
    <use xlink:href="#ArialMT-74" x="415.144531"/>
    <use xlink:href="#ArialMT-20" x="442.927734"/>
    <use xlink:href="#ArialMT-6f" x="470.710938"/>
    <use xlink:href="#ArialMT-66" x="526.326172"/>
    <use xlink:href="#ArialMT-20" x="554.109375"/>
    <use xlink:href="#ArialMT-61" x="581.892578"/>
    <use xlink:href="#ArialMT-6c" x="637.507812"/>
    <use xlink:href="#ArialMT-6c" x="659.724609"/>
    <use xlink:href="#ArialMT-20" x="681.941406"/>
    <use xlink:href="#ArialMT-43" x="709.724609"/>
    <use xlink:href="#ArialMT-6f" x="781.941406"/>
    <use xlink:href="#ArialMT-6e" x="837.556641"/>
    <use xlink:href="#ArialMT-74" x="893.171875"/>
    <use xlink:href="#ArialMT-69" x="920.955078"/>
    <use xlink:href="#ArialMT-6e" x="943.171875"/>
    <use xlink:href="#ArialMT-75" x="998.787109"/>
    <use xlink:href="#ArialMT-6f" x="1054.402344"/>
    <use xlink:href="#ArialMT-75" x="1110.017578"/>
    <use xlink:href="#ArialMT-73" x="1165.632812"/>
    <use xlink:href="#ArialMT-20" x="1215.632812"/>
    <use xlink:href="#ArialMT-56" x="1243.416016"/>
    <use xlink:href="#ArialMT-61" x="1302.740234"/>
    <use xlink:href="#ArialMT-72" x="1358.355469"/>
    <use xlink:href="#ArialMT-69" x="1391.65625"/>
    <use xlink:href="#ArialMT-61" x="1413.873047"/>
    <use xlink:href="#ArialMT-62" x="1469.488281"/>
    <use xlink:href="#ArialMT-6c" x="1525.103516"/>
    <use xlink:href="#ArialMT-65" x="1547.320312"/>
    <use xlink:href="#ArialMT-73" x="1602.935547"/>
   </g>
  </g>
 </g>
 <defs>
  <clipPath id="p224dc32d46">
   <rect x="43.87" y="44.24" width="1021.01" height="211.593125"/>
  </clipPath>
 </defs>
</svg>
