<?xml version="1.0" encoding="utf-8" standalone="no"?>
<!DOCTYPE svg PUBLIC "-//W3C//DTD SVG 1.1//EN"
  "http://www.w3.org/Graphics/SVG/1.1/DTD/svg11.dtd">
<svg xmlns:xlink="http://www.w3.org/1999/xlink" width="1080pt" height="288pt" viewBox="0 0 1080 288" xmlns="http://www.w3.org/2000/svg" version="1.1">
 <metadata>
  <rdf:RDF xmlns:dc="http://purl.org/dc/elements/1.1/" xmlns:cc="http://creativecommons.org/ns#" xmlns:rdf="http://www.w3.org/1999/02/22-rdf-syntax-ns#">
   <cc:Work>
    <dc:type rdf:resource="http://purl.org/dc/dcmitype/StillImage"/>
    <dc:date>2022-11-07T19:58:16.598498</dc:date>
    <dc:format>image/svg+xml</dc:format>
    <dc:creator>
     <cc:Agent>
      <dc:title>Matplotlib v3.5.1, https://matplotlib.org/</dc:title>
     </cc:Agent>
    </dc:creator>
   </cc:Work>
  </rdf:RDF>
 </metadata>
 <defs>
  <style type="text/css">*{stroke-linejoin: round; stroke-linecap: butt}</style>
 </defs>
 <g id="figure_1">
  <g id="patch_1">
   <path d="M 0 288 
L 1080 288 
L 1080 0 
L 0 0 
z
" style="fill: #f0f0f0"/>
  </g>
  <g id="axes_1">
   <g id="patch_2">
    <path d="M 34.62 255.833125 
L 1047.6675 255.833125 
L 1047.6675 44.24 
L 34.62 44.24 
z
" style="fill: #f0f0f0"/>
   </g>
   <g id="matplotlib.axis_1">
    <g id="xtick_1">
     <g id="text_1">
      <!--  Total Asset Growth Rate -->
      <g style="fill: #262626" transform="translate(37.509375 270.706719)scale(0.11 -0.11)">
       <defs>
        <path id="ArialMT-20" transform="scale(0.015625)"/>
        <path id="ArialMT-54" d="M 1659 0 
L 1659 4041 
L 150 4041 
L 150 4581 
L 3781 4581 
L 3781 4041 
L 2266 4041 
L 2266 0 
L 1659 0 
z
" transform="scale(0.015625)"/>
        <path id="ArialMT-6f" d="M 213 1659 
Q 213 2581 725 3025 
Q 1153 3394 1769 3394 
Q 2453 3394 2887 2945 
Q 3322 2497 3322 1706 
Q 3322 1066 3130 698 
Q 2938 331 2570 128 
Q 2203 -75 1769 -75 
Q 1072 -75 642 372 
Q 213 819 213 1659 
z
M 791 1659 
Q 791 1022 1069 705 
Q 1347 388 1769 388 
Q 2188 388 2466 706 
Q 2744 1025 2744 1678 
Q 2744 2294 2464 2611 
Q 2184 2928 1769 2928 
Q 1347 2928 1069 2612 
Q 791 2297 791 1659 
z
" transform="scale(0.015625)"/>
        <path id="ArialMT-74" d="M 1650 503 
L 1731 6 
Q 1494 -44 1306 -44 
Q 1000 -44 831 53 
Q 663 150 594 308 
Q 525 466 525 972 
L 525 2881 
L 113 2881 
L 113 3319 
L 525 3319 
L 525 4141 
L 1084 4478 
L 1084 3319 
L 1650 3319 
L 1650 2881 
L 1084 2881 
L 1084 941 
Q 1084 700 1114 631 
Q 1144 563 1211 522 
Q 1278 481 1403 481 
Q 1497 481 1650 503 
z
" transform="scale(0.015625)"/>
        <path id="ArialMT-61" d="M 2588 409 
Q 2275 144 1986 34 
Q 1697 -75 1366 -75 
Q 819 -75 525 192 
Q 231 459 231 875 
Q 231 1119 342 1320 
Q 453 1522 633 1644 
Q 813 1766 1038 1828 
Q 1203 1872 1538 1913 
Q 2219 1994 2541 2106 
Q 2544 2222 2544 2253 
Q 2544 2597 2384 2738 
Q 2169 2928 1744 2928 
Q 1347 2928 1158 2789 
Q 969 2650 878 2297 
L 328 2372 
Q 403 2725 575 2942 
Q 747 3159 1072 3276 
Q 1397 3394 1825 3394 
Q 2250 3394 2515 3294 
Q 2781 3194 2906 3042 
Q 3031 2891 3081 2659 
Q 3109 2516 3109 2141 
L 3109 1391 
Q 3109 606 3145 398 
Q 3181 191 3288 0 
L 2700 0 
Q 2613 175 2588 409 
z
M 2541 1666 
Q 2234 1541 1622 1453 
Q 1275 1403 1131 1340 
Q 988 1278 909 1158 
Q 831 1038 831 891 
Q 831 666 1001 516 
Q 1172 366 1500 366 
Q 1825 366 2078 508 
Q 2331 650 2450 897 
Q 2541 1088 2541 1459 
L 2541 1666 
z
" transform="scale(0.015625)"/>
        <path id="ArialMT-6c" d="M 409 0 
L 409 4581 
L 972 4581 
L 972 0 
L 409 0 
z
" transform="scale(0.015625)"/>
        <path id="ArialMT-41" d="M -9 0 
L 1750 4581 
L 2403 4581 
L 4278 0 
L 3588 0 
L 3053 1388 
L 1138 1388 
L 634 0 
L -9 0 
z
M 1313 1881 
L 2866 1881 
L 2388 3150 
Q 2169 3728 2063 4100 
Q 1975 3659 1816 3225 
L 1313 1881 
z
" transform="scale(0.015625)"/>
        <path id="ArialMT-73" d="M 197 991 
L 753 1078 
Q 800 744 1014 566 
Q 1228 388 1613 388 
Q 2000 388 2187 545 
Q 2375 703 2375 916 
Q 2375 1106 2209 1216 
Q 2094 1291 1634 1406 
Q 1016 1563 777 1677 
Q 538 1791 414 1992 
Q 291 2194 291 2438 
Q 291 2659 392 2848 
Q 494 3038 669 3163 
Q 800 3259 1026 3326 
Q 1253 3394 1513 3394 
Q 1903 3394 2198 3281 
Q 2494 3169 2634 2976 
Q 2775 2784 2828 2463 
L 2278 2388 
Q 2241 2644 2061 2787 
Q 1881 2931 1553 2931 
Q 1166 2931 1000 2803 
Q 834 2675 834 2503 
Q 834 2394 903 2306 
Q 972 2216 1119 2156 
Q 1203 2125 1616 2013 
Q 2213 1853 2448 1751 
Q 2684 1650 2818 1456 
Q 2953 1263 2953 975 
Q 2953 694 2789 445 
Q 2625 197 2315 61 
Q 2006 -75 1616 -75 
Q 969 -75 630 194 
Q 291 463 197 991 
z
" transform="scale(0.015625)"/>
        <path id="ArialMT-65" d="M 2694 1069 
L 3275 997 
Q 3138 488 2766 206 
Q 2394 -75 1816 -75 
Q 1088 -75 661 373 
Q 234 822 234 1631 
Q 234 2469 665 2931 
Q 1097 3394 1784 3394 
Q 2450 3394 2872 2941 
Q 3294 2488 3294 1666 
Q 3294 1616 3291 1516 
L 816 1516 
Q 847 969 1125 678 
Q 1403 388 1819 388 
Q 2128 388 2347 550 
Q 2566 713 2694 1069 
z
M 847 1978 
L 2700 1978 
Q 2663 2397 2488 2606 
Q 2219 2931 1791 2931 
Q 1403 2931 1139 2672 
Q 875 2413 847 1978 
z
" transform="scale(0.015625)"/>
        <path id="ArialMT-47" d="M 2638 1797 
L 2638 2334 
L 4578 2338 
L 4578 638 
Q 4131 281 3656 101 
Q 3181 -78 2681 -78 
Q 2006 -78 1454 211 
Q 903 500 622 1047 
Q 341 1594 341 2269 
Q 341 2938 620 3517 
Q 900 4097 1425 4378 
Q 1950 4659 2634 4659 
Q 3131 4659 3532 4498 
Q 3934 4338 4162 4050 
Q 4391 3763 4509 3300 
L 3963 3150 
Q 3859 3500 3706 3700 
Q 3553 3900 3268 4020 
Q 2984 4141 2638 4141 
Q 2222 4141 1919 4014 
Q 1616 3888 1430 3681 
Q 1244 3475 1141 3228 
Q 966 2803 966 2306 
Q 966 1694 1177 1281 
Q 1388 869 1791 669 
Q 2194 469 2647 469 
Q 3041 469 3416 620 
Q 3791 772 3984 944 
L 3984 1797 
L 2638 1797 
z
" transform="scale(0.015625)"/>
        <path id="ArialMT-72" d="M 416 0 
L 416 3319 
L 922 3319 
L 922 2816 
Q 1116 3169 1280 3281 
Q 1444 3394 1641 3394 
Q 1925 3394 2219 3213 
L 2025 2691 
Q 1819 2813 1613 2813 
Q 1428 2813 1281 2702 
Q 1134 2591 1072 2394 
Q 978 2094 978 1738 
L 978 0 
L 416 0 
z
" transform="scale(0.015625)"/>
        <path id="ArialMT-77" d="M 1034 0 
L 19 3319 
L 600 3319 
L 1128 1403 
L 1325 691 
Q 1338 744 1497 1375 
L 2025 3319 
L 2603 3319 
L 3100 1394 
L 3266 759 
L 3456 1400 
L 4025 3319 
L 4572 3319 
L 3534 0 
L 2950 0 
L 2422 1988 
L 2294 2553 
L 1622 0 
L 1034 0 
z
" transform="scale(0.015625)"/>
        <path id="ArialMT-68" d="M 422 0 
L 422 4581 
L 984 4581 
L 984 2938 
Q 1378 3394 1978 3394 
Q 2347 3394 2619 3248 
Q 2891 3103 3008 2847 
Q 3125 2591 3125 2103 
L 3125 0 
L 2563 0 
L 2563 2103 
Q 2563 2525 2380 2717 
Q 2197 2909 1863 2909 
Q 1613 2909 1392 2779 
Q 1172 2650 1078 2428 
Q 984 2206 984 1816 
L 984 0 
L 422 0 
z
" transform="scale(0.015625)"/>
        <path id="ArialMT-52" d="M 503 0 
L 503 4581 
L 2534 4581 
Q 3147 4581 3465 4457 
Q 3784 4334 3975 4021 
Q 4166 3709 4166 3331 
Q 4166 2844 3850 2509 
Q 3534 2175 2875 2084 
Q 3116 1969 3241 1856 
Q 3506 1613 3744 1247 
L 4541 0 
L 3778 0 
L 3172 953 
Q 2906 1366 2734 1584 
Q 2563 1803 2427 1890 
Q 2291 1978 2150 2013 
Q 2047 2034 1813 2034 
L 1109 2034 
L 1109 0 
L 503 0 
z
M 1109 2559 
L 2413 2559 
Q 2828 2559 3062 2645 
Q 3297 2731 3419 2920 
Q 3541 3109 3541 3331 
Q 3541 3656 3305 3865 
Q 3069 4075 2559 4075 
L 1109 4075 
L 1109 2559 
z
" transform="scale(0.015625)"/>
       </defs>
       <use xlink:href="#ArialMT-20"/>
       <use xlink:href="#ArialMT-54" x="26.033203"/>
       <use xlink:href="#ArialMT-6f" x="75.992188"/>
       <use xlink:href="#ArialMT-74" x="131.607422"/>
       <use xlink:href="#ArialMT-61" x="159.390625"/>
       <use xlink:href="#ArialMT-6c" x="215.005859"/>
       <use xlink:href="#ArialMT-20" x="237.222656"/>
       <use xlink:href="#ArialMT-41" x="259.505859"/>
       <use xlink:href="#ArialMT-73" x="326.205078"/>
       <use xlink:href="#ArialMT-73" x="376.205078"/>
       <use xlink:href="#ArialMT-65" x="426.205078"/>
       <use xlink:href="#ArialMT-74" x="481.820312"/>
       <use xlink:href="#ArialMT-20" x="509.603516"/>
       <use xlink:href="#ArialMT-47" x="537.386719"/>
       <use xlink:href="#ArialMT-72" x="615.169922"/>
       <use xlink:href="#ArialMT-6f" x="648.470703"/>
       <use xlink:href="#ArialMT-77" x="704.085938"/>
       <use xlink:href="#ArialMT-74" x="776.302734"/>
       <use xlink:href="#ArialMT-68" x="804.085938"/>
       <use xlink:href="#ArialMT-20" x="859.701172"/>
       <use xlink:href="#ArialMT-52" x="887.484375"/>
       <use xlink:href="#ArialMT-61" x="959.701172"/>
       <use xlink:href="#ArialMT-74" x="1015.316406"/>
       <use xlink:href="#ArialMT-65" x="1043.099609"/>
      </g>
     </g>
    </g>
    <g id="xtick_2">
     <g id="text_2">
      <!--  Net Value Growth Rate -->
      <g style="fill: #262626" transform="translate(166.892031 270.706719)scale(0.11 -0.11)">
       <defs>
        <path id="ArialMT-4e" d="M 488 0 
L 488 4581 
L 1109 4581 
L 3516 984 
L 3516 4581 
L 4097 4581 
L 4097 0 
L 3475 0 
L 1069 3600 
L 1069 0 
L 488 0 
z
" transform="scale(0.015625)"/>
        <path id="ArialMT-56" d="M 1803 0 
L 28 4581 
L 684 4581 
L 1875 1253 
Q 2019 853 2116 503 
Q 2222 878 2363 1253 
L 3600 4581 
L 4219 4581 
L 2425 0 
L 1803 0 
z
" transform="scale(0.015625)"/>
        <path id="ArialMT-75" d="M 2597 0 
L 2597 488 
Q 2209 -75 1544 -75 
Q 1250 -75 995 37 
Q 741 150 617 320 
Q 494 491 444 738 
Q 409 903 409 1263 
L 409 3319 
L 972 3319 
L 972 1478 
Q 972 1038 1006 884 
Q 1059 663 1231 536 
Q 1403 409 1656 409 
Q 1909 409 2131 539 
Q 2353 669 2445 892 
Q 2538 1116 2538 1541 
L 2538 3319 
L 3100 3319 
L 3100 0 
L 2597 0 
z
" transform="scale(0.015625)"/>
       </defs>
       <use xlink:href="#ArialMT-20"/>
       <use xlink:href="#ArialMT-4e" x="27.783203"/>
       <use xlink:href="#ArialMT-65" x="100"/>
       <use xlink:href="#ArialMT-74" x="155.615234"/>
       <use xlink:href="#ArialMT-20" x="183.398438"/>
       <use xlink:href="#ArialMT-56" x="211.181641"/>
       <use xlink:href="#ArialMT-61" x="270.505859"/>
       <use xlink:href="#ArialMT-6c" x="326.121094"/>
       <use xlink:href="#ArialMT-75" x="348.337891"/>
       <use xlink:href="#ArialMT-65" x="403.953125"/>
       <use xlink:href="#ArialMT-20" x="459.568359"/>
       <use xlink:href="#ArialMT-47" x="487.351562"/>
       <use xlink:href="#ArialMT-72" x="565.134766"/>
       <use xlink:href="#ArialMT-6f" x="598.435547"/>
       <use xlink:href="#ArialMT-77" x="654.050781"/>
       <use xlink:href="#ArialMT-74" x="726.267578"/>
       <use xlink:href="#ArialMT-68" x="754.050781"/>
       <use xlink:href="#ArialMT-20" x="809.666016"/>
       <use xlink:href="#ArialMT-52" x="837.449219"/>
       <use xlink:href="#ArialMT-61" x="909.666016"/>
       <use xlink:href="#ArialMT-74" x="965.28125"/>
       <use xlink:href="#ArialMT-65" x="993.064453"/>
      </g>
     </g>
    </g>
    <g id="xtick_3">
     <g id="text_3">
      <!--  Total Asset Return Growth Rate Ratio -->
      <g style="fill: #262626" transform="translate(258.369375 270.706719)scale(0.11 -0.11)">
       <defs>
        <path id="ArialMT-6e" d="M 422 0 
L 422 3319 
L 928 3319 
L 928 2847 
Q 1294 3394 1984 3394 
Q 2284 3394 2536 3286 
Q 2788 3178 2913 3003 
Q 3038 2828 3088 2588 
Q 3119 2431 3119 2041 
L 3119 0 
L 2556 0 
L 2556 2019 
Q 2556 2363 2490 2533 
Q 2425 2703 2258 2804 
Q 2091 2906 1866 2906 
Q 1506 2906 1245 2678 
Q 984 2450 984 1813 
L 984 0 
L 422 0 
z
" transform="scale(0.015625)"/>
        <path id="ArialMT-69" d="M 425 3934 
L 425 4581 
L 988 4581 
L 988 3934 
L 425 3934 
z
M 425 0 
L 425 3319 
L 988 3319 
L 988 0 
L 425 0 
z
" transform="scale(0.015625)"/>
       </defs>
       <use xlink:href="#ArialMT-20"/>
       <use xlink:href="#ArialMT-54" x="26.033203"/>
       <use xlink:href="#ArialMT-6f" x="75.992188"/>
       <use xlink:href="#ArialMT-74" x="131.607422"/>
       <use xlink:href="#ArialMT-61" x="159.390625"/>
       <use xlink:href="#ArialMT-6c" x="215.005859"/>
       <use xlink:href="#ArialMT-20" x="237.222656"/>
       <use xlink:href="#ArialMT-41" x="259.505859"/>
       <use xlink:href="#ArialMT-73" x="326.205078"/>
       <use xlink:href="#ArialMT-73" x="376.205078"/>
       <use xlink:href="#ArialMT-65" x="426.205078"/>
       <use xlink:href="#ArialMT-74" x="481.820312"/>
       <use xlink:href="#ArialMT-20" x="509.603516"/>
       <use xlink:href="#ArialMT-52" x="537.386719"/>
       <use xlink:href="#ArialMT-65" x="609.603516"/>
       <use xlink:href="#ArialMT-74" x="665.21875"/>
       <use xlink:href="#ArialMT-75" x="693.001953"/>
       <use xlink:href="#ArialMT-72" x="748.617188"/>
       <use xlink:href="#ArialMT-6e" x="781.917969"/>
       <use xlink:href="#ArialMT-20" x="837.533203"/>
       <use xlink:href="#ArialMT-47" x="865.316406"/>
       <use xlink:href="#ArialMT-72" x="943.099609"/>
       <use xlink:href="#ArialMT-6f" x="976.400391"/>
       <use xlink:href="#ArialMT-77" x="1032.015625"/>
       <use xlink:href="#ArialMT-74" x="1104.232422"/>
       <use xlink:href="#ArialMT-68" x="1132.015625"/>
       <use xlink:href="#ArialMT-20" x="1187.630859"/>
       <use xlink:href="#ArialMT-52" x="1215.414062"/>
       <use xlink:href="#ArialMT-61" x="1287.630859"/>
       <use xlink:href="#ArialMT-74" x="1343.246094"/>
       <use xlink:href="#ArialMT-65" x="1371.029297"/>
       <use xlink:href="#ArialMT-20" x="1426.644531"/>
       <use xlink:href="#ArialMT-52" x="1454.427734"/>
       <use xlink:href="#ArialMT-61" x="1526.644531"/>
       <use xlink:href="#ArialMT-74" x="1582.259766"/>
       <use xlink:href="#ArialMT-69" x="1610.042969"/>
       <use xlink:href="#ArialMT-6f" x="1632.259766"/>
      </g>
     </g>
    </g>
    <g id="xtick_4">
     <g id="text_4">
      <!--  Cash Reinvestment % -->
      <g style="fill: #262626" transform="translate(421.890703 270.706719)scale(0.11 -0.11)">
       <defs>
        <path id="ArialMT-43" d="M 3763 1606 
L 4369 1453 
Q 4178 706 3683 314 
Q 3188 -78 2472 -78 
Q 1731 -78 1267 223 
Q 803 525 561 1097 
Q 319 1669 319 2325 
Q 319 3041 592 3573 
Q 866 4106 1370 4382 
Q 1875 4659 2481 4659 
Q 3169 4659 3637 4309 
Q 4106 3959 4291 3325 
L 3694 3184 
Q 3534 3684 3231 3912 
Q 2928 4141 2469 4141 
Q 1941 4141 1586 3887 
Q 1231 3634 1087 3207 
Q 944 2781 944 2328 
Q 944 1744 1114 1308 
Q 1284 872 1643 656 
Q 2003 441 2422 441 
Q 2931 441 3284 734 
Q 3638 1028 3763 1606 
z
" transform="scale(0.015625)"/>
        <path id="ArialMT-76" d="M 1344 0 
L 81 3319 
L 675 3319 
L 1388 1331 
Q 1503 1009 1600 663 
Q 1675 925 1809 1294 
L 2547 3319 
L 3125 3319 
L 1869 0 
L 1344 0 
z
" transform="scale(0.015625)"/>
        <path id="ArialMT-6d" d="M 422 0 
L 422 3319 
L 925 3319 
L 925 2853 
Q 1081 3097 1340 3245 
Q 1600 3394 1931 3394 
Q 2300 3394 2536 3241 
Q 2772 3088 2869 2813 
Q 3263 3394 3894 3394 
Q 4388 3394 4653 3120 
Q 4919 2847 4919 2278 
L 4919 0 
L 4359 0 
L 4359 2091 
Q 4359 2428 4304 2576 
Q 4250 2725 4106 2815 
Q 3963 2906 3769 2906 
Q 3419 2906 3187 2673 
Q 2956 2441 2956 1928 
L 2956 0 
L 2394 0 
L 2394 2156 
Q 2394 2531 2256 2718 
Q 2119 2906 1806 2906 
Q 1569 2906 1367 2781 
Q 1166 2656 1075 2415 
Q 984 2175 984 1722 
L 984 0 
L 422 0 
z
" transform="scale(0.015625)"/>
        <path id="ArialMT-25" d="M 372 3481 
Q 372 3972 619 4315 
Q 866 4659 1334 4659 
Q 1766 4659 2048 4351 
Q 2331 4044 2331 3447 
Q 2331 2866 2045 2552 
Q 1759 2238 1341 2238 
Q 925 2238 648 2547 
Q 372 2856 372 3481 
z
M 1350 4272 
Q 1141 4272 1002 4090 
Q 863 3909 863 3425 
Q 863 2984 1003 2804 
Q 1144 2625 1350 2625 
Q 1563 2625 1702 2806 
Q 1841 2988 1841 3469 
Q 1841 3913 1700 4092 
Q 1559 4272 1350 4272 
z
M 1353 -169 
L 3859 4659 
L 4316 4659 
L 1819 -169 
L 1353 -169 
z
M 3334 1075 
Q 3334 1569 3581 1911 
Q 3828 2253 4300 2253 
Q 4731 2253 5014 1945 
Q 5297 1638 5297 1041 
Q 5297 459 5011 145 
Q 4725 -169 4303 -169 
Q 3888 -169 3611 142 
Q 3334 453 3334 1075 
z
M 4316 1866 
Q 4103 1866 3964 1684 
Q 3825 1503 3825 1019 
Q 3825 581 3965 400 
Q 4106 219 4313 219 
Q 4528 219 4667 400 
Q 4806 581 4806 1063 
Q 4806 1506 4665 1686 
Q 4525 1866 4316 1866 
z
" transform="scale(0.015625)"/>
       </defs>
       <use xlink:href="#ArialMT-20"/>
       <use xlink:href="#ArialMT-43" x="27.783203"/>
       <use xlink:href="#ArialMT-61" x="100"/>
       <use xlink:href="#ArialMT-73" x="155.615234"/>
       <use xlink:href="#ArialMT-68" x="205.615234"/>
       <use xlink:href="#ArialMT-20" x="261.230469"/>
       <use xlink:href="#ArialMT-52" x="289.013672"/>
       <use xlink:href="#ArialMT-65" x="361.230469"/>
       <use xlink:href="#ArialMT-69" x="416.845703"/>
       <use xlink:href="#ArialMT-6e" x="439.0625"/>
       <use xlink:href="#ArialMT-76" x="494.677734"/>
       <use xlink:href="#ArialMT-65" x="544.677734"/>
       <use xlink:href="#ArialMT-73" x="600.292969"/>
       <use xlink:href="#ArialMT-74" x="650.292969"/>
       <use xlink:href="#ArialMT-6d" x="678.076172"/>
       <use xlink:href="#ArialMT-65" x="761.376953"/>
       <use xlink:href="#ArialMT-6e" x="816.992188"/>
       <use xlink:href="#ArialMT-74" x="872.607422"/>
       <use xlink:href="#ArialMT-20" x="900.390625"/>
       <use xlink:href="#ArialMT-25" x="928.173828"/>
      </g>
     </g>
    </g>
    <g id="xtick_5">
     <g id="text_5">
      <!--  Current Ratio -->
      <g style="fill: #262626" transform="translate(570.226016 270.706719)scale(0.11 -0.11)">
       <use xlink:href="#ArialMT-20"/>
       <use xlink:href="#ArialMT-43" x="27.783203"/>
       <use xlink:href="#ArialMT-75" x="100"/>
       <use xlink:href="#ArialMT-72" x="155.615234"/>
       <use xlink:href="#ArialMT-72" x="188.916016"/>
       <use xlink:href="#ArialMT-65" x="222.216797"/>
       <use xlink:href="#ArialMT-6e" x="277.832031"/>
       <use xlink:href="#ArialMT-74" x="333.447266"/>
       <use xlink:href="#ArialMT-20" x="361.230469"/>
       <use xlink:href="#ArialMT-52" x="389.013672"/>
       <use xlink:href="#ArialMT-61" x="461.230469"/>
       <use xlink:href="#ArialMT-74" x="516.845703"/>
       <use xlink:href="#ArialMT-69" x="544.628906"/>
       <use xlink:href="#ArialMT-6f" x="566.845703"/>
      </g>
     </g>
    </g>
    <g id="xtick_6">
     <g id="text_6">
      <!--  Interest Expense Ratio -->
      <g style="fill: #262626" transform="translate(673.923672 270.706719)scale(0.11 -0.11)">
       <defs>
        <path id="ArialMT-49" d="M 597 0 
L 597 4581 
L 1203 4581 
L 1203 0 
L 597 0 
z
" transform="scale(0.015625)"/>
        <path id="ArialMT-45" d="M 506 0 
L 506 4581 
L 3819 4581 
L 3819 4041 
L 1113 4041 
L 1113 2638 
L 3647 2638 
L 3647 2100 
L 1113 2100 
L 1113 541 
L 3925 541 
L 3925 0 
L 506 0 
z
" transform="scale(0.015625)"/>
        <path id="ArialMT-78" d="M 47 0 
L 1259 1725 
L 138 3319 
L 841 3319 
L 1350 2541 
Q 1494 2319 1581 2169 
Q 1719 2375 1834 2534 
L 2394 3319 
L 3066 3319 
L 1919 1756 
L 3153 0 
L 2463 0 
L 1781 1031 
L 1600 1309 
L 728 0 
L 47 0 
z
" transform="scale(0.015625)"/>
        <path id="ArialMT-70" d="M 422 -1272 
L 422 3319 
L 934 3319 
L 934 2888 
Q 1116 3141 1344 3267 
Q 1572 3394 1897 3394 
Q 2322 3394 2647 3175 
Q 2972 2956 3137 2557 
Q 3303 2159 3303 1684 
Q 3303 1175 3120 767 
Q 2938 359 2589 142 
Q 2241 -75 1856 -75 
Q 1575 -75 1351 44 
Q 1128 163 984 344 
L 984 -1272 
L 422 -1272 
z
M 931 1641 
Q 931 1000 1190 694 
Q 1450 388 1819 388 
Q 2194 388 2461 705 
Q 2728 1022 2728 1688 
Q 2728 2322 2467 2637 
Q 2206 2953 1844 2953 
Q 1484 2953 1207 2617 
Q 931 2281 931 1641 
z
" transform="scale(0.015625)"/>
       </defs>
       <use xlink:href="#ArialMT-20"/>
       <use xlink:href="#ArialMT-49" x="27.783203"/>
       <use xlink:href="#ArialMT-6e" x="55.566406"/>
       <use xlink:href="#ArialMT-74" x="111.181641"/>
       <use xlink:href="#ArialMT-65" x="138.964844"/>
       <use xlink:href="#ArialMT-72" x="194.580078"/>
       <use xlink:href="#ArialMT-65" x="227.880859"/>
       <use xlink:href="#ArialMT-73" x="283.496094"/>
       <use xlink:href="#ArialMT-74" x="333.496094"/>
       <use xlink:href="#ArialMT-20" x="361.279297"/>
       <use xlink:href="#ArialMT-45" x="389.0625"/>
       <use xlink:href="#ArialMT-78" x="455.761719"/>
       <use xlink:href="#ArialMT-70" x="505.761719"/>
       <use xlink:href="#ArialMT-65" x="561.376953"/>
       <use xlink:href="#ArialMT-6e" x="616.992188"/>
       <use xlink:href="#ArialMT-73" x="672.607422"/>
       <use xlink:href="#ArialMT-65" x="722.607422"/>
       <use xlink:href="#ArialMT-20" x="778.222656"/>
       <use xlink:href="#ArialMT-52" x="806.005859"/>
       <use xlink:href="#ArialMT-61" x="878.222656"/>
       <use xlink:href="#ArialMT-74" x="933.837891"/>
       <use xlink:href="#ArialMT-69" x="961.621094"/>
       <use xlink:href="#ArialMT-6f" x="983.837891"/>
      </g>
     </g>
    </g>
    <g id="xtick_7">
     <g id="text_7">
      <!--  Long-term fund suitability ratio (A) -->
      <g style="fill: #262626" transform="translate(773.663906 270.840781)scale(0.11 -0.11)">
       <defs>
        <path id="ArialMT-4c" d="M 469 0 
L 469 4581 
L 1075 4581 
L 1075 541 
L 3331 541 
L 3331 0 
L 469 0 
z
" transform="scale(0.015625)"/>
        <path id="ArialMT-67" d="M 319 -275 
L 866 -356 
Q 900 -609 1056 -725 
Q 1266 -881 1628 -881 
Q 2019 -881 2231 -725 
Q 2444 -569 2519 -288 
Q 2563 -116 2559 434 
Q 2191 0 1641 0 
Q 956 0 581 494 
Q 206 988 206 1678 
Q 206 2153 378 2554 
Q 550 2956 876 3175 
Q 1203 3394 1644 3394 
Q 2231 3394 2613 2919 
L 2613 3319 
L 3131 3319 
L 3131 450 
Q 3131 -325 2973 -648 
Q 2816 -972 2473 -1159 
Q 2131 -1347 1631 -1347 
Q 1038 -1347 672 -1080 
Q 306 -813 319 -275 
z
M 784 1719 
Q 784 1066 1043 766 
Q 1303 466 1694 466 
Q 2081 466 2343 764 
Q 2606 1063 2606 1700 
Q 2606 2309 2336 2618 
Q 2066 2928 1684 2928 
Q 1309 2928 1046 2623 
Q 784 2319 784 1719 
z
" transform="scale(0.015625)"/>
        <path id="ArialMT-2d" d="M 203 1375 
L 203 1941 
L 1931 1941 
L 1931 1375 
L 203 1375 
z
" transform="scale(0.015625)"/>
        <path id="ArialMT-66" d="M 556 0 
L 556 2881 
L 59 2881 
L 59 3319 
L 556 3319 
L 556 3672 
Q 556 4006 616 4169 
Q 697 4388 901 4523 
Q 1106 4659 1475 4659 
Q 1713 4659 2000 4603 
L 1916 4113 
Q 1741 4144 1584 4144 
Q 1328 4144 1222 4034 
Q 1116 3925 1116 3625 
L 1116 3319 
L 1763 3319 
L 1763 2881 
L 1116 2881 
L 1116 0 
L 556 0 
z
" transform="scale(0.015625)"/>
        <path id="ArialMT-64" d="M 2575 0 
L 2575 419 
Q 2259 -75 1647 -75 
Q 1250 -75 917 144 
Q 584 363 401 755 
Q 219 1147 219 1656 
Q 219 2153 384 2558 
Q 550 2963 881 3178 
Q 1213 3394 1622 3394 
Q 1922 3394 2156 3267 
Q 2391 3141 2538 2938 
L 2538 4581 
L 3097 4581 
L 3097 0 
L 2575 0 
z
M 797 1656 
Q 797 1019 1065 703 
Q 1334 388 1700 388 
Q 2069 388 2326 689 
Q 2584 991 2584 1609 
Q 2584 2291 2321 2609 
Q 2059 2928 1675 2928 
Q 1300 2928 1048 2622 
Q 797 2316 797 1656 
z
" transform="scale(0.015625)"/>
        <path id="ArialMT-62" d="M 941 0 
L 419 0 
L 419 4581 
L 981 4581 
L 981 2947 
Q 1338 3394 1891 3394 
Q 2197 3394 2470 3270 
Q 2744 3147 2920 2923 
Q 3097 2700 3197 2384 
Q 3297 2069 3297 1709 
Q 3297 856 2875 390 
Q 2453 -75 1863 -75 
Q 1275 -75 941 416 
L 941 0 
z
M 934 1684 
Q 934 1088 1097 822 
Q 1363 388 1816 388 
Q 2184 388 2453 708 
Q 2722 1028 2722 1663 
Q 2722 2313 2464 2622 
Q 2206 2931 1841 2931 
Q 1472 2931 1203 2611 
Q 934 2291 934 1684 
z
" transform="scale(0.015625)"/>
        <path id="ArialMT-79" d="M 397 -1278 
L 334 -750 
Q 519 -800 656 -800 
Q 844 -800 956 -737 
Q 1069 -675 1141 -563 
Q 1194 -478 1313 -144 
Q 1328 -97 1363 -6 
L 103 3319 
L 709 3319 
L 1400 1397 
Q 1534 1031 1641 628 
Q 1738 1016 1872 1384 
L 2581 3319 
L 3144 3319 
L 1881 -56 
Q 1678 -603 1566 -809 
Q 1416 -1088 1222 -1217 
Q 1028 -1347 759 -1347 
Q 597 -1347 397 -1278 
z
" transform="scale(0.015625)"/>
        <path id="ArialMT-28" d="M 1497 -1347 
Q 1031 -759 709 28 
Q 388 816 388 1659 
Q 388 2403 628 3084 
Q 909 3875 1497 4659 
L 1900 4659 
Q 1522 4009 1400 3731 
Q 1209 3300 1100 2831 
Q 966 2247 966 1656 
Q 966 153 1900 -1347 
L 1497 -1347 
z
" transform="scale(0.015625)"/>
        <path id="ArialMT-29" d="M 791 -1347 
L 388 -1347 
Q 1322 153 1322 1656 
Q 1322 2244 1188 2822 
Q 1081 3291 891 3722 
Q 769 4003 388 4659 
L 791 4659 
Q 1378 3875 1659 3084 
Q 1900 2403 1900 1659 
Q 1900 816 1576 28 
Q 1253 -759 791 -1347 
z
" transform="scale(0.015625)"/>
       </defs>
       <use xlink:href="#ArialMT-20"/>
       <use xlink:href="#ArialMT-4c" x="27.783203"/>
       <use xlink:href="#ArialMT-6f" x="83.398438"/>
       <use xlink:href="#ArialMT-6e" x="139.013672"/>
       <use xlink:href="#ArialMT-67" x="194.628906"/>
       <use xlink:href="#ArialMT-2d" x="250.244141"/>
       <use xlink:href="#ArialMT-74" x="283.544922"/>
       <use xlink:href="#ArialMT-65" x="311.328125"/>
       <use xlink:href="#ArialMT-72" x="366.943359"/>
       <use xlink:href="#ArialMT-6d" x="400.244141"/>
       <use xlink:href="#ArialMT-20" x="483.544922"/>
       <use xlink:href="#ArialMT-66" x="511.328125"/>
       <use xlink:href="#ArialMT-75" x="539.111328"/>
       <use xlink:href="#ArialMT-6e" x="594.726562"/>
       <use xlink:href="#ArialMT-64" x="650.341797"/>
       <use xlink:href="#ArialMT-20" x="705.957031"/>
       <use xlink:href="#ArialMT-73" x="733.740234"/>
       <use xlink:href="#ArialMT-75" x="783.740234"/>
       <use xlink:href="#ArialMT-69" x="839.355469"/>
       <use xlink:href="#ArialMT-74" x="861.572266"/>
       <use xlink:href="#ArialMT-61" x="889.355469"/>
       <use xlink:href="#ArialMT-62" x="944.970703"/>
       <use xlink:href="#ArialMT-69" x="1000.585938"/>
       <use xlink:href="#ArialMT-6c" x="1022.802734"/>
       <use xlink:href="#ArialMT-69" x="1045.019531"/>
       <use xlink:href="#ArialMT-74" x="1067.236328"/>
       <use xlink:href="#ArialMT-79" x="1095.019531"/>
       <use xlink:href="#ArialMT-20" x="1145.019531"/>
       <use xlink:href="#ArialMT-72" x="1172.802734"/>
       <use xlink:href="#ArialMT-61" x="1206.103516"/>
       <use xlink:href="#ArialMT-74" x="1261.71875"/>
       <use xlink:href="#ArialMT-69" x="1289.501953"/>
       <use xlink:href="#ArialMT-6f" x="1311.71875"/>
       <use xlink:href="#ArialMT-20" x="1367.333984"/>
       <use xlink:href="#ArialMT-28" x="1395.117188"/>
       <use xlink:href="#ArialMT-41" x="1428.417969"/>
       <use xlink:href="#ArialMT-29" x="1495.117188"/>
      </g>
     </g>
    </g>
    <g id="xtick_8">
     <g id="text_8">
      <!--  Contingent liabilities/Net worth -->
      <g style="fill: #262626" transform="translate(908.846484 270.840781)scale(0.11 -0.11)">
       <defs>
        <path id="ArialMT-2f" d="M 0 -78 
L 1328 4659 
L 1778 4659 
L 453 -78 
L 0 -78 
z
" transform="scale(0.015625)"/>
       </defs>
       <use xlink:href="#ArialMT-20"/>
       <use xlink:href="#ArialMT-43" x="27.783203"/>
       <use xlink:href="#ArialMT-6f" x="100"/>
       <use xlink:href="#ArialMT-6e" x="155.615234"/>
       <use xlink:href="#ArialMT-74" x="211.230469"/>
       <use xlink:href="#ArialMT-69" x="239.013672"/>
       <use xlink:href="#ArialMT-6e" x="261.230469"/>
       <use xlink:href="#ArialMT-67" x="316.845703"/>
       <use xlink:href="#ArialMT-65" x="372.460938"/>
       <use xlink:href="#ArialMT-6e" x="428.076172"/>
       <use xlink:href="#ArialMT-74" x="483.691406"/>
       <use xlink:href="#ArialMT-20" x="511.474609"/>
       <use xlink:href="#ArialMT-6c" x="539.257812"/>
       <use xlink:href="#ArialMT-69" x="561.474609"/>
       <use xlink:href="#ArialMT-61" x="583.691406"/>
       <use xlink:href="#ArialMT-62" x="639.306641"/>
       <use xlink:href="#ArialMT-69" x="694.921875"/>
       <use xlink:href="#ArialMT-6c" x="717.138672"/>
       <use xlink:href="#ArialMT-69" x="739.355469"/>
       <use xlink:href="#ArialMT-74" x="761.572266"/>
       <use xlink:href="#ArialMT-69" x="789.355469"/>
       <use xlink:href="#ArialMT-65" x="811.572266"/>
       <use xlink:href="#ArialMT-73" x="867.1875"/>
       <use xlink:href="#ArialMT-2f" x="917.1875"/>
       <use xlink:href="#ArialMT-4e" x="944.970703"/>
       <use xlink:href="#ArialMT-65" x="1017.1875"/>
       <use xlink:href="#ArialMT-74" x="1072.802734"/>
       <use xlink:href="#ArialMT-20" x="1100.585938"/>
       <use xlink:href="#ArialMT-77" x="1128.369141"/>
       <use xlink:href="#ArialMT-6f" x="1200.585938"/>
       <use xlink:href="#ArialMT-72" x="1256.201172"/>
       <use xlink:href="#ArialMT-74" x="1289.501953"/>
       <use xlink:href="#ArialMT-68" x="1317.285156"/>
      </g>
     </g>
    </g>
   </g>
   <g id="matplotlib.axis_2">
    <g id="ytick_1">
     <g id="line2d_1">
      <path d="M 34.62 246.9177 
L 1047.6675 246.9177 
" clip-path="url(#pac6b6ebf51)" style="fill: none; stroke: #cbcbcb"/>
     </g>
     <g id="text_9">
      <!-- −6 -->
      <g style="fill: #262626" transform="translate(15.078281 250.854497)scale(0.11 -0.11)">
       <defs>
        <path id="ArialMT-2212" d="M 3381 1997 
L 356 1997 
L 356 2522 
L 3381 2522 
L 3381 1997 
z
" transform="scale(0.015625)"/>
        <path id="ArialMT-36" d="M 3184 3459 
L 2625 3416 
Q 2550 3747 2413 3897 
Q 2184 4138 1850 4138 
Q 1581 4138 1378 3988 
Q 1113 3794 959 3422 
Q 806 3050 800 2363 
Q 1003 2672 1297 2822 
Q 1591 2972 1913 2972 
Q 2475 2972 2870 2558 
Q 3266 2144 3266 1488 
Q 3266 1056 3080 686 
Q 2894 316 2569 119 
Q 2244 -78 1831 -78 
Q 1128 -78 684 439 
Q 241 956 241 2144 
Q 241 3472 731 4075 
Q 1159 4600 1884 4600 
Q 2425 4600 2770 4297 
Q 3116 3994 3184 3459 
z
M 888 1484 
Q 888 1194 1011 928 
Q 1134 663 1356 523 
Q 1578 384 1822 384 
Q 2178 384 2434 671 
Q 2691 959 2691 1453 
Q 2691 1928 2437 2201 
Q 2184 2475 1800 2475 
Q 1419 2475 1153 2201 
Q 888 1928 888 1484 
z
" transform="scale(0.015625)"/>
       </defs>
       <use xlink:href="#ArialMT-2212"/>
       <use xlink:href="#ArialMT-36" x="58.398438"/>
      </g>
     </g>
    </g>
    <g id="ytick_2">
     <g id="line2d_2">
      <path d="M 34.62 222.424017 
L 1047.6675 222.424017 
" clip-path="url(#pac6b6ebf51)" style="fill: none; stroke: #cbcbcb"/>
     </g>
     <g id="text_10">
      <!-- −4 -->
      <g style="fill: #262626" transform="translate(15.078281 226.360814)scale(0.11 -0.11)">
       <defs>
        <path id="ArialMT-34" d="M 2069 0 
L 2069 1097 
L 81 1097 
L 81 1613 
L 2172 4581 
L 2631 4581 
L 2631 1613 
L 3250 1613 
L 3250 1097 
L 2631 1097 
L 2631 0 
L 2069 0 
z
M 2069 1613 
L 2069 3678 
L 634 1613 
L 2069 1613 
z
" transform="scale(0.015625)"/>
       </defs>
       <use xlink:href="#ArialMT-2212"/>
       <use xlink:href="#ArialMT-34" x="58.398438"/>
      </g>
     </g>
    </g>
    <g id="ytick_3">
     <g id="line2d_3">
      <path d="M 34.62 197.930335 
L 1047.6675 197.930335 
" clip-path="url(#pac6b6ebf51)" style="fill: none; stroke: #cbcbcb"/>
     </g>
     <g id="text_11">
      <!-- −2 -->
      <g style="fill: #262626" transform="translate(15.078281 201.867132)scale(0.11 -0.11)">
       <defs>
        <path id="ArialMT-32" d="M 3222 541 
L 3222 0 
L 194 0 
Q 188 203 259 391 
Q 375 700 629 1000 
Q 884 1300 1366 1694 
Q 2113 2306 2375 2664 
Q 2638 3022 2638 3341 
Q 2638 3675 2398 3904 
Q 2159 4134 1775 4134 
Q 1369 4134 1125 3890 
Q 881 3647 878 3216 
L 300 3275 
Q 359 3922 746 4261 
Q 1134 4600 1788 4600 
Q 2447 4600 2831 4234 
Q 3216 3869 3216 3328 
Q 3216 3053 3103 2787 
Q 2991 2522 2730 2228 
Q 2469 1934 1863 1422 
Q 1356 997 1212 845 
Q 1069 694 975 541 
L 3222 541 
z
" transform="scale(0.015625)"/>
       </defs>
       <use xlink:href="#ArialMT-2212"/>
       <use xlink:href="#ArialMT-32" x="58.398438"/>
      </g>
     </g>
    </g>
    <g id="ytick_4">
     <g id="line2d_4">
      <path d="M 34.62 173.436652 
L 1047.6675 173.436652 
" clip-path="url(#pac6b6ebf51)" style="fill: none; stroke: #cbcbcb"/>
     </g>
     <g id="text_12">
      <!-- 0 -->
      <g style="fill: #262626" transform="translate(21.502969 177.373449)scale(0.11 -0.11)">
       <defs>
        <path id="ArialMT-30" d="M 266 2259 
Q 266 3072 433 3567 
Q 600 4063 929 4331 
Q 1259 4600 1759 4600 
Q 2128 4600 2406 4451 
Q 2684 4303 2865 4023 
Q 3047 3744 3150 3342 
Q 3253 2941 3253 2259 
Q 3253 1453 3087 958 
Q 2922 463 2592 192 
Q 2263 -78 1759 -78 
Q 1097 -78 719 397 
Q 266 969 266 2259 
z
M 844 2259 
Q 844 1131 1108 757 
Q 1372 384 1759 384 
Q 2147 384 2411 759 
Q 2675 1134 2675 2259 
Q 2675 3391 2411 3762 
Q 2147 4134 1753 4134 
Q 1366 4134 1134 3806 
Q 844 3388 844 2259 
z
" transform="scale(0.015625)"/>
       </defs>
       <use xlink:href="#ArialMT-30"/>
      </g>
     </g>
    </g>
    <g id="ytick_5">
     <g id="line2d_5">
      <path d="M 34.62 148.94297 
L 1047.6675 148.94297 
" clip-path="url(#pac6b6ebf51)" style="fill: none; stroke: #cbcbcb"/>
     </g>
     <g id="text_13">
      <!-- 2 -->
      <g style="fill: #262626" transform="translate(21.502969 152.879767)scale(0.11 -0.11)">
       <use xlink:href="#ArialMT-32"/>
      </g>
     </g>
    </g>
    <g id="ytick_6">
     <g id="line2d_6">
      <path d="M 34.62 124.449287 
L 1047.6675 124.449287 
" clip-path="url(#pac6b6ebf51)" style="fill: none; stroke: #cbcbcb"/>
     </g>
     <g id="text_14">
      <!-- 4 -->
      <g style="fill: #262626" transform="translate(21.502969 128.386084)scale(0.11 -0.11)">
       <use xlink:href="#ArialMT-34"/>
      </g>
     </g>
    </g>
    <g id="ytick_7">
     <g id="line2d_7">
      <path d="M 34.62 99.955605 
L 1047.6675 99.955605 
" clip-path="url(#pac6b6ebf51)" style="fill: none; stroke: #cbcbcb"/>
     </g>
     <g id="text_15">
      <!-- 6 -->
      <g style="fill: #262626" transform="translate(21.502969 103.892402)scale(0.11 -0.11)">
       <use xlink:href="#ArialMT-36"/>
      </g>
     </g>
    </g>
    <g id="ytick_8">
     <g id="line2d_8">
      <path d="M 34.62 75.461922 
L 1047.6675 75.461922 
" clip-path="url(#pac6b6ebf51)" style="fill: none; stroke: #cbcbcb"/>
     </g>
     <g id="text_16">
      <!-- 8 -->
      <g style="fill: #262626" transform="translate(21.502969 79.398719)scale(0.11 -0.11)">
       <defs>
        <path id="ArialMT-38" d="M 1131 2484 
Q 781 2613 612 2850 
Q 444 3088 444 3419 
Q 444 3919 803 4259 
Q 1163 4600 1759 4600 
Q 2359 4600 2725 4251 
Q 3091 3903 3091 3403 
Q 3091 3084 2923 2848 
Q 2756 2613 2416 2484 
Q 2838 2347 3058 2040 
Q 3278 1734 3278 1309 
Q 3278 722 2862 322 
Q 2447 -78 1769 -78 
Q 1091 -78 675 323 
Q 259 725 259 1325 
Q 259 1772 486 2073 
Q 713 2375 1131 2484 
z
M 1019 3438 
Q 1019 3113 1228 2906 
Q 1438 2700 1772 2700 
Q 2097 2700 2305 2904 
Q 2513 3109 2513 3406 
Q 2513 3716 2298 3927 
Q 2084 4138 1766 4138 
Q 1444 4138 1231 3931 
Q 1019 3725 1019 3438 
z
M 838 1322 
Q 838 1081 952 856 
Q 1066 631 1291 507 
Q 1516 384 1775 384 
Q 2178 384 2440 643 
Q 2703 903 2703 1303 
Q 2703 1709 2433 1975 
Q 2163 2241 1756 2241 
Q 1359 2241 1098 1978 
Q 838 1716 838 1322 
z
" transform="scale(0.015625)"/>
       </defs>
       <use xlink:href="#ArialMT-38"/>
      </g>
     </g>
    </g>
    <g id="ytick_9">
     <g id="line2d_9">
      <path d="M 34.62 50.96824 
L 1047.6675 50.96824 
" clip-path="url(#pac6b6ebf51)" style="fill: none; stroke: #cbcbcb"/>
     </g>
     <g id="text_17">
      <!-- 10 -->
      <g style="fill: #262626" transform="translate(15.385937 54.905037)scale(0.11 -0.11)">
       <defs>
        <path id="ArialMT-31" d="M 2384 0 
L 1822 0 
L 1822 3584 
Q 1619 3391 1289 3197 
Q 959 3003 697 2906 
L 697 3450 
Q 1169 3672 1522 3987 
Q 1875 4303 2022 4600 
L 2384 4600 
L 2384 0 
z
" transform="scale(0.015625)"/>
       </defs>
       <use xlink:href="#ArialMT-31"/>
       <use xlink:href="#ArialMT-30" x="55.615234"/>
      </g>
     </g>
    </g>
   </g>
   <g id="PolyCollection_1">
    <defs>
     <path id="mf1b8d358ab" d="M 100.314091 -85.63844 
L 95.556846 -85.63844 
L 94.128087 -86.158094 
L 92.183616 -86.677748 
L 89.72697 -87.197402 
L 86.855906 -87.717056 
L 83.768306 -88.23671 
L 80.738545 -88.756363 
L 78.066725 -89.276017 
L 76.015895 -89.795671 
L 74.759514 -90.315325 
L 74.357815 -90.834979 
L 74.768424 -91.354633 
L 75.880825 -91.874287 
L 77.555222 -92.393941 
L 79.648804 -92.913595 
L 82.023711 -93.433249 
L 84.543176 -93.952903 
L 87.067807 -94.472557 
L 89.460724 -94.99221 
L 91.602005 -95.511864 
L 93.405781 -96.031518 
L 94.831513 -96.551172 
L 95.884425 -97.070826 
L 96.605608 -97.59048 
L 97.05649 -98.110134 
L 97.303426 -98.629788 
L 97.406472 -99.149442 
L 97.413718 -99.669096 
L 97.360243 -100.18875 
L 97.26975 -100.708403 
L 97.157014 -101.228057 
L 97.030009 -101.747711 
L 96.891338 -102.267365 
L 96.739134 -102.787019 
L 96.567771 -103.306673 
L 96.36864 -103.826327 
L 96.13107 -104.345981 
L 95.843332 -104.865635 
L 95.493564 -105.385289 
L 95.070504 -105.904943 
L 94.563924 -106.424597 
L 93.964772 -106.94425 
L 93.264949 -107.463904 
L 92.456696 -107.983558 
L 91.531528 -108.503212 
L 90.478756 -109.022866 
L 89.283864 -109.54252 
L 87.927255 -110.062174 
L 86.384049 -110.581828 
L 84.625556 -111.101482 
L 82.622721 -111.621136 
L 80.351318 -112.14079 
L 77.798171 -112.660443 
L 74.967367 -113.180097 
L 71.885379 -113.699751 
L 68.604213 -114.219405 
L 65.202018 -114.739059 
L 61.780805 -115.258713 
L 58.461169 -115.778367 
L 55.374007 -116.298021 
L 52.649614 -116.817675 
L 50.40513 -117.337329 
L 48.732087 -117.856983 
L 47.686395 -118.376637 
L 47.283094 -118.89629 
L 47.497309 -119.415944 
L 48.271244 -119.935598 
L 49.52535 -120.455252 
L 51.170646 -120.974906 
L 53.11917 -121.49456 
L 55.290596 -122.014214 
L 57.614685 -122.533868 
L 60.030738 -123.053522 
L 62.485842 -123.573176 
L 64.933431 -124.09283 
L 67.33279 -124.612483 
L 69.649292 -125.132137 
L 71.854818 -125.651791 
L 73.928062 -126.171445 
L 75.854924 -126.691099 
L 77.629352 -127.210753 
L 79.254722 -127.730407 
L 80.745152 -128.250061 
L 82.125659 -128.769715 
L 83.430091 -129.289369 
L 84.696419 -129.809023 
L 85.95995 -130.328676 
L 87.245915 -130.84833 
L 88.563328 -131.367984 
L 89.90191 -131.887638 
L 91.23317 -132.407292 
L 92.515699 -132.926946 
L 93.703512 -133.4466 
L 94.75534 -133.966254 
L 95.642457 -134.485908 
L 96.353104 -135.005562 
L 96.892723 -135.525216 
L 97.280544 -136.04487 
L 97.544055 -136.564523 
L 97.713186 -137.084177 
L 98.157752 -137.084177 
L 98.157752 -137.084177 
L 98.326882 -136.564523 
L 98.590394 -136.04487 
L 98.978215 -135.525216 
L 99.517834 -135.005562 
L 100.228481 -134.485908 
L 101.115598 -133.966254 
L 102.167426 -133.4466 
L 103.355238 -132.926946 
L 104.637768 -132.407292 
L 105.969027 -131.887638 
L 107.307609 -131.367984 
L 108.625022 -130.84833 
L 109.910987 -130.328676 
L 111.174519 -129.809023 
L 112.440847 -129.289369 
L 113.745279 -128.769715 
L 115.125785 -128.250061 
L 116.616215 -127.730407 
L 118.241585 -127.210753 
L 120.016014 -126.691099 
L 121.942876 -126.171445 
L 124.01612 -125.651791 
L 126.221645 -125.132137 
L 128.538148 -124.612483 
L 130.937506 -124.09283 
L 133.385095 -123.573176 
L 135.8402 -123.053522 
L 138.256253 -122.533868 
L 140.580342 -122.014214 
L 142.751767 -121.49456 
L 144.700292 -120.974906 
L 146.345587 -120.455252 
L 147.599693 -119.935598 
L 148.373629 -119.415944 
L 148.587844 -118.89629 
L 148.184543 -118.376637 
L 147.13885 -117.856983 
L 145.465807 -117.337329 
L 143.221324 -116.817675 
L 140.496931 -116.298021 
L 137.409769 -115.778367 
L 134.090133 -115.258713 
L 130.66892 -114.739059 
L 127.266724 -114.219405 
L 123.985559 -113.699751 
L 120.90357 -113.180097 
L 118.072766 -112.660443 
L 115.519619 -112.14079 
L 113.248216 -111.621136 
L 111.245382 -111.101482 
L 109.486889 -110.581828 
L 107.943682 -110.062174 
L 106.587073 -109.54252 
L 105.392182 -109.022866 
L 104.33941 -108.503212 
L 103.414242 -107.983558 
L 102.605989 -107.463904 
L 101.906165 -106.94425 
L 101.307013 -106.424597 
L 100.800434 -105.904943 
L 100.377373 -105.385289 
L 100.027606 -104.865635 
L 99.739867 -104.345981 
L 99.502297 -103.826327 
L 99.303166 -103.306673 
L 99.131804 -102.787019 
L 98.9796 -102.267365 
L 98.840928 -101.747711 
L 98.713923 -101.228057 
L 98.601188 -100.708403 
L 98.510695 -100.18875 
L 98.45722 -99.669096 
L 98.464466 -99.149442 
L 98.567511 -98.629788 
L 98.814447 -98.110134 
L 99.26533 -97.59048 
L 99.986513 -97.070826 
L 101.039424 -96.551172 
L 102.465156 -96.031518 
L 104.268932 -95.511864 
L 106.410214 -94.99221 
L 108.803131 -94.472557 
L 111.327762 -93.952903 
L 113.847227 -93.433249 
L 116.222134 -92.913595 
L 118.315715 -92.393941 
L 119.990112 -91.874287 
L 121.102513 -91.354633 
L 121.513123 -90.834979 
L 121.111424 -90.315325 
L 119.855043 -89.795671 
L 117.804212 -89.276017 
L 115.132392 -88.756363 
L 112.102631 -88.23671 
L 109.015031 -87.717056 
L 106.143967 -87.197402 
L 103.687321 -86.677748 
L 101.74285 -86.158094 
L 100.314091 -85.63844 
z
" style="stroke: #3e3e3e; stroke-width: 3"/>
    </defs>
    <g clip-path="url(#pac6b6ebf51)">
     <use xlink:href="#mf1b8d358ab" x="0" y="288" style="fill: #cb3335; stroke: #3e3e3e; stroke-width: 3"/>
    </g>
   </g>
   <g id="PolyCollection_2">
    <defs>
     <path id="m871a83e040" d="M 224.585342 -88.379453 
L 224.54747 -88.379453 
L 224.49297 -89.671193 
L 224.350135 -90.962932 
L 224.070119 -92.254672 
L 223.650086 -93.546412 
L 223.141826 -94.838151 
L 222.577376 -96.129891 
L 221.878747 -97.42163 
L 220.851315 -98.71337 
L 219.270544 -100.00511 
L 216.993228 -101.296849 
L 213.924331 -102.588589 
L 209.736816 -103.880329 
L 203.705917 -105.172068 
L 195.303095 -106.463808 
L 185.488329 -107.755548 
L 177.246568 -109.047287 
L 173.914031 -110.339027 
L 176.524832 -111.630767 
L 183.196754 -112.922506 
L 191.027268 -114.214246 
L 198.061123 -115.505985 
L 203.702575 -116.797725 
L 208.067539 -118.089465 
L 211.390627 -119.381204 
L 213.904168 -120.672944 
L 215.835734 -121.964684 
L 217.302224 -123.256423 
L 218.344233 -124.548163 
L 219.08661 -125.839903 
L 219.719071 -127.131642 
L 220.330944 -128.423382 
L 220.870158 -129.715122 
L 221.26959 -131.006861 
L 221.545297 -132.298601 
L 221.754068 -133.590341 
L 221.92906 -134.88208 
L 222.096695 -136.17382 
L 222.287151 -137.465559 
L 222.489129 -138.757299 
L 222.658977 -140.049039 
L 222.805565 -141.340778 
L 222.997716 -142.632518 
L 223.249332 -143.924258 
L 223.467268 -145.215997 
L 223.557167 -146.507737 
L 223.53157 -147.799477 
L 223.491686 -149.091216 
L 223.526755 -150.382956 
L 223.646792 -151.674696 
L 223.805806 -152.966435 
L 223.9546 -154.258175 
L 224.061246 -155.549914 
L 224.114833 -156.841654 
L 224.129371 -158.133394 
L 224.134278 -159.425133 
L 224.153973 -160.716873 
L 224.192781 -162.008613 
L 224.233324 -163.300352 
L 224.255036 -164.592092 
L 224.256842 -165.883832 
L 224.25408 -167.175571 
L 224.255236 -168.467311 
L 224.253733 -169.759051 
L 224.248082 -171.05079 
L 224.257649 -172.34253 
L 224.301364 -173.634269 
L 224.367499 -174.926009 
L 224.425117 -176.217749 
L 224.456396 -177.509488 
L 224.458451 -178.801228 
L 224.432943 -180.092968 
L 224.391439 -181.384707 
L 224.355011 -182.676447 
L 224.340781 -183.968187 
L 224.349637 -185.259926 
L 224.366807 -186.551666 
L 224.380682 -187.843406 
L 224.392021 -189.135145 
L 224.402206 -190.426885 
L 224.412869 -191.718624 
L 224.42892 -193.010364 
L 224.44749 -194.302104 
L 224.459287 -195.593843 
L 224.461922 -196.885583 
L 224.458327 -198.177323 
L 224.447824 -199.469062 
L 224.429737 -200.760802 
L 224.411847 -202.052542 
L 224.407245 -203.344281 
L 224.423412 -204.636021 
L 224.457188 -205.927761 
L 224.496802 -207.2195 
L 224.52779 -208.51124 
L 224.54236 -209.80298 
L 224.54491 -211.094719 
L 224.546151 -212.386459 
L 224.551664 -213.678198 
L 224.558845 -214.969938 
L 224.563724 -216.261678 
L 224.569088 -216.261678 
L 224.569088 -216.261678 
L 224.573967 -214.969938 
L 224.581149 -213.678198 
L 224.586662 -212.386459 
L 224.587902 -211.094719 
L 224.590453 -209.80298 
L 224.605023 -208.51124 
L 224.636011 -207.2195 
L 224.675624 -205.927761 
L 224.709401 -204.636021 
L 224.725568 -203.344281 
L 224.720965 -202.052542 
L 224.703076 -200.760802 
L 224.684988 -199.469062 
L 224.674486 -198.177323 
L 224.670891 -196.885583 
L 224.673525 -195.593843 
L 224.685322 -194.302104 
L 224.703893 -193.010364 
L 224.719944 -191.718624 
L 224.730607 -190.426885 
L 224.740792 -189.135145 
L 224.752131 -187.843406 
L 224.766006 -186.551666 
L 224.783175 -185.259926 
L 224.792032 -183.968187 
L 224.777801 -182.676447 
L 224.741374 -181.384707 
L 224.69987 -180.092968 
L 224.674361 -178.801228 
L 224.676416 -177.509488 
L 224.707696 -176.217749 
L 224.765313 -174.926009 
L 224.831449 -173.634269 
L 224.875163 -172.34253 
L 224.88473 -171.05079 
L 224.87908 -169.759051 
L 224.877576 -168.467311 
L 224.878733 -167.175571 
L 224.875971 -165.883832 
L 224.877777 -164.592092 
L 224.899489 -163.300352 
L 224.940031 -162.008613 
L 224.97884 -160.716873 
L 224.998535 -159.425133 
L 225.003442 -158.133394 
L 225.01798 -156.841654 
L 225.071567 -155.549914 
L 225.178213 -154.258175 
L 225.327006 -152.966435 
L 225.48602 -151.674696 
L 225.606058 -150.382956 
L 225.641126 -149.091216 
L 225.601243 -147.799477 
L 225.575645 -146.507737 
L 225.665545 -145.215997 
L 225.88348 -143.924258 
L 226.135096 -142.632518 
L 226.327247 -141.340778 
L 226.473836 -140.049039 
L 226.643684 -138.757299 
L 226.845662 -137.465559 
L 227.036118 -136.17382 
L 227.203753 -134.88208 
L 227.378744 -133.590341 
L 227.587516 -132.298601 
L 227.863223 -131.006861 
L 228.262654 -129.715122 
L 228.801869 -128.423382 
L 229.413742 -127.131642 
L 230.046203 -125.839903 
L 230.78858 -124.548163 
L 231.830588 -123.256423 
L 233.297078 -121.964684 
L 235.228645 -120.672944 
L 237.742186 -119.381204 
L 241.065273 -118.089465 
L 245.430238 -116.797725 
L 251.071689 -115.505985 
L 258.105544 -114.214246 
L 265.936059 -112.922506 
L 272.60798 -111.630767 
L 275.218781 -110.339027 
L 271.886245 -109.047287 
L 263.644483 -107.755548 
L 253.829718 -106.463808 
L 245.426896 -105.172068 
L 239.395996 -103.880329 
L 235.208482 -102.588589 
L 232.139585 -101.296849 
L 229.862269 -100.00511 
L 228.281497 -98.71337 
L 227.254066 -97.42163 
L 226.555436 -96.129891 
L 225.990986 -94.838151 
L 225.482726 -93.546412 
L 225.062694 -92.254672 
L 224.782677 -90.962932 
L 224.639843 -89.671193 
L 224.585342 -88.379453 
z
" style="stroke: #3e3e3e; stroke-width: 3"/>
    </defs>
    <g clip-path="url(#pac6b6ebf51)">
     <use xlink:href="#m871a83e040" x="0" y="288" style="fill: #477ca8; stroke: #3e3e3e; stroke-width: 3"/>
    </g>
   </g>
   <g id="PolyCollection_3">
    <defs>
     <path id="m55c47c516f" d="M 351.210974 -71.602334 
L 351.183713 -71.602334 
L 351.153868 -72.727142 
L 351.086377 -73.85195 
L 350.967769 -74.976759 
L 350.806925 -76.101567 
L 350.64112 -77.226375 
L 350.511176 -78.351184 
L 350.42085 -79.475992 
L 350.328633 -80.600801 
L 350.187399 -81.725609 
L 349.983921 -82.850417 
L 349.742421 -83.975226 
L 349.508335 -85.100034 
L 349.320141 -86.224842 
L 349.171538 -87.349651 
L 349.006844 -88.474459 
L 348.769395 -89.599267 
L 348.441747 -90.724076 
L 348.023496 -91.848884 
L 347.49 -92.973692 
L 346.802771 -94.098501 
L 345.949925 -95.223309 
L 344.94259 -96.348117 
L 343.771141 -97.472926 
L 342.39954 -98.597734 
L 340.822355 -99.722542 
L 339.090587 -100.847351 
L 337.213665 -101.972159 
L 335.028571 -103.096967 
L 332.236095 -104.221776 
L 328.607095 -105.346584 
L 324.127088 -106.471393 
L 318.965853 -107.596201 
L 313.427135 -108.721009 
L 308.003126 -109.845818 
L 303.448307 -110.970626 
L 300.703926 -112.095434 
L 300.544969 -113.220243 
L 303.072292 -114.345051 
L 307.517072 -115.469859 
L 312.677926 -116.594668 
L 317.651944 -117.719476 
L 322.180415 -118.844284 
L 326.372282 -119.969093 
L 330.23874 -121.093901 
L 333.576169 -122.218709 
L 336.20364 -123.343518 
L 338.142433 -124.468326 
L 339.555638 -125.593134 
L 340.639794 -126.717943 
L 341.593939 -127.842751 
L 342.574476 -128.967559 
L 343.603392 -130.092368 
L 344.565686 -131.217176 
L 345.344468 -132.341985 
L 345.931716 -133.466793 
L 346.403987 -134.591601 
L 346.841252 -135.71641 
L 347.278982 -136.841218 
L 347.703462 -137.966026 
L 348.078614 -139.090835 
L 348.387523 -140.215643 
L 348.65283 -141.340451 
L 348.908699 -142.46526 
L 349.153839 -143.590068 
L 349.351908 -144.714876 
L 349.485553 -145.839685 
L 349.585276 -146.964493 
L 349.687149 -148.089301 
L 349.785567 -149.21411 
L 349.853787 -150.338918 
L 349.894378 -151.463726 
L 349.942173 -152.588535 
L 350.02583 -153.713343 
L 350.147441 -154.838151 
L 350.292497 -155.96296 
L 350.436827 -157.087768 
L 350.546708 -158.212577 
L 350.599376 -159.337385 
L 350.610703 -160.462193 
L 350.625576 -161.587002 
L 350.674811 -162.71181 
L 350.748104 -163.836618 
L 350.810423 -164.961427 
L 350.840127 -166.086235 
L 350.846069 -167.211043 
L 350.8501 -168.335852 
L 350.86152 -169.46066 
L 350.869001 -170.585468 
L 350.854437 -171.710277 
L 350.818165 -172.835085 
L 350.787919 -173.959893 
L 350.794587 -175.084702 
L 350.842824 -176.20951 
L 350.913539 -177.334318 
L 350.988206 -178.459127 
L 351.058639 -179.583935 
L 351.118591 -180.708744 
L 351.160908 -181.833552 
L 351.184067 -182.95836 
L 351.21062 -182.95836 
L 351.21062 -182.95836 
L 351.23378 -181.833552 
L 351.276097 -180.708744 
L 351.336048 -179.583935 
L 351.406482 -178.459127 
L 351.481148 -177.334318 
L 351.551863 -176.20951 
L 351.6001 -175.084702 
L 351.606769 -173.959893 
L 351.576522 -172.835085 
L 351.540251 -171.710277 
L 351.525687 -170.585468 
L 351.533167 -169.46066 
L 351.544588 -168.335852 
L 351.548618 -167.211043 
L 351.554561 -166.086235 
L 351.584264 -164.961427 
L 351.646583 -163.836618 
L 351.719876 -162.71181 
L 351.769112 -161.587002 
L 351.783985 -160.462193 
L 351.795311 -159.337385 
L 351.847979 -158.212577 
L 351.957861 -157.087768 
L 352.102191 -155.96296 
L 352.247246 -154.838151 
L 352.368858 -153.713343 
L 352.452515 -152.588535 
L 352.50031 -151.463726 
L 352.540901 -150.338918 
L 352.609121 -149.21411 
L 352.707539 -148.089301 
L 352.809411 -146.964493 
L 352.909134 -145.839685 
L 353.04278 -144.714876 
L 353.240849 -143.590068 
L 353.485988 -142.46526 
L 353.741858 -141.340451 
L 354.007164 -140.215643 
L 354.316074 -139.090835 
L 354.691225 -137.966026 
L 355.115705 -136.841218 
L 355.553435 -135.71641 
L 355.9907 -134.591601 
L 356.462972 -133.466793 
L 357.050219 -132.341985 
L 357.829001 -131.217176 
L 358.791296 -130.092368 
L 359.820211 -128.967559 
L 360.800749 -127.842751 
L 361.754894 -126.717943 
L 362.83905 -125.593134 
L 364.252254 -124.468326 
L 366.191048 -123.343518 
L 368.818518 -122.218709 
L 372.155948 -121.093901 
L 376.022405 -119.969093 
L 380.214272 -118.844284 
L 384.742743 -117.719476 
L 389.716761 -116.594668 
L 394.877615 -115.469859 
L 399.322395 -114.345051 
L 401.849719 -113.220243 
L 401.690762 -112.095434 
L 398.94638 -110.970626 
L 394.391562 -109.845818 
L 388.967553 -108.721009 
L 383.428835 -107.596201 
L 378.2676 -106.471393 
L 373.787592 -105.346584 
L 370.158592 -104.221776 
L 367.366117 -103.096967 
L 365.181022 -101.972159 
L 363.3041 -100.847351 
L 361.572332 -99.722542 
L 359.995148 -98.597734 
L 358.623547 -97.472926 
L 357.452097 -96.348117 
L 356.444763 -95.223309 
L 355.591917 -94.098501 
L 354.904687 -92.973692 
L 354.371192 -91.848884 
L 353.952941 -90.724076 
L 353.625292 -89.599267 
L 353.387844 -88.474459 
L 353.22315 -87.349651 
L 353.074546 -86.224842 
L 352.886353 -85.100034 
L 352.652267 -83.975226 
L 352.410767 -82.850417 
L 352.207288 -81.725609 
L 352.066054 -80.600801 
L 351.973837 -79.475992 
L 351.883512 -78.351184 
L 351.753567 -77.226375 
L 351.587762 -76.101567 
L 351.426918 -74.976759 
L 351.30831 -73.85195 
L 351.240819 -72.727142 
L 351.210974 -71.602334 
z
" style="stroke: #3e3e3e; stroke-width: 3"/>
    </defs>
    <g clip-path="url(#pac6b6ebf51)">
     <use xlink:href="#m55c47c516f" x="0" y="288" style="fill: #59a257; stroke: #3e3e3e; stroke-width: 3"/>
    </g>
   </g>
   <g id="PolyCollection_4">
    <defs>
     <path id="m16f6c3e5c7" d="M 477.842052 -51.614553 
L 477.814511 -51.614553 
L 477.7885 -52.705804 
L 477.737807 -53.797055 
L 477.664986 -54.888306 
L 477.591129 -55.979557 
L 477.543562 -57.070808 
L 477.529679 -58.162059 
L 477.527161 -59.253311 
L 477.506382 -60.344562 
L 477.460966 -61.435813 
L 477.410962 -62.527064 
L 477.374908 -63.618315 
L 477.343167 -64.709566 
L 477.28209 -65.800817 
L 477.164391 -66.892068 
L 477.000359 -67.98332 
L 476.846381 -69.074571 
L 476.773919 -70.165822 
L 476.808718 -71.257073 
L 476.894269 -72.348324 
L 476.928954 -73.439575 
L 476.849913 -74.530826 
L 476.680028 -75.622077 
L 476.495081 -76.713329 
L 476.354367 -77.80458 
L 476.266249 -78.895831 
L 476.208461 -79.987082 
L 476.161102 -81.078333 
L 476.108846 -82.169584 
L 476.024518 -83.260835 
L 475.878517 -84.352086 
L 475.671752 -85.443338 
L 475.439718 -86.534589 
L 475.213514 -87.62584 
L 474.986658 -88.717091 
L 474.720503 -89.808342 
L 474.370364 -90.899593 
L 473.913009 -91.990844 
L 473.363666 -93.082095 
L 472.757766 -94.173347 
L 472.103492 -95.264598 
L 471.362212 -96.355849 
L 470.48525 -97.4471 
L 469.455684 -98.538351 
L 468.2802 -99.629602 
L 466.958305 -100.720853 
L 465.486652 -101.812104 
L 463.876171 -102.903356 
L 462.107732 -103.994607 
L 460.038872 -105.085858 
L 457.372034 -106.177109 
L 453.756283 -107.26836 
L 449.000856 -108.359611 
L 443.315121 -109.450862 
L 437.407666 -110.542113 
L 432.279631 -111.633365 
L 428.771019 -112.724616 
L 427.175906 -113.815867 
L 427.250896 -114.907118 
L 428.589598 -115.998369 
L 430.919948 -117.08962 
L 434.039013 -118.180871 
L 437.65164 -119.272122 
L 441.416951 -120.363374 
L 445.104518 -121.454625 
L 448.64756 -122.545876 
L 452.059385 -123.637127 
L 455.316145 -124.728378 
L 458.321167 -125.819629 
L 460.970812 -126.91088 
L 463.230378 -128.002131 
L 465.138934 -129.093383 
L 466.771739 -130.184634 
L 468.221409 -131.275885 
L 469.580015 -132.367136 
L 470.888043 -133.458387 
L 472.097067 -134.549638 
L 473.102215 -135.640889 
L 473.818086 -136.73214 
L 474.238306 -137.823392 
L 474.451652 -138.914643 
L 474.609098 -140.005894 
L 474.846254 -141.097145 
L 475.204677 -142.188396 
L 475.621278 -143.279647 
L 475.996253 -144.370898 
L 476.268799 -145.462149 
L 476.440399 -146.553401 
L 476.55272 -147.644652 
L 476.652268 -148.735903 
L 476.760849 -149.827154 
L 476.868606 -150.918405 
L 476.960357 -152.009656 
L 477.048843 -153.100907 
L 477.168733 -154.192158 
L 477.333927 -155.28341 
L 477.514848 -156.374661 
L 477.664876 -157.465912 
L 477.759422 -158.557163 
L 477.805091 -159.648414 
L 477.851472 -159.648414 
L 477.851472 -159.648414 
L 477.897141 -158.557163 
L 477.991686 -157.465912 
L 478.141714 -156.374661 
L 478.322636 -155.28341 
L 478.487829 -154.192158 
L 478.60772 -153.100907 
L 478.696206 -152.009656 
L 478.787956 -150.918405 
L 478.895713 -149.827154 
L 479.004295 -148.735903 
L 479.103843 -147.644652 
L 479.216163 -146.553401 
L 479.387763 -145.462149 
L 479.660309 -144.370898 
L 480.035284 -143.279647 
L 480.451886 -142.188396 
L 480.810309 -141.097145 
L 481.047465 -140.005894 
L 481.204911 -138.914643 
L 481.418257 -137.823392 
L 481.838477 -136.73214 
L 482.554348 -135.640889 
L 483.559495 -134.549638 
L 484.768519 -133.458387 
L 486.076547 -132.367136 
L 487.435154 -131.275885 
L 488.884824 -130.184634 
L 490.517629 -129.093383 
L 492.426184 -128.002131 
L 494.685751 -126.91088 
L 497.335396 -125.819629 
L 500.340418 -124.728378 
L 503.597177 -123.637127 
L 507.009002 -122.545876 
L 510.552045 -121.454625 
L 514.239612 -120.363374 
L 518.004922 -119.272122 
L 521.617549 -118.180871 
L 524.736614 -117.08962 
L 527.066964 -115.998369 
L 528.405666 -114.907118 
L 528.480656 -113.815867 
L 526.885543 -112.724616 
L 523.376932 -111.633365 
L 518.248897 -110.542113 
L 512.341441 -109.450862 
L 506.655707 -108.359611 
L 501.900279 -107.26836 
L 498.284529 -106.177109 
L 495.61769 -105.085858 
L 493.548831 -103.994607 
L 491.780392 -102.903356 
L 490.16991 -101.812104 
L 488.698257 -100.720853 
L 487.376362 -99.629602 
L 486.200878 -98.538351 
L 485.171312 -97.4471 
L 484.294351 -96.355849 
L 483.553071 -95.264598 
L 482.898796 -94.173347 
L 482.292897 -93.082095 
L 481.743554 -91.990844 
L 481.286199 -90.899593 
L 480.936059 -89.808342 
L 480.669905 -88.717091 
L 480.443049 -87.62584 
L 480.216845 -86.534589 
L 479.98481 -85.443338 
L 479.778046 -84.352086 
L 479.632045 -83.260835 
L 479.547716 -82.169584 
L 479.49546 -81.078333 
L 479.448101 -79.987082 
L 479.390313 -78.895831 
L 479.302196 -77.80458 
L 479.161481 -76.713329 
L 478.976534 -75.622077 
L 478.806649 -74.530826 
L 478.727608 -73.439575 
L 478.762293 -72.348324 
L 478.847845 -71.257073 
L 478.882643 -70.165822 
L 478.810182 -69.074571 
L 478.656203 -67.98332 
L 478.492172 -66.892068 
L 478.374473 -65.800817 
L 478.313396 -64.709566 
L 478.281654 -63.618315 
L 478.2456 -62.527064 
L 478.195597 -61.435813 
L 478.15018 -60.344562 
L 478.129401 -59.253311 
L 478.126884 -58.162059 
L 478.113001 -57.070808 
L 478.065434 -55.979557 
L 477.991576 -54.888306 
L 477.918755 -53.797055 
L 477.868062 -52.705804 
L 477.842052 -51.614553 
z
" style="stroke: #3e3e3e; stroke-width: 3"/>
    </defs>
    <g clip-path="url(#pac6b6ebf51)">
     <use xlink:href="#m16f6c3e5c7" x="0" y="288" style="fill: #905998; stroke: #3e3e3e; stroke-width: 3"/>
    </g>
   </g>
   <g id="PolyCollection_5">
    <defs>
     <path id="m1f44da1ce9" d="M 604.667709 -96.237841 
L 604.250728 -96.237841 
L 603.847282 -97.219691 
L 602.933978 -98.20154 
L 601.183558 -99.18339 
L 598.286912 -100.165239 
L 594.041665 -101.147089 
L 588.388866 -102.128939 
L 581.455045 -103.110788 
L 573.684546 -104.092638 
L 565.961947 -105.074487 
L 559.473272 -106.056337 
L 555.263536 -107.038186 
L 553.806844 -108.020036 
L 554.907323 -109.001886 
L 557.913883 -109.983735 
L 562.026434 -110.965585 
L 566.538021 -111.947434 
L 570.963923 -112.929284 
L 575.052524 -113.911133 
L 578.71432 -114.892983 
L 581.934166 -115.874833 
L 584.712967 -116.856682 
L 587.053055 -117.838532 
L 588.979733 -118.820381 
L 590.565502 -119.802231 
L 591.917106 -120.784081 
L 593.129101 -121.76593 
L 594.249439 -122.74778 
L 595.282504 -123.729629 
L 596.212715 -124.711479 
L 597.026741 -125.693328 
L 597.726502 -126.675178 
L 598.328844 -127.657028 
L 598.853942 -128.638877 
L 599.315125 -129.620727 
L 599.718847 -130.602576 
L 600.06969 -131.584426 
L 600.372954 -132.566275 
L 600.635419 -133.548125 
L 600.866274 -134.529975 
L 601.075496 -135.511824 
L 601.270398 -136.493674 
L 601.456077 -137.475523 
L 601.637142 -138.457373 
L 601.813253 -139.439222 
L 601.97485 -140.421072 
L 602.111615 -141.402922 
L 602.228389 -142.384771 
L 602.349221 -143.366621 
L 602.501024 -144.34847 
L 602.689851 -145.33032 
L 602.892076 -146.312169 
L 603.070167 -147.294019 
L 603.199201 -148.275869 
L 603.280827 -149.257718 
L 603.335592 -150.239568 
L 603.384431 -151.221417 
L 603.435941 -152.203267 
L 603.487229 -153.185117 
L 603.532982 -154.166966 
L 603.572226 -155.148816 
L 603.608872 -156.130665 
L 603.649827 -157.112515 
L 603.70188 -158.094364 
L 603.764792 -159.076214 
L 603.825797 -160.058064 
L 603.866353 -161.039913 
L 603.878047 -162.021763 
L 603.86982 -163.003612 
L 603.858751 -163.985462 
L 603.856494 -164.967311 
L 603.865516 -165.949161 
L 603.885061 -166.931011 
L 603.915575 -167.91286 
L 603.954966 -168.89471 
L 603.993963 -169.876559 
L 604.020245 -170.858409 
L 604.02834 -171.840258 
L 604.024753 -172.822108 
L 604.024035 -173.803958 
L 604.039658 -174.785807 
L 604.076311 -175.767657 
L 604.128432 -176.749506 
L 604.184486 -177.731356 
L 604.232657 -178.713205 
L 604.264714 -179.695055 
L 604.277558 -180.676905 
L 604.27336 -181.658754 
L 604.259355 -182.640604 
L 604.246349 -183.622453 
L 604.244072 -184.604303 
L 604.255574 -185.586153 
L 604.276705 -186.568002 
L 604.301978 -187.549852 
L 604.329739 -188.531701 
L 604.360568 -189.513551 
L 604.392537 -190.4954 
L 604.420589 -191.47725 
L 604.44047 -192.4591 
L 604.451698 -193.440949 
L 604.46674 -193.440949 
L 604.46674 -193.440949 
L 604.477968 -192.4591 
L 604.497849 -191.47725 
L 604.525901 -190.4954 
L 604.557869 -189.513551 
L 604.588699 -188.531701 
L 604.616459 -187.549852 
L 604.641732 -186.568002 
L 604.662863 -185.586153 
L 604.674365 -184.604303 
L 604.672088 -183.622453 
L 604.659083 -182.640604 
L 604.645077 -181.658754 
L 604.640879 -180.676905 
L 604.653723 -179.695055 
L 604.685781 -178.713205 
L 604.733951 -177.731356 
L 604.790006 -176.749506 
L 604.842126 -175.767657 
L 604.87878 -174.785807 
L 604.894403 -173.803958 
L 604.893685 -172.822108 
L 604.890097 -171.840258 
L 604.898192 -170.858409 
L 604.924474 -169.876559 
L 604.963471 -168.89471 
L 605.002862 -167.91286 
L 605.033376 -166.931011 
L 605.052921 -165.949161 
L 605.061943 -164.967311 
L 605.059686 -163.985462 
L 605.048617 -163.003612 
L 605.04039 -162.021763 
L 605.052085 -161.039913 
L 605.092641 -160.058064 
L 605.153645 -159.076214 
L 605.216558 -158.094364 
L 605.268611 -157.112515 
L 605.309566 -156.130665 
L 605.346211 -155.148816 
L 605.385455 -154.166966 
L 605.431209 -153.185117 
L 605.482497 -152.203267 
L 605.534007 -151.221417 
L 605.582845 -150.239568 
L 605.637611 -149.257718 
L 605.719236 -148.275869 
L 605.848271 -147.294019 
L 606.026362 -146.312169 
L 606.228587 -145.33032 
L 606.417413 -144.34847 
L 606.569216 -143.366621 
L 606.690048 -142.384771 
L 606.806823 -141.402922 
L 606.943587 -140.421072 
L 607.105185 -139.439222 
L 607.281296 -138.457373 
L 607.462361 -137.475523 
L 607.64804 -136.493674 
L 607.842941 -135.511824 
L 608.052163 -134.529975 
L 608.283018 -133.548125 
L 608.545483 -132.566275 
L 608.848748 -131.584426 
L 609.19959 -130.602576 
L 609.603312 -129.620727 
L 610.064495 -128.638877 
L 610.589593 -127.657028 
L 611.191935 -126.675178 
L 611.891696 -125.693328 
L 612.705723 -124.711479 
L 613.635933 -123.729629 
L 614.668999 -122.74778 
L 615.789337 -121.76593 
L 617.001332 -120.784081 
L 618.352936 -119.802231 
L 619.938704 -118.820381 
L 621.865383 -117.838532 
L 624.205471 -116.856682 
L 626.984272 -115.874833 
L 630.204117 -114.892983 
L 633.865913 -113.911133 
L 637.954514 -112.929284 
L 642.380416 -111.947434 
L 646.892004 -110.965585 
L 651.004554 -109.983735 
L 654.011114 -109.001886 
L 655.111594 -108.020036 
L 653.654901 -107.038186 
L 649.445166 -106.056337 
L 642.95649 -105.074487 
L 635.233891 -104.092638 
L 627.463392 -103.110788 
L 620.529571 -102.128939 
L 614.876772 -101.147089 
L 610.631525 -100.165239 
L 607.734879 -99.18339 
L 605.984459 -98.20154 
L 605.071155 -97.219691 
L 604.667709 -96.237841 
z
" style="stroke: #3e3e3e; stroke-width: 3"/>
    </defs>
    <g clip-path="url(#pac6b6ebf51)">
     <use xlink:href="#m1f44da1ce9" x="0" y="288" style="fill: #df7f20; stroke: #3e3e3e; stroke-width: 3"/>
    </g>
   </g>
   <g id="PolyCollection_6">
    <defs>
     <path id="me818ab22d7" d="M 731.09288 -41.784744 
L 731.087432 -41.784744 
L 731.079661 -43.294804 
L 731.063255 -44.804864 
L 731.041483 -46.314924 
L 731.021892 -47.824983 
L 731.007915 -49.335043 
L 730.999816 -50.845103 
L 730.993861 -52.355163 
L 730.980216 -53.865222 
L 730.954697 -55.375282 
L 730.922377 -56.885342 
L 730.89105 -58.395401 
L 730.866109 -59.905461 
L 730.852853 -61.415521 
L 730.863043 -62.925581 
L 730.892213 -64.43564 
L 730.913087 -65.9457 
L 730.914679 -67.45576 
L 730.901338 -68.96582 
L 730.870399 -70.475879 
L 730.831889 -71.985939 
L 730.799581 -73.495999 
L 730.765282 -75.006059 
L 730.731682 -76.516118 
L 730.721679 -78.026178 
L 730.732695 -79.536238 
L 730.723078 -81.046298 
L 730.661612 -82.556357 
L 730.559969 -84.066417 
L 730.450631 -85.576477 
L 730.372858 -87.086537 
L 730.365237 -88.596596 
L 730.411111 -90.106656 
L 730.419658 -91.616716 
L 730.314742 -93.126775 
L 730.096236 -94.636835 
L 729.802481 -96.146895 
L 729.461951 -97.656955 
L 729.070067 -99.167014 
L 728.576378 -100.677074 
L 727.89352 -102.187134 
L 726.879599 -103.697194 
L 725.037354 -105.207253 
L 720.498473 -106.717313 
L 709.682816 -108.227373 
L 692.782925 -109.737433 
L 680.437781 -111.247492 
L 683.081905 -112.757552 
L 695.920018 -114.267612 
L 707.936959 -115.777672 
L 715.35105 -117.287731 
L 719.642662 -118.797791 
L 722.389046 -120.307851 
L 724.25568 -121.817911 
L 725.515503 -123.32797 
L 726.406899 -124.83803 
L 727.108989 -126.34809 
L 727.652664 -127.85815 
L 728.039098 -129.368209 
L 728.31938 -130.878269 
L 728.538541 -132.388329 
L 728.739652 -133.898388 
L 728.9493 -135.408448 
L 729.151661 -136.918508 
L 729.37999 -138.428568 
L 729.653514 -139.938627 
L 729.863362 -141.448687 
L 729.932855 -142.958747 
L 729.934763 -144.468807 
L 729.945218 -145.978866 
L 729.95252 -147.488926 
L 729.962144 -148.998986 
L 730.017676 -150.509046 
L 730.09295 -152.019105 
L 730.138685 -153.529165 
L 730.205238 -155.039225 
L 730.364067 -156.549285 
L 730.579861 -158.059344 
L 730.751532 -159.569404 
L 730.831138 -161.079464 
L 730.85724 -162.589524 
L 730.879457 -164.099583 
L 730.90198 -165.609643 
L 730.913748 -167.119703 
L 730.920045 -168.629763 
L 730.933426 -170.139822 
L 730.958052 -171.649882 
L 730.981916 -173.159942 
L 730.994852 -174.670001 
L 731.00309 -176.180061 
L 731.008773 -177.690121 
L 731.008226 -179.200181 
L 731.009301 -180.71024 
L 731.014443 -182.2203 
L 731.018534 -183.73036 
L 731.02768 -185.24042 
L 731.04641 -186.750479 
L 731.066955 -188.260539 
L 731.081186 -189.770599 
L 731.087771 -191.280659 
L 731.092541 -191.280659 
L 731.092541 -191.280659 
L 731.099126 -189.770599 
L 731.113358 -188.260539 
L 731.133902 -186.750479 
L 731.152633 -185.24042 
L 731.161779 -183.73036 
L 731.165869 -182.2203 
L 731.171012 -180.71024 
L 731.172086 -179.200181 
L 731.17154 -177.690121 
L 731.177223 -176.180061 
L 731.18546 -174.670001 
L 731.198397 -173.159942 
L 731.22226 -171.649882 
L 731.246886 -170.139822 
L 731.260268 -168.629763 
L 731.266565 -167.119703 
L 731.278332 -165.609643 
L 731.300856 -164.099583 
L 731.323073 -162.589524 
L 731.349175 -161.079464 
L 731.42878 -159.569404 
L 731.600451 -158.059344 
L 731.816246 -156.549285 
L 731.975074 -155.039225 
L 732.041627 -153.529165 
L 732.087363 -152.019105 
L 732.162637 -150.509046 
L 732.218169 -148.998986 
L 732.227793 -147.488926 
L 732.235094 -145.978866 
L 732.24555 -144.468807 
L 732.247458 -142.958747 
L 732.316951 -141.448687 
L 732.526798 -139.938627 
L 732.800323 -138.428568 
L 733.028651 -136.918508 
L 733.231012 -135.408448 
L 733.440661 -133.898388 
L 733.641772 -132.388329 
L 733.860933 -130.878269 
L 734.141215 -129.368209 
L 734.527648 -127.85815 
L 735.071323 -126.34809 
L 735.773413 -124.83803 
L 736.66481 -123.32797 
L 737.924633 -121.817911 
L 739.791267 -120.307851 
L 742.537651 -118.797791 
L 746.829262 -117.287731 
L 754.243353 -115.777672 
L 766.260294 -114.267612 
L 779.098408 -112.757552 
L 781.742531 -111.247492 
L 769.397387 -109.737433 
L 752.497497 -108.227373 
L 741.681839 -106.717313 
L 737.142959 -105.207253 
L 735.300713 -103.697194 
L 734.286793 -102.187134 
L 733.603934 -100.677074 
L 733.110246 -99.167014 
L 732.718361 -97.656955 
L 732.377832 -96.146895 
L 732.084076 -94.636835 
L 731.86557 -93.126775 
L 731.760655 -91.616716 
L 731.769202 -90.106656 
L 731.815076 -88.596596 
L 731.807455 -87.086537 
L 731.729682 -85.576477 
L 731.620343 -84.066417 
L 731.518701 -82.556357 
L 731.457235 -81.046298 
L 731.447617 -79.536238 
L 731.458634 -78.026178 
L 731.448631 -76.516118 
L 731.41503 -75.006059 
L 731.380732 -73.495999 
L 731.348423 -71.985939 
L 731.309913 -70.475879 
L 731.278975 -68.96582 
L 731.265633 -67.45576 
L 731.267226 -65.9457 
L 731.288099 -64.43564 
L 731.31727 -62.925581 
L 731.327459 -61.415521 
L 731.314203 -59.905461 
L 731.289262 -58.395401 
L 731.257936 -56.885342 
L 731.225615 -55.375282 
L 731.200097 -53.865222 
L 731.186451 -52.355163 
L 731.180497 -50.845103 
L 731.172398 -49.335043 
L 731.15842 -47.824983 
L 731.138829 -46.314924 
L 731.117058 -44.804864 
L 731.100651 -43.294804 
L 731.09288 -41.784744 
z
" style="stroke: #3e3e3e; stroke-width: 3"/>
    </defs>
    <g clip-path="url(#pac6b6ebf51)">
     <use xlink:href="#me818ab22d7" x="0" y="288" style="fill: #e6e64c; stroke: #3e3e3e; stroke-width: 3"/>
    </g>
   </g>
   <g id="PolyCollection_7">
    <defs>
     <path id="m468224ad07" d="M 859.975728 -104.347321 
L 855.46646 -104.347321 
L 849.544266 -105.65838 
L 836.819827 -106.969438 
L 819.588123 -108.280497 
L 807.068719 -109.591556 
L 807.117982 -110.902615 
L 817.61874 -112.213673 
L 830.360055 -113.524732 
L 839.886848 -114.835791 
L 845.590056 -116.146849 
L 848.881806 -117.457908 
L 851.025362 -118.768967 
L 852.610942 -120.080025 
L 853.768261 -121.391084 
L 854.52771 -122.702143 
L 855.010574 -124.013201 
L 855.372061 -125.32426 
L 855.685699 -126.635319 
L 855.949803 -127.946377 
L 856.168099 -129.257436 
L 856.368743 -130.568495 
L 856.56083 -131.879553 
L 856.720648 -133.190612 
L 856.828018 -134.501671 
L 856.892287 -135.812729 
L 856.935415 -137.123788 
L 856.973759 -138.434847 
L 857.023184 -139.745906 
L 857.091819 -141.056964 
L 857.16555 -142.368023 
L 857.221569 -143.679082 
L 857.249597 -144.99014 
L 857.256771 -146.301199 
L 857.260645 -147.612258 
L 857.272612 -148.923316 
L 857.288971 -150.234375 
L 857.303559 -151.545434 
L 857.319168 -152.856492 
L 857.343391 -154.167551 
L 857.378815 -155.47861 
L 857.416626 -156.789668 
L 857.448121 -158.100727 
L 857.478402 -159.411786 
L 857.508356 -160.722844 
L 857.520333 -162.033903 
L 857.506453 -163.344962 
L 857.488894 -164.656021 
L 857.493615 -165.967079 
L 857.521686 -167.278138 
L 857.554182 -168.589197 
L 857.573133 -169.900255 
L 857.574103 -171.211314 
L 857.564747 -172.522373 
L 857.555845 -173.833431 
L 857.553093 -175.14449 
L 857.555522 -176.455549 
L 857.561828 -177.766607 
L 857.574069 -179.077666 
L 857.591777 -180.388725 
L 857.607329 -181.699783 
L 857.610335 -183.010842 
L 857.600376 -184.321901 
L 857.593486 -185.632959 
L 857.603391 -186.944018 
L 857.623079 -188.255077 
L 857.637509 -189.566135 
L 857.640222 -190.877194 
L 857.632585 -192.188253 
L 857.621771 -193.499312 
L 857.61681 -194.81037 
L 857.618585 -196.121429 
L 857.619581 -197.432488 
L 857.616204 -198.743546 
L 857.614219 -200.054605 
L 857.618587 -201.365664 
L 857.626015 -202.676722 
L 857.632318 -203.987781 
L 857.639211 -205.29884 
L 857.648994 -206.609898 
L 857.659258 -207.920957 
L 857.667374 -209.232016 
L 857.67386 -210.543074 
L 857.678612 -211.854133 
L 857.680258 -213.165192 
L 857.679496 -214.47625 
L 857.678201 -215.787309 
L 857.675997 -217.098368 
L 857.669987 -218.409426 
L 857.659655 -219.720485 
L 857.650764 -221.031544 
L 857.650298 -222.342603 
L 857.658475 -223.653661 
L 857.668062 -224.96472 
L 857.672636 -226.275779 
L 857.674444 -227.586837 
L 857.680191 -228.897896 
L 857.691674 -230.208955 
L 857.704612 -231.520013 
L 857.71415 -232.831072 
L 857.718958 -234.142131 
L 857.723229 -234.142131 
L 857.723229 -234.142131 
L 857.728037 -232.831072 
L 857.737575 -231.520013 
L 857.750513 -230.208955 
L 857.761996 -228.897896 
L 857.767743 -227.586837 
L 857.769551 -226.275779 
L 857.774125 -224.96472 
L 857.783712 -223.653661 
L 857.79189 -222.342603 
L 857.791423 -221.031544 
L 857.782532 -219.720485 
L 857.772201 -218.409426 
L 857.766191 -217.098368 
L 857.763986 -215.787309 
L 857.762692 -214.47625 
L 857.76193 -213.165192 
L 857.763575 -211.854133 
L 857.768328 -210.543074 
L 857.774814 -209.232016 
L 857.782929 -207.920957 
L 857.793193 -206.609898 
L 857.802976 -205.29884 
L 857.80987 -203.987781 
L 857.816172 -202.676722 
L 857.823601 -201.365664 
L 857.827969 -200.054605 
L 857.825983 -198.743546 
L 857.822606 -197.432488 
L 857.823603 -196.121429 
L 857.825377 -194.81037 
L 857.820416 -193.499312 
L 857.809603 -192.188253 
L 857.801966 -190.877194 
L 857.804679 -189.566135 
L 857.819109 -188.255077 
L 857.838797 -186.944018 
L 857.848701 -185.632959 
L 857.841812 -184.321901 
L 857.831853 -183.010842 
L 857.834858 -181.699783 
L 857.85041 -180.388725 
L 857.868119 -179.077666 
L 857.88036 -177.766607 
L 857.886665 -176.455549 
L 857.889095 -175.14449 
L 857.886342 -173.833431 
L 857.87744 -172.522373 
L 857.868084 -171.211314 
L 857.869054 -169.900255 
L 857.888005 -168.589197 
L 857.920501 -167.278138 
L 857.948573 -165.967079 
L 857.953293 -164.656021 
L 857.935735 -163.344962 
L 857.921854 -162.033903 
L 857.933831 -160.722844 
L 857.963786 -159.411786 
L 857.994067 -158.100727 
L 858.025561 -156.789668 
L 858.063373 -155.47861 
L 858.098796 -154.167551 
L 858.123019 -152.856492 
L 858.138629 -151.545434 
L 858.153217 -150.234375 
L 858.169575 -148.923316 
L 858.181543 -147.612258 
L 858.185416 -146.301199 
L 858.19259 -144.99014 
L 858.220618 -143.679082 
L 858.276637 -142.368023 
L 858.350369 -141.056964 
L 858.419004 -139.745906 
L 858.468429 -138.434847 
L 858.506772 -137.123788 
L 858.549901 -135.812729 
L 858.61417 -134.501671 
L 858.721539 -133.190612 
L 858.881358 -131.879553 
L 859.073444 -130.568495 
L 859.274088 -129.257436 
L 859.492384 -127.946377 
L 859.756488 -126.635319 
L 860.070126 -125.32426 
L 860.431613 -124.013201 
L 860.914478 -122.702143 
L 861.673927 -121.391084 
L 862.831246 -120.080025 
L 864.416826 -118.768967 
L 866.560382 -117.457908 
L 869.852132 -116.146849 
L 875.55534 -114.835791 
L 885.082132 -113.524732 
L 897.823448 -112.213673 
L 908.324205 -110.902615 
L 908.373469 -109.591556 
L 895.854064 -108.280497 
L 878.622361 -106.969438 
L 865.897921 -105.65838 
L 859.975728 -104.347321 
z
" style="stroke: #3e3e3e; stroke-width: 3"/>
    </defs>
    <g clip-path="url(#pac6b6ebf51)">
     <use xlink:href="#m468224ad07" x="0" y="288" style="fill: #965a38; stroke: #3e3e3e; stroke-width: 3"/>
    </g>
   </g>
   <g id="PolyCollection_8">
    <defs>
     <path id="m0c2b2a1258" d="M 990.776301 -104.177503 
L 977.927762 -104.177503 
L 970.584656 -105.071111 
L 959.620464 -105.96472 
L 947.064138 -106.858328 
L 937.063255 -107.751937 
L 933.699656 -108.645545 
L 938.16218 -109.539154 
L 947.915972 -110.432762 
L 958.682877 -111.326371 
L 967.230279 -112.219979 
L 972.603803 -113.113588 
L 975.487335 -114.007196 
L 976.978135 -114.900805 
L 977.855044 -115.794413 
L 978.470694 -116.688022 
L 978.923191 -117.58163 
L 979.231691 -118.475239 
L 979.428402 -119.368847 
L 979.574815 -120.262456 
L 979.734704 -121.156064 
L 979.941145 -122.049673 
L 980.186199 -122.943281 
L 980.437446 -123.83689 
L 980.663937 -124.730498 
L 980.853781 -125.624107 
L 981.018654 -126.517715 
L 981.187165 -127.411324 
L 981.38858 -128.304932 
L 981.63293 -129.198541 
L 981.900835 -130.092149 
L 982.152647 -130.985758 
L 982.351064 -131.879366 
L 982.480296 -132.772975 
L 982.549915 -133.666583 
L 982.585774 -134.560192 
L 982.617989 -135.4538 
L 982.671465 -136.347409 
L 982.757871 -137.241017 
L 982.870271 -138.134626 
L 982.986989 -139.028234 
L 983.086246 -139.921842 
L 983.160743 -140.815451 
L 983.219563 -141.709059 
L 983.277653 -142.602668 
L 983.344223 -143.496276 
L 983.41863 -144.389885 
L 983.492915 -145.283493 
L 983.556377 -146.177102 
L 983.600198 -147.07071 
L 983.621932 -147.964319 
L 983.627702 -148.857927 
L 983.629402 -149.751536 
L 983.638082 -150.645144 
L 983.658776 -151.538753 
L 983.690374 -152.432361 
L 983.728636 -153.32597 
L 983.767984 -154.219578 
L 983.801289 -155.113187 
L 983.821167 -156.006795 
L 983.824614 -156.900404 
L 983.816939 -157.794012 
L 983.809722 -158.687621 
L 983.813432 -159.581229 
L 983.830932 -160.474838 
L 983.85708 -161.368446 
L 983.88431 -162.262055 
L 983.90953 -163.155663 
L 983.936658 -164.049272 
L 983.972382 -164.94288 
L 984.01867 -165.836489 
L 984.069015 -166.730097 
L 984.112119 -167.623706 
L 984.13951 -168.517314 
L 984.150101 -169.410923 
L 984.148539 -170.304531 
L 984.140641 -171.19814 
L 984.131109 -172.091748 
L 984.124472 -172.985357 
L 984.125748 -173.878965 
L 984.138122 -174.772574 
L 984.15962 -175.666182 
L 984.183078 -176.559791 
L 984.200551 -177.453399 
L 984.208413 -178.347008 
L 984.208621 -179.240616 
L 984.205652 -180.134225 
L 984.202604 -181.027833 
L 984.199947 -181.921442 
L 984.197307 -182.81505 
L 984.195915 -183.708659 
L 984.199089 -184.602267 
L 984.210216 -185.495876 
L 984.230094 -186.389484 
L 984.25602 -187.283093 
L 984.283253 -188.176701 
L 984.307395 -189.07031 
L 984.325921 -189.963918 
L 984.338371 -190.857527 
L 984.345704 -191.751135 
L 984.349464 -192.644744 
L 984.354598 -192.644744 
L 984.354598 -192.644744 
L 984.358359 -191.751135 
L 984.365691 -190.857527 
L 984.378141 -189.963918 
L 984.396668 -189.07031 
L 984.420809 -188.176701 
L 984.448043 -187.283093 
L 984.473968 -186.389484 
L 984.493846 -185.495876 
L 984.504974 -184.602267 
L 984.508147 -183.708659 
L 984.506755 -182.81505 
L 984.504115 -181.921442 
L 984.501458 -181.027833 
L 984.498411 -180.134225 
L 984.495442 -179.240616 
L 984.495649 -178.347008 
L 984.503511 -177.453399 
L 984.520985 -176.559791 
L 984.544443 -175.666182 
L 984.56594 -174.772574 
L 984.578314 -173.878965 
L 984.579591 -172.985357 
L 984.572953 -172.091748 
L 984.563421 -171.19814 
L 984.555523 -170.304531 
L 984.553961 -169.410923 
L 984.564553 -168.517314 
L 984.591943 -167.623706 
L 984.635047 -166.730097 
L 984.685392 -165.836489 
L 984.731681 -164.94288 
L 984.767405 -164.049272 
L 984.794532 -163.155663 
L 984.819752 -162.262055 
L 984.846983 -161.368446 
L 984.873131 -160.474838 
L 984.89063 -159.581229 
L 984.894341 -158.687621 
L 984.887124 -157.794012 
L 984.879449 -156.900404 
L 984.882896 -156.006795 
L 984.902774 -155.113187 
L 984.936079 -154.219578 
L 984.975427 -153.32597 
L 985.013689 -152.432361 
L 985.045286 -151.538753 
L 985.06598 -150.645144 
L 985.074661 -149.751536 
L 985.076361 -148.857927 
L 985.082131 -147.964319 
L 985.103864 -147.07071 
L 985.147686 -146.177102 
L 985.211147 -145.283493 
L 985.285432 -144.389885 
L 985.359839 -143.496276 
L 985.426409 -142.602668 
L 985.484499 -141.709059 
L 985.543319 -140.815451 
L 985.617817 -139.921842 
L 985.717074 -139.028234 
L 985.833791 -138.134626 
L 985.946191 -137.241017 
L 986.032598 -136.347409 
L 986.086074 -135.4538 
L 986.118288 -134.560192 
L 986.154147 -133.666583 
L 986.223767 -132.772975 
L 986.352998 -131.879366 
L 986.551416 -130.985758 
L 986.803228 -130.092149 
L 987.071133 -129.198541 
L 987.315483 -128.304932 
L 987.516897 -127.411324 
L 987.685408 -126.517715 
L 987.850282 -125.624107 
L 988.040126 -124.730498 
L 988.266616 -123.83689 
L 988.517864 -122.943281 
L 988.762917 -122.049673 
L 988.969359 -121.156064 
L 989.129247 -120.262456 
L 989.275661 -119.368847 
L 989.472371 -118.475239 
L 989.780872 -117.58163 
L 990.233368 -116.688022 
L 990.849018 -115.794413 
L 991.725928 -114.900805 
L 993.216727 -114.007196 
L 996.100259 -113.113588 
L 1001.473783 -112.219979 
L 1010.021185 -111.326371 
L 1020.78809 -110.432762 
L 1030.541882 -109.539154 
L 1035.004406 -108.645545 
L 1031.640808 -107.751937 
L 1021.639924 -106.858328 
L 1009.083598 -105.96472 
L 998.119407 -105.071111 
L 990.776301 -104.177503 
z
" style="stroke: #3e3e3e; stroke-width: 3"/>
    </defs>
    <g clip-path="url(#pac6b6ebf51)">
     <use xlink:href="#m0c2b2a1258" x="0" y="288" style="fill: #e890be; stroke: #3e3e3e; stroke-width: 3"/>
    </g>
   </g>
   <g id="line2d_10">
    <path d="M 97.935469 189.691681 
L 97.935469 155.143852 
" clip-path="url(#pac6b6ebf51)" style="fill: none; stroke: #3e3e3e; stroke-width: 3"/>
   </g>
   <g id="line2d_11">
    <path d="M 97.935469 175.60253 
L 97.935469 165.593651 
" clip-path="url(#pac6b6ebf51)" style="fill: none; stroke: #3e3e3e; stroke-width: 9"/>
   </g>
   <g id="line2d_12">
    <path d="M 224.566406 190.86288 
L 224.566406 159.929861 
" clip-path="url(#pac6b6ebf51)" style="fill: none; stroke: #3e3e3e; stroke-width: 3"/>
   </g>
   <g id="line2d_13">
    <path d="M 224.566406 179.328826 
L 224.566406 171.567175 
" clip-path="url(#pac6b6ebf51)" style="fill: none; stroke: #3e3e3e; stroke-width: 9"/>
   </g>
   <g id="line2d_14">
    <path d="M 351.197344 195.369642 
L 351.197344 153.053969 
" clip-path="url(#pac6b6ebf51)" style="fill: none; stroke: #3e3e3e; stroke-width: 3"/>
   </g>
   <g id="line2d_15">
    <path d="M 351.197344 179.489255 
L 351.197344 168.89318 
" clip-path="url(#pac6b6ebf51)" style="fill: none; stroke: #3e3e3e; stroke-width: 9"/>
   </g>
   <g id="line2d_16">
    <path d="M 477.828281 195.372491 
L 477.828281 149.986436 
" clip-path="url(#pac6b6ebf51)" style="fill: none; stroke: #3e3e3e; stroke-width: 3"/>
   </g>
   <g id="line2d_17">
    <path d="M 477.828281 178.365506 
L 477.828281 166.993421 
" clip-path="url(#pac6b6ebf51)" style="fill: none; stroke: #3e3e3e; stroke-width: 9"/>
   </g>
   <g id="line2d_18">
    <path d="M 604.459219 187.53413 
L 604.459219 154.942075 
" clip-path="url(#pac6b6ebf51)" style="fill: none; stroke: #3e3e3e; stroke-width: 3"/>
   </g>
   <g id="line2d_19">
    <path d="M 604.459219 180.950948 
L 604.459219 170.531129 
" clip-path="url(#pac6b6ebf51)" style="fill: none; stroke: #3e3e3e; stroke-width: 9"/>
   </g>
   <g id="line2d_20">
    <path d="M 731.090156 185.217127 
L 731.090156 163.355285 
" clip-path="url(#pac6b6ebf51)" style="fill: none; stroke: #3e3e3e; stroke-width: 3"/>
   </g>
   <g id="line2d_21">
    <path d="M 731.090156 177.017624 
L 731.090156 171.544289 
" clip-path="url(#pac6b6ebf51)" style="fill: none; stroke: #3e3e3e; stroke-width: 9"/>
   </g>
   <g id="line2d_22">
    <path d="M 857.721094 179.42465 
L 857.721094 167.75292 
" clip-path="url(#pac6b6ebf51)" style="fill: none; stroke: #3e3e3e; stroke-width: 3"/>
   </g>
   <g id="line2d_23">
    <path d="M 857.721094 178.468778 
L 857.721094 174.172968 
" clip-path="url(#pac6b6ebf51)" style="fill: none; stroke: #3e3e3e; stroke-width: 9"/>
   </g>
   <g id="line2d_24">
    <path d="M 984.352031 179.594468 
L 984.352031 162.448466 
" clip-path="url(#pac6b6ebf51)" style="fill: none; stroke: #3e3e3e; stroke-width: 3"/>
   </g>
   <g id="line2d_25">
    <path d="M 984.352031 179.594468 
L 984.352031 172.733973 
" clip-path="url(#pac6b6ebf51)" style="fill: none; stroke: #3e3e3e; stroke-width: 9"/>
   </g>
   <g id="patch_3">
    <path d="M 34.62 255.833125 
L 34.62 44.24 
" style="fill: none; stroke: #f0f0f0; stroke-width: 3; stroke-linejoin: miter; stroke-linecap: square"/>
   </g>
   <g id="patch_4">
    <path d="M 1047.6675 255.833125 
L 1047.6675 44.24 
" style="fill: none; stroke: #f0f0f0; stroke-width: 3; stroke-linejoin: miter; stroke-linecap: square"/>
   </g>
   <g id="patch_5">
    <path d="M 34.62 255.833125 
L 1047.6675 255.833125 
" style="fill: none; stroke: #f0f0f0; stroke-width: 3; stroke-linejoin: miter; stroke-linecap: square"/>
   </g>
   <g id="patch_6">
    <path d="M 34.62 44.24 
L 1047.6675 44.24 
" style="fill: none; stroke: #f0f0f0; stroke-width: 3; stroke-linejoin: miter; stroke-linecap: square"/>
   </g>
   <g id="PathCollection_1">
    <defs>
     <path id="mbedbdd8240" d="M 0 3 
C 0.795609 3 1.55874 2.683901 2.12132 2.12132 
C 2.683901 1.55874 3 0.795609 3 0 
C 3 -0.795609 2.683901 -1.55874 2.12132 -2.12132 
C 1.55874 -2.683901 0.795609 -3 0 -3 
C -0.795609 -3 -1.55874 -2.683901 -2.12132 -2.12132 
C -2.683901 -1.55874 -3 -0.795609 -3 0 
C -3 0.795609 -2.683901 1.55874 -2.12132 2.12132 
C -1.55874 2.683901 -0.795609 3 0 3 
z
" style="stroke: #3e3e3e; stroke-width: 0.5"/>
    </defs>
    <g clip-path="url(#pac6b6ebf51)">
     <use xlink:href="#mbedbdd8240" x="97.935469" y="169.782389" style="fill: #ffffff; stroke: #3e3e3e; stroke-width: 0.5"/>
    </g>
   </g>
   <g id="PathCollection_2">
    <g clip-path="url(#pac6b6ebf51)">
     <use xlink:href="#mbedbdd8240" x="224.566406" y="176.540827" style="fill: #ffffff; stroke: #3e3e3e; stroke-width: 0.5"/>
    </g>
   </g>
   <g id="PathCollection_3">
    <g clip-path="url(#pac6b6ebf51)">
     <use xlink:href="#mbedbdd8240" x="351.197344" y="174.696315" style="fill: #ffffff; stroke: #3e3e3e; stroke-width: 0.5"/>
    </g>
   </g>
   <g id="PathCollection_4">
    <g clip-path="url(#pac6b6ebf51)">
     <use xlink:href="#mbedbdd8240" x="477.828281" y="172.972367" style="fill: #ffffff; stroke: #3e3e3e; stroke-width: 0.5"/>
    </g>
   </g>
   <g id="PathCollection_5">
    <g clip-path="url(#pac6b6ebf51)">
     <use xlink:href="#mbedbdd8240" x="604.459219" y="177.288632" style="fill: #ffffff; stroke: #3e3e3e; stroke-width: 0.5"/>
    </g>
   </g>
   <g id="PathCollection_6">
    <g clip-path="url(#pac6b6ebf51)">
     <use xlink:href="#mbedbdd8240" x="731.090156" y="175.971251" style="fill: #ffffff; stroke: #3e3e3e; stroke-width: 0.5"/>
    </g>
   </g>
   <g id="PathCollection_7">
    <g clip-path="url(#pac6b6ebf51)">
     <use xlink:href="#mbedbdd8240" x="857.721094" y="177.31203" style="fill: #ffffff; stroke: #3e3e3e; stroke-width: 0.5"/>
    </g>
   </g>
   <g id="PathCollection_8">
    <g clip-path="url(#pac6b6ebf51)">
     <use xlink:href="#mbedbdd8240" x="984.352031" y="179.594468" style="fill: #ffffff; stroke: #3e3e3e; stroke-width: 0.5"/>
    </g>
   </g>
  </g>
  <g id="text_18">
   <!-- Violin Plot of all Continuous Variables -->
   <g style="fill: #262626" transform="translate(416.035547 16.496719)scale(0.15 -0.15)">
    <defs>
     <path id="ArialMT-50" d="M 494 0 
L 494 4581 
L 2222 4581 
Q 2678 4581 2919 4538 
Q 3256 4481 3484 4323 
Q 3713 4166 3852 3881 
Q 3991 3597 3991 3256 
Q 3991 2672 3619 2267 
Q 3247 1863 2275 1863 
L 1100 1863 
L 1100 0 
L 494 0 
z
M 1100 2403 
L 2284 2403 
Q 2872 2403 3119 2622 
Q 3366 2841 3366 3238 
Q 3366 3525 3220 3729 
Q 3075 3934 2838 4000 
Q 2684 4041 2272 4041 
L 1100 4041 
L 1100 2403 
z
" transform="scale(0.015625)"/>
    </defs>
    <use xlink:href="#ArialMT-56"/>
    <use xlink:href="#ArialMT-69" x="64.949219"/>
    <use xlink:href="#ArialMT-6f" x="87.166016"/>
    <use xlink:href="#ArialMT-6c" x="142.78125"/>
    <use xlink:href="#ArialMT-69" x="164.998047"/>
    <use xlink:href="#ArialMT-6e" x="187.214844"/>
    <use xlink:href="#ArialMT-20" x="242.830078"/>
    <use xlink:href="#ArialMT-50" x="270.613281"/>
    <use xlink:href="#ArialMT-6c" x="337.3125"/>
    <use xlink:href="#ArialMT-6f" x="359.529297"/>
    <use xlink:href="#ArialMT-74" x="415.144531"/>
    <use xlink:href="#ArialMT-20" x="442.927734"/>
    <use xlink:href="#ArialMT-6f" x="470.710938"/>
    <use xlink:href="#ArialMT-66" x="526.326172"/>
    <use xlink:href="#ArialMT-20" x="554.109375"/>
    <use xlink:href="#ArialMT-61" x="581.892578"/>
    <use xlink:href="#ArialMT-6c" x="637.507812"/>
    <use xlink:href="#ArialMT-6c" x="659.724609"/>
    <use xlink:href="#ArialMT-20" x="681.941406"/>
    <use xlink:href="#ArialMT-43" x="709.724609"/>
    <use xlink:href="#ArialMT-6f" x="781.941406"/>
    <use xlink:href="#ArialMT-6e" x="837.556641"/>
    <use xlink:href="#ArialMT-74" x="893.171875"/>
    <use xlink:href="#ArialMT-69" x="920.955078"/>
    <use xlink:href="#ArialMT-6e" x="943.171875"/>
    <use xlink:href="#ArialMT-75" x="998.787109"/>
    <use xlink:href="#ArialMT-6f" x="1054.402344"/>
    <use xlink:href="#ArialMT-75" x="1110.017578"/>
    <use xlink:href="#ArialMT-73" x="1165.632812"/>
    <use xlink:href="#ArialMT-20" x="1215.632812"/>
    <use xlink:href="#ArialMT-56" x="1243.416016"/>
    <use xlink:href="#ArialMT-61" x="1302.740234"/>
    <use xlink:href="#ArialMT-72" x="1358.355469"/>
    <use xlink:href="#ArialMT-69" x="1391.65625"/>
    <use xlink:href="#ArialMT-61" x="1413.873047"/>
    <use xlink:href="#ArialMT-62" x="1469.488281"/>
    <use xlink:href="#ArialMT-6c" x="1525.103516"/>
    <use xlink:href="#ArialMT-65" x="1547.320312"/>
    <use xlink:href="#ArialMT-73" x="1602.935547"/>
   </g>
  </g>
 </g>
 <defs>
  <clipPath id="pac6b6ebf51">
   <rect x="34.62" y="44.24" width="1013.0475" height="211.593125"/>
  </clipPath>
 </defs>
</svg>
